<svg xmlns="http://www.w3.org/2000/svg" width="30" height="30" fill="none" viewBox="0 0 30 30"><path stroke="#222" stroke-linejoin="round" stroke-miterlimit="10" stroke-width="1.5" d="M21.25 3.75H8.75C6.625 3.75 5 5.375 5 7.5v1c0 1-.125 1.875-.5 2.875-.375 1.375-1.75 2.375-3.25 2.375v2.5c1.5 0 2.875 1 3.25 2.375.375.875.5 1.875.5 2.875v1c0 2.125 1.625 3.75 3.75 3.75h12.5c2.125 0 3.75-1.625 3.75-3.75v-1c0-1 .125-1.875.5-2.875.5-1.375 1.75-2.375 3.25-2.375v-2.5c-1.5 0-2.875-1-3.25-2.375C25.125 10.5 25 9.5 25 8.5v-1c0-2.125-1.625-3.75-3.75-3.75Z"/><path stroke="#222" stroke-linecap="round" stroke-linejoin="round" stroke-miterlimit="10" stroke-width="1.5" d="M12.25 15h3.625c1.5 0 2.625 1.125 2.625 2.625s-1.125 2.625-2.625 2.625H12.25V9.75h3.625c1.5 0 2.625 1.125 2.625 2.625S17.375 15 15.875 15z"/></svg>