<svg xmlns="http://www.w3.org/2000/svg" width="30" height="30" fill="none" viewBox="0 0 30 30"><path stroke="#222" stroke-linecap="round" stroke-linejoin="round" stroke-width="1.5" d="M17.5 20a7.43 7.43 0 0 1-2.5 5.574 7.4 7.4 0 0 1-5 1.925A7.506 7.506 0 0 1 2.5 20c0-3.45 2.35-6.375 5.525-7.237a7.52 7.52 0 0 0 5 4.475A7.3 7.3 0 0 0 15 17.5c.688 0 1.35-.087 1.975-.262.337.85.525 1.787.525 2.762"/><path stroke="#222" stroke-linecap="round" stroke-linejoin="round" stroke-width="1.5" d="M22.5 10c0 .975-.187 1.912-.525 2.762a7.52 7.52 0 0 1-5 4.476A7.3 7.3 0 0 1 15 17.5c-.687 0-1.35-.087-1.975-.262a7.52 7.52 0 0 1-5-4.475A7.506 7.506 0 0 1 15 2.5c4.137-.001 7.5 3.362 7.5 7.499"/><path stroke="#222" stroke-linecap="round" stroke-linejoin="round" stroke-width="1.5" d="M27.5 20c0 4.137-3.363 7.5-7.5 7.5a7.4 7.4 0 0 1-5-1.926A7.43 7.43 0 0 0 17.5 20c0-.975-.187-1.912-.525-2.762a7.52 7.52 0 0 0 5-4.475C25.15 13.625 27.5 16.55 27.5 20"/></svg>