<svg xmlns="http://www.w3.org/2000/svg" width="32" height="32" fill="none" viewBox="0 0 32 32"><path stroke="#222" stroke-linecap="round" stroke-linejoin="round" stroke-width="1.5" d="M19.9 16.87v4.095c0 3.42-1.365 4.785-4.785 4.785h-4.08c-3.405 0-4.785-1.365-4.785-4.785V16.87c0-3.405 1.365-4.77 4.785-4.77h4.095c3.405 0 4.77 1.365 4.77 4.77"/><path stroke="#222" stroke-linecap="round" stroke-linejoin="round" stroke-width="1.5" d="M25.75 11.02v4.095c0 3.42-1.365 4.785-4.785 4.785H19.9v-3.03c0-3.405-1.365-4.77-4.785-4.77H12.1v-1.08c0-3.42 1.365-4.77 4.785-4.77h4.095c3.405 0 4.77 1.365 4.77 4.77M31 20.5C31 26.305 26.305 31 20.5 31l1.575-2.625M1 11.5C1 5.695 5.695 1 11.5 1L9.925 3.625"/></svg>