<svg xmlns="http://www.w3.org/2000/svg" width="30" height="30" fill="none" viewBox="0 0 30 30"><path stroke="#222" stroke-linecap="round" stroke-linejoin="round" stroke-miterlimit="10" stroke-width="1.5" d="M6.25 12.5h2.5q3.75 0 3.75-3.75v-2.5q0-3.75-3.75-3.75h-2.5Q2.5 2.5 2.5 6.25v2.5q0 3.75 3.75 3.75m15 0h2.5q3.75 0 3.75-3.75v-2.5q0-3.75-3.75-3.75h-2.5q-3.75 0-3.75 3.75v2.5q0 3.75 3.75 3.75m0 15h2.5q3.75 0 3.75-3.75v-2.5q0-3.75-3.75-3.75h-2.5q-3.75 0-3.75 3.75v2.5q0 3.75 3.75 3.75m-15 0h2.5q3.75 0 3.75-3.75v-2.5q0-3.75-3.75-3.75h-2.5q-3.75 0-3.75 3.75v2.5q0 3.75 3.75 3.75"/></svg>