<svg xmlns="http://www.w3.org/2000/svg" width="30" height="30" fill="none" viewBox="0 0 30 30"><path fill="#222" d="M27.56 3.67C26.662.146 20.818-1.013 15.288.952c-3.292 1.17-6.855 3.005-9.417 5.401-3.046 2.85-3.532 5.33-3.332 6.365.707 3.657 5.717 6.047 7.776 7.82v.01c-.607.3-5.052 2.549-6.092 4.849-1.098 2.426.174 4.167 1.017 4.401 2.61.726 5.288-.58 6.727-2.727 1.389-2.071 1.273-4.747.67-6.077.832-.22 1.803-.318 3.036-.174 3.481.406 4.164 2.58 4.033 3.49-.13.909-.86 1.41-1.104 1.56s-.319.203-.298.316c.03.163.142.157.35.122.287-.049 1.828-.74 1.894-2.42.084-2.131-1.959-4.516-5.576-4.454-1.49.026-2.427.168-3.103.42l-.154-.17c-2.236-2.386-6.37-4.074-6.195-7.281.064-1.166.47-4.237 7.944-7.961C19.587 1.39 24.488 2.23 25.335 4.09c1.21 2.658-2.62 7.599-8.978 8.312-2.422.271-3.698-.668-4.015-1.017-.335-.368-.384-.385-.509-.316-.203.112-.074.438 0 .631.19.494.969 1.37 2.297 1.806 1.169.384 4.013.594 7.453-.736 3.852-1.49 6.86-5.636 5.977-9.1M11.17 21.63c.288 1.068.257 2.064-.041 2.966a5.4 5.4 0 0 1-1.155 1.923c-1.153 1.258-2.764 1.733-3.454 1.333-.746-.433-.373-2.206.964-3.62 1.438-1.52 3.507-2.497 3.507-2.497l-.003-.006z"/></svg>