<svg xmlns="http://www.w3.org/2000/svg" width="30" height="30" fill="none" viewBox="0 0 30 30"><path stroke="#222" stroke-linecap="round" stroke-linejoin="round" stroke-width="1.5" d="M26.25 14.375c0 6.563-5.312 11.875-11.875 11.875S2.5 20.938 2.5 14.375 7.813 2.5 14.375 2.5m13.125 25L25 25"/><path stroke="#222" stroke-linecap="round" stroke-linejoin="round" stroke-width="1.5" d="M18.125 7.662c-.438-1.375.075-3.088 1.525-3.55.762-.25 1.7-.038 2.237.7.5-.763 1.475-.938 2.225-.7 1.45.462 1.963 2.175 1.525 3.55-.687 2.187-3.087 3.325-3.75 3.325-.675 0-3.05-1.113-3.762-3.325"/></svg>