<svg xmlns="http://www.w3.org/2000/svg" width="30" height="30" fill="none" viewBox="0 0 30 30"><g stroke="#000" stroke-linecap="round" stroke-linejoin="round" stroke-miterlimit="10" stroke-width="1.5" clip-path="url(#a)"><path d="M27.3 19.123a6.215 6.215 0 1 0-8.788-8.79 6.215 6.215 0 0 0 8.789 8.79"/><path d="M24.905 14.729a1.999 1.999 0 0 1-3.997 0m-16.15 14.38h7.371a3.07 3.07 0 0 0 2.77-1.753l1.514-3.198c.695-1.468-.372-3.16-1.996-3.163l-2.87-.009.533-2.299a2.057 2.057 0 0 0-1.584-2.478h-.64l-1.212 2.56a4.8 4.8 0 0 1-1.633 1.909l-2.253 1.534m3.185-9.71L2.185 7.6C-.543 5.306 1.33.963 4.772.894a4.02 4.02 0 0 1 3.171 1.401 4.02 4.02 0 0 1 3.17-1.4C14.56.962 16.43 5.312 13.7 7.606zM.896 22.21h3.862v6.894H.896z"/></g><defs><clipPath id="a"><path fill="#fff" d="M0 0h30v30H0z"/></clipPath></defs></svg>