<svg xmlns="http://www.w3.org/2000/svg" width="30" height="30" fill="none" viewBox="0 0 30 30"><path stroke="#000" stroke-linecap="round" stroke-linejoin="round" stroke-miterlimit="10" stroke-width="1.5" d="M14.108 13.887V7.969a1.758 1.758 0 1 0-3.516 0v9.375"/><path stroke="#000" stroke-linecap="round" stroke-linejoin="round" stroke-miterlimit="10" stroke-width="1.5" d="M17.624 14.77v-.647a1.758 1.758 0 1 0-3.516 0v.647m7.04.582v-.584a1.758 1.758 0 1 0-3.516 0v.584"/><path stroke="#000" stroke-linecap="round" stroke-linejoin="round" stroke-miterlimit="10" stroke-width="1.5" d="M10.592 19.395V15a3.5 3.5 0 0 0-3.498 3.516l.01 1.938a6.49 6.49 0 0 0 3.506 5.737 2.93 2.93 0 0 0 2.93 2.93h6.193a2.93 2.93 0 0 0 2.93-2.93v-.582a5.9 5.9 0 0 0 2.01-4.437v-5.819a1.758 1.758 0 1 0-3.516 0v.589m-3.525-7.973h1.758m-3.302-3.73 1.243-1.242M8.63 4.24 7.387 2.997m-2.06 4.972h1.758m5.274-5.39v-1.7"/></svg>