<svg xmlns="http://www.w3.org/2000/svg" width="30" height="30" fill="none" viewBox="0 0 30 30"><g fill="#222" clip-path="url(#a)"><path d="m7.952 7.089 2.847 9.684 2.848-9.684h7.72v.963L18.46 13.06q1.53.49 2.316 1.787.786 1.298.787 3.045 0 2.161-1.15 3.634T17.438 23q-1.375 0-2.395-.874-1.022-.874-1.512-2.367l1.61-.668q.354.904.933 1.424.578.52 1.364.52.825 0 1.395-.922.57-.923.57-2.22 0-1.435-.609-2.22-.708-.923-2.22-.924h-.785v-.942l2.75-4.754H15.22l-.189.321-4.036 13.623H10.8l-2.946-9.86-2.945 9.86h-.196L0 7.088h2.062l2.847 9.684 1.925-6.52-.943-3.163zv-.001zM29.553 7l.334 2.031-1.183 2.263s-.453-.96-1.207-1.491c-.635-.448-1.05-.545-1.697-.411-.83.171-1.773 1.165-2.185 2.39-.492 1.467-.497 2.177-.514 2.829-.028 1.045.137 1.662.137 1.662s-.718-1.328-.711-3.273c.004-1.39.223-2.649.865-3.891.565-1.093 1.405-1.749 2.151-1.826.771-.08 1.38.292 1.85.694.495.423.994 1.346.994 1.346L29.55 7zm.147 11.49s-.523.935-.849 1.295-.908.994-1.627 1.312c-.72.317-1.097.376-1.808.308-.71-.068-1.37-.48-1.602-.651s-.822-.677-1.157-1.149c-.334-.471-.857-1.414-.857-1.414s.291.945.474 1.346c.104.231.427.937.884 1.551.427.573 1.256 1.56 2.515 1.782 1.26.224 2.125-.342 2.339-.48.214-.136.665-.514.951-.82.298-.32.58-.726.737-.97.114-.179.3-.54.3-.54l-.3-1.568z"/></g><defs><clipPath id="a"><path fill="#fff" d="M0 0h30v30H0z"/></clipPath></defs></svg>