<svg width="0" height="0" fill="none" style="visibility: hidden; position: absolute;" aria-hidden="true">
    <symbol id="address" xmlns="http://www.w3.org/2000/svg" data-name="Layer 1" viewBox="0 0 890 641">
        <path id="e17a72e2-051a-4020-aba1-9f6eb9c0d39e-316__address" data-name="Path 133"
            d="M633.92226,746.82993a76.67275,76.67275,0,0,1-3.58207,21.19472c-.04841.15925-.10214.3161-.15442.47535H616.81932c.014-.14279.02855-.30207.0426-.47535.89116-10.2457-4.20022-71.86071-10.344-82.52465C607.05623,686.36505,634.95863,714.2747,633.92226,746.82993Z"
            transform="translate(-155 -129.5)" fill="#f1f1f1" />
        <path id="eeb1bfad-c599-4325-99ca-33d947eaa4a4-317__address" data-name="Path 134"
            d="M632.91925,768.02465c-.11181.15925-.228.31853-.34708.47535H622.54431c.076-.13555.16409-.2948.26622-.47535,1.65647-2.98959,6.55955-11.92831,11.11072-21.19472,4.889-9.95816,9.37825-20.29389,9.00019-24.03472C643.0386,723.63843,646.42316,749.35868,632.91925,768.02465Z"
            transform="translate(-155 -129.5)" fill="#f1f1f1" />
        <path id="ae98919c-3cd0-4dbe-b2ac-5e07dd542ed3-318__address" data-name="Path 133"
            d="M991.11346,754.14032A50.80739,50.80739,0,0,1,988.7398,768.185c-.03208.10553-.06768.20946-.10233.315h-8.85729c.0093-.09462.01893-.20016.02824-.315.59052-6.78932-2.78328-47.61854-6.85443-54.685C973.31067,714.07322,991.80021,732.56757,991.11346,754.14032Z"
            transform="translate(-155 -129.5)" fill="#f1f1f1" />
        <path id="a16e0e44-34bc-470c-a8b9-bb95dad5f0bc-319__address" data-name="Path 134"
            d="M990.44882,768.185c-.0741.10553-.15109.21107-.23.315h-6.645c.05037-.08982.10874-.19535.17642-.315,1.09766-1.981,4.34669-7.9043,7.36252-14.04469,3.23973-6.59879,6.2145-13.44776,5.964-15.92662C997.15441,738.77245,999.39719,755.816,990.44882,768.185Z"
            transform="translate(-155 -129.5)" fill="#f1f1f1" />
        <path id="a04afbcd-fd0f-46da-9369-89d0f07bdf03-320__address" data-name="Path 133"
            d="M564.11346,754.14032A50.80739,50.80739,0,0,1,561.7398,768.185c-.03208.10553-.06768.20946-.10233.315h-8.85729c.0093-.09462.01893-.20016.02824-.315.59052-6.78932-2.78328-47.61854-6.85443-54.685C546.31067,714.07322,564.80021,732.56757,564.11346,754.14032Z"
            transform="translate(-155 -129.5)" fill="#f1f1f1" />
        <path id="a6089e43-5613-4c9c-8352-b83c87f66fb2-321__address" data-name="Path 134"
            d="M563.44882,768.185c-.0741.10553-.15109.21107-.23.315h-6.645c.05037-.08982.10874-.19535.17642-.315,1.09766-1.981,4.34669-7.9043,7.36252-14.04469,3.23973-6.59879,6.2145-13.44776,5.964-15.92662C570.15441,738.77245,572.39719,755.816,563.44882,768.185Z"
            transform="translate(-155 -129.5)" fill="#f1f1f1" />
        <path d="M373.47345,129.5l-99.2507,163.458L561.116,467.15784l99.2507-163.458Z"
            transform="translate(-155 -129.5)" fill="#fff" />
        <path
            d="M373.47345,129.5l-99.2507,163.458L561.116,467.15784l99.2507-163.458ZM559.25332,459.53647,281.84413,291.09529l93.492-153.97392L652.74535,305.56255Z"
            transform="translate(-155 -129.5)" fill="#e5e5e5" />
        <rect x="479.58177" y="108.05089" width="5.54775" height="329.16632"
            transform="matrix(0.51901, -0.85477, 0.85477, 0.51901, -156.03068, 413.93648)" fill="#e5e5e5" />
        <rect x="440.10243" y="173.07021" width="5.54775" height="329.16632"
            transform="translate(-230.59629 411.46444) rotate(-58.73413)" fill="#e5e5e5" />
        <rect x="308.84735" y="257.40384" width="191.23079" height="5.54775"
            transform="translate(-182.8491 341.36473) rotate(-58.73413)" fill="#e5e5e5" />
        <polygon points="455.575 143.967 356.325 307.425 351.386 304.87 450.833 141.087 455.575 143.967"
            fill="#e5e5e5" />
        <polygon
            points="358.537 308.768 356.325 307.425 351.386 304.87 351.203 304.315 348.503 296.185 328.53 236.083 325.83 227.953 291.49 124.599 288.789 116.469 279.082 87.242 276.787 80.332 260.786 32.182 258.085 24.052 265.42 28.505 268.12 36.635 280.569 74.104 282.863 81.014 296.124 120.923 298.824 129.053 333.164 232.407 335.865 240.537 355.172 298.634 355.837 300.639 357.467 305.544 358.537 308.768"
            fill="#e5e5e5" />
        <path
            d="M502.45261,384.40067h-2.76478V308.66049a43.83635,43.83635,0,0,0-43.83631-43.83639H295.38562a43.83634,43.83634,0,0,0-43.83643,43.83626V724.177a43.83635,43.83635,0,0,0,43.83631,43.83639H455.85131a43.83636,43.83636,0,0,0,43.83648-43.83622V438.31383h2.76482Z"
            transform="translate(-155 -129.5)" fill="#3f3d56" />
        <path
            d="M457.62017,276.22881h-20.9461a15.55305,15.55305,0,0,1-14.4,21.427H330.34525a15.553,15.553,0,0,1-14.4-21.427H296.38154A32.73651,32.73651,0,0,0,263.645,308.96524v414.907a32.7365,32.7365,0,0,0,32.73648,32.73652H457.62017a32.7365,32.7365,0,0,0,32.73652-32.73648h0v-414.907A32.73647,32.73647,0,0,0,457.62017,276.22881Z"
            transform="translate(-155 -129.5)" fill="#fff" />
        <rect x="187.45579" y="262.96512" width="69.09012" height="16.67207" fill="rgba(var(--primary-color),1)"
            style="isolation:isolate" />
        <rect x="184.16654" y="334.60431" width="75.66863" height="16.67207" fill="#e5e5e5" />
        <rect x="137.55826" y="370.41799" width="168.88519" height="16.67207" fill="#e5e5e5" />
        <rect x="137.55826" y="406.23167" width="168.88519" height="16.67207" fill="#e5e5e5" />
        <rect x="187.4558" y="485.61019" width="69.09011" height="25.26218" fill="rgba(var(--primary-color),1)" />
        <circle cx="373.69597" cy="129.40877" r="7.64538" fill="rgba(var(--primary-color),1)" />
        <path
            d="M720.56886,577.68284a9.27637,9.27637,0,0,0,3.04837-13.89368l10.53039-18.39752-9.61935-9.12609-14.50605,26.18971a9.32662,9.32662,0,0,0,10.54664,15.22758Z"
            transform="translate(-155 -129.5)" fill="#ffb7b7" />
        <polygon points="624.771 626.538 611.408 626.538 605.05 574.995 624.773 574.996 624.771 626.538"
            fill="#ffb7b7" />
        <path
            d="M783.17844,768.99177l-43.08791-.0016v-.545a16.77191,16.77191,0,0,1,16.771-16.77075h.00106l26.31663.00107Z"
            transform="translate(-155 -129.5)" fill="#2f2e41" />
        <polygon points="737.616 609.36 725.831 615.661 695.921 573.205 713.314 563.906 737.616 609.36"
            fill="#ffb7b7" />
        <path
            d="M901.72879,748.67625l-37.998,20.31552-.257-.4806a16.77193,16.77193,0,0,1,6.88179-22.69727l.00094-.0005,23.20792-12.408Z"
            transform="translate(-155 -129.5)" fill="#2f2e41" />
        <path
            d="M829.58223,552.9255l2.992,61.76308s6.90331,2.59168,4.488,12.60907c0,0-3.38756,11.5405,4.27426,11.5405s37.64761,71.30934,37.64761,71.30934l-19.596,9.92864L807.91588,645.35,793.2842,595.44554l-7.8384,56.69777-.52256,87.52882-25.60545-2.87408L752.002,635.68267l-3.39664-77.07762Z"
            transform="translate(-155 -129.5)" fill="#2f2e41" />
        <polygon
            points="585.464 443.301 591.774 397.518 613.633 290.496 655.176 292.847 675.01 331.101 671.564 405.72 679.498 435.18 585.464 443.301"
            fill="#3f3d56" />
        <path
            d="M756.48286,507.74024l-24.95122,47.4975-3.908,9.31913L716.20017,551.0291,731.85992,495.698s14.16834-68.6046,36.6928-75.58768L774,421Z"
            transform="translate(-155 -129.5)" fill="#3f3d56" />
        <path
            d="M815.96008,564.06676a9.27639,9.27639,0,0,0,5.11982-13.27082l13.19824-16.58806-8.12433-10.47916-18.30946,23.68735a9.32662,9.32662,0,0,0,8.11573,16.65069Z"
            transform="translate(-155 -129.5)" fill="#ffb7b7" />
        <path
            d="M802.43209,429.12887l7.36512-7.06451s8.65176,3.21934,14.88055,19.84073,26.49948,61.62651,26.49948,61.62651l-19.84072,40.28269-13.37747-8.86821,7.21481-35.47281Z"
            transform="translate(-155 -129.5)" fill="#3f3d56" />
        <circle cx="630.46418" cy="263.82403" r="22.01302" fill="#ffb7b7" />
        <path
            d="M806.16775,375.72575l1.06717-2.14791-5.36978-2.66794s-5.92372-9.63854-16.64292-6.9299-15.54193,4.3297-15.54193,4.3297l-5.35619,2.69506,2.68825,2.67472-4.82262,1.62112,3.22185,1.60076-3.74871,2.15468,2.018,11.04564s3.35177-8.37769,9.79546-5.17618,18.23018-1.655,18.23018-1.655l10.23986,19.81736s2.11248-6.947,5.87892-5.09459C807.82536,397.99332,817.44762,382.66917,806.16775,375.72575Z"
            transform="translate(-155 -129.5)" fill="#2f2e41" />
        <path d="M1044,770.5H156a1,1,0,0,1,0-2h888a1,1,0,0,1,0,2Z" transform="translate(-155 -129.5)" fill="#cbcbcb" />
    </symbol>
    <symbol id="notification" xmlns="http://www.w3.org/2000/svg" data-name="Layer 1" viewBox="0 0 657.99124 512.53">
        <path
            d="M530.696,329.75826a13.11407,13.11407,0,0,0-.75717,1.92131l-59.16128,17.831-10.954-10.26356-17.65025,14.507,17.62618,20.05417a9.96748,9.96748,0,0,0,11.709,2.44875l63.679-29.77828a13.0787,13.0787,0,1,0-4.49138-16.72041Z"
            transform="translate(-271.00438 -193.735)" fill="#ffb6b6" />
        <path
            d="M468.81379,350.2319,447.048,368.34557a5.60675,5.60675,0,0,1-8.37488-1.39312L423.98932,342.8404A15.571,15.571,0,0,1,447.98465,322.99L468.965,341.74329a5.60675,5.60675,0,0,1-.15122,8.48861Z"
            transform="translate(-271.00438 -193.735)" fill="#3f3d56" />
        <path
            d="M527.26275,651.82131l9.47381-6.03528a141.38928,141.38928,0,0,0,.40722-15.93137l-4.91442,1.25556,4.85063-3.09c-.26791-6.56876-.86121-10.90172-.86121-10.90172s-19.15482,12.44206-31.37126,29.30667l2.08318,14.26309-4.9681-9.97458a57.199,57.199,0,0,0-3.41785,6.324c-10.06525,21.98884-11.04334,43.10159-2.18448,47.15668s24.19979-10.48311,34.26506-32.47195A75.30884,75.30884,0,0,0,536.3605,649.497Z"
            transform="translate(-271.00438 -193.735)" fill="#e6e6e6" />
        <path
            d="M546.723,673.04564l11.22966-.26943a141.38719,141.38719,0,0,0,8.58354-13.42749l-4.85594-1.46544,5.74958-.13792c3.16606-5.76163,4.89791-9.77755,4.89791-9.77755s-22.82871.74979-42.00387,8.872l-5.58932,13.28666.903-11.10673a57.20134,57.20134,0,0,0-6.19473,3.647c-19.9824,13.62068-31.73284,31.18859-26.24538,39.23906s26.13486,3.53489,46.11722-10.08578a75.309,75.309,0,0,0,16.398-16.06145Z"
            transform="translate(-271.00438 -193.735)" fill="#e6e6e6" />
        <polygon points="209.349 499.141 221.609 499.14 226.208 451.454 209.347 451.853 209.349 499.141"
            fill="#ffb6b6" />
        <path d="M477.22638,688.87313l24.144-.001h.001a15.3873,15.3873,0,0,1,15.38647,15.38623v.5l-39.53076.00146Z"
            transform="translate(-271.00438 -193.735)" fill="#2f2e41" />
        <polygon points="64.712 463.751 72.753 473.005 112.275 446.394 100.407 432.735 64.712 463.751" fill="#ffb6b6" />
        <path
            d="M336.687,652.49968,352.52283,670.725l.00064.00073A15.38729,15.38729,0,0,1,351,692.43192l-.37744.32793-25.92767-29.84019Z"
            transform="translate(-271.00438 -193.735)" fill="#2f2e41" />
        <path d="M272.19507,706.265h334.294a1.19068,1.19068,0,1,0,0-2.38137h-334.294a1.19069,1.19069,0,1,0,0,2.38137Z"
            transform="translate(-271.00438 -193.735)" fill="#cacaca" />
        <path d="M453.41806,580.627l25.79454,95.56236h20l-4.3928-104.514L483.225,469.84933l-42.1156-2.23791Z"
            transform="translate(-271.00438 -193.735)" fill="#2f2e41" />
        <path
            d="M408.65939,469.84927s-2.23791,14.54657,6.71381,30.2121,3.35687,68.257,3.35687,68.257L343.2126,644.18934s11.73635,20.36019,17.33119,19.24123S454.537,590.69772,454.537,590.69772l28.688-116.37256Z"
            transform="translate(-271.00438 -193.735)" fill="#2f2e41" />
        <circle cx="179.29466" cy="80.98649" r="25.73625" fill="#ffb6b6" />
        <path
            d="M449.2126,315.18934s-30-11.3569-30-8-29.5756,31.74083-22.8618,68.66674,14.54657,54.82937,11.18964,74.97079-1.119,24.61725-1.119,24.61725,77.92248,6.71381,79.04144-1.119-3.25026-19.77888-3.25026-23.13576S451.29333,323.82785,449.2126,315.18934Z"
            transform="translate(-271.00438 -193.735)" fill="#3f3d56" />
        <path
            d="M438.65054,290.18628c2.0835-1.10163,4.50373-1.32871,6.75892-2.01343,8.06829-2.44974,13.4732-11.5705,11.74762-19.824a10.11478,10.11478,0,0,1-.42377-3.26724c.30163-2.44446,2.80292-4.0217,5.20135-4.58179s4.95038-.47873,7.2428-1.37936c3.53955-1.39059,5.89069-5.02808,6.40039-8.79669a18.171,18.171,0,0,0-2.42731-10.952l-.86633,2.493a9.24692,9.24692,0,0,1-2.83075-4.23376,5.83213,5.83213,0,0,0-4.44348,3.5733c-1.39062.82-1.591-2.54754-3.127-3.04434a2.75911,2.75911,0,0,0-1.91724.4729c-3.09521,1.4436-6.69134.20932-10.0116-.59088a37.68771,37.68771,0,0,0-17.4953-.0206c-3.82183.91159-7.60479,2.499-10.3396,5.32a24.80848,24.80848,0,0,0-4.83679,8.31134c-2.93323,7.38193-4.87091,15.36941-3.90265,23.25351a32.91457,32.91457,0,0,0,7.75684,17.43942c2.21466,2.55167,9.44031,11.45374,13.40222,9.936C439.51706,300.37463,432.78494,293.28759,438.65054,290.18628Z"
            transform="translate(-271.00438 -193.735)" fill="#2f2e41" />
        <rect x="427.01599" y="551.51707" id="notification__notification"
            transform="translate(-485.62156 599.33913) rotate(-69.12314)" opacity="0.2" style="isolation:isolate" />
        <path
            d="M545.87377,318.19025a7.07362,7.07362,0,0,0-7.06529,7.06529v78.54193a7.07362,7.07362,0,0,0,7.06529,7.06528H921.93033a7.07361,7.07361,0,0,0,7.06529-7.06528V325.25555a7.0736,7.0736,0,0,0-7.06529-7.06528Z"
            transform="translate(-271.00438 -193.735)" fill="#e6e6e6" />
        <path
            d="M548.41423,323.69965a4.10124,4.10124,0,0,0-4.09712,4.09635v73.461a4.10135,4.10135,0,0,0,4.097,4.09635H919.38987a4.10012,4.10012,0,0,0,4.09566-4.09635V327.796a4.10012,4.10012,0,0,0-4.09566-4.09635Z"
            transform="translate(-271.00438 -193.735)" fill="#fff" />
        <path
            d="M896.09755,385.20922a6.656,6.656,0,0,0,.018-13.31189c-.006,0-.012,0-.018,0H582.31767a6.656,6.656,0,0,0,0,13.31189Z"
            transform="translate(-271.00438 -193.735)" fill="#e6e6e6" />
        <path d="M717.338,356.29267a6.65594,6.65594,0,1,0,0-13.31187H582.31767a6.65594,6.65594,0,1,0,0,13.31187Z"
            transform="translate(-271.00438 -193.735)" fill="rgba(var(--primary-color),1)" />
        <path
            d="M600.83711,469.735a5.00588,5.00588,0,0,0-5,5v55.583a5.00589,5.00589,0,0,0,5,5H866.967a5.00589,5.00589,0,0,0,5-5V474.735a5.00588,5.00588,0,0,0-5-5Z"
            transform="translate(-271.00438 -193.735)" fill="#e6e6e6" />
        <path
            d="M602.635,473.63392a2.90239,2.90239,0,0,0-2.89947,2.89893v51.98731a2.90245,2.90245,0,0,0,2.89941,2.89892H865.16914a2.9016,2.9016,0,0,0,2.89844-2.89892V476.53285a2.9016,2.9016,0,0,0-2.89844-2.89893Z"
            transform="translate(-271.00438 -193.735)" fill="#fff" />
        <path
            d="M848.6855,517.16337a4.71032,4.71032,0,0,0,.01275-9.42063c-.00427,0-.00848,0-.01275,0H626.62794a4.71032,4.71032,0,0,0,0,9.42063Z"
            transform="translate(-271.00438 -193.735)" fill="#e6e6e6" />
        <path d="M722.17994,496.69954a4.71032,4.71032,0,1,0,0-9.42063h-95.552a4.71032,4.71032,0,1,0,0,9.42063Z"
            transform="translate(-271.00438 -193.735)" fill="#e4e4e4" />
        <path
            d="M600.83711,193.735a5.00588,5.00588,0,0,0-5,5v55.583a5.00589,5.00589,0,0,0,5,5H866.967a5.00589,5.00589,0,0,0,5-5V198.735a5.00588,5.00588,0,0,0-5-5Z"
            transform="translate(-271.00438 -193.735)" fill="#e6e6e6" />
        <path
            d="M602.635,197.63392a2.90239,2.90239,0,0,0-2.89947,2.89893v51.98731a2.90245,2.90245,0,0,0,2.89941,2.89892H865.16914a2.9016,2.9016,0,0,0,2.89844-2.89892V200.53285a2.9016,2.9016,0,0,0-2.89844-2.89893Z"
            transform="translate(-271.00438 -193.735)" fill="#fff" />
        <path
            d="M848.6855,241.16337a4.71032,4.71032,0,0,0,.01275-9.42063c-.00427,0-.00848,0-.01275,0H626.62794a4.71032,4.71032,0,0,0,0,9.42063Z"
            transform="translate(-271.00438 -193.735)" fill="#e6e6e6" />
        <path d="M722.17994,220.69954a4.71032,4.71032,0,1,0,0-9.42063h-95.552a4.71032,4.71032,0,1,0,0,9.42063Z"
            transform="translate(-271.00438 -193.735)" fill="#e4e4e4" />
        <path
            d="M522.46133,374.84878a13.11484,13.11484,0,0,0-1.37393,1.54178l-61.67969-3.69006-6.73715-13.41426-21.5734,7.52156,9.619,24.90637a9.9675,9.9675,0,0,0,10.14364,6.34057l70.04426-5.963a13.07871,13.07871,0,1,0,1.55729-17.243Z"
            transform="translate(-271.00438 -193.735)" fill="#ffb6b6" />
        <path
            d="M457.31564,372.69953l-26.681,9.48559a5.60674,5.60674,0,0,1-7.379-4.19879L417.799,350.28741a15.571,15.571,0,0,1,29.37308-10.3458l13.21606,24.84344a5.60674,5.60674,0,0,1-3.07252,7.91448Z"
            transform="translate(-271.00438 -193.735)" fill="#3f3d56" />
        <circle cx="277.99124" cy="132.61828" r="17" fill="rgba(var(--primary-color),1)" />
    </symbol>
    <symbol id="order" xmlns="http://www.w3.org/2000/svg" data-name="Layer 1" viewBox="0 0 618.67538 487.32493">
        <path
            d="M439.19457,470.558c-4.93763-26.4263,2.83614-56.49071,24.44276-72.48657a123.86324,123.86324,0,0,0,25.82184,81.0254c6.93546,8.88938,15.575,18.05438,15.3066,29.32608-.16685,7.01352-3.95986,13.54729-8.95834,18.46962-4.99885,4.92244-11.15635,8.4713-17.24022,11.965l-.947,1.47318C459.78583,520.21435,444.13219,496.9843,439.19457,470.558Z"
            transform="translate(-290.66231 -206.33753)" fill="#f0f0f0" />
        <path
            d="M464.031,398.47542a105.86978,105.86978,0,0,0-6.98907,64.76135,45.59106,45.59106,0,0,0,4.82767,13.44405,26.14858,26.14858,0,0,0,9.87837,9.58161c3.77061,2.17874,7.87983,3.9707,11.05516,7.02808a16.01082,16.01082,0,0,1,4.71318,12.21634c-.152,5.62259-2.31531,10.85523-4.60862,15.8988-2.5463,5.59993-5.27982,11.37615-5.11468,17.672.02.76283-1.16482.74927-1.1848-.01241-.28731-10.95373,7.6319-19.75079,9.39647-30.26133.82338-4.9044.17374-10.08666-3.27429-13.88828-3.01516-3.32434-7.251-5.17585-11.08793-7.34888a27.90258,27.90258,0,0,1-10.008-9.00886,42.1481,42.1481,0,0,1-5.32674-13.20885,102.71242,102.71242,0,0,1-2.32806-32.01772,107.74713,107.74713,0,0,1,9.03456-35.46463c.31048-.69431,1.32523-.08107,1.01677.60871Z"
            transform="translate(-290.66231 -206.33753)" fill="#fff" />
        <path
            d="M455.1691,456.308a15.88384,15.88384,0,0,1-16.57127-12.18327c-.17318-.74241.97236-1.0464,1.14577-.303a14.70808,14.70808,0,0,0,15.4379,11.30147c.76028-.05715.74352,1.128-.0124,1.1848Z"
            transform="translate(-290.66231 -206.33753)" fill="#fff" />
        <path
            d="M469.69065,485.40952a30.61478,30.61478,0,0,0,7.6736-20.95c-.0173-.76288,1.16751-.74955,1.1848.0124a31.844,31.844,0,0,1-8.0294,21.7842c-.5077.57079-1.334-.27886-.829-.84655Z"
            transform="translate(-290.66231 -206.33753)" fill="#fff" />
        <path
            d="M456.335,421.81686a8.991,8.991,0,0,0,7.987-2.99869c.50022-.57694,1.326.27336.829.84655a10.07516,10.07516,0,0,1-8.82846,3.33694.61234.61234,0,0,1-.5862-.5986.59543.59543,0,0,1,.5986-.5862Z"
            transform="translate(-290.66231 -206.33753)" fill="#fff" />
        <path
            d="M551.99626,419.93c-.3021.36914-.60419.73828-.90372,1.1171a118.40662,118.40662,0,0,0-10.837,15.85813c-.25247.4268-.5019.86314-.74157,1.29631a124.827,124.827,0,0,0-14.56489,43.58858,121.22216,121.22216,0,0,0-1.1114,18.385c.13349,8.49015.95374,17.685-1.6487,25.49357a20.7962,20.7962,0,0,1-.93651,2.39744l-41.76166,13.30563c-.11008-.01739-.21761-.02515-.32816-.0424l-1.64313.6075c-.02711-.31672-.04842-.64578-.07553-.9625-.01649-.18365-.02368-.37027-.04017-.55392-.00805-.12337-.01565-.247-.03-.35783-.00284-.04105-.0052-.08226-.005-.11383-.01432-.11088-.01584-.21538-.02712-.31672-.12421-1.83906-.23913-3.68114-.33449-5.52939-.003-.00954-.003-.00954.00322-.022-.7168-14.07671-.26472-28.33693,2.33742-42.07519.07843-.4133.15335-.836.25085-1.25539a115.67539,115.67539,0,0,1,5.11549-18.17043,102.26,102.26,0,0,1,4.12386-9.4897,85.03636,85.03636,0,0,1,15.4366-21.64774c12.45869-12.68053,28.83416-21.23539,46.38074-21.50476C551.10433,419.93082,551.54435,419.927,551.99626,419.93Z"
            transform="translate(-290.66231 -206.33753)" fill="#f0f0f0" />
        <path
            d="M552.07125,420.48992a105.86977,105.86977,0,0,0-44.57119,47.50041,45.59089,45.59089,0,0,0-4.23962,13.64092,26.14852,26.14852,0,0,0,2.11853,13.59783c1.69887,4.00977,3.901,7.91459,4.59554,12.2675a16.01085,16.01085,0,0,1-3.59187,12.59173c-3.50659,4.39778-8.38424,7.27332-13.25191,9.91959-5.40461,2.93818-11.06486,5.9044-14.72356,11.03072-.4433.62113-1.38115-.103-.93852-.72323,6.3655-8.91892,17.985-11.175,25.722-18.50465,3.61022-3.42017,6.2116-7.949,5.74737-13.06037-.40595-4.46963-2.67333-8.49826-4.42856-12.54337a27.90252,27.90252,0,0,1-2.56685-13.21857,42.1476,42.1476,0,0,1,3.69953-13.75359,102.71244,102.71244,0,0,1,17.418-26.966,107.7471,107.7471,0,0,1,28.56574-22.87709c.66593-.36744,1.10694.73315.44536,1.09818Z"
            transform="translate(-290.66231 -206.33753)" fill="#fff" />
        <path
            d="M510.17631,461.33048a15.88383,15.88383,0,0,1-5.89607-19.7047c.30871-.697,1.40639-.25007,1.09727.4479a14.70809,14.70809,0,0,0,5.522,18.31828c.64145.41211-.08546,1.34828-.72323.93852Z"
            transform="translate(-290.66231 -206.33753)" fill="#fff" />
        <path
            d="M504.24981,493.30942a30.61481,30.61481,0,0,0,18.74032-12.1074c.44549-.61954,1.38348.10445.93853.72323a31.844,31.844,0,0,1-19.52661,12.55921c-.749.15008-.8972-1.02578-.15224-1.175Z"
            transform="translate(-290.66231 -206.33753)" fill="#fff" />
        <path
            d="M531.87321,434.4932a8.991,8.991,0,0,0,8.18263,2.41447c.74676-.1595.89413,1.01658.15224,1.175a10.07517,10.07517,0,0,1-9.0581-2.651.61234.61234,0,0,1-.10765-.83088.59542.59542,0,0,1,.83088-.10765Z"
            transform="translate(-290.66231 -206.33753)" fill="#fff" />
        <path
            d="M617.59461,275.42124a11.998,11.998,0,0,1,.27275,1.86948L666.83157,305.538l11.90145-6.85145,12.68763,16.60992-19.89042,14.17669a9.11865,9.11865,0,0,1-10.94032-.26653l-50.49052-39.83232a11.96492,11.96492,0,1,1,7.49522-13.953Z"
            transform="translate(-290.66231 -206.33753)" fill="#ffb6b6" />
        <path
            d="M667.51134,302.41921a5.12374,5.12374,0,0,1,2.55812-3.42018l22.60587-12.31694a14.24493,14.24493,0,0,1,17.22192,22.6952l-18.118,18.40583a5.12928,5.12928,0,0,1-7.7502-.50981L668.4298,306.59093A5.1235,5.1235,0,0,1,667.51134,302.41921Z"
            transform="translate(-290.66231 -206.33753)" fill="#3f3d56" />
        <path
            d="M707.89758,230.8132c3.25253-10.3657,10.64889-19.87274,20.87788-23.37691,10.22961-3.50416,25.20832,1.83383,32.89869,9.49818,14.06716,14.01962,17.50009,62.18212,7.83535,77.402-1.92234-.10176-8.55563-.177-10.50126-.24989l-2.75233-9.17342v9.083c-15.18626-.46933-30.99655-.17547-46.81542.12842C708.02264,283.34875,704.645,241.17889,707.89758,230.8132Z"
            transform="translate(-290.66231 -206.33753)" fill="#2f2e41" />
        <polygon points="412.883 459.573 399.032 459.573 392.443 406.146 412.886 406.147 412.883 459.573"
            fill="#ffb6b6" />
        <polygon points="534.137 450.96 520.734 454.453 500.881 404.416 520.663 399.261 534.137 450.96"
            fill="#ffb6b6" />
        <polygon
            points="457.805 131.433 460.944 139.593 460.316 147.753 398.892 169.028 401.94 133.316 408.844 125.155 457.805 131.433"
            fill="#ffb6b6" />
        <circle cx="438.38411" cy="36.06123" r="21.93835" fill="#ffb7b7" />
        <path
            d="M713.97213,213.83116a27.55525,27.55525,0,0,1,41.89371,24.04843c-11.95861,3.05648-24.70245,4.33492-38.20715.73613l-3.087-7.55528-1.82,7.56087q-6.19739,4.35942-11.96314-.0157A28.13543,28.13543,0,0,1,713.97213,213.83116Z"
            transform="translate(-290.66231 -206.33753)" fill="#2f2e41" />
        <path
            d="M709.74178,692.21133h-9.82872l-1.75438-9.27947-4.49323,9.27947H667.59736a5.85987,5.85987,0,0,1-3.32977-10.682l20.8172-14.37711V657.771l21.89607,1.3069Z"
            transform="translate(-290.66231 -206.33753)" fill="#2f2e41" />
        <path
            d="M838.64387,680.86813l-9.51091,2.47915-4.03827-8.53691-2.00733,10.11278-25.2252,6.5753a5.85987,5.85987,0,0,1-5.91649-9.49672l16.51768-19.16308-2.36628-9.07789,21.51772-4.25833Z"
            transform="translate(-290.66231 -206.33753)" fill="#2f2e41" />
        <path
            d="M823.09978,623.69868l-40.60126-83.44757L769.753,438.685c8.78784-16.32032-7.53247-49.52881-7.53247-49.52881V375.21321L699.00011,387.14v.00007a303.46685,303.46685,0,0,0-18.4925,110.18756L683.055,632.33753h-.79913a5,5,0,0,0,0,10h25a5,5,0,1,0,0-10h-.6446l17.947-171.75659,20.86791,84.75757,50.4297,78.03937a4.98737,4.98737,0,0,0,.4,9.95965h25a4.99479,4.99479,0,0,0,1.84387-9.63885Z"
            transform="translate(-290.66231 -206.33753)" fill="#2f2e41" />
        <path
            d="M767.93633,397.70436h-.00007a3.98673,3.98673,0,0,0-3.6051-2.99482c-.83331-9.52728-6.33935-70.62872-6.54883-72.42126l-.00817-.07581-1.5943-34.05774a5.03657,5.03657,0,0,0-4.70252-4.79034l-8.42078-.55042a.4456.4456,0,0,1-.4306-.44531,7.08138,7.08138,0,0,0-7.08136-7.08142H710.61345a6.63,6.63,0,0,0-6.57562,5.80383.44014.44014,0,0,1-.448.39612l-.003-.00006a11.84463,11.84463,0,0,0-11.91547,9.82434c-3.40838,19.831-10.23907,64.83985-6.86188,89.86218,1.17566,8.7107.6413,21.81159.19672,29.0998a5.36474,5.36474,0,0,0,1.33563,3.88958,3.99245,3.99245,0,0,0-2.76635,4.80768h.00006a4,4,0,0,0,4.85638,2.90088l76.60346-19.31085A4,4,0,0,0,767.93633,397.70436Z"
            transform="translate(-290.66231 -206.33753)" fill="#3f3d56" />
        <path
            d="M641.33066,540.88731a9.46427,9.46427,0,0,0-7.94542-9.28146L497.57072,509.30349a9.46324,9.46324,0,0,0-3.9134.1739l-31.829,8.23-18.26249,4.72769-33.70263,8.71225a9.494,9.494,0,0,0-7.10734,9.18659V682.6482a9.53548,9.53548,0,0,0,7.51055,9.27354L548.603,690.35529a9.21708,9.21708,0,0,0,1.97646.20546,9.469,9.469,0,0,0,2.854-.43476l82.18915,2.04514a9.44808,9.44808,0,0,0,6.633-9.12338Z"
            transform="translate(-290.66231 -206.33753)" fill="#fff" />
        <path
            d="M641.33066,540.88731a9.46427,9.46427,0,0,0-7.94542-9.28146L497.57072,509.30349a9.46324,9.46324,0,0,0-3.9134.1739l-31.829,8.23-18.26249,4.72769-33.70263,8.71225a9.494,9.494,0,0,0-7.10734,9.18659V682.6482a9.53548,9.53548,0,0,0,7.51055,9.27354L548.603,690.35529a9.21708,9.21708,0,0,0,1.97646.20546,9.469,9.469,0,0,0,2.854-.43476l82.18915,2.04514a9.44808,9.44808,0,0,0,6.633-9.12338ZM634.91111,689.91l-82.1892,1.955a7.2139,7.2139,0,0,1-3.62089.1739l-138.3444-2.43345a7.15287,7.15287,0,0,1-5.629-6.95718V540.33393a7.12342,7.12342,0,0,1,4.66447-6.68049,5.91067,5.91067,0,0,1,.66406-.20556l35.6554-9.21815,21.08488-5.45506,27.05378-6.99665a6.78179,6.78179,0,0,1,1.77882-.2293,7.03578,7.03578,0,0,1,1.15427.09487L632.99786,533.946a7.13606,7.13606,0,0,1,5.17046,3.73946,7.11625,7.11625,0,0,1,.79058,3.21763l.925,142.16045A7.0903,7.0903,0,0,1,634.91111,689.91Z"
            transform="translate(-290.66231 -206.33753)" fill="#ccc" />
        <path
            d="M638.16832,537.6855a1.03008,1.03008,0,0,1-.30043.13433l-39.94826,10.79942-12.43589,3.36L550.113,561.53737a1.37238,1.37238,0,0,1-.30834.03957,1.93522,1.93522,0,0,1-.21347-.01583L406.96974,535.55877l-.47438-.087a1.18938,1.18938,0,0,1,.42694-2.3401l2.86983.52172,139.96509,25.52009,30.48494-8.23783,17.05292-4.60917,39.33159-10.63332.62454-.166a1.19153,1.19153,0,0,1,1.38353.64824.92646.92646,0,0,1,.07117.18973A1.18891,1.18891,0,0,1,638.16832,537.6855Z"
            transform="translate(-290.66231 -206.33753)" fill="#ccc" />
        <path
            d="M550.99053,690.83753c-.65007,0-1.1797-.52345-1.18588,2.82494l-1.18587-129.2606c-.00618-4.6547.52036-5.19051,1.17507-5.19668h.0108c.65007,0,1.1797.52345,1.18588,5.17506l1.18588,129.2606c.00617-3.3453-.52037-2.80949-1.17507-2.80332Z"
            transform="translate(-290.66231 -206.33753)" fill="#ccc" />
        <path
            d="M598.25591,692.33753l-12.77217.13525L580.24216,550.9357,446.499,524.32459a3.07292,3.07292,0,0,1-.38738-.09486,4.715,4.715,0,0,1-2.54571-1.79464l18.26249-4.72769,5.3681,1.06727,126.90467,25.24342a4.71752,4.71752,0,0,1,3.19394,2.30844C597.69037,547.01434,598.248,691.51539,598.25591,692.33753Z"
            transform="translate(-290.66231 -206.33753)" fill="#ccc" />
        <path
            d="M700.55859,281.827a7.13278,7.13278,0,0,0-5.98809-6.995L592.21342,258.02377a7.13207,7.13207,0,0,0-2.94935.13107l-23.988,6.20258-13.76358,3.563-25.40011,6.566a7.15519,7.15519,0,0,0-5.35647,6.92351v83.89238a7.18645,7.18645,0,0,0,5.66035,6.989L630.674,394.47409a6.94672,6.94672,0,0,0,1.48957.15485,7.1363,7.1363,0,0,0,2.151-.32766l61.94214-19.561a7.1206,7.1206,0,0,0,4.999-6.87587Z"
            transform="translate(-290.66231 -206.33753)" fill="#fff" />
        <path
            d="M591.05446,264.18446a.86575.86575,0,0,0-.2214.02851l-63.15212,16.33171a.89268.89268,0,0,0-.66885.86406v83.89114a.89707.89707,0,0,0,.70667.87338l104.25777,22.18233a.90066.90066,0,0,0,.455-.02211l61.9433-19.56046a.88761.88761,0,0,0,.62317-.85883l-.69416-86.03705a.89125.89125,0,0,0-.74827-.87337L591.19876,264.19609A.92856.92856,0,0,0,591.05446,264.18446Z"
            transform="translate(-290.66231 -206.33753)" fill="rgba(var(--primary-color),1)" />
        <path
            d="M700.55859,281.827a7.13278,7.13278,0,0,0-5.98809-6.995L592.21342,258.02377a7.13207,7.13207,0,0,0-2.94935.13107l-23.988,6.20258-13.76358,3.563-25.40011,6.566a7.15519,7.15519,0,0,0-5.35647,6.92351v83.89238a7.18645,7.18645,0,0,0,5.66035,6.989L630.674,394.47409a6.94672,6.94672,0,0,0,1.48957.15485,7.1363,7.1363,0,0,0,2.151-.32766l61.94214-19.561a7.1206,7.1206,0,0,0,4.999-6.87587Zm-4.83811,91.20915-61.94218,19.561a5.43668,5.43668,0,0,1-2.72889.13106L526.78567,370.54566a5.39079,5.39079,0,0,1-4.24228-5.2433V281.41a5.36856,5.36856,0,0,1,3.51539-5.03478,4.454,4.454,0,0,1,.50047-.15492l26.87182-6.94729,15.89069-4.11122,20.38918-5.27306a5.11131,5.11131,0,0,1,1.34061-.17281,5.30328,5.30328,0,0,1,.86992.0715l102.35708,16.80832a5.37814,5.37814,0,0,1,3.89673,2.81825,5.36322,5.36322,0,0,1,.59583,2.425l.69711,86.03741A5.34366,5.34366,0,0,1,695.72048,373.03618Z"
            transform="translate(-290.66231 -206.33753)" fill="#3f3d56" />
        <path
            d="M698.17528,279.414a.7765.7765,0,0,1-.22642.10125l-30.10714,8.139-9.37235,2.53227L631.81208,297.39a1.03438,1.03438,0,0,1-.23238.02982,1.45818,1.45818,0,0,1-.16088-.01193L523.93167,277.81116l-.35752-.06553a.89638.89638,0,0,1,.32177-1.76363l2.16286.3932L631.544,295.60851,654.519,289.4l12.852-3.47372,29.64238-8.01384.47069-.1251a.898.898,0,0,1,1.0427.48854.6979.6979,0,0,1,.05364.143A.896.896,0,0,1,698.17528,279.414Z"
            transform="translate(-290.66231 -206.33753)" fill="#3f3d56" />
        <path
            d="M632.47344,394.83753a.89376.89376,0,0,1-.89374-.88559l-.89374-97.41769a.894.894,0,0,1,.8856-.90189h.00814a.89375.89375,0,0,1,.89374.8856l.89374,97.41769a.894.894,0,0,1-.88559.90188Z"
            transform="translate(-290.66231 -206.33753)" fill="#3f3d56" />
        <path
            d="M667.84172,382.98653l-9.37235,2.53226L654.519,289.4,553.723,269.34448a2.31582,2.31582,0,0,1-.292-.07149,3.55344,3.55344,0,0,1-1.91858-1.35254l13.76358-3.563,4.04569.80435,95.64214,19.02478a3.55544,3.55544,0,0,1,2.40713,1.73977C667.66894,286.44469,667.83575,382.36692,667.84172,382.98653Z"
            transform="translate(-290.66231 -206.33753)" fill="#3f3d56" />
        <path
            d="M663.64287,328.18357a11.9974,11.9974,0,0,1,1.33458,1.33724l56.14627-6.55726,5.46049-12.60039,20.09331,5.75539-7.49893,23.24594a9.11865,9.11865,0,0,1-8.93738,6.31544l-64.28505-1.82747a11.96491,11.96491,0,1,1-2.31329-15.66889Z"
            transform="translate(-290.66231 -206.33753)" fill="#ffb6b6" />
        <path
            d="M719.80784,320.05541a5.12374,5.12374,0,0,1,.01139-4.271l10.78767-23.37432a14.24493,14.24493,0,0,1,27.36329,7.932l-3.55278,25.58154a5.12927,5.12927,0,0,1-6.52288,4.21634l-24.86-7.28539A5.12351,5.12351,0,0,1,719.80784,320.05541Z"
            transform="translate(-290.66231 -206.33753)" fill="#3f3d56" />
        <path d="M908.147,693.37861H291.853a1.19069,1.19069,0,0,1,0-2.38137H908.147a1.19068,1.19068,0,0,1,0,2.38137Z"
            transform="translate(-290.66231 -206.33753)" fill="#cacaca" />
        <circle cx="120.11268" cy="324.71266" r="35.81102" fill="rgba(var(--primary-color),1)" />
        <path
            d="M405.88962,549.68816a3.98231,3.98231,0,0,1-3.18646-1.59372l-9.7698-13.0266a3.98339,3.98339,0,1,1,6.37358-4.77986l6.39173,8.52166L422.115,514.18545a3.98356,3.98356,0,1,1,6.629,4.41936L409.20446,547.9142a3.98517,3.98517,0,0,1-3.204,1.77267C405.96354,549.68752,405.92658,549.68816,405.88962,549.68816Z"
            transform="translate(-290.66231 -206.33753)" fill="#fff" />
        <path
            d="M563.25688,340.838a1.512,1.512,0,0,1-.33105-.03711l-31-7a1.50014,1.50014,0,0,1,.66015-2.92675l31,7a1.50038,1.50038,0,0,1-.3291,2.96386Z"
            transform="translate(-290.66231 -206.33753)" fill="#fff" />
        <path
            d="M443.95068,622.57388a1.5126,1.5126,0,0,1-.33167.03114l-31.776-.5351a1.50015,1.50015,0,0,1,.04982-2.99988l31.776.53511a1.50039,1.50039,0,0,1,.28186,2.96873Z"
            transform="translate(-290.66231 -206.33753)" fill="#e6e6e6" />
        <path
            d="M454.95068,639.57388a1.5126,1.5126,0,0,1-.33167.03114l-31.776-.5351a1.50015,1.50015,0,0,1,.04982-2.99988l31.776.53511a1.50039,1.50039,0,0,1,.28186,2.96873Z"
            transform="translate(-290.66231 -206.33753)" fill="#e6e6e6" />
    </symbol>
    <symbol id="privacy" xmlns="http://www.w3.org/2000/svg" data-name="Layer 1" viewBox="0 0 893.45772 516.37247">
        <path
            d="M902.803,246.36949c5.76,40.74321-21.77963,33.06849-41.86533,29.91828-4.78636-.75217-13.55574,5.68322-16.581,7.40188-1.69754-6.03426-1.79809-4.52086-6.2765-9.56471,2.41539,6.63758-5.01359,9.59476-2.30807,13.4754-6.72314-.47824-9.69728-14.79193-3.66419-46.00394,2.65473-13.73412,9.57717-34.7831,37.91783-30.13195C900.731,216.506,900.99939,233.61151,902.803,246.36949Z"
            transform="translate(-152.92923 -191.55603)" fill="#2f2e41" />
        <circle cx="709.23205" cy="59.37473" r="25.40083" fill="#a0616a" />
        <path
            d="M827.973,241.867v0l12.1674,1.85945c5.36613-3.361,7.40975-8.34778,7.6648-14.20992l-1.22359,15.19426,5.8155.88874c3.79573-2.53245,5.4919-5.27489,4.47122-8.28911l-.71363,8.86335c15.50093,5.58514,30.52651,9.70395,43.212,6.6037l0,0a32.94357,32.94357,0,0,0-27.5888-37.54219l-6.26266-.95707A32.94358,32.94358,0,0,0,827.973,241.867Z"
            transform="translate(-152.92923 -191.55603)" fill="#2f2e41" />
        <path
            d="M787.0513,409.05794H204.1157a13.62481,13.62481,0,0,1-13.609-13.609V274.726a13.62481,13.62481,0,0,1,13.609-13.609H787.0513a13.62481,13.62481,0,0,1,13.609,13.609V395.44891A13.62481,13.62481,0,0,1,787.0513,409.05794Z"
            transform="translate(-152.92923 -191.55603)" fill="#e6e6e6" />
        <path
            d="M747.70682,399.87846H213.29737a13.6248,13.6248,0,0,1-13.609-13.609V283.91278a13.62481,13.62481,0,0,1,13.609-13.609H777.87182a13.6248,13.6248,0,0,1,13.609,13.609v72.19165A43.82337,43.82337,0,0,1,747.70682,399.87846Z"
            transform="translate(-152.92923 -191.55603)" fill="#fff" />
        <path
            d="M677.22905,316.70678H514.47583a3.50978,3.50978,0,1,1,0-7.01956H677.22905a3.50978,3.50978,0,0,1,0,7.01956Z"
            transform="translate(-152.92923 -191.55603)" fill="rgba(var(--primary-color),1)" />
        <path
            d="M718.42332,337.53958H473.28156a3.50978,3.50978,0,1,1,0-7.01956H718.42332a3.50978,3.50978,0,0,1,0,7.01956Z"
            transform="translate(-152.92923 -191.55603)" fill="#e6e6e6" />
        <path
            d="M718.42332,360.495H473.28156a3.50978,3.50978,0,1,1,0-7.01956H718.42332a3.50978,3.50978,0,0,1,0,7.01956Z"
            transform="translate(-152.92923 -191.55603)" fill="#e6e6e6" />
        <polygon
            points="359.383 89.694 357.383 89.694 357.383 12.651 502.04 12.651 502.04 14.651 359.383 14.651 359.383 89.694"
            fill="#3f3d56" />
        <path d="M716.14183,191.556h-53a13,13,0,0,0,0,26h53a13,13,0,0,0,0-26Z"
            transform="translate(-152.92923 -191.55603)" fill="rgba(var(--primary-color),1)" />
        <circle cx="357.22267" cy="90.83442" r="11.9459" fill="#e6e6e6" />
        <polygon points="789.981 495.189 778.943 495.189 773.69 452.616 789.981 452.616 789.981 495.189"
            fill="#a0616a" />
        <path
            d="M948.73582,705.86955h-7.91553l-1.41289-7.4732-3.61861,7.4732H914.7949a4.71923,4.71923,0,0,1-2.68162-8.60272l16.76509-11.57858V678.1331l17.634,1.05251Z"
            transform="translate(-152.92923 -191.55603)" fill="#2f2e41" />
        <polygon points="713.981 495.189 702.943 495.189 697.69 452.616 713.981 452.616 713.981 495.189"
            fill="#a0616a" />
        <path
            d="M872.73582,705.86955h-7.91553l-1.41289-7.4732-3.61861,7.4732H838.7949a4.71923,4.71923,0,0,1-2.68162-8.60272l16.76509-11.57858V678.1331l17.634,1.05251Z"
            transform="translate(-152.92923 -191.55603)" fill="#2f2e41" />
        <path
            d="M971.39814,439.3549a9.15745,9.15745,0,0,0-3.547-13.58649l-26.90842-78.75287-16.03153,8.41456,30.38472,75.25939a9.20709,9.20709,0,0,0,16.10227,8.66541Z"
            transform="translate(-152.92923 -191.55603)" fill="#a0616a" />
        <path
            d="M803.10165,474.51167a9.15743,9.15743,0,0,0,5.56014-12.89414L835.88518,382.973l-17.81591-3.22618-22.33368,78.02828a9.20709,9.20709,0,0,0,7.36606,16.73659Z"
            transform="translate(-152.92923 -191.55603)" fill="#a0616a" />
        <path
            d="M846.03553,427.556s70.99265-18.12524,68-12l0,0S935.95492,408.772,939,454l-.96447,90.556,3.96135,70.69567s-2.41459,5.75458.29426,5.25144.44489,7.93969.44489,7.93969-2.28091,8.98673.49153,8.772S944,651,944,651H926L891.51117,496.00159,876.03553,552.556s.85172,6.06093-.59191,6.25245-.43058,4.54834-.43058,4.54834l-.542,5.72533L867,648l-17,1s-.1335-1.73161,0-6c.09917-3.17084,1.075-8.23674-1.49738-12.41223-2.85736-4.63812-4.51532-10.00336-1.18829-15.9129,2.30292-4.09046-.68879-9.72379-1.04485-15.04781-2.24643-33.59-4.66234-78.4169-4.59194-115.053.00281-1.462-2.28151-5.117.02047-4.34554s.03071-3.29732.05459-4.91546c.04429-3.00022,3.14076-8.23124.19408-8.77214s.09286-2.87575.14788-4.2792C842.6754,447.44691,843.903,435.24843,846.03553,427.556Z"
            transform="translate(-152.92923 -191.55603)" fill="#2f2e41" />
        <path
            d="M878.03553,279.556l-29,3-2.80986,13.52074-27.52486,16.81234,9.52486,25.75459s-7.73747,26.07972,14.13126,36.53986l7.6786,22.37247-2.70534,15.89387-.75091,4.41164c1.91926,3.56241,2.25617,6.18091-1.12072,6.58426l-1.08948,6.40057c-4.84058,2.80185-4.676,7.7819-2.33356,13.70966l97,10c3.99042-13.029-17.54315-56.04882-29-60l1.49175-64.27179L914,288l-33,3Z"
            transform="translate(-152.92923 -191.55603)" fill="#3f3d56" />
        <path
            d="M906.45,289.898l0,0a11.03829,11.03829,0,0,1,16.64552,4.68106l17.25723,41.18419c3.26239,1.18,8.626,11.22027,6.68274,13.79284.04053,2.71985-.90246.74433,1.733,4.51819,3.00141.21295,3.78431,1.47583,1.71344,4.08917l-.44641,3.39264,1.22156.23029c3.27136.11706,3.44019,1.33575,1.39917,3.339h0a3.50278,3.50278,0,0,1,1.52971,4.07376L952,376l-17,8-27.96447-52.444L902.521,302.56117A11.0383,11.0383,0,0,1,906.45,289.898Z"
            transform="translate(-152.92923 -191.55603)" fill="#3f3d56" />
        <path
            d="M828.948,314.02116l0,0a10.12855,10.12855,0,0,0-16.7143,8.59078c1.346,14.5499,2.77827,30.03178,2.77827,30.03178l-2.34646,40.32149,21.37008,4.59084.825-5.782,2.175-1.218-1.524-3.34465h0a2.34078,2.34078,0,0,0,2.46055-3.0327l-1.3955-4.43188h0a1.3052,1.3052,0,0,0,2.06227-1.42225l-1.29818-3.933,5.67125-39.74785L830.7732,316.10058A10.12891,10.12891,0,0,0,828.948,314.02116Z"
            transform="translate(-152.92923 -191.55603)" fill="#3f3d56" />
        <polygon
            points="431.383 198.306 429.383 198.306 429.383 275.349 574.04 275.349 574.04 273.349 431.383 273.349 431.383 198.306"
            fill="#3f3d56" />
        <path
            d="M801.14183,466.556a13.01246,13.01246,0,0,0-13-13h-53a13,13,0,0,0,0,26h53A13.01245,13.01245,0,0,0,801.14183,466.556Z"
            transform="translate(-152.92923 -191.55603)" fill="rgba(var(--primary-color),1)" />
        <circle cx="431.22267" cy="193.83442" r="11.9459" fill="#e6e6e6" />
        <polygon
            points="216.83 199.306 218.83 199.306 218.83 276.349 74.173 276.349 74.173 274.349 216.83 274.349 216.83 199.306"
            fill="#3f3d56" />
        <path d="M165.92923,480.556h53a13,13,0,1,0,0-26h-53a13,13,0,0,0,0,26Z"
            transform="translate(-152.92923 -191.55603)" fill="rgba(var(--primary-color),1)" />
        <circle cx="219.22267" cy="193.16558" r="11.9459" fill="#e6e6e6" />
        <path
            d="M1011.89309,706.90342H978.70657l-.14258-.25879c-.42431-.76953-.834-1.585-1.21679-2.42285-3.41846-7.31836-4.86329-15.68848-6.13819-23.07324l-.96-5.56641a3.43688,3.43688,0,0,1,5.41016-3.3623q7.56517,5.50488,15.13623,10.999c1.91113,1.39063,4.09375,3,6.18408,4.73926.20166-.97949.4126-1.96192.62353-2.93067a3.43916,3.43916,0,0,1,6.28077-1.08593l3.88281,6.23828c2.832,4.55566,5.33154,9.04492,4.82226,13.88672a.756.756,0,0,1-.01318.17578,10.94684,10.94684,0,0,1-.56348,2.33105Z"
            transform="translate(-152.92923 -191.55603)" fill="#f0f0f0" />
        <path
            d="M1045.20249,707.62119l-315.3575.30731a1.19069,1.19069,0,0,1,0-2.38135l315.3575-.30731a1.19069,1.19069,0,0,1,0,2.38135Z"
            transform="translate(-152.92923 -191.55603)" fill="#cacaca" />
        <circle cx="104.1063" cy="143.34646" r="36" fill="#f2f2f2" />
        <path
            d="M393.43613,316.51816H369.68291a3.50978,3.50978,0,1,1,0-7.01956h23.75322a3.50978,3.50978,0,0,1,0,7.01956Z"
            transform="translate(-152.92923 -191.55603)" fill="rgba(var(--primary-color),1)" />
        <path d="M434.6304,337.351H328.48864a3.50978,3.50978,0,1,1,0-7.01956H434.6304a3.50978,3.50978,0,0,1,0,7.01956Z"
            transform="translate(-152.92923 -191.55603)" fill="#e6e6e6" />
        <path
            d="M434.6304,360.30638H328.48864a3.50978,3.50978,0,1,1,0-7.01956H434.6304a3.50978,3.50978,0,0,1,0,7.01956Z"
            transform="translate(-152.92923 -191.55603)" fill="#e6e6e6" />
    </symbol>
    <symbol id="profile" xmlns="http://www.w3.org/2000/svg" data-name="Layer 1" viewBox="0 0 903.80709 509.14517">
        <path
            d="M216.09567,704.318l-.95117-1.75879c12.75342-6.89746,28.62573-15.481,36.916-29.56738,8.17236-13.88623,8.35571-32.74268.47851-49.21094-6.70361-14.01562-19.01782-26.57226-35.61108-36.313-3.273-1.92138-6.70874-3.74218-10.0315-5.50341-8.03149-4.25635-16.33642-8.65821-23.18432-14.90284-9.43164-8.60107-16.56787-23.03466-11.249-35.89111a23.85567,23.85567,0,0,1,20.6775-14.46728l.11279,1.99707a21.86061,21.86061,0,0,0-18.94776,13.248c-4.94262,11.94727,1.83863,25.50489,10.75415,33.63574,6.66065,6.07374,14.85181,10.415,22.7732,14.61329,3.34155,1.771,6.79712,3.60254,10.10766,5.54589,16.93848,9.94336,29.52637,22.79786,36.40259,37.17432,8.1604,17.06055,7.94629,36.63672-.55908,51.08887C245.2114,688.57244,229.0676,697.30339,216.09567,704.318Z"
            transform="translate(-148.09646 -195.42742)" fill="#f1f1f1" />
        <ellipse cx="57.71992" cy="323.31703" rx="17.5" ry="8.5" fill="#f1f1f1" />
        <ellipse cx="71.71992" cy="379.31703" rx="17.5" ry="8.5" fill="#f1f1f1" />
        <ellipse cx="39.71992" cy="388.31703" rx="17.5" ry="8.5" fill="#f1f1f1" />
        <ellipse cx="89.71992" cy="435.31703" rx="17.5" ry="8.5" fill="#f1f1f1" />
        <ellipse cx="124.71992" cy="435.31703" rx="17.5" ry="8.5" fill="#f1f1f1" />
        <rect id="bc1144e2-c94b-4f66-aa77-0b454dfd4174__profile" data-name="Rectangle 62" x="341.01113" y="15.42942"
            width="562.79595" height="267.05644" fill="#e6e6e6" />
        <rect id="ad6bb9d5-2e55-4525-b077-6ac2d5f26b45__profile" data-name="Rectangle 75" x="357.10447" y="38.32998"
            width="530.61006" height="222.81354" fill="#fff" />
        <rect id="a1fdfaec-ef9f-458a-9330-7bb8c38fec43__profile" data-name="Rectangle 80" x="340.77116"
            width="562.79595" height="23.90924" fill="rgba(var(--primary-color),1)" />
        <circle id="ac9f2818-2064-46b1-8104-b7d94390836e__profile" data-name="Ellipse 90" cx="358.5387" cy="11.05913"
            r="4.43149" fill="#fff" />
        <circle id="bd067119-2054-4d5f-9303-2e8fa40cc410__profile" data-name="Ellipse 91" cx="375.35917" cy="11.05913"
            r="4.43149" fill="#fff" />
        <circle id="ee5e9ca0-6fca-449b-8f84-cf683813bd65__profile" data-name="Ellipse 92" cx="392.18043" cy="11.05913"
            r="4.43149" fill="#fff" />
        <path id="acae6c4c-8028-4596-98db-d9926d2ed09f-118__profile" data-name="Path 142"
            d="M742.52881,286.63529a2.14688,2.14688,0,0,0,0,4.29376H860.33273a2.14688,2.14688,0,0,0,0-4.29376Z"
            transform="translate(-148.09646 -195.42742)" fill="#e6e6e6" />
        <path id="a061bcdc-636b-4d12-a036-d7339f47b36a-119__profile" data-name="Path 143"
            d="M742.52881,299.51779a2.14689,2.14689,0,0,0,0,4.29377H802.6701a2.14689,2.14689,0,0,0,0-4.29377Z"
            transform="translate(-148.09646 -195.42742)" fill="#e6e6e6" />
        <path id="e4e4593e-e83d-4128-8cd7-f0323b36c2f2-120__profile" data-name="Path 142"
            d="M739.56444,361.87112a2.14688,2.14688,0,0,0,0,4.29376H960.44737a2.14688,2.14688,0,0,0,0-4.29376Z"
            transform="translate(-148.09646 -195.42742)" fill="#e6e6e6" />
        <path id="bf45783c-1d79-4b4f-82bb-39fc8a52f7aa-121__profile" data-name="Path 143"
            d="M739.56444,374.75362a2.14689,2.14689,0,0,0,0,4.29377H902.78473a2.14689,2.14689,0,0,0,0-4.29377Z"
            transform="translate(-148.09646 -195.42742)" fill="#e6e6e6" />
        <path id="b544fc92-6fc6-4255-93fb-dee32d880d89-122__profile" data-name="Path 142"
            d="M739.56444,387.34466a2.14689,2.14689,0,0,0,0,4.29377H960.44737a2.14689,2.14689,0,0,0,0-4.29377Z"
            transform="translate(-148.09646 -195.42742)" fill="#e6e6e6" />
        <path id="e14bb681-aaa1-4454-9da9-28d0809a146c-123__profile" data-name="Path 143"
            d="M739.56444,400.22717a2.14689,2.14689,0,0,0,0,4.29377H902.78473a2.14689,2.14689,0,0,0,0-4.29377Z"
            transform="translate(-148.09646 -195.42742)" fill="#e6e6e6" />
        <circle cx="475.98887" cy="156.46229" r="18.69428" fill="#a0616a" />
        <path
            d="M618.16547,336.93427s8.724,2.33677,13.24179,3.2715,4.05043-1.71365,4.05043-1.71365,5.91986.77892,5.60828.15578,2.49256-3.89463-.77893-7.6335-2.33679-6.543-2.33679-6.543h-2.80414l-.77893-1.09051h-4.362s-4.8226-4.22888-13.39083-2.98259-18.701,4.54044-19.63575,9.68138c-.12678.6973-.29369,1.472-.48751,2.29025-2.34294,9.89144,2.63523,19.14638,7.79851,27.90255,1.26893,2.15193,7.40685,6.8444,7.24985,3.62493s-5.52527-10.44986-1.78641-10.91722S619.87911,343.00991,618.16547,336.93427Z"
            transform="translate(-148.09646 -195.42742)" fill="#2f2e41" />
        <path
            d="M613.48045,412.325a65.38,65.38,0,0,1-10.69912-1.75788l.19683-3.728L604.615,377.197l.0148-.22735h32.93056l5.1679,27.29315.697,3.68251c-1.36375.53046-2.743,1.03058-4.15193,1.47-.01554,0-.01554.01517-.03034.01517-1.955.60612-3.9403,1.13658-5.94116,1.576a68.55812,68.55812,0,0,1-8.06189,1.24267,62.04526,62.04526,0,0,1-6.30374.30311C617.11736,412.55235,615.28373,412.4766,613.48045,412.325Z"
            transform="translate(-148.09646 -195.42742)" fill="rgba(var(--primary-color),1)" />
        <path
            d="M592.30938,407.05128c-1.36375-.591-2.68237-1.2275-3.98544-1.8943l-.56089-.28794c-.37886-.197-.77252-.4092-1.15139-.62138q-.77363-.43178-1.50064-.86372c-.46988-.27287-.95455-.56071-1.42443-.84865-.03034-.01517-.04514-.03034-.07547-.03034-1.6368-1.04566-3.24326-2.12166-4.789-3.28848q-.38626-.29553-.77326-.591l-.27231-4.36448.39366-.24253L604.615,377.197l.36333-.22735.03033-.01508,3.72794.01508v13.88151c2.10667,3.04605,3.5311,9.426,4.41017,17.77612.12136,1.19726.22717,2.42476.33373,3.69769a65.38,65.38,0,0,1-10.69912-1.75788c-.37886-.07575-.74293-.16667-1.12179-.27277a62.70234,62.70234,0,0,1-6.51611-2.09132c-.6519-.24252-1.28827-.50012-1.92464-.75772l-.06068-.03034C592.88507,407.29371,592.58242,407.17254,592.30938,407.05128Z"
            transform="translate(-148.09646 -195.42742)" fill="#2f2e41" />
        <path
            d="M586.61166,404.24766q-.77363-.43178-1.50064-.86372c-.46988-.27287-.95455-.56071-1.42443-.84865-.03034-.01517-.04514-.03034-.07547-.03034-1.6368-1.04566-3.24326-2.12166-4.789-3.28848q-.38626-.29553-.77326-.591c-.12062-.10609-.242-.197-.37886-.30311-.96935-.74255-1.90911-1.51544-2.81852-2.33375-.04514-.03033-.07548-.07584-.12135-.10609a10.42192,10.42192,0,0,1,3.04642-1.62153l1.07591.31827,7.66823,2.30341.04514,3.10664Z"
            transform="translate(-148.09646 -195.42742)" fill="#2f2e41" />
        <path
            d="M651.1845,404.29316c-.45508.24243-.90941.485-1.36375.71222-.10656.06067-.19683.10609-.28785.1516-.60677.30311-1.19726.60612-1.80329.89406-.01554.01517-.04587.01517-.04587.03034-.03034.01517-.07548.03033-.10582.0455-1.36375.65163-2.743,1.25776-4.15267,1.81846-1.36375.53046-2.743,1.03058-4.15193,1.47-.01554,0-.01554.01517-.03034.01517-1.955.60612-3.9403,1.13658-5.94116,1.576a12.50562,12.50562,0,0,1,.48542-3.68252l.0148-.21218,1.30381-21.09495-1.74335-9.04724,5.00141-.74256L665.86906,391.033s-3.03089,3.03089-15.47262,9.48669C649.29634,401.09055,650.91145,402.9899,651.1845,404.29316Z"
            transform="translate(-148.09646 -195.42742)" fill="#2f2e41" />
        <path
            d="M624.907,408.61214c-1.97052.18185-3.97064.27286-5.97076.27286-1.94018,0-3.86482-.07584-5.78947-.25769.12136,1.19726.22717,2.42476.33373,3.69769,1.80328.1516,3.63691.22735,5.45574.22735a62.04526,62.04526,0,0,0,6.30374-.30311,68.55812,68.55812,0,0,0,8.06189-1.24267,12.50562,12.50562,0,0,1,.48542-3.68252l.0148-.21218A62.99621,62.99621,0,0,1,624.907,408.61214Zm57.26792-85.04667A66.97189,66.97189,0,1,0,566.441,387.18384c.606.75772,1.2276,1.51545,1.864,2.24283.06068.06058.091.10609.13615.15151a63.82062,63.82062,0,0,0,4.98587,5.13737c.42474.394.86354.78806,1.30308,1.16692.04587.03025.07621.07576.12135.10609.90941.81831,1.84917,1.5912,2.81852,2.33375.13689.1061.25824.197.37886.30311q.38736.29553.77326.591c1.54578,1.16682,3.15224,2.24282,4.789,3.28848.03033,0,.04513.01517.07547.03034.46988.28794.95455.57578,1.42443.84865q.72813.43189,1.50064.86372c.37887.21218.77253.42436,1.15139.62138l.56089.28794c1.30307.6668,2.62169,1.30326,3.98544,1.8943.273.12126.57569.24243.84873.36369l.06068.03034c.63637.2576,1.27274.5152,1.92464.75772a62.70234,62.70234,0,0,0,6.51611,2.09132c.37886.1061.74293.197,1.12179.27277a65.38,65.38,0,0,0,10.69912,1.75788c1.80328.1516,3.63691.22735,5.45574.22735a62.04526,62.04526,0,0,0,6.30374-.30311,68.55812,68.55812,0,0,0,8.06189-1.24267c2.00086-.43945,3.98618-.96991,5.94116-1.576.0148,0,.0148-.01517.03034-.01517,1.40889-.43945,2.78818-.93957,4.15193-1.47,1.40963-.5607,2.78892-1.16683,4.15267-1.81846.03034-.01517.07548-.03033.10582-.0455,0-.01517.03033-.01517.04587-.03034.606-.28794,1.19652-.591,1.80329-.89406.091-.04551.18129-.09093.28785-.1516.45434-.22726.90867-.46979,1.36375-.71222.03034-.01517.04514-.03033.07548-.0455,1.19725-.66671,2.37971-1.36385,3.54664-2.1064.31818-.197.63636-.394.95455-.62138.46987-.28794.92421-.60613,1.36375-.9244.59123-.4092,1.18172-.83348,1.75815-1.273a4.67929,4.67929,0,0,0,.54535-.40911c1.40963-1.06083,2.77338-2.18224,4.07646-3.36433a66.91395,66.91395,0,0,0,18.67-71.98356Zm-19.80658,68.07378a64.7919,64.7919,0,0,1-5.15236,4.36448c-.39366.303-.8036.60613-1.212.87889-.3944.30311-.78806.59105-1.19726.86382-.34853.24252-.697.48495-1.06111.7123-.03034.03025-.07548.04542-.10582.07576-.25824.18184-.53055.34852-.78806.5152-.80359.50012-1.63679,1.00024-2.45519,1.47-.19683.1061-.37886.22727-.57569.33336-.10656.06067-.21237.12126-.33373.18184-.45433.2577-.90941.485-1.36375.72748-.06067.04541-.13615.06058-.19683.10609a.11229.11229,0,0,0-.06067.03025c-.31819.16677-.63637.31827-.95455.46978-.27305.13643-.53056.27277-.8036.394-1.10625.53046-2.24283,1.03049-3.37941,1.50028-1.19726.48495-2.40932.92449-3.63692,1.33359-.30338.1061-.62157.22736-.93975.31828-1.44.45461-2.8792.86381-4.3495,1.19717a62.99621,62.99621,0,0,1-8.89509,1.50027c-1.97052.18185-3.97064.27286-5.97076.27286-1.94018,0-3.86482-.07584-5.78947-.25769a62.3735,62.3735,0,0,1-10.16856-1.78821c-.12136-.03034-.25751-.06059-.37886-.09093a58.11093,58.11093,0,0,1-8.01676-2.72777c-.13615-.06059-.28784-.1061-.4092-.16668-.15169-.06068-.28784-.10609-.4092-.16677-.15169-.06058-.28784-.12117-.424-.18185-1.13658-.5-2.24282-1.04566-3.34907-1.60636l-.51575-.27277c-.98489-.5152-1.955-1.04566-2.90953-1.63671-.333-.18184-.68151-.39393-1.01523-.60612-.37886-.22735-.75772-.46978-1.12178-.7123q-.13542-.09088-.27231-.18185c-.84874-.57588-1.71227-1.15175-2.53067-1.773-.57569-.42437-1.13659-.83348-1.69748-1.273-.36406-.27276-.72738-.5607-1.0759-.86372-.22717-.16677-.45434-.36378-.68225-.5608-.30264-.2576-.606-.5152-.90867-.788-.46988-.37886-.90942-.80323-1.33416-1.19726a60.22928,60.22928,0,0,1-4.83417-5.00095c-.515-.57587-1.00043-1.15175-1.46957-1.75787a3.64682,3.64682,0,0,1-.30338-.37886,63.2983,63.2983,0,1,1,93.04807,6.74374Z"
            transform="translate(-148.09646 -195.42742)" fill="#3f3d56" />
        <polygon points="163.436 496.698 175.696 496.697 181.528 449.409 163.434 449.41 163.436 496.698"
            fill="#a0616a" />
        <path d="M308.40551,688.12252l24.144-.001h.001A15.38731,15.38731,0,0,1,347.937,703.50777v.5l-39.53076.00147Z"
            transform="translate(-148.09646 -195.42742)" fill="#2f2e41" />
        <polygon points="209.436 496.698 221.696 496.697 227.528 449.409 209.434 449.41 209.436 496.698"
            fill="#a0616a" />
        <path d="M354.40551,688.12252l24.144-.001h.001A15.38731,15.38731,0,0,1,393.937,703.50777v.5l-39.53076.00147Z"
            transform="translate(-148.09646 -195.42742)" fill="#2f2e41" />
        <path
            d="M274.333,505.26744a10.05579,10.05579,0,0,0-1.88328-15.30389l8.51818-34.70475-17.49238,6.233-5.40724,32.00063a10.11028,10.11028,0,0,0,16.26472,11.775Z"
            transform="translate(-148.09646 -195.42742)" fill="#9e616a" />
        <path
            d="M404.47409,502.26744a10.05576,10.05576,0,0,1,1.88329-15.30389L397.8392,452.2588l17.49238,6.233,5.40723,32.00063a10.11027,10.11027,0,0,1-16.26472,11.775Z"
            transform="translate(-148.09646 -195.42742)" fill="#9e616a" />
        <polygon
            points="142.367 285.513 159.36 484.578 184.224 482.311 194.175 328.461 203.033 389.379 204.807 486.145 227.307 484.645 239.801 380.545 236.736 279.728 151.319 271.078 142.367 285.513"
            fill="#2f2e41" />
        <circle cx="189.11211" cy="78.58245" r="25.78574" fill="#a0616a" />
        <path
            d="M329.04308,253.38125s12.03336,3.22321,18.26491,4.51252,5.58691-2.36371,5.58691-2.36371,8.1655,1.0744,7.73572.21487,3.43809-5.372-1.0744-10.52917-3.22322-9.025-3.22322-9.025h-3.86786l-1.07442-1.50418H345.374s-6.652-5.833-18.4705-4.114-25.79505,6.26281-27.08434,13.3539c-.17487.96182-.4051,2.03038-.67243,3.159-3.23171,13.64365,3.63487,26.40934,10.75677,38.48707,1.75029,2.96823,10.21656,9.44074,10,5s-7.62122-14.41389-2.46407-15.05854S331.40677,261.76163,329.04308,253.38125Z"
            transform="translate(-148.09646 -195.42742)" fill="#2f2e41" />
        <path
            d="M310.376,308.60391h45.41173l32.10968,169.575s-27.99385,2.3937-43.99385,8.3937-42.59842-13.70585-42.59842-13.70585Z"
            transform="translate(-148.09646 -195.42742)" fill="rgba(var(--primary-color),1)" />
        <path
            d="M316.04528,327.75369V308.60391l-5.14174-.03133-37.56693,23.885,8.15165,130.86273s9.64794,43.65782,24.28161,43.20506S331.687,350.43479,316.04528,327.75369Z"
            transform="translate(-148.09646 -195.42742)" fill="#2f2e41" />
        <path
            d="M285.40354,336.07258l-12.06693-3.615s-8.93307,2.615-8.93307,11.615-7.69685,136.86794-7.69685,136.86794l24.45076,2.16092,5.24609-65.02886Z"
            transform="translate(-148.09646 -195.42742)" fill="#2f2e41" />
        <path
            d="M352.40354,321.07258l-2.40535-12.46867,6.90535-1.03133,25,10s22.5,164.5,12.5,169.5-16.752,1.12615-16.752,1.12615S344.76032,366.8726,350.58193,350.47259Z"
            transform="translate(-148.09646 -195.42742)" fill="#2f2e41" />
        <path
            d="M364.40354,320.07258l4.26656-1.85711s12.52311-6.20565,19.62828,6.32573,32.10516,152.53138,32.10516,152.53138l-20.57029,3.86794-15.37853-50.38368Z"
            transform="translate(-148.09646 -195.42742)" fill="#2f2e41" />
        <path d="M530.09646,704.57258h-381a1,1,0,1,1,0-2h381a1,1,0,0,1,0,2Z"
            transform="translate(-148.09646 -195.42742)" fill="#cacaca" />
    </symbol>
    <symbol id="saveCard" xmlns="http://www.w3.org/2000/svg" data-name="Layer 1" viewBox="0 0 619.86836 562.03084">
        <rect x="60.40639" y="139.84921" width="280.48127" height="277.59048" rx="26.74409" fill="#f2f2f2" />
        <path
            d="M424.884,314.33363a68.91168,68.91168,0,0,0-68.91167,68.91167v176.435a21.24414,21.24414,0,0,0,21.24414,21.24414H522.08892A103.36435,103.36435,0,0,0,625.45327,477.5601V335.57777a21.24415,21.24415,0,0,0-21.24414-21.24414Z"
            transform="translate(-290.06582 -168.98458)" fill="#fff" />
        <path d="M877.7568,217.21468H311.02633a1,1,0,0,1,0-2H877.7568a1,1,0,0,1,0,2Z"
            transform="translate(-290.06582 -168.98458)" fill="#e6e6e6" />
        <ellipse cx="49.31535" cy="9.56458" rx="8.45661" ry="8.64507" fill="#e6e6e6" />
        <ellipse cx="78.5291" cy="9.56458" rx="8.45661" ry="8.64507" fill="#e6e6e6" />
        <ellipse cx="107.74285" cy="9.56458" rx="8.45661" ry="8.64507" fill="#e6e6e6" />
        <path
            d="M431.12009,185.382a.9967.9967,0,0,1-.71484-.30078l-5.70605-5.833a.99951.99951,0,0,1,0-1.39843l5.70605-5.83252a1,1,0,1,1,1.42969,1.39843l-5.022,5.1333,5.022,5.13379a1,1,0,0,1-.71485,1.69922Z"
            transform="translate(-290.06582 -168.98458)" fill="#e6e6e6" />
        <path
            d="M440.70847,185.382a1,1,0,0,1-.71484-1.69922l5.02148-5.13379-5.02148-5.1333a1,1,0,1,1,1.42969-1.39843l5.70556,5.83252a.99953.99953,0,0,1,0,1.39843l-5.70556,5.833A.9967.9967,0,0,1,440.70847,185.382Z"
            transform="translate(-290.06582 -168.98458)" fill="#e6e6e6" />
        <path
            d="M827.2183,170.905h-10.61a2.18934,2.18934,0,0,0-2.19,2.19v10.62a2.18934,2.18934,0,0,0,2.19,2.19h10.61a2.1979,2.1979,0,0,0,2.2-2.19v-10.62A2.1979,2.1979,0,0,0,827.2183,170.905Z"
            transform="translate(-290.06582 -168.98458)" fill="#e6e6e6" />
        <path
            d="M801.2183,170.905h-10.61a2.18934,2.18934,0,0,0-2.19,2.19v10.62a2.18934,2.18934,0,0,0,2.19,2.19h10.61a2.1979,2.1979,0,0,0,2.2-2.19v-10.62A2.1979,2.1979,0,0,0,801.2183,170.905Z"
            transform="translate(-290.06582 -168.98458)" fill="#e6e6e6" />
        <path
            d="M851.7183,171.405h-10.61a2.18934,2.18934,0,0,0-2.19,2.19v10.62a2.18934,2.18934,0,0,0,2.19,2.19h10.61a2.1979,2.1979,0,0,0,2.2-2.19v-10.62A2.1979,2.1979,0,0,0,851.7183,171.405Z"
            transform="translate(-290.06582 -168.98458)" fill="#e6e6e6" />
        <path d="M638.94274,186.98458h-69a9,9,0,0,1,0-18h69a9,9,0,0,1,0,18Z"
            transform="translate(-290.06582 -168.98458)" fill="#e6e6e6" />
        <path
            d="M525.3338,486.38416H371.34105a3.32086,3.32086,0,1,1,0-6.64172H525.3338a3.32086,3.32086,0,0,1,0,6.64172Z"
            transform="translate(-290.06582 -168.98458)" fill="#f2f2f2" />
        <path
            d="M525.3338,391.66156H293.38721a3.32086,3.32086,0,1,1,0-6.64171H525.3338a3.32086,3.32086,0,0,1,0,6.64171Z"
            transform="translate(-290.06582 -168.98458)" fill="#f2f2f2" />
        <path d="M525.3383,415.3753H293.382a3.32344,3.32344,0,0,0,0,6.64687H525.3383a3.32344,3.32344,0,0,0,0-6.64687Z"
            transform="translate(-290.06582 -168.98458)" fill="#f2f2f2" />
        <path
            d="M525.3338,452.38245H293.38721a3.32086,3.32086,0,1,1,0-6.64172H525.3338a3.32086,3.32086,0,0,1,0,6.64172Z"
            transform="translate(-290.06582 -168.98458)" fill="#f2f2f2" />
        <polygon points="430.582 548.714 419.933 548.713 414.868 507.64 430.584 507.641 430.582 548.714"
            fill="#a0616a" />
        <path
            d="M721.02239,728.80744l-32.74574-.00125v-.41408a12.74625,12.74625,0,0,1,12.74555-12.74536h.00079l5.98141-4.53779,11.16,4.53851,2.85851.00007Z"
            transform="translate(-290.06582 -168.98458)" fill="#2f2e41" />
        <polygon points="537.725 548.714 527.077 548.713 522.011 507.64 537.728 507.641 537.725 548.714"
            fill="#a0616a" />
        <path
            d="M828.16609,728.80744l-32.74574-.00125v-.41408a12.74625,12.74625,0,0,1,12.74555-12.74536h.00079l5.98141-4.53779,11.16,4.53851,2.8585.00007Z"
            transform="translate(-290.06582 -168.98458)" fill="#2f2e41" />
        <path
            d="M729.33579,481.73279s-6.99338,7.42211-7.28869,12.23732,3.349-3.93121-.29532,4.81522-3.64434,2.91547-3.64434,8.74642-7.72224,11.52478-7.72224,11.52478L697.651,571.449l7.3368,122.67319h16.03512c14.90172-45.42466,21.83474-80.503,13.8485-96.21067l22.2685-49.4952S799.21831,680.086,800.93726,681.63758s1.71895-.63508,1.71895,1.55153-2.18661,0,0,2.1866l10.20416,10.20416,15.30624-1.45773s2.04837-95.33-15.01092-111.80547c0,0,3.93966-51.01877,0-50.87551s-3.93966,6.70308-3.93966.14326,4.66853-8.31021,4.66853-8.31021L800.76492,477.197Z"
            transform="translate(-290.06582 -168.98458)" fill="#2f2e41" />
        <path
            d="M811.95805,380.16959l-14.82,62.05,3.5,23.08,4.2,27.65-14.52-.94-22.47-1.46-41.72-2.7-3.65-122.45,19.14-20,3.42-9.71,27.67-.17,6.62,11.66,17.02,4.84a42.21587,42.21587,0,0,1,6.14,4.74c4.2,3.89,7.92,8.83,9.66,13.89a18.26132,18.26132,0,0,1,.99,4.57Z"
            transform="translate(-290.06582 -168.98458)" fill="#e6e6e6" />
        <path
            d="M683.16043,537.60686a8.7959,8.7959,0,0,0,2.66491-13.12821l21.10689-38.4259-9.19319-8.45131-24.73528,45.82233a8.78357,8.78357,0,0,0,10.15667,14.18309Z"
            transform="translate(-290.06582 -168.98458)" fill="#e6e6e6" />
        <path
            d="M734.6398,357.91347l-4.91986,88.1348L706.01713,501.435l-15.42727,20.45876,1.75369-9.27062-10.63419-5.32074-.99855-.49563,20.41561-79.228,1.88048-30.78742A38.36336,38.36336,0,0,1,717.10322,369.364l11.80767-9.59191Z"
            transform="translate(-290.06582 -168.98458)" fill="#e6e6e6" />
        <path
            d="M683.16043,537.60686a8.7959,8.7959,0,0,0,2.66491-13.12821l21.10689-38.4259-9.19319-8.45131-24.73528,45.82233a8.78357,8.78357,0,0,0,10.15667,14.18309Z"
            transform="translate(-290.06582 -168.98458)" fill="#a0616a" />
        <path
            d="M734.6398,357.91347l-4.91986,88.1348L706.01713,501.435l-15.42727,20.45876,1.75369-9.27062-10.63419-5.32074-.99855-.49563,20.41561-79.228,1.88048-30.78742A38.36336,38.36336,0,0,1,717.10322,369.364l11.80767-9.59191Z"
            transform="translate(-290.06582 -168.98458)" fill="#e6e6e6" />
        <rect x="213.68198" y="191.96732" width="280.48127" height="170.59048" rx="26.74409" fill="#fff" />
        <path
            d="M757.48526,532.54255H530.4921A27.77566,27.77566,0,0,1,502.748,504.79841V387.69587a27.77566,27.77566,0,0,1,27.74414-27.74414H757.48526a27.77556,27.77556,0,0,1,27.74365,27.74414V504.79841A27.77556,27.77556,0,0,1,757.48526,532.54255ZM530.4921,361.95173A25.74413,25.74413,0,0,0,504.748,387.69587v43.76968a99.077,99.077,0,0,0,99.077,99.077h153.6603a25.74365,25.74365,0,0,0,25.74365-25.74365v-117.103a25.74413,25.74413,0,0,0-25.74414-25.74414Z"
            transform="translate(-290.06582 -168.98458)" fill="#3f3d56" />
        <rect x="243.92262" y="316.26256" width="60" height="7" rx="3.5" fill="rgba(var(--primary-color),1)" />
        <rect x="419.92262" y="306.76256" width="44" height="26" rx="3.5" fill="rgba(var(--primary-color),1)" />
        <circle cx="261.92262" cy="239.76256" r="18" fill="rgba(var(--primary-color),1)" />
        <circle cx="467.79653" cy="138.77976" r="22.60167" fill="#a0616a" />
        <path
            d="M776.40434,319.44653c.17634,1.35028-2.26629,1.493-2.81707.24763s.16361-2.65684.85821-3.82811l1.61227-2.71869a3.73532,3.73532,0,0,0-2.4605-5.56408h0c1.47528-3.318-.12574-7.4594-3.06517-9.59131s-7.313,1.857-10.87911,2.54107-6.42119-2.04529-9.67189-.42719l1.953-4.50218-10.81018,4.65749,2.5115-5.06459c-2.72828.14863-3.89,3.47146-4.43363,6.14916-.57923,2.853-2.09906,6.41945-5.20067,5.8284a4.0018,4.0018,0,0,1-3.02643-2.998c-2.39623-9.24107,4.56171-19.34369,13.78545-20.96447a13.5606,13.5606,0,0,1,25.88081,1.23229l3.0242-3.70271.58962,5.24629c2.17326-.231,4.22651,1.30332,5.28261,3.21671s.557,4.38376,1.571,6.31979c4.54466,8.677,3.041,18.44556-3.97631,25.10044"
            transform="translate(-290.06582 -168.98458)" fill="#2f2e41" />
        <path
            d="M855.67531,713.68247a2.26935,2.26935,0,0,0,1.64468-3.93333l-.1555-.61819q.03072-.07428.06179-.1484a6.09416,6.09416,0,0,1,11.24138.04177c1.83859,4.42818,4.17943,8.86389,4.7558,13.546a18.02889,18.02889,0,0,1-.31649,6.20046A72.28135,72.28135,0,0,0,879.48213,698.75a69.76616,69.76616,0,0,0-.43275-7.78294q-.3585-3.17781-.99471-6.31034a73.11893,73.11893,0,0,0-14.50012-30.98962,19.459,19.459,0,0,1-8.09295-8.39652,14.84338,14.84338,0,0,1-1.34991-4.05618c.394.05168,1.48556-5.94866,1.18841-6.31679.549-.83317,1.53177-1.24733,2.13143-2.06035,2.98232-4.0434,7.0912-3.33741,9.23621,2.15727,4.58224,2.31266,4.62659,6.14806,1.815,9.83683-1.78878,2.34682-2.03456,5.52233-3.60409,8.03478.16151.20671.32945.407.49091.61366a73.59123,73.59123,0,0,1,7.681,12.1686,30.59244,30.59244,0,0,1,1.8264-14.20959c1.74819-4.21732,5.02491-7.76915,7.91045-11.415a6.27921,6.27921,0,0,1,11.184,3.08332q.00886.08063.01731.1612-.6429.36267-1.25863.76992a3.0782,3.0782,0,0,0,1.24106,5.60174l.06277.00967a30.628,30.628,0,0,1-.80734,4.57938c3.70179,14.31579-4.29011,19.5299-15.70147,19.76412-.25191.12916-.49739.25833-.74929.38109a75.11456,75.11456,0,0,1,4.04326,19.02779,71.24332,71.24332,0,0,1-.05167,11.50322l.01938-.13562a18.8256,18.8256,0,0,1,6.42661-10.87027c4.9456-4.06264,11.93282-5.55869,17.26825-8.82426a3.533,3.533,0,0,1,5.41122,3.43708l-.02182.14261a20.67547,20.67547,0,0,0-2.31871,1.11733q-.6429.36276-1.25864.76992a3.07824,3.07824,0,0,0,1.24107,5.6018l.06282.00965c.04519.00646.084.01295.12911.01943a30.65453,30.65453,0,0,1-5.63854,8.82923c-2.31464,12.49712-12.256,13.68282-22.89023,10.04353h-.00648a75.09193,75.09193,0,0,1-5.0444,14.72621H856.12687c-.06464-.20022-.12274-.40692-.1809-.60717a20.47485,20.47485,0,0,0,4.9863-.297c-1.337-1.64059-2.674-3.2941-4.011-4.93463a1.11772,1.11772,0,0,1-.084-.09689c-.67817-.8396-1.36282-1.67283-2.041-2.51246l-.00036-.001a29.99039,29.99039,0,0,1,.87876-7.63984Z"
            transform="translate(-290.06582 -168.98458)" fill="#f2f2f2" />
        <path
            d="M577.124,729.82542a1.18647,1.18647,0,0,0,1.19007,1.19h330.29a1.19,1.19,0,0,0,0-2.38H578.314A1.18651,1.18651,0,0,0,577.124,729.82542Z"
            transform="translate(-290.06582 -168.98458)" fill="#ccc" />
        <path
            d="M767.48859,532.25832a8.7959,8.7959,0,0,0,2.19681-13.2146l19.72835-39.15154-9.48764-8.11935L756.83443,518.445a8.78357,8.78357,0,0,0,10.65416,13.81328Z"
            transform="translate(-290.06582 -168.98458)" fill="#a0616a" />
        <path
            d="M812.14805,370.64957l.99,4.57-2.37,63.88-10.13,26.2-10.32,26.71-1.27,3.29-14.69,20.99,1.42-9.33-10.82-4.94-1.01-.45,3.9-11.02,8.97-25.32,3.88-10.96.84-32.61.78-30.83a38.36441,38.36441,0,0,1,13.11-27.91l7.06-6.16C806.688,360.64957,810.40806,365.58958,812.14805,370.64957Z"
            transform="translate(-290.06582 -168.98458)" fill="#e6e6e6" />
        <path
            d="M576.138,530.232l-46.8779-1a22.02467,22.02467,0,0,1-21.99209-22l-2-49.01237C511.02409,498.178,533.14387,523.52476,576.138,530.232Z"
            transform="translate(-290.06582 -168.98458)" fill="rgba(var(--primary-color),1)" />
    </symbol>
    <symbol id="wishlist" xmlns="http://www.w3.org/2000/svg" data-name="Layer 1" viewBox="0 0 728.34646 523.59055">
        <path
            d="M947.17323,711.20472h-437a17.01916,17.01916,0,0,1-17-17v-489a17.01917,17.01917,0,0,1,17-17h437a17.01917,17.01917,0,0,1,17,17v489A17.01916,17.01916,0,0,1,947.17323,711.20472Zm-437-521a15.017,15.017,0,0,0-15,15v489a15.017,15.017,0,0,0,15,15h437a15.017,15.017,0,0,0,15-15v-489a15.017,15.017,0,0,0-15-15Z"
            transform="translate(-235.82677 -188.20472)" fill="#3f3d56" />
        <rect x="258.34646" y="41.59033" width="469" height="2" fill="#3f3d56" />
        <circle cx="281.34646" cy="22" r="8" fill="rgba(var(--primary-color),1)" />
        <circle cx="306.34646" cy="22" r="8" fill="rgba(var(--primary-color),1)" />
        <circle cx="331.34646" cy="22" r="8" fill="rgba(var(--primary-color),1)" />
        <path
            d="M884.67323,303.20472h-312a13,13,0,0,1,0-26h312a13,13,0,0,1,0,26Zm-312-24a11,11,0,0,0,0,22h312a11,11,0,0,0,0-22Z"
            transform="translate(-235.82677 -188.20472)" fill="#3f3d56" />
        <path d="M807.52756,405.79528h-142a8,8,0,0,1,0-16h142a8,8,0,0,1,0,16Z"
            transform="translate(-235.82677 -188.20472)" fill="#ccc" />
        <path d="M889.52756,432.79528h-224a8,8,0,0,1,0-16h224a8,8,0,0,1,0,16Z"
            transform="translate(-235.82677 -188.20472)" fill="#ccc" />
        <path
            d="M612.3189,434.29528h-43a9.51081,9.51081,0,0,1-9.5-9.5v-27a9.5108,9.5108,0,0,1,9.5-9.5h43a9.5108,9.5108,0,0,1,9.5,9.5v27A9.51081,9.51081,0,0,1,612.3189,434.29528Zm-43-44a7.50835,7.50835,0,0,0-7.5,7.5v27a7.50836,7.50836,0,0,0,7.5,7.5h43a7.50836,7.50836,0,0,0,7.5-7.5v-27a7.50835,7.50835,0,0,0-7.5-7.5Z"
            transform="translate(-235.82677 -188.20472)" fill="#ccc" />
        <path d="M807.52756,500.79528h-142a8,8,0,0,1,0-16h142a8,8,0,0,1,0,16Z"
            transform="translate(-235.82677 -188.20472)" fill="#ccc" />
        <path d="M889.52756,527.79528h-224a8,8,0,1,1,0-16h224a8,8,0,0,1,0,16Z"
            transform="translate(-235.82677 -188.20472)" fill="#ccc" />
        <path
            d="M612.3189,529.29528h-43a9.51081,9.51081,0,0,1-9.5-9.5v-27a9.5108,9.5108,0,0,1,9.5-9.5h43a9.5108,9.5108,0,0,1,9.5,9.5v27A9.51081,9.51081,0,0,1,612.3189,529.29528Zm-43-44a7.50835,7.50835,0,0,0-7.5,7.5v27a7.50836,7.50836,0,0,0,7.5,7.5h43a7.50836,7.50836,0,0,0,7.5-7.5v-27a7.50835,7.50835,0,0,0-7.5-7.5Z"
            transform="translate(-235.82677 -188.20472)" fill="#ccc" />
        <path d="M807.52756,595.79528h-142a8,8,0,0,1,0-16h142a8,8,0,0,1,0,16Z"
            transform="translate(-235.82677 -188.20472)" fill="#f2f2f2" />
        <path d="M889.52756,622.79528h-224a8,8,0,0,1,0-16h224a8,8,0,0,1,0,16Z"
            transform="translate(-235.82677 -188.20472)" fill="#f2f2f2" />
        <path
            d="M612.3189,624.29528h-43a9.51081,9.51081,0,0,1-9.5-9.5v-27a9.5108,9.5108,0,0,1,9.5-9.5h43a9.5108,9.5108,0,0,1,9.5,9.5v27A9.51081,9.51081,0,0,1,612.3189,624.29528Z"
            transform="translate(-235.82677 -188.20472)" fill="#f2f2f2" />
        <path
            d="M590.8189,426.03362l-2.31545-2.08878c-8.22262-7.54934-13.65109-12.44922-13.65109-18.553a8.68327,8.68327,0,0,1,8.78159-8.83494,9.44539,9.44539,0,0,1,7.18495,3.37347,9.445,9.445,0,0,1,7.18494-3.37347,8.68328,8.68328,0,0,1,8.78159,8.83494c0,6.10382-5.42854,11.00371-13.65108,18.553Z"
            transform="translate(-235.82677 -188.20472)" fill="rgba(var(--primary-color),1)" />
        <path
            d="M590.8189,521.03362l-2.31545-2.08878c-8.22262-7.54934-13.65109-12.44922-13.65109-18.553a8.68327,8.68327,0,0,1,8.78159-8.83494,9.44539,9.44539,0,0,1,7.18495,3.37347,9.445,9.445,0,0,1,7.18494-3.37347,8.68328,8.68328,0,0,1,8.78159,8.83494c0,6.10382-5.42854,11.00371-13.65108,18.553Z"
            transform="translate(-235.82677 -188.20472)" fill="rgba(var(--primary-color),1)" />
        <path
            d="M409.15748,505.05222h-43a9.51081,9.51081,0,0,1-9.5-9.5v-27a9.5108,9.5108,0,0,1,9.5-9.5h43a9.5108,9.5108,0,0,1,9.5,9.5v27A9.51081,9.51081,0,0,1,409.15748,505.05222Zm-43-44a7.50835,7.50835,0,0,0-7.5,7.5v27a7.50836,7.50836,0,0,0,7.5,7.5h43a7.50836,7.50836,0,0,0,7.5-7.5v-27a7.50835,7.50835,0,0,0-7.5-7.5Z"
            transform="translate(-235.82677 -188.20472)" fill="#3f3d56" />
        <path
            d="M387.65748,496.79056l-2.31545-2.08878c-8.22262-7.54934-13.65109-12.44922-13.65109-18.553a8.68327,8.68327,0,0,1,8.78159-8.83494,9.44536,9.44536,0,0,1,7.185,3.37347,9.445,9.445,0,0,1,7.18495-3.37347,8.68329,8.68329,0,0,1,8.78159,8.83494c0,6.10382-5.42855,11.00371-13.65109,18.553Z"
            transform="translate(-235.82677 -188.20472)" fill="rgba(var(--primary-color),1)" />
        <polygon points="126.965 512.106 138.087 509.46 133.175 465.302 116.76 469.207 126.965 512.106"
            fill="#ffb8b8" />
        <path
            d="M360.77092,693.3538h35.92974a0,0,0,0,1,0,0v13.88195a0,0,0,0,1,0,0H374.65285a13.88193,13.88193,0,0,1-13.88193-13.88193v0A0,0,0,0,1,360.77092,693.3538Z"
            transform="translate(673.4245 1105.72874) rotate(166.61944)" fill="#2f2e41" />
        <path
            d="M351.87477,671.87692l-24.15528-82.78613,30.18506-7.48731,17.708,87.67627a4.49981,4.49981,0,0,1-4.2771,5.38916l-15.00708.44581c-.04517.001-.09009.00195-.135.00195A4.50057,4.50057,0,0,1,351.87477,671.87692Z"
            transform="translate(-235.82677 -188.20472)" fill="#2f2e41" />
        <polygon points="58.09 512.384 69.522 512.383 74.959 468.287 58.086 468.289 58.09 512.384" fill="#ffb8b8" />
        <path
            d="M291.46749,697.32116h35.92974a0,0,0,0,1,0,0V711.2031a0,0,0,0,1,0,0H305.34942a13.88193,13.88193,0,0,1-13.88193-13.88193v0A0,0,0,0,1,291.46749,697.32116Z"
            transform="translate(383.1015 1220.29161) rotate(179.99483)" fill="#2f2e41" />
        <path
            d="M291.90943,683.45554a4.41548,4.41548,0,0,1-1.34448-3.1294l-10.41553-82.585a4.50646,4.50646,0,0,1,4.46729-4.52246l23.24829-.16846h.0332a4.51205,4.51205,0,0,1,4.499,4.43115l1.23584,81.3545a4.497,4.497,0,0,1-4.39576,4.56591l-14.11279,1.34131c-.02173.00049-.04346.00049-.06518.00049A4.46755,4.46755,0,0,1,291.90943,683.45554Z"
            transform="translate(-235.82677 -188.20472)" fill="#2f2e41" />
        <circle cx="61.06468" cy="197.34791" r="24.56103" fill="#ffb8b8" />
        <path
            d="M264.53443,593.42722C248.554,580.94089,248.72315,566.374,254.176,546.91745c1.53613-5.481,3.19409-11.03613,4.94921-16.91748,8.155-27.32471,17.39795-58.2959,13.88892-83.86816l.49536-.06788-.49536.06788c-.96118-7.00391,1.48877-14.3711,6.72119-20.21192,5.23267-5.8418,12.27564-9.07861,19.35547-8.896,7.06738.18848,13.9397,3.80127,18.85425,9.9126,4.89062,6.08155,7.22485,27.46582,7.91675,30.53076,3.17651,14.0669,5.09375,22.55762,6.46875,36.10254,1.62622,16.01319,21.10254,63.89112,27.30883,71.91993a18.99967,18.99967,0,0,1,3.67676,15.13281,17.80508,17.80508,0,0,1-8.45532,12.13525,101.64833,101.64833,0,0,1-32.70606,12.8711,80.1744,80.1744,0,0,1-15.22705,1.46533C291.07081,607.09421,275.91944,602.32272,264.53443,593.42722Z"
            transform="translate(-235.82677 -188.20472)" fill="rgba(var(--primary-color),1)" />
        <path
            d="M366.67182,500.8945a9.37694,9.37694,0,0,0-14.04849-3.06268l-18.61127-10.61977-9.21209,9.736,26.49335,14.628a9.42779,9.42779,0,0,0,15.3785-10.68158Z"
            transform="translate(-235.82677 -188.20472)" fill="#ffb8b8" />
        <path
            d="M338.3003,508.09323l-33.35718-10.47949a22.96148,22.96148,0,0,1-16.00927-20.82813l-1.43531-32.41113a13.57149,13.57149,0,1,1,27.1233-.18262l-.91748,29.81983,35.5017,14.47851a4.50026,4.50026,0,0,1,1.978,6.76026l-7.85718,11.14306a4.48833,4.48833,0,0,1-5.02661,1.69971Z"
            transform="translate(-235.82677 -188.20472)" fill="#2f2e41" />
        <path
            d="M257.30885,416.11569c1.12231-6.731,1.08105-13.70752,1.041-20.45459-.01074-1.83154-.02173-3.6626-.01049-5.49023.05224-8.49365.57934-17.4961,4.05175-25.78369,3.7793-9.01954,10.77783-15.53272,18.72119-17.42237,8.95557-2.13281,18.6731,2.582,21.59864,10.34522a15.007,15.007,0,1,1,9.14868,27.96924l-.37525.0332-2.92651-7.60547c-.0166.1333-.03247.26807-.04858.40381-.18628,1.57715-.37891,3.20752-1.68091,4.14941h0c-1.62549,1.17578-3.6499,5.04541-3.05835,8.96582a33.80216,33.80216,0,0,0,1.64209,5.88135,32.2768,32.2768,0,0,1,1.74219,6.47949,11.06488,11.06488,0,0,1-2.07227,8.01368,6.18642,6.18642,0,0,1-4.23852,2.43212l-32.9878,3.41114-1.47485-11.01856-9.3833,11.55664Z"
            transform="translate(-235.82677 -188.20472)" fill="#2f2e41" />
        <path d="M428.82677,711.79528h-192a1,1,0,0,1,0-2h192a1,1,0,0,1,0,2Z"
            transform="translate(-235.82677 -188.20472)" fill="#ccc" />
    </symbol>
</svg>