<svg width="98" height="93" viewBox="0 0 98 93" fill="none" xmlns="http://www.w3.org/2000/svg">
<g opacity="0.2">
<path d="M94.8327 92.2407C96.0976 92.2407 97.1263 91.212 97.1263 89.9484C97.1263 88.6849 96.0976 87.6562 94.8327 87.6562C93.5678 87.6562 92.5391 88.6849 92.5391 89.9484C92.5391 91.212 93.5678 92.2407 94.8327 92.2407Z" fill="#FFE00B"/>
<path d="M76.3249 92.2407C77.5898 92.2407 78.6185 91.212 78.6185 89.9484C78.6185 88.6849 77.5898 87.6562 76.3249 87.6562C75.06 87.6562 74.0312 88.6849 74.0312 89.9484C74.0312 91.212 75.06 92.2407 76.3249 92.2407Z" fill="#FFE00B"/>
<path d="M57.8171 92.2407C59.082 92.2407 60.1107 91.212 60.1107 89.9484C60.1107 88.6849 59.082 87.6562 57.8171 87.6562C56.5521 87.6562 55.5234 88.6849 55.5234 89.9484C55.5234 91.212 56.5521 92.2407 57.8171 92.2407Z" fill="#FFE00B"/>
<path d="M39.3092 92.2407C40.5742 92.2407 41.6029 91.212 41.6029 89.9484C41.6029 88.6849 40.5742 87.6562 39.3092 87.6562C38.0443 87.6562 37.0156 88.6849 37.0156 89.9484C37.0156 91.212 38.0443 92.2407 39.3092 92.2407Z" fill="#FFE00B"/>
<path d="M20.8014 92.2407C22.0663 92.2407 23.0951 91.212 23.0951 89.9484C23.0951 88.6849 22.0663 87.6562 20.8014 87.6562C19.5365 87.6562 18.5078 88.6849 18.5078 89.9484C18.5078 91.212 19.5365 92.2407 20.8014 92.2407Z" fill="#FFE00B"/>
<path d="M2.29362 92.2407C3.55853 92.2407 4.58724 91.212 4.58724 89.9484C4.58724 88.6849 3.55853 87.6562 2.29362 87.6562C1.0287 87.6562 0 88.6849 0 89.9484C0 91.212 1.0301 92.2407 2.29362 92.2407Z" fill="#FFE00B"/>
<path d="M94.8327 77.5493C96.0976 77.5493 97.1263 76.5206 97.1263 75.2571C97.1263 73.9936 96.0976 72.9648 94.8327 72.9648C93.5678 72.9648 92.5391 73.9936 92.5391 75.2571C92.5391 76.5206 93.5678 77.5493 94.8327 77.5493Z" fill="#FFE00B"/>
<path d="M76.3249 77.5493C77.5898 77.5493 78.6185 76.5206 78.6185 75.2571C78.6185 73.9936 77.5898 72.9648 76.3249 72.9648C75.06 72.9648 74.0312 73.9936 74.0312 75.2571C74.0312 76.5206 75.06 77.5493 76.3249 77.5493Z" fill="#FFE00B"/>
<path d="M57.8171 77.5493C59.082 77.5493 60.1107 76.5206 60.1107 75.2571C60.1107 73.9936 59.082 72.9648 57.8171 72.9648C56.5521 72.9648 55.5234 73.9936 55.5234 75.2571C55.5234 76.5206 56.5521 77.5493 57.8171 77.5493Z" fill="#FFE00B"/>
<path d="M39.3092 77.5493C40.5742 77.5493 41.6029 76.5206 41.6029 75.2571C41.6029 73.9936 40.5742 72.9648 39.3092 72.9648C38.0443 72.9648 37.0156 73.9936 37.0156 75.2571C37.0156 76.5206 38.0443 77.5493 39.3092 77.5493Z" fill="#FFE00B"/>
<path d="M20.8014 77.5493C22.0663 77.5493 23.0951 76.5206 23.0951 75.2571C23.0951 73.9936 22.0663 72.9648 20.8014 72.9648C19.5365 72.9648 18.5078 73.9936 18.5078 75.2571C18.5078 76.5206 19.5365 77.5493 20.8014 77.5493Z" fill="#FFE00B"/>
<path d="M2.29362 77.5493C3.55853 77.5493 4.58724 76.5206 4.58724 75.2571C4.58724 73.9936 3.55853 72.9648 2.29362 72.9648C1.0287 72.9648 0 73.9936 0 75.2571C0 76.5206 1.0301 77.5493 2.29362 77.5493Z" fill="#FFE00B"/>
<path d="M94.8327 62.8579C96.0976 62.8579 97.1263 61.8292 97.1263 60.5656C97.1263 59.3021 96.0976 58.2734 94.8327 58.2734C93.5678 58.2734 92.5391 59.3021 92.5391 60.5656C92.5391 61.8292 93.5678 62.8579 94.8327 62.8579Z" fill="#FFE00B"/>
<path d="M76.3249 62.8579C77.5898 62.8579 78.6185 61.8292 78.6185 60.5656C78.6185 59.3021 77.5898 58.2734 76.3249 58.2734C75.06 58.2734 74.0312 59.3021 74.0312 60.5656C74.0312 61.8292 75.06 62.8579 76.3249 62.8579Z" fill="#FFE00B"/>
<path d="M57.8171 62.8579C59.082 62.8579 60.1107 61.8292 60.1107 60.5656C60.1107 59.3021 59.082 58.2734 57.8171 58.2734C56.5521 58.2734 55.5234 59.3021 55.5234 60.5656C55.5234 61.8292 56.5521 62.8579 57.8171 62.8579Z" fill="#FFE00B"/>
<path d="M39.3092 62.8579C40.5742 62.8579 41.6029 61.8292 41.6029 60.5656C41.6029 59.3021 40.5742 58.2734 39.3092 58.2734C38.0443 58.2734 37.0156 59.3021 37.0156 60.5656C37.0156 61.8292 38.0443 62.8579 39.3092 62.8579Z" fill="#FFE00B"/>
<path d="M20.8014 62.8579C22.0663 62.8579 23.0951 61.8292 23.0951 60.5656C23.0951 59.3021 22.0663 58.2734 20.8014 58.2734C19.5365 58.2734 18.5078 59.3021 18.5078 60.5656C18.5078 61.8292 19.5365 62.8579 20.8014 62.8579Z" fill="#FFE00B"/>
<path d="M2.29362 62.8579C3.55853 62.8579 4.58724 61.8292 4.58724 60.5656C4.58724 59.3021 3.55853 58.2734 2.29362 58.2734C1.0287 58.2734 0 59.3021 0 60.5656C0 61.8292 1.0301 62.8579 2.29362 62.8579Z" fill="#FFE00B"/>
<path d="M94.8327 48.9126C96.0976 48.9126 97.1263 47.8838 97.1263 46.6203C97.1263 45.3568 96.0976 44.3281 94.8327 44.3281C93.5678 44.3281 92.5391 45.3568 92.5391 46.6203C92.5391 47.8838 93.5678 48.9126 94.8327 48.9126Z" fill="#FFE00B"/>
<path d="M76.3249 48.9126C77.5898 48.9126 78.6185 47.8838 78.6185 46.6203C78.6185 45.3568 77.5898 44.3281 76.3249 44.3281C75.06 44.3281 74.0312 45.3568 74.0312 46.6203C74.0312 47.8838 75.06 48.9126 76.3249 48.9126Z" fill="#FFE00B"/>
<path d="M57.8171 48.9126C59.082 48.9126 60.1107 47.8838 60.1107 46.6203C60.1107 45.3568 59.082 44.3281 57.8171 44.3281C56.5521 44.3281 55.5234 45.3568 55.5234 46.6203C55.5234 47.8838 56.5521 48.9126 57.8171 48.9126Z" fill="#FFE00B"/>
<path d="M39.3092 48.9126C40.5742 48.9126 41.6029 47.8838 41.6029 46.6203C41.6029 45.3568 40.5742 44.3281 39.3092 44.3281C38.0443 44.3281 37.0156 45.3568 37.0156 46.6203C37.0156 47.8838 38.0443 48.9126 39.3092 48.9126Z" fill="#FFE00B"/>
<path d="M20.8014 48.9126C22.0663 48.9126 23.0951 47.8838 23.0951 46.6203C23.0951 45.3568 22.0663 44.3281 20.8014 44.3281C19.5365 44.3281 18.5078 45.3568 18.5078 46.6203C18.5078 47.8838 19.5365 48.9126 20.8014 48.9126Z" fill="#FFE00B"/>
<path d="M2.29362 48.9126C3.55853 48.9126 4.58724 47.8838 4.58724 46.6203C4.58724 45.3568 3.55853 44.3281 2.29362 44.3281C1.0287 44.3281 0 45.3568 0 46.6203C0 47.8838 1.0301 48.9126 2.29362 48.9126Z" fill="#FFE00B"/>
<path d="M94.8327 34.2212C96.0976 34.2212 97.1263 33.1925 97.1263 31.929C97.1263 30.6654 96.0976 29.6367 94.8327 29.6367C93.5678 29.6367 92.5391 30.6654 92.5391 31.929C92.5391 33.1925 93.5678 34.2212 94.8327 34.2212Z" fill="#FFE00B"/>
<path d="M76.3249 34.2212C77.5898 34.2212 78.6185 33.1925 78.6185 31.929C78.6185 30.6654 77.5898 29.6367 76.3249 29.6367C75.06 29.6367 74.0312 30.6654 74.0312 31.929C74.0312 33.1925 75.06 34.2212 76.3249 34.2212Z" fill="#FFE00B"/>
<path d="M57.8171 34.2212C59.082 34.2212 60.1107 33.1925 60.1107 31.929C60.1107 30.6654 59.082 29.6367 57.8171 29.6367C56.5521 29.6367 55.5234 30.6654 55.5234 31.929C55.5234 33.1925 56.5521 34.2212 57.8171 34.2212Z" fill="#FFE00B"/>
<path d="M39.3092 34.2212C40.5742 34.2212 41.6029 33.1925 41.6029 31.929C41.6029 30.6654 40.5742 29.6367 39.3092 29.6367C38.0443 29.6367 37.0156 30.6654 37.0156 31.929C37.0156 33.1925 38.0443 34.2212 39.3092 34.2212Z" fill="#FFE00B"/>
<path d="M20.8014 34.2212C22.0663 34.2212 23.0951 33.1925 23.0951 31.929C23.0951 30.6654 22.0663 29.6367 20.8014 29.6367C19.5365 29.6367 18.5078 30.6654 18.5078 31.929C18.5078 33.1925 19.5365 34.2212 20.8014 34.2212Z" fill="#FFE00B"/>
<path d="M2.29362 34.2212C3.55853 34.2212 4.58724 33.1925 4.58724 31.929C4.58724 30.6654 3.55853 29.6367 2.29362 29.6367C1.0287 29.6367 0 30.6654 0 31.929C0 33.1925 1.0301 34.2212 2.29362 34.2212Z" fill="#FFE00B"/>
<path d="M94.8327 19.5298C96.0976 19.5298 97.1263 18.501 97.1263 17.2375C97.1263 15.974 96.0976 14.9453 94.8327 14.9453C93.5678 14.9453 92.5391 15.974 92.5391 17.2375C92.5391 18.501 93.5678 19.5298 94.8327 19.5298Z" fill="#FFE00B"/>
<path d="M94.8327 4.58444C96.0976 4.58444 97.1263 3.55572 97.1263 2.2922C97.1263 1.02868 96.0976 0 94.8327 0C93.5678 0 92.5391 1.02868 92.5391 2.2922C92.5391 3.55572 93.5678 4.58444 94.8327 4.58444Z" fill="#FFE00B"/>
<path d="M76.3249 19.5298C77.5898 19.5298 78.6185 18.501 78.6185 17.2375C78.6185 15.974 77.5898 14.9453 76.3249 14.9453C75.06 14.9453 74.0312 15.974 74.0312 17.2375C74.0312 18.501 75.06 19.5298 76.3249 19.5298Z" fill="#FFE00B"/>
<path d="M76.3249 4.58444C77.5898 4.58444 78.6185 3.55572 78.6185 2.2922C78.6185 1.02868 77.5898 0 76.3249 0C75.06 0 74.0312 1.02868 74.0312 2.2922C74.0312 3.55572 75.06 4.58444 76.3249 4.58444Z" fill="#FFE00B"/>
<path d="M57.8171 19.5298C59.082 19.5298 60.1107 18.501 60.1107 17.2375C60.1107 15.974 59.082 14.9453 57.8171 14.9453C56.5521 14.9453 55.5234 15.974 55.5234 17.2375C55.5234 18.501 56.5521 19.5298 57.8171 19.5298Z" fill="#FFE00B"/>
<path d="M57.8171 4.58444C59.082 4.58444 60.1107 3.55572 60.1107 2.2922C60.1107 1.02868 59.082 0 57.8171 0C56.5521 0 55.5234 1.02868 55.5234 2.2922C55.5234 3.55572 56.5521 4.58444 57.8171 4.58444Z" fill="#FFE00B"/>
<path d="M39.3092 19.5298C40.5742 19.5298 41.6029 18.501 41.6029 17.2375C41.6029 15.974 40.5742 14.9453 39.3092 14.9453C38.0443 14.9453 37.0156 15.974 37.0156 17.2375C37.0156 18.501 38.0443 19.5298 39.3092 19.5298Z" fill="#FFE00B"/>
<path d="M39.3092 4.58444C40.5742 4.58444 41.6029 3.55572 41.6029 2.2922C41.6029 1.02868 40.5742 0 39.3092 0C38.0443 0 37.0156 1.02868 37.0156 2.2922C37.0156 3.55572 38.0443 4.58444 39.3092 4.58444Z" fill="#FFE00B"/>
<path d="M20.8014 19.5298C22.0663 19.5298 23.0951 18.501 23.0951 17.2375C23.0951 15.974 22.0663 14.9453 20.8014 14.9453C19.5365 14.9453 18.5078 15.974 18.5078 17.2375C18.5078 18.501 19.5365 19.5298 20.8014 19.5298Z" fill="#FFE00B"/>
<path d="M20.8014 4.58444C22.0663 4.58444 23.0951 3.55572 23.0951 2.2922C23.0951 1.02868 22.0663 0 20.8014 0C19.5365 0 18.5078 1.02868 18.5078 2.2922C18.5078 3.55572 19.5365 4.58444 20.8014 4.58444Z" fill="#FFE00B"/>
<path d="M2.29362 19.5298C3.55853 19.5298 4.58724 18.501 4.58724 17.2375C4.58724 15.974 3.55853 14.9453 2.29362 14.9453C1.0287 14.9453 0 15.974 0 17.2375C0 18.501 1.0301 19.5298 2.29362 19.5298Z" fill="#FFE00B"/>
<path d="M2.29362 4.58444C3.55853 4.58444 4.58724 3.55572 4.58724 2.2922C4.58724 1.02868 3.55853 0 2.29362 0C1.0287 0 0 1.02868 0 2.2922C0 3.55572 1.0301 4.58444 2.29362 4.58444Z" fill="#FFE00B"/>
</g>
</svg>
