<svg width="107" height="13" viewBox="0 0 107 13" fill="none" xmlns="http://www.w3.org/2000/svg">
<g opacity="0.5" clip-path="url(#clip0_1043_1121)">
<path d="M8.35277 6.5L4.22925 9.69841L0 13V6.5V0L4.22925 3.19841L8.35277 6.5Z" fill="#FFE00B"/>
<path d="M33.0913 6.5L28.8621 9.69841L24.6328 13V6.5V0L28.8621 3.19841L33.0913 6.5Z" fill="#FFE00B"/>
<path d="M57.7319 6.5L53.5027 9.69841L49.2734 13V6.5V0L53.5027 3.19841L57.7319 6.5Z" fill="#FFE00B"/>
<path d="M82.3684 6.5L78.1391 9.69841L74.0156 13V6.5V0L78.1391 3.19841L82.3684 6.5Z" fill="#FFE00B"/>
<path d="M107.001 6.5L102.772 9.69841L98.6484 13V6.5V0L102.772 3.19841L107.001 6.5Z" fill="#FFE00B"/>
</g>
<defs>
<clipPath id="clip0_1043_1121">
<rect width="107" height="13" fill="white"/>
</clipPath>
</defs>
</svg>
