<svg width="13" height="107" viewBox="0 0 13 107" fill="none" xmlns="http://www.w3.org/2000/svg">
<g opacity="0.2" clip-path="url(#clip0_1043_1128)">
<path d="M6.5 8.35277L3.30159 4.22925L-3.69738e-07 -5.68248e-07L6.5 -2.84124e-07L13 0L9.80159 4.22925L6.5 8.35277Z" fill="#FFE00B"/>
<path d="M6.5 33.0952L3.30159 28.866L-3.69738e-07 24.6367L6.5 24.6367L13 24.6367L9.80159 28.866L6.5 33.0952Z" fill="#FFE00B"/>
<path d="M6.5 57.728L3.30159 53.4988L-3.69738e-07 49.2695L6.5 49.2695L13 49.2695L9.80159 53.4988L6.5 57.728Z" fill="#FFE00B"/>
<path d="M6.5 82.3645L3.30159 78.1352L-3.69738e-07 74.0117L6.5 74.0117L13 74.0117L9.80159 78.1352L6.5 82.3645Z" fill="#FFE00B"/>
<path d="M6.5 107.001L3.30159 102.772L-3.69738e-07 98.6484L6.5 98.6484L13 98.6484L9.80159 102.772L6.5 107.001Z" fill="#FFE00B"/>
</g>
<defs>
<clipPath id="clip0_1043_1128">
<rect width="107" height="13" fill="white" transform="translate(13) rotate(90)"/>
</clipPath>
</defs>
</svg>
