<svg width="0" height="0" fill="none" style="visibility: hidden; position: absolute;" aria-hidden="true">
    <symbol id="buy" viewBox="0 0 236 230" xmlns="http://www.w3.org/2000/svg">
        <g clip-path="url(#clip0_7_3__buy)">
            <path fill-rule="evenodd" clip-rule="evenodd" d="M60.6606 199.527C69.0645 199.527 75.903 206.354 75.903 214.758C75.903 223.162 69.0645 230 60.6606 230C52.2566 230 45.4299 223.162 45.4299 214.758C45.4299 206.354 52.2566 199.527 60.6606 199.527ZM193.432 199.527C201.848 199.527 208.686 206.354 208.686 214.758C208.686 223.162 201.848 230 193.432 230C185.028 230 178.201 223.162 178.201 214.758C178.201 206.354 185.028 199.527 193.432 199.527ZM10.3336 0.111664L34.8156 4.34893C38.7586 5.04337 41.76 8.31549 42.1013 12.3174L44.8673 45.2857L55.1527 45.2901C56.8311 45.2908 58.4917 45.2916 60.1347 45.2923L79.0176 45.3013C80.5228 45.3021 82.0112 45.3028 83.4829 45.3036L104.332 45.315C105.642 45.3158 106.936 45.3165 108.215 45.3173L122.826 45.3266C123.983 45.3274 125.126 45.3282 126.254 45.329L139.105 45.3384C140.12 45.3392 141.12 45.34 142.108 45.3408L153.312 45.3505C154.194 45.3513 155.062 45.3521 155.918 45.3529L163.282 45.3602C164.063 45.361 164.833 45.3618 165.59 45.3627L174.118 45.3726C174.783 45.3734 175.437 45.3742 176.08 45.3751L183.281 45.3851C183.839 45.386 184.387 45.3868 184.925 45.3876L189.501 45.3953C189.981 45.3961 190.451 45.397 190.912 45.3979L196.01 45.4082C196.4 45.409 196.781 45.4099 197.154 45.4108L200.291 45.4186C200.616 45.4195 200.933 45.4204 201.243 45.4213L204.606 45.4319C204.858 45.4328 205.103 45.4336 205.342 45.4345L207.317 45.4426C207.518 45.4435 207.712 45.4444 207.901 45.4453L209.899 45.4562C210.044 45.4571 210.184 45.458 210.319 45.4589L211.408 45.4672C211.515 45.4681 211.618 45.469 211.717 45.47L212.501 45.4783C212.577 45.4792 212.649 45.4802 212.718 45.4811L213.251 45.4896C213.302 45.4905 213.349 45.4914 213.394 45.4924L213.731 45.5009C213.762 45.5019 213.791 45.5028 213.818 45.5038L214.062 45.5153C214.077 45.5163 214.091 45.5173 214.104 45.5182C214.218 45.5289 214.235 45.5309 214.252 45.5328C220.808 46.4862 226.576 49.9113 230.507 55.1844C234.438 60.4457 236.086 66.931 235.144 73.4282L223.974 150.617C221.867 165.306 209.109 176.382 194.278 176.382H65.7359C50.2345 176.382 37.1108 164.282 35.8514 148.804L25.0699 20.58L7.33218 17.5198C2.51817 16.6723 -0.695088 12.1173 0.128825 7.30325C0.976279 2.48924 5.6255 -0.641628 10.3336 0.111664ZM52.7914 62.945L46.3504 62.941L53.4478 147.357C53.9657 153.854 59.274 158.727 65.7594 158.727H194.255C200.387 158.727 205.625 154.16 206.496 148.098L217.677 70.8976C217.936 69.0615 217.477 67.2253 216.359 65.7423C215.253 64.2474 213.628 63.2823 211.792 63.0233C211.707 63.0266 211.504 63.0296 211.188 63.0323L209.908 63.0396C209.64 63.0407 209.346 63.0417 209.025 63.0427L202.357 63.0528C201.795 63.0532 201.21 63.0535 200.603 63.0538L184.925 63.0532C184.051 63.0529 183.159 63.0525 182.252 63.0521L164.36 63.0412C163.288 63.0405 162.205 63.0396 161.11 63.0388L150.986 63.0307C149.833 63.0297 148.671 63.0288 147.501 63.0278L136.778 63.0183C135.567 63.0172 134.35 63.0161 133.128 63.015L125.741 63.0082C124.502 63.0071 123.259 63.0059 122.013 63.0048L110.74 62.9942C109.483 62.9931 108.226 62.9919 106.968 62.9907L99.4276 62.9837C98.1728 62.9825 96.9193 62.9814 95.668 62.9802L88.1915 62.9735C86.9516 62.9723 85.7153 62.9712 84.4833 62.9701L73.531 62.9607C72.3313 62.9597 71.1381 62.9587 69.9521 62.9578L56.1113 62.9472C54.9943 62.9465 53.8875 62.9457 52.7914 62.945ZM175.35 88.7918C180.223 88.7918 184.178 92.7466 184.178 97.6195C184.178 102.492 180.223 106.447 175.35 106.447H142.724C137.839 106.447 133.896 102.492 133.896 97.6195C133.896 92.7466 137.839 88.7918 142.724 88.7918H175.35Z"/>
        </g>
        <defs>
            <clipPath id="clip0_7_3__buy">
                <rect width="236" height="230" fill="white"/>
            </clipPath>
        </defs>
    </symbol>
    <symbol id="delivery" viewBox="0 0 240 156" xmlns="http://www.w3.org/2000/svg">
        <path d="M240 124.711C238.869 126.822 237.062 127.457 234.743 127.389C231.249 127.276 227.748 127.358 224.067 127.358C223.691 135.168 220.792 141.577 214.69 146.324C210.152 149.855 204.94 151.481 199.189 151.282C189.325 150.945 177.217 143.614 176.186 127.532C148.114 127.532 120.034 127.532 91.7496 127.532C91.3806 135.461 88.287 142.007 81.8172 146.747C77.241 150.098 72.0654 151.568 66.4086 151.257C57.1512 150.746 45.0309 143.963 43.8808 127.358C43.0806 127.358 42.2555 127.358 41.4304 127.358C35.8047 127.358 30.179 127.389 24.5532 127.351C19.1275 127.314 16.0084 124.169 15.9646 118.756C15.9458 116.364 15.9584 113.972 15.9584 111.319C12.4391 111.319 9.17622 111.325 5.91329 111.313C4.97566 111.313 4.02554 111.35 3.10667 111.219C1.23767 110.945 0.175035 109.73 0.0187643 107.924C-0.150007 105.987 0.82512 104.623 2.72537 104.087C3.46297 103.876 4.26932 103.857 5.04442 103.857C16.2146 103.844 27.3911 103.844 38.5613 103.85C39.1051 103.85 39.6615 103.844 40.199 103.931C42.2743 104.268 43.6307 105.856 43.537 107.781C43.4432 109.724 41.993 111.232 39.8552 111.269C35.3234 111.356 30.7915 111.307 26.2597 111.313C25.4221 111.313 24.5845 111.313 23.6093 111.313C23.6093 114.215 23.6093 116.825 23.6093 119.64C24.1844 119.715 24.772 119.864 25.3658 119.864C31.4604 119.883 37.555 119.833 43.6495 119.908C44.9809 119.921 45.4872 119.391 46.0248 118.251C50.3316 109.083 57.6263 103.969 67.7778 103.944C78.0228 103.925 85.3986 109.014 89.7054 118.32C90.2496 119.497 90.8682 119.902 92.1498 119.902C116.915 119.864 141.688 119.876 166.453 119.87C166.984 119.87 167.516 119.783 168.304 119.721C168.304 118.793 168.304 117.965 168.304 117.13C168.304 109.269 168.304 101.403 168.304 93.5418C168.304 92.919 168.272 92.2902 168.322 91.6734C168.503 89.481 170.06 87.918 172.035 87.8862C174.135 87.8556 175.773 89.4564 175.786 91.8102C175.835 100.219 175.81 108.628 175.81 117.037C175.81 117.578 175.711 118.152 175.848 118.663C175.967 119.092 176.329 119.734 176.635 119.771C177.048 119.815 177.554 119.41 177.929 119.092C178.136 118.918 178.148 118.525 178.286 118.245C182.642 109.095 189.919 103.982 200.064 103.95C210.315 103.919 217.678 109.039 222.004 118.32C222.554 119.503 223.141 119.958 224.429 119.908C226.993 119.821 229.561 119.883 232.306 119.883C232.306 114.377 232.306 109.051 232.306 103.327C230.999 103.327 229.63 103.358 228.261 103.321C221.372 103.135 216.585 98.2884 216.484 91.4124C216.448 89.0016 216.448 86.5842 216.484 84.174C216.535 81.2652 217.872 79.9326 220.835 79.8954C224.348 79.8516 227.861 79.8822 231.686 79.8822C231.118 77.4096 229.886 75.4602 227.986 74.3394C225.836 73.0686 223.342 71.6232 220.972 71.5866C206.29 71.337 191.594 71.4552 176.905 71.4552C176.611 71.4552 176.317 71.5488 175.798 71.6358C175.798 73.0002 175.848 74.3016 175.786 75.6036C175.673 77.8458 174.191 79.347 172.141 79.3842C170.116 79.422 168.541 77.9328 168.328 75.7284C168.259 75.0306 168.297 74.3268 168.297 73.629C168.297 52.6073 168.297 31.5855 168.297 10.5638C168.297 9.64194 168.297 8.71386 168.297 7.63632C120.034 7.63632 71.9406 7.63632 23.4656 7.63632C23.4656 8.52084 23.4656 9.41772 23.4656 10.3147C23.4656 31.4111 23.4656 52.5138 23.4656 73.6104C23.4656 74.3892 23.5031 75.174 23.4218 75.9462C23.2093 78.033 21.9653 79.2222 19.9214 79.3536C17.9648 79.4778 16.6522 78.3942 16.1459 76.5252C15.9271 75.7158 15.9584 74.8314 15.9584 73.9782C15.9521 52.3332 15.9458 30.6886 15.9521 9.04404C15.9709 2.99598 18.9775 0 25.0408 0C72.3096 0 119.584 0 166.853 0C172.835 0 175.804 2.93993 175.823 8.85096C175.829 11.0995 175.823 13.3418 175.823 15.8208C176.811 15.8644 177.636 15.9391 178.46 15.9391C186.506 15.9454 194.563 16.1074 202.601 15.9018C212.709 15.6464 221.535 22.5913 219.772 36.2633C219.61 37.509 218.285 38.5991 217.197 40.2247C218.979 47.3379 220.897 55.1049 222.91 62.841C223.066 63.4392 223.76 64.1928 224.342 64.3422C232.73 66.4974 237.819 71.7666 239.669 80.1816C239.719 80.4 239.887 80.586 239.994 80.7918C240 95.4354 240 110.073 240 124.711ZM215.228 63.8442C215.097 63.1152 215.015 62.511 214.872 61.9194C213.209 55.2109 211.484 48.515 209.89 41.7881C209.484 40.0752 208.808 39.4212 206.939 39.4461C197.42 39.552 187.894 39.4897 178.367 39.5022C177.604 39.5022 176.848 39.5707 176.03 39.6081C176.03 47.805 176.03 55.8275 176.03 63.8502C189.181 63.8442 202.12 63.8442 215.228 63.8442ZM200.239 143.826C209.122 143.789 216.472 136.426 216.466 127.57C216.46 118.706 209.115 111.4 200.195 111.368C191.206 111.337 183.737 118.812 183.849 127.725C183.961 136.613 191.35 143.87 200.239 143.826ZM67.8774 143.826C76.785 143.819 84.0918 136.545 84.1422 127.631C84.1986 118.775 76.9164 111.462 67.9584 111.368C58.9889 111.275 51.5255 118.693 51.563 127.663C51.6068 136.526 58.9827 143.833 67.8774 143.826ZM175.967 23.4571C175.967 26.4594 175.967 29.0691 175.967 31.7849C188.149 31.7849 200.195 31.7849 212.234 31.7849C212.371 26.9452 208.846 23.5256 203.72 23.4696C198.101 23.4136 192.481 23.4571 186.868 23.4571C183.287 23.4571 179.717 23.4571 175.967 23.4571ZM232.362 87.525C229.549 87.525 226.867 87.525 224.21 87.525C223.286 94.707 225.242 96.6372 232.362 95.5908C232.362 93 232.362 90.384 232.362 87.525Z"/>
        <path d="M92.007 70.3464C101.383 60.978 110.597 51.7783 119.81 42.5785C121.573 40.8158 123.311 39.0158 125.124 37.3029C126.905 35.6149 129.006 35.5464 130.562 37.0101C132.156 38.5112 132.175 40.822 130.393 42.6034C118.542 54.4628 106.666 66.3036 94.7574 78.1068C92.8698 79.9818 90.9192 79.9194 88.9878 78.0132C82.4928 71.6046 76.0362 65.1576 69.5916 58.6921C67.7412 56.8298 67.6536 54.6933 69.2166 53.105C70.8546 51.442 72.9978 51.5478 74.9922 53.5099C80.043 58.4928 85.056 63.5196 90.0876 68.5272C90.6258 69.063 91.2006 69.5802 92.007 70.3464Z"/>
        <path d="M127.945 111.319C119.194 111.319 110.449 111.319 101.698 111.312C100.916 111.312 100.129 111.337 99.3607 111.225C97.3663 110.932 96.2977 109.618 96.2161 107.731C96.1345 105.937 97.0789 104.579 98.8975 104.093C99.7105 103.875 100.598 103.85 101.448 103.85C119.182 103.838 136.909 103.838 154.643 103.844C155.186 103.844 155.743 103.832 156.28 103.9C158.48 104.199 159.924 105.838 159.793 107.83C159.668 109.768 158.212 111.2 156.061 111.275C153.255 111.368 150.436 111.312 147.629 111.312C141.065 111.325 134.509 111.319 127.945 111.319Z"/>
        <path d="M35.8181 95.3436C28.092 95.3436 20.3597 95.3496 12.6337 95.3376C9.68339 95.331 7.97063 93.93 7.98941 91.6068C8.00819 89.3268 9.78965 87.8814 12.7025 87.8754C28.1608 87.8628 43.619 87.8754 59.0773 87.8628C60.8526 87.8628 62.5338 88.2924 63.1092 90.018C63.4776 91.1208 63.459 92.8896 62.7966 93.6492C61.9776 94.596 60.315 95.25 59.0023 95.2752C51.2763 95.418 43.544 95.3436 35.8181 95.3436Z"/>
        <path d="M200.183 119.909C204.503 119.922 207.947 123.353 207.922 127.62C207.904 131.843 204.347 135.368 200.133 135.356C195.902 135.344 192.401 131.812 192.407 127.577C192.42 123.285 195.858 119.897 200.183 119.909Z"/>
        <path d="M67.7873 119.908C72.1373 119.87 75.5441 123.209 75.5759 127.532C75.6065 131.823 72.1937 135.311 67.9307 135.355C63.7367 135.399 60.1361 131.867 60.0797 127.663C60.0173 123.433 63.4871 119.939 67.7873 119.908Z"/>
    </symbol>
    <symbol id="leaf" viewBox="0 0 260 227" xmlns="http://www.w3.org/2000/svg">
        <path d="M166.864 101.944C174.037 101.954 179.876 96.122 179.876 88.9611C179.876 81.8036 174.042 75.9692 166.884 75.9692C119.036 75.9692 82.8937 89.7688 56.137 107.401C56.3507 105.918 56.6081 104.43 56.9134 102.937C63.0619 72.899 87.1169 48.5312 117.014 41.5774C130.019 38.5652 142.53 38.8237 154.064 41.568C183.263 48.5133 216.048 37.7594 232.504 9.27679C232.865 8.64977 233.452 8.37051 234.046 8.38784C234.611 8.40437 235.033 8.66411 235.277 9.20735C243.032 26.4263 247.432 47.6905 247.432 68.2067C247.432 128.713 214.355 178.74 165.594 194.862L165.451 194.909L165.311 194.965C156.122 198.605 146.153 200.67 135.708 200.67C106.035 200.67 78.4202 183.966 64.4523 157.422L61.3022 151.436L56.33 156.022C29.2577 180.994 21.6364 209.502 21.2025 211.3C20.4943 214.264 17.8344 216.28 14.8908 216.28C14.4071 216.28 13.8916 216.223 13.3592 216.099C9.88119 215.254 7.73539 211.744 8.56568 208.267C10.6963 199.508 21.2645 172.811 45.8771 148.369C70.3303 124.085 108.712 101.945 166.864 101.944Z" stroke-width="9"/>
    </symbol>
    <symbol id="user" viewBox="0 0 299 230" xmlns="http://www.w3.org/2000/svg">
        <g clip-path="url(#clip0_7_14__user)">
            <path fill-rule="evenodd" clip-rule="evenodd" d="M149.13 142.657H150.677L154.137 142.669C180.584 142.843 241.02 145.514 241.02 186.478C241.02 227.173 182.69 229.827 154.549 230H144.123C117.676 229.826 57.227 227.158 57.227 186.245C57.227 145.499 117.676 142.842 144.123 142.669L147.584 142.657C148.12 142.657 148.636 142.657 149.13 142.657ZM149.13 163.204C116.583 163.204 77.7748 167.204 77.7748 186.245C77.7748 204.855 114.266 209.206 146.156 209.453L149.13 209.464C181.678 209.464 220.472 205.478 220.472 186.478C220.472 167.245 181.678 163.204 149.13 163.204ZM258.083 137.098C291.275 142.07 298.247 157.659 298.247 169.865C298.247 177.317 295.316 190.919 275.727 198.385C274.521 198.837 273.288 199.056 272.069 199.056C267.932 199.056 264.028 196.536 262.467 192.44C260.439 187.138 263.11 181.193 268.412 179.18C277.699 175.645 277.699 171.741 277.699 169.865C277.699 163.865 270.069 159.673 255.028 157.426C249.426 156.577 245.549 151.358 246.385 145.728C247.22 140.111 252.426 136.372 258.083 137.098ZM51.8626 145.728C52.6983 151.358 48.8216 156.577 43.2189 157.426C28.1779 159.673 20.5478 163.865 20.5478 169.865C20.5478 171.741 20.5478 175.632 29.8491 179.18C35.1504 181.193 37.8217 187.138 35.7943 192.44C34.2326 196.536 30.3286 199.056 26.1916 199.056C24.9724 199.056 23.7396 198.837 22.5341 198.385C2.93149 190.905 0 177.303 0 169.865C0 157.673 6.97255 142.07 40.1778 137.098C45.8353 136.385 51.0133 140.111 51.8626 145.728ZM149.13 0C183.651 0 211.719 28.082 211.719 62.5886C211.719 97.0952 183.651 125.177 149.13 125.177H148.761C132.048 125.122 116.391 118.574 104.665 106.739C92.9117 94.9171 86.4871 79.2186 86.555 62.5475C86.555 28.082 114.624 0 149.13 0ZM149.13 20.5478C125.953 20.5478 107.103 39.4107 107.103 62.5886C107.062 73.8214 111.364 84.3282 119.24 92.2596C127.117 100.191 137.61 104.588 148.788 104.629L149.13 114.903V104.629C172.308 104.629 191.171 85.7802 191.171 62.5886C191.171 39.4107 172.308 20.5478 149.13 20.5478ZM233.911 13.4177C257.993 17.3766 275.486 37.9792 275.486 62.4037C275.431 86.9925 257.061 108.088 232.746 111.499C232.267 111.568 231.787 111.595 231.322 111.595C226.281 111.595 221.883 107.883 221.157 102.746C220.377 97.1158 224.281 91.924 229.911 91.1432C244.157 89.1432 254.911 76.7871 254.938 62.3763C254.938 48.0887 244.691 36.0066 230.568 33.6915C224.979 32.7737 221.185 27.4861 222.103 21.8834C223.034 16.2807 228.281 12.5273 233.911 13.4177ZM76.1584 21.8834C77.0762 27.4861 73.2817 32.7737 67.6927 33.6915C53.5695 36.0066 43.323 48.0887 43.323 62.4037C43.3504 76.7871 54.1037 89.1569 68.3365 91.1432C73.9666 91.924 77.8707 97.1158 77.0899 102.746C76.3638 107.883 71.9666 111.595 66.9256 111.595C66.4598 111.595 65.9804 111.568 65.5009 111.499C41.186 108.088 22.83 86.9925 22.7752 62.4311C22.7752 37.9792 40.2682 17.3766 64.3502 13.4177C70.1173 12.5136 75.2269 16.3081 76.1584 21.8834Z"/>
        </g>
        <defs>
            <clipPath id="clip0_7_14__user">
                <rect width="299" height="230" fill="white"/>
            </clipPath>
        </defs>
    </symbol>
    <symbol id="work" viewBox="0 0 233 230" xmlns="http://www.w3.org/2000/svg">
        <g clip-path="url(#clip0_7_16__work)">
            <path fill-rule="evenodd" clip-rule="evenodd" d="M224.554 148.382C229.366 148.743 232.966 152.949 232.605 157.761L230.391 186.995C228.562 211.113 208.207 230 184.031 230H48.8742C24.6975 230 4.34248 211.113 2.51321 186.995L0.299441 157.761C-0.0617525 152.949 3.55018 148.743 8.36222 148.382C13.1976 148.207 17.3688 151.621 17.7416 156.445L19.9437 185.666C21.0856 200.72 33.7856 212.523 48.8742 212.523H184.031C199.119 212.523 211.831 200.72 212.961 185.666L215.175 156.445C215.548 151.621 219.824 148.195 224.554 148.382ZM131.485 0C148.996 0 163.504 13.1226 165.689 30.0493L188.636 30.0595C213.058 30.0595 232.912 49.9717 232.912 74.463V114.532C232.912 117.643 231.257 120.509 228.589 122.071C199.83 138.913 163.398 148.736 125.189 150.047L125.193 171.003C125.193 175.827 121.278 179.742 116.455 179.742C111.631 179.742 107.716 175.827 107.716 171.003L107.709 150.049C69.5377 148.751 33.1035 138.925 4.32267 122.071C1.64285 120.509 0 117.643 0 114.532V74.3465C0 49.9251 19.9123 30.0595 44.3919 30.0595L67.2206 30.0493C69.4056 13.1226 83.913 0 101.424 0H131.485ZM188.636 47.5366H44.3919C29.548 47.5366 17.4771 59.5608 17.4771 74.3465V109.441C45.1342 124.468 80.0013 132.704 116.293 132.72L116.455 132.705L116.584 132.71L122.132 132.652C156.455 131.834 189.197 123.691 215.435 109.441V74.463C215.435 59.6074 203.422 47.5366 188.636 47.5366ZM131.485 17.4771H101.424C93.5789 17.4771 86.9563 22.8166 85 30.0522H147.909C145.953 22.8166 139.33 17.4771 131.485 17.4771Z"/>
        </g>
        <defs>
            <clipPath id="clip0_7_16__work">
                <rect width="233" height="230" fill="white"/>
            </clipPath>
        </defs>
    </symbol>
</svg>