<svg viewBox="0 0 148 34" id="banner-arrow" xmlns="http://www.w3.org/2000/svg">
	<path d="M148 13.7703C143.138 10.1982 137.376 4.84013 134.242 0L134.841 9.01349C122.101 6.46741 111.536 7.78113 103.424 12.9328C100.586 14.7367 98.0353 17.0248 95.5763 19.2375C91.6662 22.75 87.9737 26.07 83.2473 27.5723C77.4071 29.4317 70.5131 28.3522 62.168 24.2701C60.1002 23.258 58.0264 22.1269 56.0205 21.0335C51.4557 18.5429 46.7353 15.9671 41.6017 14.5264C33.9073 12.3673 25.3586 13.1035 17.5305 16.6061C9.70235 20.1087 3.47895 25.9788 0 33.1368L1.79636 34C8.5347 20.1305 26.147 12.2502 41.0588 16.4374C45.9729 17.8265 50.5915 20.3369 55.0584 22.7738C57.0823 23.8772 59.1761 25.0202 61.2858 26.0502C70.1159 30.3704 77.4989 31.4857 83.854 29.4615C88.9916 27.8243 93.0175 24.2066 96.9116 20.706C99.3067 18.5469 101.798 16.3144 104.496 14.6018C112.117 9.76164 122.116 8.52728 134.236 10.9146L128.967 18.1282C134.22 15.7051 141.972 14.2148 148 13.7703Z" />
</svg>
 