<svg width="0" height="0" fill="none" style="visibility: hidden; position: absolute;" aria-hidden="true">
    <!-- Buy Icon -->
    <symbol id="buy" width="236" height="230" viewBox="0 0 236 230" fill="none" xmlns="http://www.w3.org/2000/svg">
        <path fill-rule="evenodd" clip-rule="evenodd" d="M60.6606 199.527C69.0645 199.527 75.903 206.354 75.903 214.758C75.903 223.162 69.0645 230 60.6606 230C52.2566 230 45.4299 223.162 45.4299 214.758C45.4299 206.354 52.2566 199.527 60.6606 199.527ZM193.432 199.527C201.848 199.527 208.686 206.354 208.686 214.758C208.686 223.162 201.848 230 193.432 230C185.028 230 178.201 223.162 178.201 214.758C178.201 206.354 185.028 199.527 193.432 199.527ZM10.3336 0.111664L34.8156 4.34893C38.7586 5.04337 41.76 8.31549 42.1013 12.3174L44.8673 45.2857L55.1527 45.2901C56.8311 45.2908 58.4917 45.2916 60.1347 45.2923L79.0176 45.3013C80.5228 45.3021 82.0112 45.3028 83.4829 45.3036L104.332 45.315C105.642 45.3158 106.936 45.3165 108.215 45.3173L122.826 45.3266C123.983 45.3274 125.126 45.3282 126.254 45.329L139.105 45.3384C140.12 45.3392 141.12 45.34 142.108 45.3408L153.312 45.3505C154.194 45.3513 155.062 45.3521 155.918 45.3529L163.282 45.3602C164.063 45.361 164.833 45.3618 165.59 45.3627L174.118 45.3726C174.783 45.3734 175.437 45.3742 176.08 45.3751L183.281 45.3851C183.839 45.386 184.387 45.3868 184.925 45.3876L189.501 45.3953C189.981 45.3961 190.451 45.397 190.912 45.3979L196.01 45.4082C196.4 45.409 196.781 45.4099 197.154 45.4108L200.291 45.4186C200.616 45.4195 200.933 45.4204 201.243 45.4213L204.606 45.4319C204.858 45.4328 205.103 45.4336 205.342 45.4345L207.317 45.4426C207.518 45.4435 207.712 45.4444 207.901 45.4453L209.899 45.4562C210.044 45.4571 210.184 45.458 210.319 45.4589L211.408 45.4672C211.515 45.4681 211.618 45.469 211.717 45.47L212.501 45.4783C212.577 45.4792 212.649 45.4802 212.718 45.4811L213.251 45.4896C213.302 45.4905 213.349 45.4914 213.394 45.4924L213.731 45.5009C213.762 45.5019 213.791 45.5028 213.818 45.5038L214.062 45.5153C214.077 45.5163 214.091 45.5173 214.104 45.5182C214.218 45.5289 214.235 45.5309 214.252 45.5328C220.808 46.4862 226.576 49.9113 230.507 55.1844C234.438 60.4457 236.086 66.931 235.144 73.4282L223.974 150.617C221.867 165.306 209.109 176.382 194.278 176.382H65.7359C50.2345 176.382 37.1108 164.282 35.8514 148.804L25.0699 20.58L7.33218 17.5198C2.51817 16.6723 -0.695088 12.1173 0.128825 7.30325C0.976279 2.48924 5.6255 -0.641628 10.3336 0.111664ZM52.7914 62.945L46.3504 62.941L53.4478 147.357C53.9657 153.854 59.274 158.727 65.7594 158.727H194.255C200.387 158.727 205.625 154.16 206.496 148.098L217.677 70.8976C217.936 69.0615 217.477 67.2253 216.359 65.7423C215.253 64.2474 213.628 63.2823 211.792 63.0233C211.707 63.0266 211.504 63.0296 211.188 63.0323L209.908 63.0396C209.64 63.0407 209.346 63.0417 209.025 63.0427L202.357 63.0528C201.795 63.0532 201.21 63.0535 200.603 63.0538L184.925 63.0532C184.051 63.0529 183.159 63.0525 182.252 63.0521L164.36 63.0412C163.288 63.0405 162.205 63.0396 161.11 63.0388L150.986 63.0307C149.833 63.0297 148.671 63.0288 147.501 63.0278L136.778 63.0183C135.567 63.0172 134.35 63.0161 133.128 63.015L125.741 63.0082C124.502 63.0071 123.259 63.0059 122.013 63.0048L110.74 62.9942C109.483 62.9931 108.226 62.9919 106.968 62.9907L99.4276 62.9837C98.1728 62.9825 96.9193 62.9814 95.668 62.9802L88.1915 62.9735C86.9516 62.9723 85.7153 62.9712 84.4833 62.9701L73.531 62.9607C72.3313 62.9597 71.1381 62.9587 69.9521 62.9578L56.1113 62.9472C54.9943 62.9465 53.8875 62.9457 52.7914 62.945ZM175.35 88.7918C180.223 88.7918 184.178 92.7466 184.178 97.6195C184.178 102.492 180.223 106.447 175.35 106.447H142.724C137.839 106.447 133.896 102.492 133.896 97.6195C133.896 92.7466 137.839 88.7918 142.724 88.7918H175.35Z" fill="#0DA487"/>
    </symbol>
    <!-- User Icon -->
    <symbol id="user" width="299" height="230" viewBox="0 0 299 230" fill="none" xmlns="http://www.w3.org/2000/svg">
        <path fill-rule="evenodd" clip-rule="evenodd" d="M149.13 142.657L150.677 142.657L154.137 142.669C180.584 142.843 241.02 145.514 241.02 186.478C241.02 227.173 182.69 229.827 154.549 230L144.123 230C117.676 229.826 57.227 227.158 57.227 186.245C57.227 145.499 117.676 142.842 144.123 142.669L147.584 142.657C148.12 142.657 148.636 142.657 149.13 142.657ZM149.13 163.204C116.583 163.204 77.7748 167.204 77.7748 186.245C77.7748 204.855 114.266 209.206 146.156 209.453L149.13 209.464C181.678 209.464 220.472 205.478 220.472 186.478C220.472 167.245 181.678 163.204 149.13 163.204ZM258.083 137.098C291.275 142.07 298.247 157.659 298.247 169.865C298.247 177.317 295.316 190.919 275.727 198.385C274.521 198.837 273.288 199.056 272.069 199.056C267.932 199.056 264.028 196.536 262.467 192.44C260.439 187.138 263.11 181.193 268.412 179.18C277.699 175.645 277.699 171.741 277.699 169.865C277.699 163.865 270.069 159.673 255.028 157.426C249.426 156.577 245.549 151.358 246.385 145.728C247.22 140.111 252.426 136.372 258.083 137.098ZM51.8626 145.728C52.6983 151.358 48.8216 156.577 43.2189 157.426C28.1779 159.673 20.5478 163.865 20.5478 169.865C20.5478 171.741 20.5478 175.632 29.8491 179.18C35.1504 181.193 37.8217 187.138 35.7943 192.44C34.2326 196.536 30.3286 199.056 26.1916 199.056C24.9724 199.056 23.7396 198.837 22.5341 198.385C2.93149 190.905 0 177.303 0 169.865C0 157.673 6.97255 142.07 40.1778 137.098C45.8353 136.385 51.0133 140.111 51.8626 145.728ZM149.13 0C183.651 0 211.719 28.082 211.719 62.5886C211.719 97.0952 183.651 125.177 149.13 125.177H148.761C132.048 125.122 116.391 118.574 104.665 106.739C92.9117 94.9171 86.4871 79.2186 86.555 62.5475C86.555 28.082 114.624 0 149.13 0ZM149.13 20.5478C125.953 20.5478 107.103 39.4107 107.103 62.5886C107.062 73.8214 111.364 84.3282 119.24 92.2596C127.117 100.191 137.61 104.588 148.788 104.629L149.13 114.903V104.629C172.308 104.629 191.171 85.7802 191.171 62.5886C191.171 39.4107 172.308 20.5478 149.13 20.5478ZM233.911 13.4177C257.993 17.3766 275.486 37.9792 275.486 62.4037C275.431 86.9925 257.061 108.088 232.746 111.499C232.267 111.568 231.787 111.595 231.322 111.595C226.281 111.595 221.883 107.883 221.157 102.746C220.377 97.1158 224.281 91.924 229.911 91.1432C244.157 89.1432 254.911 76.7871 254.938 62.3763C254.938 48.0887 244.691 36.0066 230.568 33.6915C224.979 32.7737 221.185 27.4861 222.103 21.8834C223.034 16.2807 228.281 12.5273 233.911 13.4177ZM76.1584 21.8834C77.0762 27.4861 73.2817 32.7737 67.6927 33.6915C53.5695 36.0066 43.323 48.0887 43.323 62.4037C43.3504 76.7871 54.1037 89.1569 68.3365 91.1432C73.9666 91.924 77.8707 97.1158 77.0899 102.746C76.3638 107.883 71.9666 111.595 66.9256 111.595C66.4598 111.595 65.9804 111.568 65.5009 111.499C41.186 108.088 22.83 86.9925 22.7752 62.4311C22.7752 37.9792 40.2682 17.3766 64.3502 13.4177C70.1173 12.5136 75.2269 16.3081 76.1584 21.8834Z" fill="#0DA487"/>
    </symbol>
    <!-- Work Icon -->
    <symbol id="work" width="233" height="230" viewBox="0 0 233 230" fill="none" xmlns="http://www.w3.org/2000/svg">
        <path fill-rule="evenodd" clip-rule="evenodd" d="M224.554 148.382C229.366 148.743 232.966 152.949 232.605 157.761L230.391 186.995C228.562 211.113 208.207 230 184.031 230H48.8742C24.6975 230 4.34248 211.113 2.51321 186.995L0.299441 157.761C-0.0617525 152.949 3.55018 148.743 8.36222 148.382C13.1976 148.207 17.3688 151.621 17.7416 156.445L19.9437 185.666C21.0856 200.72 33.7856 212.523 48.8742 212.523H184.031C199.119 212.523 211.831 200.72 212.961 185.666L215.175 156.445C215.548 151.621 219.824 148.195 224.554 148.382ZM131.485 0C148.996 0 163.504 13.1226 165.689 30.0493L188.636 30.0595C213.058 30.0595 232.912 49.9717 232.912 74.463V114.532C232.912 117.643 231.257 120.509 228.589 122.071C199.83 138.913 163.398 148.736 125.189 150.047L125.193 171.003C125.193 175.827 121.278 179.742 116.455 179.742C111.631 179.742 107.716 175.827 107.716 171.003L107.709 150.049C69.5377 148.751 33.1035 138.925 4.32267 122.071C1.64285 120.509 0 117.643 0 114.532V74.3465C0 49.9251 19.9123 30.0595 44.3919 30.0595L67.2206 30.0493C69.4056 13.1226 83.913 0 101.424 0H131.485ZM188.636 47.5366H44.3919C29.548 47.5366 17.4771 59.5608 17.4771 74.3465V109.441C45.1342 124.468 80.0013 132.704 116.293 132.72L116.455 132.705L116.584 132.71L122.132 132.652C156.455 131.834 189.197 123.691 215.435 109.441V74.463C215.435 59.6074 203.422 47.5366 188.636 47.5366ZM131.485 17.4771H101.424C93.5789 17.4771 86.9563 22.8166 85 30.0522H147.909C145.953 22.8166 139.33 17.4771 131.485 17.4771Z" fill="#0DA487"/>
    </symbol>
</svg>