<svg width="644" height="76" viewBox="0 0 644 76" fill="none" xmlns="http://www.w3.org/2000/svg">
	<path opacity="0.3"
		d="M0 6V69.2117C7.74133 68.5956 15.1293 63.6107 15.6674 55.9533C16.1492 62.9786 23.5854 68.6756 30.5236 67.3474C36.1449 66.2752 40.3047 60.8422 40.5858 55.2651C41.5669 58.4957 43.4594 61.3772 46.0378 63.5661C48.6163 65.7551 51.772 67.1593 55.1289 67.6114C62.6614 68.5076 70.2823 64.4109 74.6428 58.2497C71.5993 63.8507 73.8398 71.9242 79.6217 74.8448C85.9015 78.0454 94.6305 74.2127 96.5739 67.4674C102.364 75.5249 115.767 73.8686 122.737 66.8193C129.707 59.77 131.932 49.4401 133.859 39.7263C136.437 50.4403 147.511 58.4417 158.529 57.5456C166.077 56.9295 172.983 52.2006 176.822 45.7514C177.034 47.87 177.813 49.893 179.078 51.6085C180.84 53.8374 183.306 55.4076 186.075 56.0641C188.845 56.7207 191.756 56.425 194.336 55.2251C200.239 64.0908 215.938 63.3146 220.925 53.8969C222.767 58.5788 226.03 62.5714 230.257 65.3181C234.485 68.0649 239.468 69.429 244.51 69.2202C249.553 69.0115 254.405 67.2404 258.389 64.1537C262.374 61.067 265.292 56.8186 266.739 52.0005C272.786 60.5541 288.959 57.2175 291.103 46.9756C292.505 51.1663 295.266 54.7735 298.951 57.2298C302.635 59.6861 307.035 60.852 311.458 60.5441C315.88 60.2362 320.075 58.472 323.381 55.529C326.687 52.586 328.918 48.6313 329.721 44.2871C332.066 55.4332 342.385 64.4108 353.813 65.219C365.24 66.0272 376.707 58.6018 380.61 47.9038C380.609 51.3269 381.693 54.663 383.705 57.4372C385.718 60.2113 388.558 62.2821 391.82 63.3548C395.083 64.4274 398.602 64.4472 401.876 63.4114C405.151 62.3756 408.014 60.3369 410.058 57.5856C407.183 62.6745 410.162 70.0519 415.767 71.7322C421.373 73.4125 427.949 68.9077 428.375 63.0986C434.036 73.9086 448.62 79.0296 459.83 74.1407C470.27 69.6038 476.26 57.0815 473.763 46.1355C476.228 52.0726 483.311 55.7372 489.944 55.5132C497.461 55.2491 504.311 51.1524 510.189 46.4635C515.907 57.1135 533.911 57.6016 540.199 47.2637C541.317 51.8748 543.81 56.0406 547.35 59.2129C550.89 62.3852 555.311 64.4153 560.031 65.0362C564.751 65.6571 569.549 64.8396 573.794 62.6914C578.038 60.5431 581.531 57.1647 583.812 53.0007C586.799 62.2664 603.141 61.9064 605.711 52.5126C610.585 63.9148 625.112 70.1159 636.773 65.8271C639.439 64.8179 641.891 63.3167 644 61.4023V6H0Z"
		fill="#6CACBA" />
	<path
		d="M0 0V63.2117C7.74133 62.5956 15.1293 57.6107 15.6674 49.9533C16.1492 56.9786 23.5854 62.6756 30.5236 61.3474C36.1449 60.2752 40.3047 54.8422 40.5858 49.2651C41.5669 52.4957 43.4594 55.3772 46.0378 57.5661C48.6163 59.7551 51.772 61.1593 55.1289 61.6114C62.6614 62.5076 70.2823 58.4109 74.6428 52.2497C71.5993 57.8507 73.8398 65.9242 79.6217 68.8448C85.9015 72.0454 94.6305 68.2127 96.5739 61.4674C102.364 69.5249 115.767 67.8686 122.737 60.8193C129.707 53.77 131.932 43.4401 133.859 33.7263C136.437 44.4403 147.511 52.4417 158.529 51.5456C166.077 50.9295 172.983 46.2006 176.822 39.7514C177.034 41.87 177.813 43.893 179.078 45.6085C180.84 47.8374 183.306 49.4076 186.075 50.0641C188.845 50.7207 191.756 50.425 194.336 49.2251C200.239 58.0908 215.938 57.3146 220.925 47.8969C222.767 52.5788 226.03 56.5714 230.257 59.3181C234.485 62.0649 239.468 63.429 244.51 63.2202C249.553 63.0115 254.405 61.2404 258.389 58.1537C262.374 55.067 265.292 50.8186 266.739 46.0005C272.786 54.5541 288.959 51.2175 291.103 40.9756C292.505 45.1663 295.266 48.7735 298.951 51.2298C302.635 53.6861 307.035 54.852 311.458 54.5441C315.88 54.2362 320.075 52.472 323.381 49.529C326.687 46.586 328.918 42.6313 329.721 38.2871C332.066 49.4332 342.385 58.4108 353.813 59.219C365.24 60.0272 376.707 52.6018 380.61 41.9038C380.609 45.3269 381.693 48.663 383.705 51.4372C385.718 54.2113 388.558 56.2821 391.82 57.3548C395.083 58.4274 398.602 58.4472 401.876 57.4114C405.151 56.3756 408.014 54.3369 410.058 51.5856C407.183 56.6745 410.162 64.0519 415.767 65.7322C421.373 67.4125 427.949 62.9077 428.375 57.0986C434.036 67.9086 448.62 73.0296 459.83 68.1407C470.27 63.6038 476.26 51.0815 473.763 40.1355C476.228 46.0726 483.311 49.7372 489.944 49.5132C497.461 49.2491 504.311 45.1524 510.189 40.4635C515.907 51.1135 533.911 51.6016 540.199 41.2637C541.317 45.8748 543.81 50.0406 547.35 53.2129C550.89 56.3852 555.311 58.4153 560.031 59.0362C564.751 59.6571 569.549 58.8396 573.794 56.6914C578.038 54.5431 581.531 51.1647 583.812 47.0007C586.799 56.2664 603.141 55.9064 605.711 46.5126C610.585 57.9148 625.112 64.1159 636.773 59.8271C639.439 58.8179 641.891 57.3167 644 55.4023V0H0Z"
		fill="white" />
</svg>
 