<svg viewBox="0 0 38 37" id="discount" xmlns="http://www.w3.org/2000/svg">
	<path
		d="M19.2236 35.0723C18.2523 35.0723 17.3427 34.7024 16.6644 34.0087L14.3211 31.6653C14.1361 31.4803 13.6427 31.2799 13.3961 31.2799H10.066C8.06188 31.2799 6.44312 29.661 6.44312 27.6568V24.327C6.44312 24.0803 6.2427 23.587 6.0577 23.402L3.71439 21.0586C3.03606 20.3803 2.65063 19.4707 2.65063 18.4994C2.65063 17.5282 3.02064 16.6185 3.71439 15.9402L6.0577 13.5968C6.2427 13.4118 6.44312 12.9185 6.44312 12.6719V9.342C6.44312 7.33784 8.06188 5.71894 10.066 5.71894H13.3961C13.6427 5.71894 14.1361 5.51852 14.3211 5.33352L16.6644 2.99016C18.021 1.63349 20.4261 1.63349 21.7827 2.99016L24.126 5.33352C24.311 5.51852 24.8044 5.71894 25.051 5.71894H28.3811C30.3852 5.71894 32.004 7.33784 32.004 9.342V12.6719C32.004 12.9185 32.2044 13.4118 32.3894 13.5968L34.7327 15.9402C35.411 16.6185 35.7965 17.5282 35.7965 18.4994C35.7965 19.4707 35.4265 20.3803 34.7327 21.0586L32.3894 23.402C32.2044 23.587 32.004 24.0803 32.004 24.327V27.6568C32.004 29.661 30.3852 31.2799 28.3811 31.2799H25.051C24.8044 31.2799 24.311 31.4803 24.126 31.6653L21.7827 34.0087C21.1044 34.7024 20.1948 35.0723 19.2236 35.0723ZM7.69187 21.7677C8.30853 22.3844 8.75562 23.4636 8.75562 24.327V27.6568C8.75562 28.3814 9.34146 28.9674 10.066 28.9674H13.3961C14.2594 28.9674 15.3386 29.4144 15.9552 30.0311L18.2985 32.3744C18.7919 32.8677 19.6552 32.8677 20.1486 32.3744L22.4919 30.0311C23.1085 29.4144 24.1877 28.9674 25.051 28.9674H28.3811C29.1056 28.9674 29.6915 28.3814 29.6915 27.6568V24.327C29.6915 23.4636 30.1386 22.3844 30.7552 21.7677L33.0986 19.4244C33.3452 19.1777 33.484 18.854 33.484 18.4994C33.484 18.1448 33.3452 17.8211 33.0986 17.5745L30.7552 15.2311C30.1386 14.6144 29.6915 13.5352 29.6915 12.6719V9.342C29.6915 8.61742 29.1056 8.03144 28.3811 8.03144H25.051C24.1877 8.03144 23.1085 7.58444 22.4919 6.96778L20.1486 4.62441C19.6552 4.13108 18.7919 4.13108 18.2985 4.62441L15.9552 6.96778C15.3386 7.58444 14.2594 8.03144 13.3961 8.03144H10.066C9.34146 8.03144 8.75562 8.61742 8.75562 9.342V12.6719C8.75562 13.5352 8.30853 14.6144 7.69187 15.2311L5.34855 17.5745C5.10188 17.8211 4.96313 18.1448 4.96313 18.4994C4.96313 18.854 5.10188 19.1777 5.34855 19.4244L7.69187 21.7677Z" />
	<path
		d="M23.8491 24.6666C22.9858 24.6666 22.292 23.9728 22.292 23.1249C22.292 22.277 22.9857 21.5833 23.8337 21.5833C24.6816 21.5833 25.3753 22.277 25.3753 23.1249C25.3753 23.9728 24.697 24.6666 23.8491 24.6666Z" />
	<path
		d="M14.614 15.4166C13.7506 15.4166 13.0569 14.7228 13.0569 13.8749C13.0569 13.027 13.7506 12.3333 14.5986 12.3333C15.4465 12.3333 16.1402 13.027 16.1402 13.8749C16.1402 14.7228 15.4619 15.4166 14.614 15.4166Z" />
	<path
		d="M14.5984 24.2809C14.3055 24.2809 14.0126 24.173 13.7814 23.9417C13.3343 23.4947 13.3343 22.7546 13.7814 22.3075L23.0314 13.0575C23.4784 12.6104 24.2184 12.6104 24.6655 13.0575C25.1126 13.5046 25.1126 14.2447 24.6655 14.6917L15.4155 23.9417C15.1843 24.173 14.8914 24.2809 14.5984 24.2809Z" />
</svg>
 