<svg width="0" height="0" fill="none" style="visibility: hidden; position: absolute;"
	aria-hidden="true">
	<symbol id="contact" viewBox="0 0 32 30" xmlns="http://www.w3.org/2000/svg">
		<path
			d="M5.70393 22.4552H3.79593C3.06124 22.4552 2.35661 22.1636 1.83684 21.6444C1.31708 21.1253 1.02469 20.4211 1.02393 19.6865V14.7784C1.02469 14.0444 1.31668 13.3406 1.83582 12.8215C2.35497 12.3025 3.05886 12.0105 3.79305 12.0098H5.70105C5.85381 12.0098 6.00032 12.0704 6.10834 12.1784C6.21636 12.2864 6.27705 12.4329 6.27705 12.5857V21.8793C6.27705 22.0315 6.21676 22.1776 6.10936 22.2855C6.00196 22.3934 5.85619 22.4544 5.70393 22.4552ZM3.79593 13.1616C3.36677 13.1616 2.95516 13.3318 2.65143 13.635C2.3477 13.9381 2.17669 14.3493 2.17593 14.7784V19.6865C2.17669 20.1151 2.34731 20.5259 2.65041 20.829C2.95351 21.132 3.36439 21.3026 3.79305 21.3034H5.12505V13.1616H3.79593Z"
			stroke-width="0.2" />
		<path
			d="M8.16237 22.4552H5.70393C5.55117 22.4552 5.40466 22.3945 5.29664 22.2865C5.18862 22.1785 5.12793 22.032 5.12793 21.8793V12.5857C5.12793 12.4329 5.18862 12.2864 5.29664 12.1784C5.40466 12.0704 5.55117 12.0098 5.70393 12.0098H8.16417C8.31693 12.0098 8.46344 12.0704 8.57146 12.1784C8.67948 12.2864 8.74017 12.4329 8.74017 12.5857V21.8793C8.74017 21.9551 8.72521 22.0301 8.69615 22.1001C8.66709 22.1701 8.62451 22.2336 8.57083 22.2871C8.51715 22.3407 8.45344 22.383 8.38335 22.4119C8.31326 22.4407 8.23816 22.4554 8.16237 22.4552ZM6.27813 21.3034H7.58637V13.1616H6.27993L6.27813 21.3034Z"
			stroke-width="0.2" />
		<path
			d="M28.2067 22.4552H26.2987C26.1459 22.4552 25.9994 22.3945 25.8914 22.2865C25.7833 22.1785 25.7227 22.032 25.7227 21.8793V12.5857C25.7227 12.4329 25.7833 12.2864 25.8914 12.1784C25.9994 12.0704 26.1459 12.0098 26.2987 12.0098H28.2067C28.9408 12.0105 29.6447 12.3025 30.1639 12.8215C30.683 13.3406 30.975 14.0444 30.9758 14.7784V19.6865C30.975 20.4206 30.683 21.1244 30.1639 21.6434C29.6447 22.1625 28.9408 22.4544 28.2067 22.4552ZM26.8747 21.3034H28.2067C28.6353 21.3026 29.0462 21.132 29.3493 20.829C29.6524 20.5259 29.823 20.1151 29.8238 19.6865V14.7784C29.823 14.3498 29.6524 13.939 29.3493 13.636C29.0462 13.3329 28.6353 13.1623 28.2067 13.1616H26.8747V21.3034Z"
			stroke-width="0.2" />
		<path
			d="M26.298 22.4552H23.8377C23.685 22.4552 23.5384 22.3945 23.4304 22.2865C23.3224 22.1785 23.2617 22.032 23.2617 21.8793V12.5857C23.2617 12.4329 23.3224 12.2864 23.4304 12.1784C23.5384 12.0704 23.685 12.0098 23.8377 12.0098H26.298C26.4507 12.0098 26.5972 12.0704 26.7053 12.1784C26.8133 12.2864 26.874 12.4329 26.874 12.5857V21.8793C26.874 22.032 26.8133 22.1785 26.7053 22.2865C26.5972 22.3945 26.4507 22.4552 26.298 22.4552ZM24.4137 21.3034H25.722V13.1616H24.4137V21.3034Z"
			stroke-width="0.2" />
		<path
			d="M27.7975 13.1615H25.0216C24.8688 13.1615 24.7223 13.1008 24.6143 12.9928C24.5063 12.8848 24.4456 12.7383 24.4456 12.5856C24.4456 8.03775 20.7451 4.33758 16.1965 4.33758C11.6479 4.33758 7.94749 8.03775 7.94749 12.5856C7.94749 12.7383 7.88681 12.8848 7.77878 12.9928C7.67076 13.1008 7.52426 13.1615 7.37149 13.1615H4.59553C4.44277 13.1615 4.29626 13.1008 4.18824 12.9928C4.08022 12.8848 4.01953 12.7383 4.01953 12.5856C4.01953 9.35658 5.30246 6.25984 7.58609 3.9766C9.86972 1.69336 12.967 0.410645 16.1965 0.410645C19.4261 0.410645 22.5233 1.69336 24.807 3.9766C27.0906 6.25984 28.3735 9.35658 28.3735 12.5856C28.3735 12.7383 28.3128 12.8848 28.2048 12.9928C28.0968 13.1008 27.9503 13.1615 27.7975 13.1615ZM25.5803 12.0097H27.2068C27.0589 9.18984 25.8344 6.53426 23.7858 4.59057C21.7372 2.64688 19.0207 1.5633 16.1965 1.5633C13.3724 1.5633 10.6559 2.64688 8.60724 4.59057C6.55864 6.53426 5.33415 9.18984 5.18629 12.0097H6.81277C7.11121 7.09363 11.2048 3.18577 16.1965 3.18577C21.1883 3.18577 25.2819 7.09363 25.5803 12.0097Z"
			stroke-width="0.2" />
		<path
			d="M18.2319 27.9881C18.0849 27.9878 17.9435 27.9312 17.8368 27.83C17.7301 27.7288 17.6661 27.5906 17.6581 27.4438C17.65 27.2969 17.6985 27.1526 17.7934 27.0403C17.8884 26.928 18.0228 26.8563 18.1689 26.8399C24.708 26.1128 25.7264 21.8008 25.7358 21.7565C25.7733 21.6124 25.8652 21.4884 25.9922 21.4106C26.1192 21.3327 26.2715 21.3071 26.417 21.3391C26.5624 21.3711 26.6899 21.4582 26.7725 21.5822C26.8551 21.7061 26.8865 21.8572 26.8601 22.0038C26.8482 22.0585 26.5537 23.3543 25.3301 24.7361C24.6216 25.5362 23.7425 26.2079 22.7179 26.7319C21.455 27.3769 19.9671 27.7988 18.2949 27.9845C18.274 27.9869 18.253 27.9881 18.2319 27.9881Z"
			stroke-width="0.2" />
		<path
			d="M16.6281 29.7035H15.7641C15.1851 29.7035 14.6299 29.4735 14.2205 29.0641C13.8111 28.6547 13.5811 28.0994 13.5811 27.5204C13.5811 26.9415 13.8111 26.3862 14.2205 25.9768C14.6299 25.5674 15.1851 25.3374 15.7641 25.3374H16.6281C17.2071 25.3374 17.7623 25.5674 18.1717 25.9768C18.5811 26.3862 18.8111 26.9415 18.8111 27.5204C18.8111 28.0994 18.5811 28.6547 18.1717 29.0641C17.7623 29.4735 17.2071 29.7035 16.6281 29.7035ZM15.7641 26.4894C15.4906 26.4894 15.2284 26.598 15.035 26.7914C14.8417 26.9847 14.7331 27.247 14.7331 27.5204C14.7331 27.7939 14.8417 28.0561 15.035 28.2495C15.2284 28.4429 15.4906 28.5515 15.7641 28.5515H16.6281C16.9015 28.5515 17.1638 28.4429 17.3572 28.2495C17.5505 28.0561 17.6591 27.7939 17.6591 27.5204C17.6591 27.247 17.5505 26.9847 17.3572 26.7914C17.1638 26.598 16.9015 26.4894 16.6281 26.4894H15.7641Z"
			stroke-width="0.2" />
	</symbol>
	<symbol id="location" viewBox="0 0 17 22" xmlns="http://www.w3.org/2000/svg">
		<path
			d="M8.49968 0.5C4.22211 0.5 0.742188 3.97992 0.742188 8.2575C0.742188 9.66571 1.37374 11.1802 1.40021 11.2441C1.60418 11.7283 2.00666 12.4803 2.29688 12.9211L7.61579 20.9802C7.83345 21.3106 8.15562 21.5 8.49968 21.5C8.84375 21.5 9.16592 21.3106 9.38358 20.9807L14.7029 12.9211C14.9936 12.4803 15.3956 11.7283 15.5996 11.2441C15.6261 11.1807 16.2572 9.66617 16.2572 8.2575C16.2572 3.97992 12.7773 0.5 8.49968 0.5ZM14.7582 10.89C14.5761 11.324 14.2014 12.0235 13.9409 12.4187L8.62152 20.4783C8.51657 20.6375 8.48326 20.6375 8.3783 20.4783L3.05894 12.4187C2.79838 12.0235 2.42374 11.3235 2.24167 10.8896C2.23391 10.8709 1.65483 9.47679 1.65483 8.2575C1.65483 4.48325 4.72543 1.41265 8.49968 1.41265C12.2739 1.41265 15.3445 4.48325 15.3445 8.2575C15.3445 9.47862 14.7641 10.8763 14.7582 10.89Z"
			stroke-width="0.5" />
		<path
			d="M8.49949 4.15088C6.23476 4.15088 4.39258 5.99351 4.39258 8.25779C4.39258 10.5221 6.23476 12.3647 8.49949 12.3647C10.7642 12.3647 12.6064 10.5221 12.6064 8.25779C12.6064 5.99351 10.7642 4.15088 8.49949 4.15088ZM8.49949 11.4521C6.73854 11.4521 5.30522 10.0192 5.30522 8.25779C5.30522 6.49638 6.73854 5.06353 8.49949 5.06353C10.2604 5.06353 11.6938 6.49638 11.6938 8.25779C11.6938 10.0192 10.2604 11.4521 8.49949 11.4521Z"
			stroke-width="0.5" />
	</symbol>
	<symbol id="mail" viewBox="0 0 21 16" xmlns="http://www.w3.org/2000/svg">
		<path
			d="M18.4167 0.875H2.58335C1.71009 0.875 1 1.58509 1 2.45835V13.5417C1 14.4149 1.71009 15.125 2.58335 15.125H18.4167C19.2899 15.125 20 14.4149 20 13.5417V2.45835C20 1.58509 19.2899 0.875 18.4167 0.875ZM2.58335 1.66665H18.4167C18.475 1.66665 18.5264 1.68792 18.5812 1.69994C17.2104 2.9545 12.6651 7.11268 11.0745 8.5458C10.95 8.65791 10.7494 8.79165 10.5 8.79165C10.2507 8.79165 10.0501 8.65791 9.92521 8.54543C8.33474 7.11253 3.78918 2.95413 2.41862 1.70002C2.47346 1.68799 2.52497 1.66665 2.58335 1.66665ZM1.79165 13.5417V2.45835C1.79165 2.38079 1.81503 2.31043 1.83596 2.23955C2.88512 3.19979 6.05663 6.10115 8.11309 7.9712C6.06331 9.73193 2.89098 12.7396 1.83348 13.748C1.81481 13.6807 1.79165 13.6148 1.79165 13.5417ZM18.4167 14.3333H2.58335C2.52011 14.3333 2.46389 14.3113 2.40485 14.2972C3.49761 13.2555 6.69013 10.2305 8.70387 8.5078C8.96638 8.74593 9.20618 8.96306 9.39522 9.13339C9.72148 9.42797 10.1034 9.58335 10.5 9.58335C10.8966 9.58335 11.2785 9.42793 11.6044 9.13377C11.7935 8.96336 12.0335 8.74605 12.2961 8.5078C14.31 10.2303 17.5021 13.2551 18.5951 14.2972C18.5361 14.3113 18.48 14.3333 18.4167 14.3333ZM19.2083 13.5417C19.2083 13.6148 19.1852 13.6807 19.1666 13.748C18.1086 12.7391 14.9367 9.73175 12.8869 7.97124C14.9435 6.10119 18.1145 3.20009 19.164 2.23947C19.185 2.31035 19.2083 2.38075 19.2083 2.45831V13.5417Z"
			stroke-width="0.5" />
	</symbol>
</svg>