<svg width="1920" height="12" viewBox="0 0 1920 12" fill="none" xmlns="http://www.w3.org/2000/svg">
	<path
		d="M-36 0V11.0243C-33.8056 11.0243 -32.7583 9.92183 -31.5115 8.60941C-30.1649 7.19201 -28.6188 5.56462 -25.6265 5.56462C-22.6341 5.56462 -21.0881 7.19201 -19.7415 8.60941C-18.4947 9.92183 -17.4474 11.0243 -15.253 11.0243C-13.0586 11.0243 -12.0112 9.92183 -10.7644 8.60941C-9.41787 7.19201 -7.87182 5.56462 -4.87946 5.56462C-1.8871 5.56462 -0.341041 7.19201 1.00552 8.60941C2.25234 9.92183 3.29966 11.0243 5.49406 11.0243C7.68846 11.0243 8.73578 9.92183 9.9826 8.60941C11.3292 7.19201 12.8752 5.56462 15.8676 5.56462C18.8599 5.56462 20.406 7.19201 21.7525 8.60941C22.9994 9.92183 24.0467 11.0243 26.2411 11.0243C28.4355 11.0243 29.4828 9.92183 30.7296 8.60941C32.0762 7.19201 33.6222 5.56462 36.6146 5.56462C39.607 5.56462 41.153 7.19201 42.4996 8.60941C43.7464 9.92183 44.7937 11.0243 46.9881 11.0243C49.1825 11.0243 50.2298 9.92183 51.4767 8.60941C52.8232 7.19201 54.3693 5.56462 57.3616 5.56462C60.354 5.56462 61.9 7.19201 63.2466 8.60941C64.4934 9.92183 65.5407 11.0243 67.7351 11.0243C69.9295 11.0243 70.9769 9.92183 72.2237 8.60941C73.5702 7.19201 75.1163 5.56462 78.1087 5.56462C81.101 5.56462 82.6471 7.19201 83.9936 8.60941C85.2405 9.92183 86.2878 11.0243 88.4822 11.0243C90.6766 11.0243 91.7239 9.92183 92.9707 8.60941C94.3173 7.19201 95.8633 5.56462 98.8557 5.56462C101.848 5.56462 103.394 7.19201 104.741 8.60941C105.987 9.92183 107.035 11.0243 109.229 11.0243C111.424 11.0243 112.471 9.92183 113.718 8.60941C115.064 7.19201 116.61 5.56462 119.603 5.56462C122.595 5.56462 124.141 7.19201 125.488 8.60941C126.735 9.92183 127.782 11.0243 129.976 11.0243C132.171 11.0243 133.218 9.92183 134.465 8.60941C135.811 7.19201 137.357 5.56462 140.35 5.56462C143.342 5.56462 144.888 7.19201 146.235 8.60941C147.482 9.92183 148.529 11.0243 150.723 11.0243C152.918 11.0243 153.965 9.92183 155.212 8.60941C156.558 7.19201 158.104 5.56462 161.097 5.56462C164.089 5.56462 165.635 7.19201 166.982 8.60941C168.229 9.92183 169.276 11.0243 171.47 11.0243C173.665 11.0243 174.712 9.92183 175.959 8.60941C177.305 7.19201 178.851 5.56462 181.844 5.56462C184.836 5.56462 186.382 7.19201 187.729 8.60941C188.976 9.92183 190.023 11.0243 192.217 11.0243C194.412 11.0243 195.459 9.92183 196.706 8.60941C198.052 7.19201 199.598 5.56462 202.591 5.56462C205.583 5.56462 207.129 7.19201 208.476 8.60941C209.723 9.92183 210.77 11.0243 212.964 11.0243V0H-36Z"
		fill="#FF6F96" />
	<path
		d="M213 0V11.0243C215.194 11.0243 216.242 9.92183 217.489 8.60941C218.835 7.19201 220.381 5.56462 223.374 5.56462C226.366 5.56462 227.912 7.19201 229.258 8.60941C230.505 9.92183 231.553 11.0243 233.747 11.0243C235.941 11.0243 236.989 9.92183 238.236 8.60941C239.582 7.19201 241.128 5.56462 244.121 5.56462C247.113 5.56462 248.659 7.19201 250.006 8.60941C251.252 9.92183 252.3 11.0243 254.494 11.0243C256.688 11.0243 257.736 9.92183 258.983 8.60941C260.329 7.19201 261.875 5.56462 264.868 5.56462C267.86 5.56462 269.406 7.19201 270.753 8.60941C271.999 9.92183 273.047 11.0243 275.241 11.0243C277.435 11.0243 278.483 9.92183 279.73 8.60941C281.076 7.19201 282.622 5.56462 285.615 5.56462C288.607 5.56462 290.153 7.19201 291.5 8.60941C292.746 9.92183 293.794 11.0243 295.988 11.0243C298.183 11.0243 299.23 9.92183 300.477 8.60941C301.823 7.19201 303.369 5.56462 306.362 5.56462C309.354 5.56462 310.9 7.19201 312.247 8.60941C313.493 9.92183 314.541 11.0243 316.735 11.0243C318.93 11.0243 319.977 9.92183 321.224 8.60941C322.57 7.19201 324.116 5.56462 327.109 5.56462C330.101 5.56462 331.647 7.19201 332.994 8.60941C334.24 9.92183 335.288 11.0243 337.482 11.0243C339.677 11.0243 340.724 9.92183 341.971 8.60941C343.317 7.19201 344.863 5.56462 347.856 5.56462C350.848 5.56462 352.394 7.19201 353.741 8.60941C354.987 9.92183 356.035 11.0243 358.229 11.0243C360.424 11.0243 361.471 9.92183 362.718 8.60941C364.064 7.19201 365.61 5.56462 368.603 5.56462C371.595 5.56462 373.141 7.19201 374.488 8.60941C375.735 9.92183 376.782 11.0243 378.976 11.0243C381.171 11.0243 382.218 9.92183 383.465 8.60941C384.811 7.19201 386.357 5.56462 389.35 5.56462C392.342 5.56462 393.888 7.19201 395.235 8.60941C396.482 9.92183 397.529 11.0243 399.723 11.0243C401.918 11.0243 402.965 9.92183 404.212 8.60941C405.558 7.19201 407.104 5.56462 410.097 5.56462C413.089 5.56462 414.635 7.19201 415.982 8.60941C417.229 9.92183 418.276 11.0243 420.47 11.0243C422.665 11.0243 423.712 9.92183 424.959 8.60941C426.305 7.19201 427.851 5.56462 430.844 5.56462C433.836 5.56462 435.382 7.19201 436.729 8.60941C437.976 9.92183 439.023 11.0243 441.217 11.0243C443.412 11.0243 444.459 9.92183 445.706 8.60941C447.052 7.19201 448.598 5.56462 451.591 5.56462C454.583 5.56462 456.129 7.19201 457.476 8.60941C458.723 9.92183 459.77 11.0243 461.964 11.0243V0H213Z"
		fill="#FF6F96" />
	<path
		d="M462 0V11C464.195 11 465.242 9.9 466.489 8.59048C467.836 7.17619 469.382 5.55238 472.375 5.55238C475.368 5.55238 476.914 7.17619 478.261 8.59048C479.508 9.9 480.555 11 482.75 11C484.945 11 485.992 9.9 487.239 8.59048C488.586 7.17619 490.132 5.55238 493.125 5.55238C496.118 5.55238 497.664 7.17619 499.011 8.59048C500.258 9.9 501.305 11 503.5 11C505.695 11 506.742 9.9 507.989 8.59048C509.336 7.17619 510.882 5.55238 513.875 5.55238C516.868 5.55238 518.414 7.17619 519.761 8.59048C521.008 9.9 522.055 11 524.25 11C526.445 11 527.492 9.9 528.739 8.59048C530.086 7.17619 531.632 5.55238 534.625 5.55238C537.618 5.55238 539.164 7.17619 540.511 8.59048C541.758 9.9 542.805 11 545 11C547.195 11 548.242 9.9 549.489 8.59048C550.836 7.17619 552.382 5.55238 555.375 5.55238C558.368 5.55238 559.914 7.17619 561.261 8.59048C562.508 9.9 563.555 11 565.75 11C567.945 11 568.992 9.9 570.239 8.59048C571.586 7.17619 573.132 5.55238 576.125 5.55238C579.118 5.55238 580.664 7.17619 582.011 8.59048C583.258 9.9 584.305 11 586.5 11C588.695 11 589.742 9.9 590.989 8.59048C592.336 7.17619 593.882 5.55238 596.875 5.55238C599.868 5.55238 601.414 7.17619 602.761 8.59048C604.008 9.9 605.055 11 607.25 11C609.445 11 610.492 9.9 611.739 8.59048C613.086 7.17619 614.632 5.55238 617.625 5.55238C620.618 5.55238 622.164 7.17619 623.511 8.59048C624.758 9.9 625.805 11 628 11C630.195 11 631.242 9.9 632.489 8.59048C633.836 7.17619 635.382 5.55238 638.375 5.55238C641.368 5.55238 642.914 7.17619 644.261 8.59048C645.508 9.9 646.555 11 648.75 11C650.945 11 651.992 9.9 653.239 8.59048C654.586 7.17619 656.132 5.55238 659.125 5.55238C662.118 5.55238 663.664 7.17619 665.011 8.59048C666.258 9.9 667.305 11 669.5 11C671.695 11 672.742 9.9 673.989 8.59048C675.336 7.17619 676.882 5.55238 679.875 5.55238C682.868 5.55238 684.414 7.17619 685.761 8.59048C687.008 9.9 688.055 11 690.25 11C692.445 11 693.492 9.9 694.739 8.59048C696.086 7.17619 697.632 5.55238 700.625 5.55238C703.618 5.55238 705.164 7.17619 706.511 8.59048C707.758 9.9 708.805 11 711 11V0H462Z"
		fill="#FF6F96" />
	<path
		d="M711 0V11C713.195 11 714.242 9.9 715.489 8.59048C716.836 7.17619 718.382 5.55238 721.375 5.55238C724.368 5.55238 725.914 7.17619 727.261 8.59048C728.508 9.9 729.555 11 731.75 11C733.945 11 734.992 9.9 736.239 8.59048C737.586 7.17619 739.132 5.55238 742.125 5.55238C745.118 5.55238 746.664 7.17619 748.011 8.59048C749.258 9.9 750.305 11 752.5 11C754.695 11 755.742 9.9 756.989 8.59048C758.336 7.17619 759.882 5.55238 762.875 5.55238C765.868 5.55238 767.414 7.17619 768.761 8.59048C770.008 9.9 771.055 11 773.25 11C775.445 11 776.492 9.9 777.739 8.59048C779.086 7.17619 780.632 5.55238 783.625 5.55238C786.618 5.55238 788.164 7.17619 789.511 8.59048C790.758 9.9 791.805 11 794 11C796.195 11 797.242 9.9 798.489 8.59048C799.836 7.17619 801.382 5.55238 804.375 5.55238C807.368 5.55238 808.914 7.17619 810.261 8.59048C811.508 9.9 812.555 11 814.75 11C816.945 11 817.992 9.9 819.239 8.59048C820.586 7.17619 822.132 5.55238 825.125 5.55238C828.118 5.55238 829.664 7.17619 831.011 8.59048C832.258 9.9 833.305 11 835.5 11C837.695 11 838.742 9.9 839.989 8.59048C841.336 7.17619 842.882 5.55238 845.875 5.55238C848.868 5.55238 850.414 7.17619 851.761 8.59048C853.008 9.9 854.055 11 856.25 11C858.445 11 859.492 9.9 860.739 8.59048C862.086 7.17619 863.632 5.55238 866.625 5.55238C869.618 5.55238 871.164 7.17619 872.511 8.59048C873.758 9.9 874.805 11 877 11C879.195 11 880.242 9.9 881.489 8.59048C882.836 7.17619 884.382 5.55238 887.375 5.55238C890.368 5.55238 891.914 7.17619 893.261 8.59048C894.508 9.9 895.555 11 897.75 11C899.945 11 900.992 9.9 902.239 8.59048C903.586 7.17619 905.132 5.55238 908.125 5.55238C911.118 5.55238 912.664 7.17619 914.011 8.59048C915.258 9.9 916.305 11 918.5 11C920.695 11 921.742 9.9 922.989 8.59048C924.336 7.17619 925.882 5.55238 928.875 5.55238C931.868 5.55238 933.414 7.17619 934.761 8.59048C936.008 9.9 937.055 11 939.25 11C941.445 11 942.492 9.9 943.739 8.59048C945.086 7.17619 946.632 5.55238 949.625 5.55238C952.618 5.55238 954.164 7.17619 955.511 8.59048C956.758 9.9 957.805 11 960 11V0H711Z"
		fill="#FF6F96" />
	<path
		d="M960 0V11C962.195 11 963.242 9.9 964.489 8.59048C965.836 7.17619 967.382 5.55238 970.375 5.55238C973.368 5.55238 974.914 7.17619 976.261 8.59048C977.508 9.9 978.555 11 980.75 11C982.945 11 983.992 9.9 985.239 8.59048C986.586 7.17619 988.132 5.55238 991.125 5.55238C994.118 5.55238 995.664 7.17619 997.011 8.59048C998.258 9.9 999.305 11 1001.5 11C1003.69 11 1004.74 9.9 1005.99 8.59048C1007.34 7.17619 1008.88 5.55238 1011.88 5.55238C1014.87 5.55238 1016.41 7.17619 1017.76 8.59048C1019.01 9.9 1020.06 11 1022.25 11C1024.44 11 1025.49 9.9 1026.74 8.59048C1028.09 7.17619 1029.63 5.55238 1032.63 5.55238C1035.62 5.55238 1037.16 7.17619 1038.51 8.59048C1039.76 9.9 1040.81 11 1043 11C1045.19 11 1046.24 9.9 1047.49 8.59048C1048.84 7.17619 1050.38 5.55238 1053.38 5.55238C1056.37 5.55238 1057.91 7.17619 1059.26 8.59048C1060.51 9.9 1061.56 11 1063.75 11C1065.94 11 1066.99 9.9 1068.24 8.59048C1069.59 7.17619 1071.13 5.55238 1074.13 5.55238C1077.12 5.55238 1078.66 7.17619 1080.01 8.59048C1081.26 9.9 1082.31 11 1084.5 11C1086.69 11 1087.74 9.9 1088.99 8.59048C1090.34 7.17619 1091.88 5.55238 1094.88 5.55238C1097.87 5.55238 1099.41 7.17619 1100.76 8.59048C1102.01 9.9 1103.06 11 1105.25 11C1107.44 11 1108.49 9.9 1109.74 8.59048C1111.09 7.17619 1112.63 5.55238 1115.63 5.55238C1118.62 5.55238 1120.16 7.17619 1121.51 8.59048C1122.76 9.9 1123.81 11 1126 11C1128.19 11 1129.24 9.9 1130.49 8.59048C1131.84 7.17619 1133.38 5.55238 1136.37 5.55238C1139.37 5.55238 1140.91 7.17619 1142.26 8.59048C1143.51 9.9 1144.56 11 1146.75 11C1148.94 11 1149.99 9.9 1151.24 8.59048C1152.59 7.17619 1154.13 5.55238 1157.13 5.55238C1160.12 5.55238 1161.66 7.17619 1163.01 8.59048C1164.26 9.9 1165.31 11 1167.5 11C1169.69 11 1170.74 9.9 1171.99 8.59048C1173.34 7.17619 1174.88 5.55238 1177.88 5.55238C1180.87 5.55238 1182.41 7.17619 1183.76 8.59048C1185.01 9.9 1186.06 11 1188.25 11C1190.44 11 1191.49 9.9 1192.74 8.59048C1194.09 7.17619 1195.63 5.55238 1198.63 5.55238C1201.62 5.55238 1203.16 7.17619 1204.51 8.59048C1205.76 9.9 1206.81 11 1209 11V0H960Z"
		fill="#FF6F96" />
	<path
		d="M1209 0V11C1211.19 11 1212.24 9.9 1213.49 8.59048C1214.84 7.17619 1216.38 5.55238 1219.38 5.55238C1222.37 5.55238 1223.91 7.17619 1225.26 8.59048C1226.51 9.9 1227.56 11 1229.75 11C1231.94 11 1232.99 9.9 1234.24 8.59048C1235.59 7.17619 1237.13 5.55238 1240.13 5.55238C1243.12 5.55238 1244.66 7.17619 1246.01 8.59048C1247.26 9.9 1248.31 11 1250.5 11C1252.69 11 1253.74 9.9 1254.99 8.59048C1256.34 7.17619 1257.88 5.55238 1260.88 5.55238C1263.87 5.55238 1265.41 7.17619 1266.76 8.59048C1268.01 9.9 1269.06 11 1271.25 11C1273.44 11 1274.49 9.9 1275.74 8.59048C1277.09 7.17619 1278.63 5.55238 1281.63 5.55238C1284.62 5.55238 1286.16 7.17619 1287.51 8.59048C1288.76 9.9 1289.81 11 1292 11C1294.19 11 1295.24 9.9 1296.49 8.59048C1297.84 7.17619 1299.38 5.55238 1302.38 5.55238C1305.37 5.55238 1306.91 7.17619 1308.26 8.59048C1309.51 9.9 1310.56 11 1312.75 11C1314.94 11 1315.99 9.9 1317.24 8.59048C1318.59 7.17619 1320.13 5.55238 1323.13 5.55238C1326.12 5.55238 1327.66 7.17619 1329.01 8.59048C1330.26 9.9 1331.31 11 1333.5 11C1335.69 11 1336.74 9.9 1337.99 8.59048C1339.34 7.17619 1340.88 5.55238 1343.88 5.55238C1346.87 5.55238 1348.41 7.17619 1349.76 8.59048C1351.01 9.9 1352.06 11 1354.25 11C1356.44 11 1357.49 9.9 1358.74 8.59048C1360.09 7.17619 1361.63 5.55238 1364.63 5.55238C1367.62 5.55238 1369.16 7.17619 1370.51 8.59048C1371.76 9.9 1372.81 11 1375 11C1377.19 11 1378.24 9.9 1379.49 8.59048C1380.84 7.17619 1382.38 5.55238 1385.37 5.55238C1388.37 5.55238 1389.91 7.17619 1391.26 8.59048C1392.51 9.9 1393.56 11 1395.75 11C1397.94 11 1398.99 9.9 1400.24 8.59048C1401.59 7.17619 1403.13 5.55238 1406.13 5.55238C1409.12 5.55238 1410.66 7.17619 1412.01 8.59048C1413.26 9.9 1414.31 11 1416.5 11C1418.69 11 1419.74 9.9 1420.99 8.59048C1422.34 7.17619 1423.88 5.55238 1426.88 5.55238C1429.87 5.55238 1431.41 7.17619 1432.76 8.59048C1434.01 9.9 1435.06 11 1437.25 11C1439.44 11 1440.49 9.9 1441.74 8.59048C1443.09 7.17619 1444.63 5.55238 1447.63 5.55238C1450.62 5.55238 1452.16 7.17619 1453.51 8.59048C1454.76 9.9 1455.81 11 1458 11V0H1209Z"
		fill="#FF6F96" />
	<path
		d="M1458 0V11C1460.19 11 1461.24 9.9 1462.49 8.59048C1463.84 7.17619 1465.38 5.55238 1468.38 5.55238C1471.37 5.55238 1472.91 7.17619 1474.26 8.59048C1475.51 9.9 1476.56 11 1478.75 11C1480.94 11 1481.99 9.9 1483.24 8.59048C1484.59 7.17619 1486.13 5.55238 1489.13 5.55238C1492.12 5.55238 1493.66 7.17619 1495.01 8.59048C1496.26 9.9 1497.31 11 1499.5 11C1501.69 11 1502.74 9.9 1503.99 8.59048C1505.34 7.17619 1506.88 5.55238 1509.88 5.55238C1512.87 5.55238 1514.41 7.17619 1515.76 8.59048C1517.01 9.9 1518.06 11 1520.25 11C1522.44 11 1523.49 9.9 1524.74 8.59048C1526.09 7.17619 1527.63 5.55238 1530.63 5.55238C1533.62 5.55238 1535.16 7.17619 1536.51 8.59048C1537.76 9.9 1538.81 11 1541 11C1543.19 11 1544.24 9.9 1545.49 8.59048C1546.84 7.17619 1548.38 5.55238 1551.38 5.55238C1554.37 5.55238 1555.91 7.17619 1557.26 8.59048C1558.51 9.9 1559.56 11 1561.75 11C1563.94 11 1564.99 9.9 1566.24 8.59048C1567.59 7.17619 1569.13 5.55238 1572.13 5.55238C1575.12 5.55238 1576.66 7.17619 1578.01 8.59048C1579.26 9.9 1580.31 11 1582.5 11C1584.69 11 1585.74 9.9 1586.99 8.59048C1588.34 7.17619 1589.88 5.55238 1592.88 5.55238C1595.87 5.55238 1597.41 7.17619 1598.76 8.59048C1600.01 9.9 1601.06 11 1603.25 11C1605.44 11 1606.49 9.9 1607.74 8.59048C1609.09 7.17619 1610.63 5.55238 1613.63 5.55238C1616.62 5.55238 1618.16 7.17619 1619.51 8.59048C1620.76 9.9 1621.81 11 1624 11C1626.19 11 1627.24 9.9 1628.49 8.59048C1629.84 7.17619 1631.38 5.55238 1634.37 5.55238C1637.37 5.55238 1638.91 7.17619 1640.26 8.59048C1641.51 9.9 1642.56 11 1644.75 11C1646.94 11 1647.99 9.9 1649.24 8.59048C1650.59 7.17619 1652.13 5.55238 1655.13 5.55238C1658.12 5.55238 1659.66 7.17619 1661.01 8.59048C1662.26 9.9 1663.31 11 1665.5 11C1667.69 11 1668.74 9.9 1669.99 8.59048C1671.34 7.17619 1672.88 5.55238 1675.88 5.55238C1678.87 5.55238 1680.41 7.17619 1681.76 8.59048C1683.01 9.9 1684.06 11 1686.25 11C1688.44 11 1689.49 9.9 1690.74 8.59048C1692.09 7.17619 1693.63 5.55238 1696.63 5.55238C1699.62 5.55238 1701.16 7.17619 1702.51 8.59048C1703.76 9.9 1704.81 11 1707 11V0H1458Z"
		fill="#FF6F96" />
	<path
		d="M1707 0V11C1709.19 11 1710.24 9.9 1711.49 8.59048C1712.84 7.17619 1714.38 5.55238 1717.38 5.55238C1720.37 5.55238 1721.91 7.17619 1723.26 8.59048C1724.51 9.9 1725.56 11 1727.75 11C1729.94 11 1730.99 9.9 1732.24 8.59048C1733.59 7.17619 1735.13 5.55238 1738.13 5.55238C1741.12 5.55238 1742.66 7.17619 1744.01 8.59048C1745.26 9.9 1746.31 11 1748.5 11C1750.69 11 1751.74 9.9 1752.99 8.59048C1754.34 7.17619 1755.88 5.55238 1758.88 5.55238C1761.87 5.55238 1763.41 7.17619 1764.76 8.59048C1766.01 9.9 1767.06 11 1769.25 11C1771.44 11 1772.49 9.9 1773.74 8.59048C1775.09 7.17619 1776.63 5.55238 1779.63 5.55238C1782.62 5.55238 1784.16 7.17619 1785.51 8.59048C1786.76 9.9 1787.81 11 1790 11C1792.19 11 1793.24 9.9 1794.49 8.59048C1795.84 7.17619 1797.38 5.55238 1800.38 5.55238C1803.37 5.55238 1804.91 7.17619 1806.26 8.59048C1807.51 9.9 1808.56 11 1810.75 11C1812.94 11 1813.99 9.9 1815.24 8.59048C1816.59 7.17619 1818.13 5.55238 1821.13 5.55238C1824.12 5.55238 1825.66 7.17619 1827.01 8.59048C1828.26 9.9 1829.31 11 1831.5 11C1833.69 11 1834.74 9.9 1835.99 8.59048C1837.34 7.17619 1838.88 5.55238 1841.88 5.55238C1844.87 5.55238 1846.41 7.17619 1847.76 8.59048C1849.01 9.9 1850.06 11 1852.25 11C1854.44 11 1855.49 9.9 1856.74 8.59048C1858.09 7.17619 1859.63 5.55238 1862.63 5.55238C1865.62 5.55238 1867.16 7.17619 1868.51 8.59048C1869.76 9.9 1870.81 11 1873 11C1875.19 11 1876.24 9.9 1877.49 8.59048C1878.84 7.17619 1880.38 5.55238 1883.37 5.55238C1886.37 5.55238 1887.91 7.17619 1889.26 8.59048C1890.51 9.9 1891.56 11 1893.75 11C1895.94 11 1896.99 9.9 1898.24 8.59048C1899.59 7.17619 1901.13 5.55238 1904.13 5.55238C1907.12 5.55238 1908.66 7.17619 1910.01 8.59048C1911.26 9.9 1912.31 11 1914.5 11C1916.69 11 1917.74 9.9 1918.99 8.59048C1920.34 7.17619 1921.88 5.55238 1924.88 5.55238C1927.87 5.55238 1929.41 7.17619 1930.76 8.59048C1932.01 9.9 1933.06 11 1935.25 11C1937.44 11 1938.49 9.9 1939.74 8.59048C1941.09 7.17619 1942.63 5.55238 1945.63 5.55238C1948.62 5.55238 1950.16 7.17619 1951.51 8.59048C1952.76 9.9 1953.81 11 1956 11V0H1707Z"
		fill="#FF6F96" />
</svg>