<svg id="quote" viewBox="0 0 60 46" xmlns="http://www.w3.org/2000/svg">
    <path
        d="M6.08706 42.0152C2.69582 38.4151 0.875 34.3749 0.875 27.8255C0.875 16.3065 8.96101 5.97988 20.7257 0.876221L23.6641 5.41085C12.6856 11.351 10.5399 19.0555 9.68232 23.914C11.4499 22.9999 13.7638 22.6783 16.0322 22.8886C21.9716 23.4393 26.6527 28.315 26.6527 34.3749C26.6527 40.7377 21.4945 45.8958 15.1317 45.8958C11.5996 45.8958 8.22187 44.2812 6.08706 42.0152ZM39.0037 42.0152C35.6126 38.4151 33.7917 34.3749 33.7917 27.8255C33.7917 16.3065 41.8776 5.97988 53.6424 0.876221L56.5809 5.41085C45.6022 11.351 43.4567 19.0555 42.5989 23.914C44.3665 22.9999 46.6805 22.6783 48.9488 22.8886C54.8883 23.4393 59.5694 28.315 59.5694 34.3749C59.5694 40.7377 54.4113 45.8958 48.0485 45.8958C44.5162 45.8958 41.1387 44.2812 39.0037 42.0152Z"
        fill="rgba(var(--primary-color), 1)" />
</svg>