<svg width="0" height="0" fill="none" style="visibility: hidden; position: absolute;"
	aria-hidden="true">
	<symbol id="order" viewBox="0 0 45 28" xmlns="http://www.w3.org/2000/svg">
		<g clip-path="url(#clip0_504_5092__order)">
			<path
				d="M44.413 23.0792C44.2036 23.4699 43.8693 23.5875 43.4401 23.5748C42.7935 23.5541 42.1457 23.5691 41.4643 23.5691C41.3949 25.0145 40.8582 26.2007 39.7292 27.079C38.8893 27.7326 37.9246 28.0334 36.8603 27.9965C35.0349 27.9343 32.7942 26.5776 32.6033 23.6013C27.4082 23.6013 22.2119 23.6013 16.9774 23.6013C16.9092 25.0687 16.3365 26.2802 15.1393 27.1574C14.2925 27.7775 13.3347 28.0496 12.2878 27.9919C10.5746 27.8974 8.33156 26.6421 8.11871 23.5691C7.97064 23.5691 7.81795 23.5691 7.66525 23.5691C6.62414 23.5691 5.58303 23.5748 4.54192 23.5679C3.53783 23.561 2.96059 22.9789 2.95249 21.9772C2.94902 21.5346 2.95133 21.0919 2.95133 20.6009C2.30006 20.6009 1.69622 20.602 1.09237 20.5997C0.918854 20.5997 0.743022 20.6066 0.572974 20.5824C0.227093 20.5317 0.0304392 20.3069 0.00151945 19.9727C-0.0297139 19.6142 0.150745 19.3617 0.502409 19.2626C0.638911 19.2234 0.788137 19.22 0.931579 19.22C2.99876 19.2177 5.0671 19.2177 7.13429 19.2188C7.23493 19.2188 7.33788 19.2177 7.43736 19.2338C7.82142 19.296 8.07244 19.59 8.05509 19.9462C8.03774 20.3058 7.76936 20.5847 7.37374 20.5917C6.53507 20.6078 5.6964 20.5986 4.85772 20.5997C4.70271 20.5997 4.5477 20.5997 4.36724 20.5997C4.36724 21.1369 4.36724 21.6199 4.36724 22.1409C4.47367 22.1547 4.58241 22.1824 4.6923 22.1824C5.82017 22.1858 6.94804 22.1766 8.07591 22.1904C8.32231 22.1927 8.41601 22.0948 8.51549 21.8838C9.31252 20.1871 10.6625 19.2407 12.5411 19.2361C14.4371 19.2326 15.8021 20.1744 16.5991 21.8965C16.6998 22.1144 16.8143 22.1893 17.0514 22.1893C21.6346 22.1824 26.219 22.1847 30.8022 22.1835C30.9005 22.1835 30.9989 22.1674 31.1446 22.1559C31.1446 21.9841 31.1446 21.8308 31.1446 21.6763C31.1446 20.2216 31.1446 18.7658 31.1446 17.3111C31.1446 17.1958 31.1388 17.0794 31.1481 16.9653C31.1816 16.5595 31.4697 16.2702 31.8352 16.2645C32.2239 16.2587 32.527 16.5549 32.5293 16.9907C32.5385 18.5468 32.5339 20.1029 32.5339 21.6591C32.5339 21.7593 32.5154 21.8654 32.5409 21.9599C32.5628 22.0394 32.6299 22.1582 32.6866 22.1651C32.763 22.1732 32.8567 22.0982 32.9261 22.0394C32.9642 22.0072 32.9666 21.9345 32.992 21.8827C33.7983 20.1894 35.1448 19.243 37.0223 19.2373C38.9194 19.2315 40.2821 20.179 41.0826 21.8965C41.1844 22.1155 41.2931 22.1997 41.5314 22.1904C42.0057 22.1743 42.4812 22.1858 42.989 22.1858C42.989 21.1669 42.989 20.1813 42.989 19.122C42.7472 19.122 42.4939 19.1277 42.2405 19.1208C40.9658 19.0862 40.0797 18.1895 40.0612 16.9169C40.0542 16.4708 40.0542 16.0235 40.0612 15.5775C40.0704 15.0392 40.318 14.7925 40.8663 14.7856C41.5164 14.7775 42.1665 14.7833 42.8745 14.7833C42.7692 14.3256 42.5413 13.9648 42.1896 13.7574C41.7917 13.5222 41.3301 13.2548 40.8917 13.2479C38.1744 13.2018 35.4548 13.2237 32.7364 13.2237C32.682 13.2237 32.6276 13.241 32.5316 13.2571C32.5316 13.5095 32.5409 13.7504 32.5293 13.9914C32.5085 14.4063 32.2343 14.6841 31.8549 14.691C31.4801 14.698 31.1886 14.4225 31.1492 14.0144C31.1365 13.8853 31.1435 13.7551 31.1435 13.626C31.1435 9.73562 31.1435 5.84529 31.1435 1.95496C31.1435 1.78436 31.1435 1.61261 31.1435 1.4132C22.2119 1.4132 13.3115 1.4132 4.34064 1.4132C4.34064 1.57688 4.34064 1.74287 4.34064 1.90886C4.34064 5.81302 4.34064 9.71833 4.34064 13.6225C4.34064 13.7666 4.34758 13.9118 4.33254 14.0548C4.29321 14.4409 4.06301 14.6611 3.68474 14.6853C3.32266 14.7083 3.07974 14.5078 2.98604 14.162C2.94555 14.0121 2.95133 13.8484 2.95133 13.6905C2.95018 9.6849 2.94902 5.67931 2.95018 1.67371C2.95365 0.554444 3.51006 0 4.63215 0C13.3798 0 22.1286 0 30.8762 0C31.9833 0 32.5328 0.54407 32.5362 1.63797C32.5374 2.05409 32.5362 2.46906 32.5362 2.92783C32.719 2.9359 32.8717 2.94973 33.0244 2.94973C34.5132 2.95089 36.0043 2.98086 37.4919 2.94282C39.3624 2.89556 40.9958 4.18081 40.6696 6.71096C40.6395 6.9415 40.3943 7.14322 40.193 7.44407C40.5227 8.76045 40.8778 10.1979 41.2503 11.6295C41.2792 11.7402 41.4077 11.8796 41.5152 11.9073C43.0676 12.3061 44.0093 13.2813 44.3517 14.8386C44.3609 14.8789 44.3922 14.9135 44.4118 14.9515C44.413 17.6615 44.413 20.3703 44.413 23.0792ZM39.8286 11.8151C39.8043 11.6802 39.7893 11.5684 39.7627 11.4589C39.455 10.2174 39.1357 8.97831 38.8407 7.7334C38.7655 7.41641 38.6406 7.29538 38.2947 7.29999C36.5329 7.31958 34.77 7.30806 33.007 7.31036C32.8659 7.31036 32.7259 7.32304 32.5744 7.32996C32.5744 8.8469 32.5744 10.3316 32.5744 11.8162C35.0083 11.8151 37.4028 11.8151 39.8286 11.8151ZM37.0547 26.6168C38.6984 26.6099 40.0588 25.2474 40.0577 23.6083C40.0565 21.968 38.6973 20.6159 37.0466 20.6101C35.3831 20.6043 34.0007 21.9876 34.0215 23.6371C34.0424 25.282 35.4097 26.6248 37.0547 26.6168ZM12.5596 26.6168C14.2081 26.6156 15.5603 25.2693 15.5696 23.6198C15.58 21.9807 14.2323 20.6274 12.5747 20.6101C10.9147 20.5928 9.53347 21.9657 9.54041 23.6255C9.54851 25.2658 10.9135 26.6179 12.5596 26.6168ZM32.5628 4.34103C32.5628 4.89663 32.5628 5.37961 32.5628 5.88218C34.8174 5.88218 37.0466 5.88218 39.2745 5.88218C39.3 4.98654 38.6476 4.35371 37.699 4.34334C36.659 4.33296 35.6191 4.34103 34.5803 4.34103C33.9174 4.34103 33.2569 4.34103 32.5628 4.34103ZM42.9994 16.1976C42.4788 16.1976 41.9826 16.1976 41.4909 16.1976C41.3197 17.5267 41.6818 17.884 42.9994 17.6903C42.9994 17.2108 42.9994 16.7267 42.9994 16.1976Z" />
			<path
				d="M17.0244 13.0185C18.7596 11.2848 20.4647 9.58231 22.1698 7.87978C22.496 7.55357 22.8176 7.22044 23.1531 6.90345C23.4828 6.59107 23.8715 6.57839 24.1595 6.84928C24.4545 7.12707 24.4579 7.55472 24.1283 7.88439C21.935 10.0791 19.7371 12.2704 17.5334 14.4547C17.184 14.8017 16.8231 14.7902 16.4657 14.4374C15.2638 13.2513 14.0688 12.0583 12.8762 10.8618C12.5338 10.5171 12.5176 10.1218 12.8068 9.82783C13.1098 9.52006 13.5066 9.53966 13.8756 9.90275C14.8103 10.8249 15.7381 11.7551 16.6693 12.6819C16.7688 12.781 16.8752 12.8767 17.0244 13.0185Z" />
			<path
				d="M23.6755 20.6009C22.056 20.6009 20.4376 20.6009 18.8181 20.5997C18.6735 20.5997 18.5278 20.6044 18.3855 20.5836C18.0165 20.5294 17.8187 20.2862 17.8036 19.937C17.7886 19.605 17.9633 19.3537 18.2999 19.2638C18.4503 19.2234 18.6145 19.2188 18.7719 19.2188C22.0537 19.2165 25.3343 19.2165 28.6162 19.2177C28.7168 19.2177 28.8198 19.2154 28.9192 19.2281C29.3264 19.2834 29.5937 19.5865 29.5694 19.9554C29.5462 20.3139 29.2767 20.579 28.8788 20.5928C28.3594 20.6101 27.8376 20.5997 27.3182 20.5997C26.1036 20.6021 24.8901 20.6009 23.6755 20.6009Z" />
			<path
				d="M6.62662 17.6442C5.19683 17.6442 3.76588 17.6454 2.33609 17.6431C1.79008 17.6419 1.47312 17.3826 1.47659 16.9526C1.48006 16.5307 1.80975 16.2633 2.34881 16.2621C5.20955 16.2598 8.07029 16.2621 10.931 16.2598C11.2596 16.2598 11.5707 16.3394 11.6772 16.6587C11.7454 16.8627 11.7419 17.1901 11.6193 17.3307C11.4678 17.5059 11.1601 17.6269 10.9172 17.6315C9.48736 17.658 8.05641 17.6442 6.62662 17.6442Z" />
			<path
				d="M37.0445 22.1904C37.8439 22.1927 38.4813 22.8279 38.4766 23.6175C38.4732 24.399 37.8149 25.0514 37.0353 25.0491C36.2521 25.0468 35.6043 24.3932 35.6055 23.6094C35.6078 22.8152 36.244 22.1881 37.0445 22.1904Z" />
			<path
				d="M12.5437 22.1904C13.3488 22.1835 13.9792 22.8014 13.985 23.6013C13.9908 24.3955 13.3592 25.041 12.5703 25.0491C11.7941 25.0572 11.1278 24.4036 11.1173 23.6255C11.1058 22.8429 11.7478 22.1962 12.5437 22.1904Z" />
		</g>
		<defs>
			<clipPath id="clip0_504_5092__order">
				<rect width="44.4138" height="28" fill="white" />
			</clipPath>
		</defs>
	</symbol>
	<symbol id="payment" viewBox="0 0 44 39" xmlns="http://www.w3.org/2000/svg">
		<path
			d="M41.965 24.6165C41.2356 24.6165 40.6436 25.2084 40.6436 25.9377V35.1863H3.64291V19.3315H18.1789C18.9083 19.3315 19.5003 18.7396 19.5003 18.0103C19.5003 17.281 18.9083 16.6891 18.1789 16.6891H3.64291V11.4042H18.1789C18.9083 11.4042 19.5003 10.8123 19.5003 10.0829C19.5003 9.35363 18.9083 8.76172 18.1789 8.76172H3.64291C2.18402 8.76172 1 9.94554 1 11.4042V35.1863C1 36.6449 2.18402 37.8287 3.64291 37.8287H40.6436C42.1025 37.8287 43.2865 36.6449 43.2865 35.1863V25.9377C43.2865 25.2084 42.6945 24.6165 41.965 24.6165Z" />
		<path
			d="M12.8924 24.6165H7.60661C6.87717 24.6165 6.28516 25.2085 6.28516 25.938C6.28516 26.6674 6.87717 27.2594 7.60661 27.2594H12.8924C13.6219 27.2594 14.2139 26.6674 14.2139 25.938C14.2139 25.2085 13.6219 24.6165 12.8924 24.6165Z" />
		<path
			d="M42.485 4.9038L33.2349 0.940121C32.8992 0.80007 32.5266 0.80007 32.1909 0.940121L22.9407 4.9038C22.4571 5.11256 22.1426 5.59084 22.1426 6.11933V11.4042C22.1426 18.6736 24.8304 22.9227 32.0561 27.0846C32.2596 27.2008 32.4869 27.259 32.7142 27.259C32.9415 27.259 33.1688 27.2008 33.3723 27.0846C40.598 22.9333 43.2858 18.6842 43.2858 11.4042V6.11933C43.2858 5.59084 42.9713 5.11256 42.485 4.9038ZM40.6429 11.4042C40.6429 17.5057 38.6237 20.8642 32.7142 24.4051C26.8047 20.8563 24.7855 17.4977 24.7855 11.4042V6.99134L32.7142 3.59315L40.6429 6.99134V11.4042Z" />
		<path
			d="M37.5062 9.04991C36.9379 8.60069 36.1081 8.68789 35.6482 9.25602L31.4936 14.4511L29.8497 11.9936C29.44 11.3858 28.6181 11.2246 28.0181 11.6263C27.4129 12.0306 27.2464 12.8524 27.6508 13.4575L30.2937 17.4212C30.5289 17.7727 30.9148 17.9893 31.3376 18.0105C31.3561 18.0105 31.3773 18.0105 31.3931 18.0105C31.7922 18.0105 32.1728 17.8308 32.4265 17.5137L37.7123 10.9076C38.1669 10.3368 38.077 9.50705 37.5062 9.04991Z" />
	</symbol>
	<symbol id="return" viewBox="0 0 44 35" xmlns="http://www.w3.org/2000/svg">
		<g clip-path="url(#clip0_504_5078__return)">
			<path
				d="M43.4721 20.4857C43.4699 16.7267 43.5016 8.90219 43.4348 8.75448C43.3747 8.11213 43.0008 7.65219 42.5384 7.2415C40.6427 5.55954 38.7481 3.87646 36.8524 2.1945C36.2835 1.69091 35.7374 1.16159 35.0971 0.740825C34.0252 0.0369308 32.8615 -0.181288 31.6173 0.154433C30.7822 0.380485 30.0921 0.871756 29.4564 1.43689C27.2876 3.36392 25.1267 5.29767 22.9477 7.21128C22.2531 7.82117 21.9335 8.55304 21.9403 9.46397C21.9551 11.6462 21.946 13.8272 21.9471 16.0094C21.9471 16.7625 21.9471 16.7625 21.1743 16.7625H17.5766C17.648 16.5991 17.7001 16.4872 17.7466 16.3742C18.4095 14.7236 18.7539 13.0237 18.4378 11.2511C18.1636 9.71576 17.316 8.62243 15.7749 8.12668C15.1121 7.91406 14.78 8.10318 14.6282 8.76343C14.507 9.29387 14.3687 9.82207 14.2724 10.357C13.9234 12.2907 13.1767 13.9526 11.3036 14.9317C10.1013 15.5607 9.19255 16.5119 8.49454 17.6623C8.38576 17.8413 8.25772 18.0103 8.12514 18.1726C7.80786 18.5631 7.38294 18.7623 6.88663 18.8306C6.66566 18.8608 6.55009 18.8485 6.52516 18.5553C6.45717 17.7518 5.83508 17.1799 5.03735 17.1688C3.86229 17.152 2.68723 17.152 1.51217 17.1688C0.662317 17.1811 0.00623224 17.8312 0.00509911 18.6717C-0.0016997 23.6079 -0.0016997 28.5452 0.00509911 33.4814C0.00623224 34.3095 0.624924 34.9575 1.46684 34.9776C2.6691 35.0067 3.87362 35.0078 5.07701 34.9776C5.9178 34.9564 6.51496 34.3118 6.54102 33.4792C6.54782 33.2632 6.54215 33.0483 6.54215 32.7988C6.75745 32.8726 6.92062 32.9174 7.07586 32.9812C9.55063 34.0141 12.1262 34.4393 14.8152 34.3599C17.0644 34.2927 19.3171 34.3465 21.5687 34.3453C22.176 34.3453 22.789 34.3845 23.3703 34.1529C23.4587 34.1171 23.5301 34.1417 23.6117 34.1719C24.0434 34.3319 24.4944 34.3476 24.9499 34.3476C29.623 34.342 34.296 34.3409 38.9691 34.3386C39.5923 34.3386 40.2144 34.3453 40.8376 34.3364C42.1781 34.3185 43.0676 33.6414 43.4449 32.3657C43.4551 32.3299 43.5141 20.9378 43.5141 20.9378C43.4314 20.7934 43.4721 20.6367 43.4721 20.4857ZM5.18919 33.2498C5.19032 33.5743 5.07248 33.6571 4.7688 33.6526C3.79204 33.6392 2.81414 33.6347 1.83738 33.6549C1.47591 33.6627 1.35013 33.5687 1.3524 33.1882C1.37053 30.8113 1.36146 28.4333 1.36146 26.0564C1.36146 23.6929 1.36939 21.3295 1.35353 18.966C1.35013 18.59 1.46911 18.4904 1.83738 18.4993C2.81414 18.5217 3.7909 18.5161 4.76766 18.5016C5.07588 18.496 5.18919 18.5821 5.18919 18.9022C5.18013 23.6851 5.18013 28.468 5.18919 33.2498ZM18.7834 30.2708C19.9029 30.2809 21.0213 30.2731 22.1398 30.2764C22.3086 30.2775 22.4808 30.2842 22.6463 30.3167C23.3091 30.4454 23.7715 31.0072 23.7613 31.6551C23.7511 32.2919 23.2989 32.8324 22.6542 32.9577C22.4752 32.9924 22.2882 33.0002 22.1058 33.0013C19.5562 33.0036 17.0067 32.9599 14.4582 33.0159C12.1421 33.0662 9.92909 32.6824 7.79313 31.8129C7.39087 31.6495 6.81297 31.6159 6.61921 31.325C6.40844 31.0094 6.54442 30.4633 6.54442 30.0179C6.54215 26.8711 6.54669 23.7243 6.53762 20.5774C6.53649 20.2932 6.57275 20.1802 6.91042 20.16C7.87472 20.1041 8.73477 19.7269 9.24581 18.9078C10.1376 17.4776 11.3387 16.4111 12.7744 15.5427C14.4163 14.549 15.0939 12.9398 15.469 11.165C15.5766 10.6591 15.7058 10.1589 15.8373 9.60385C16.78 10.1376 17.103 10.987 17.1608 11.9371C17.2718 13.7701 16.8809 15.489 15.8169 17.0255C15.648 17.2684 15.6174 17.5168 15.7613 17.7731C15.9188 18.0517 16.184 18.1077 16.4865 18.1077C18.9647 18.1032 21.4429 18.1088 23.9222 18.1032C24.5171 18.1021 25.0088 18.2833 25.3171 18.8104C25.8508 19.7269 25.172 20.818 24.048 20.8281C22.448 20.8438 20.8468 20.8326 19.2469 20.8326C19.1052 20.8326 18.9636 20.8292 18.8219 20.8348C18.3675 20.8516 18.1013 21.09 18.0933 21.4816C18.0843 21.8868 18.3619 22.1553 18.8299 22.1721C19.1981 22.1855 19.5664 22.1755 19.9347 22.1755C21.7058 22.1766 23.4757 22.1688 25.2457 22.1811C25.9743 22.1855 26.5408 22.7026 26.6043 23.3706C26.67 24.0678 26.2394 24.6822 25.5562 24.8433C25.3941 24.8814 25.2196 24.8803 25.0508 24.8814C22.9975 24.8836 20.9432 24.8814 18.8899 24.8836C18.3981 24.8847 18.1171 25.113 18.0945 25.5103C18.0695 25.9512 18.363 26.2231 18.8865 26.2243C20.7562 26.2276 22.6259 26.2187 24.4955 26.2276C25.512 26.2332 26.1771 27.1799 25.8168 28.0819C25.6026 28.6168 25.1063 28.929 24.4344 28.9302C22.6644 28.9346 20.8933 28.9324 19.1233 28.9324C18.9953 28.9324 18.8673 28.9235 18.7415 28.938C18.3336 28.9839 18.0831 29.2558 18.0933 29.6307C18.1035 30.0056 18.3641 30.2663 18.7834 30.2708ZM40.8773 32.9924C40.3685 33.0092 39.8586 32.9957 39.3487 32.9957C34.6326 32.998 29.9176 32.998 25.2026 33.0069C24.8797 33.0081 24.7437 32.998 24.9148 32.6175C25.2627 31.842 25.163 31.0631 24.7584 30.2876C27.019 29.9743 27.9221 27.6253 26.7754 26.0463C26.6417 25.8639 26.7154 25.808 26.8581 25.6949C28.4728 24.4047 28.3312 22.2504 26.559 21.1705C26.3811 21.0631 26.3788 21.006 26.4717 20.8303C27.5063 18.872 26.2485 16.8017 24.0083 16.7625C23.3069 16.7502 23.3069 16.7502 23.3069 16.053C23.3057 13.8854 23.3159 11.7178 23.2978 9.55125C23.2922 8.97717 23.4712 8.54521 23.9131 8.15801C26.1488 6.20076 28.3482 4.20434 30.5918 2.25604C32.0184 1.01724 33.3544 1.03514 34.8263 2.21576C34.9249 2.29521 35.0246 2.37355 35.1187 2.45748C37.2988 4.39235 39.4756 6.32945 41.6591 8.25985C42.0002 8.562 42.152 8.91674 42.152 9.36661C42.1498 16.8062 42.1532 24.2457 42.1532 31.6853C42.1532 32.4933 41.6931 32.9655 40.8773 32.9924Z" />
			<path
				d="M35.4654 24.3185C35.4541 23.4568 35.0099 22.9566 34.3266 22.6243C33.7362 22.3367 33.0937 22.2292 32.4547 22.1095C31.8416 21.9953 31.2467 21.8297 30.6892 21.5421C28.5601 20.4454 28.3867 17.7496 30.3606 16.3888C30.7957 16.0889 31.2728 15.8841 31.7918 15.7845C31.998 15.7453 32.0705 15.6581 32.0524 15.4521C32.0343 15.244 32.0354 15.0314 32.0547 14.8232C32.092 14.4293 32.3855 14.1775 32.764 14.1932C33.1243 14.2089 33.4393 14.4707 33.3918 14.8411C33.3068 15.5081 33.5493 15.7677 34.2167 15.9434C35.2614 16.2176 35.9844 16.9595 36.4422 17.932C36.6473 18.3662 36.5249 18.7568 36.1464 18.9257C35.7793 19.0902 35.411 18.9548 35.2195 18.5162C34.5951 17.0916 32.8059 16.6238 31.3872 17.3411C30.7164 17.6802 30.33 18.2118 30.347 18.9817C30.3629 19.7281 30.8377 20.1355 31.4609 20.4253C32.0966 20.7207 32.7912 20.7923 33.4665 20.9333C34.2053 21.0878 34.9079 21.3317 35.5266 21.7727C37.4359 23.1368 37.224 25.7767 35.1243 26.8275C34.6654 27.0569 34.1827 27.2102 33.6784 27.2852C33.4665 27.3165 33.3872 27.3848 33.4065 27.5963C33.4235 27.791 33.4178 27.988 33.4065 28.1838C33.385 28.5688 33.1345 28.8217 32.7731 28.8396C32.3912 28.8586 32.0116 28.5967 32.0728 28.223C32.202 27.4385 31.7906 27.265 31.1402 27.0726C29.8836 26.7021 29.045 25.8416 28.6734 24.5782C28.5612 24.1954 28.747 23.8329 29.0813 23.7187C29.4507 23.5934 29.8586 23.759 29.9538 24.1641C30.2314 25.3447 31.4416 26.0721 32.934 26.0128C33.5923 25.9871 34.2223 25.8405 34.7798 25.4701C35.215 25.1825 35.4892 24.7964 35.4654 24.3185Z" />
			<path
				d="M32.7394 4.22901C31.3864 4.22677 30.3156 5.27869 30.3145 6.61039C30.3145 7.93648 31.4034 9.01526 32.7348 9.00743C34.0651 9.00072 35.1597 7.90627 35.1461 6.5936C35.1337 5.28541 34.0617 4.23125 32.7394 4.22901ZM32.7303 7.66343C32.1445 7.66679 31.6652 7.17775 31.6765 6.58577C31.6878 6.00945 32.1558 5.56518 32.7428 5.57301C33.3241 5.58084 33.7898 6.04861 33.7853 6.61822C33.7796 7.18223 33.298 7.66007 32.7303 7.66343Z" />
		</g>
		<defs>
			<clipPath id="clip0_504_5078__return">
				<rect width="43.5135" height="35" fill="white" />
			</clipPath>
		</defs>
	</symbol>
	<symbol id="support" viewBox="0 0 44 43" xmlns="http://www.w3.org/2000/svg">
		<path
			d="M40.9823 18.8608C40.8159 14.1198 38.8957 9.68647 35.5239 6.31528C31.9898 2.78109 27.2929 0.835388 22.2991 0.835388C12.213 0.835388 3.97169 8.86201 3.61645 18.8608C2.07728 19.5447 1 21.085 1 22.8751V27.807C1 30.2287 2.97049 32.1996 5.39335 32.1996C6.96104 32.1996 8.23599 30.9249 8.23599 29.3574V21.324C8.23599 19.8523 7.10708 18.6523 5.67184 18.5097C6.20165 9.79853 13.4546 2.87277 22.2991 2.87277C26.7495 2.87277 30.9343 4.60727 34.0839 7.75639C36.9762 10.6481 38.6688 14.4173 38.9235 18.5104C37.4897 18.6544 36.3628 19.8537 36.3628 21.324V29.3567C36.3628 30.8406 37.5094 32.0481 38.9616 32.1738V34.2037C38.9616 36.4896 37.1011 38.3491 34.8148 38.3491H31.7439C31.5931 37.9185 31.3568 37.5206 31.0253 37.1905C30.4445 36.6071 29.6702 36.2859 28.8456 36.2859H25.6803C25.2259 36.2859 24.7898 36.3823 24.3904 36.5684C23.3009 37.0689 22.5972 38.1678 22.5972 39.3678C22.5972 40.1922 22.9185 40.9664 23.5006 41.5457C24.0827 42.1291 24.8571 42.4503 25.6803 42.4503H28.8456C30.1579 42.4503 31.3147 41.6021 31.746 40.3865H34.8148C38.2253 40.3865 40.9993 37.6129 40.9993 34.2037V31.8111C42.529 31.1232 43.5981 29.5883 43.5981 27.8056V22.8738C43.5981 21.085 42.5208 19.5447 40.9823 18.8608ZM6.19757 21.324V29.3567C6.19757 29.8002 5.8369 30.1615 5.39267 30.1615C4.09396 30.1615 3.03705 29.1048 3.03705 27.8063V22.8745C3.03705 21.5753 4.09396 20.5192 5.39267 20.5192C5.8369 20.5192 6.19757 20.8805 6.19757 21.324ZM29.8679 39.5865C29.7667 40.0659 29.336 40.4143 28.8449 40.4143H25.6796C25.4012 40.4143 25.1396 40.3057 24.94 40.106C24.743 39.9097 24.6343 39.6476 24.6343 39.3691C24.6343 38.9623 24.8727 38.5909 25.2463 38.419C25.3794 38.3566 25.5255 38.3246 25.6796 38.3246H28.8449C29.1234 38.3246 29.3849 38.4326 29.5839 38.6323C29.7809 38.8286 29.8896 39.0907 29.8896 39.3691C29.8903 39.4438 29.8821 39.5185 29.8679 39.5865ZM41.5604 27.8063C41.5604 29.1048 40.5035 30.1615 39.2048 30.1615C38.7612 30.1615 38.3998 29.8009 38.3998 29.3567V21.324C38.3998 20.8805 38.7605 20.5192 39.2048 20.5192C40.5035 20.5192 41.5604 21.576 41.5604 22.8745V27.8063Z"
			stroke-width="0.5" />
		<path
			d="M28.897 28.1574C31.2778 28.1574 33.2143 26.2205 33.2143 23.8408V15.0454C33.2143 13.895 32.7646 12.8111 31.9482 11.9948C31.1317 11.1785 30.0484 10.7289 28.897 10.7289H15.702C13.3213 10.7289 11.3848 12.6651 11.3848 15.0454V23.8408C11.3848 26.2212 13.3213 28.1574 15.702 28.1574H15.7829V30.4365C15.7829 31.3058 16.3011 32.0773 17.1026 32.4026C17.3614 32.5065 17.6304 32.5581 17.8967 32.5581C18.4516 32.5581 18.9923 32.3381 19.3883 31.9286L23.1805 28.1574H28.897ZM22.0428 26.4161L17.9388 30.497C17.9205 30.516 17.9069 30.5302 17.8681 30.5133C17.8213 30.4942 17.8213 30.4637 17.8213 30.4365V27.1387C17.8213 26.5763 17.3655 26.12 16.8024 26.12H15.7027C14.4454 26.12 13.4232 25.0972 13.4232 23.8408V15.0454C13.4232 13.7884 14.4454 12.7663 15.7027 12.7663H28.8977C29.505 12.7663 30.0762 13.004 30.5082 13.4352C30.9402 13.8671 31.1773 14.439 31.1773 15.0454V23.8408C31.1773 25.0979 30.1543 26.12 28.8977 26.12H22.7614C22.4918 26.12 22.2336 26.2266 22.0428 26.4161Z"
			stroke-width="0.5" />
		<path
			d="M17.3489 18.1029C16.5202 18.1029 15.8457 18.7781 15.8457 19.6061C15.8457 20.4341 16.5209 21.1092 17.3489 21.1092C18.1782 21.1092 18.8534 20.4341 18.8534 19.6061C18.8534 18.7781 18.1789 18.1029 17.3489 18.1029Z"
			stroke-width="0.5" />
		<path
			d="M22.2981 18.1029C21.4694 18.1029 20.7949 18.7781 20.7949 19.6061C20.7949 20.4341 21.4701 21.1092 22.2981 21.1092C23.1281 21.1092 23.8026 20.4341 23.8026 19.6061C23.8026 18.7781 23.1281 18.1029 22.2981 18.1029Z"
			stroke-width="0.5" />
		<path
			d="M27.2473 18.1029C26.4186 18.1029 25.7441 18.7781 25.7441 19.6061C25.7441 20.4341 26.4193 21.1092 27.2473 21.1092C28.0767 21.1092 28.7518 20.4341 28.7518 19.6061C28.7518 18.7781 28.0767 18.1029 27.2473 18.1029Z"
			stroke-width="0.5" />
	</symbol>
</svg>