<svg width="0" height="0" fill="none" style="visibility: hidden; position: absolute;"
	aria-hidden="true">
	<symbol id="dollar" viewBox="0 0 31 30" xmlns="http://www.w3.org/2000/svg">
		<path
			d="M11.5635 17.9123C11.5635 19.5248 12.801 20.8248 14.3385 20.8248H17.476C18.8135 20.8248 19.901 19.6873 19.901 18.2873C19.901 16.7623 19.2385 16.2248 18.251 15.8748L13.2135 14.1248C12.226 13.7748 11.5635 13.2373 11.5635 11.7123C11.5635 10.3123 12.651 9.1748 13.9885 9.1748H17.126C18.6635 9.1748 19.901 10.4748 19.901 12.0873"
			stroke-width="1.5" stroke-linecap="round" stroke-linejoin="round" />
		<path d="M15.7236 7.5V22.5" stroke-width="1.5" stroke-linecap="round"
			stroke-linejoin="round" />
		<path
			d="M15.7236 27.5C22.6272 27.5 28.2236 21.9036 28.2236 15C28.2236 8.09644 22.6272 2.5 15.7236 2.5C8.82007 2.5 3.22363 8.09644 3.22363 15C3.22363 21.9036 8.82007 27.5 15.7236 27.5Z"
			stroke-width="1.5" stroke-linecap="round" stroke-linejoin="round" />
	</symbol>
	<symbol id="payment" viewBox="0 0 28 27" xmlns="http://www.w3.org/2000/svg">
		<path d="M2.97363 11.2502H25.4736" stroke-width="1.4" stroke-miterlimit="10"
			stroke-linecap="round" stroke-linejoin="round" />
		<path
			d="M13.7154 23.062H7.96671C3.97296 23.062 2.96045 22.072 2.96045 18.1232V8.87575C2.96045 5.29825 3.79298 4.15075 6.93173 3.97075C7.24673 3.9595 7.59546 3.94824 7.96671 3.94824H20.4654C24.4592 3.94824 25.4717 4.93824 25.4717 8.88699V13.8482"
			stroke-width="1.4" stroke-linecap="round" stroke-linejoin="round" />
		<path d="M7.47363 18.0002H11.9736" stroke-width="1.4" stroke-miterlimit="10"
			stroke-linecap="round" stroke-linejoin="round" />
		<path
			d="M25.4736 20.2498C25.4736 21.0935 25.2374 21.8923 24.8211 22.5673C24.0449 23.8723 22.6161 24.7498 20.9736 24.7498C19.3311 24.7498 17.9024 23.8723 17.1262 22.5673C16.7099 21.8923 16.4736 21.0935 16.4736 20.2498C16.4736 17.7635 18.4874 15.7498 20.9736 15.7498C23.4599 15.7498 25.4736 17.7635 25.4736 20.2498Z"
			stroke-width="1.4" stroke-miterlimit="10" stroke-linecap="round" stroke-linejoin="round" />
		<path d="M19.2202 20.2497L20.334 21.3635L22.7302 19.1472" stroke-width="1.4"
			stroke-linecap="round" stroke-linejoin="round" />
	</symbol>
	<symbol id="return" viewBox="0 0 30 29" xmlns="http://www.w3.org/2000/svg">
		<path
			d="M15.2237 16.9167H16.432C17.7612 16.9167 18.8487 15.8292 18.8487 14.5001V2.41675H7.97366C6.16116 2.41675 4.57826 3.41965 3.75659 4.89382"
			stroke-width="1.5" stroke-linecap="round" stroke-linejoin="round" />
		<path
			d="M3.14038 20.5417C3.14038 22.5476 4.75955 24.1667 6.76538 24.1667H7.97371C7.97371 22.8376 9.06121 21.7501 10.3904 21.7501C11.7195 21.7501 12.807 22.8376 12.807 24.1667H17.6404C17.6404 22.8376 18.7279 21.7501 20.057 21.7501C21.3862 21.7501 22.4737 22.8376 22.4737 24.1667H23.682C25.6879 24.1667 27.307 22.5476 27.307 20.5417V16.9167H23.682C23.0175 16.9167 22.4737 16.373 22.4737 15.7084V12.0834C22.4737 11.4188 23.0175 10.8751 23.682 10.8751H25.2408L23.1746 7.26218C22.7396 6.51301 21.9421 6.04175 21.0721 6.04175H18.8487V14.5001C18.8487 15.8292 17.7612 16.9167 16.432 16.9167H15.2237"
			stroke-width="1.5" stroke-linecap="round" stroke-linejoin="round" />
		<path
			d="M10.3903 26.5833C11.725 26.5833 12.807 25.5014 12.807 24.1667C12.807 22.832 11.725 21.75 10.3903 21.75C9.05561 21.75 7.97363 22.832 7.97363 24.1667C7.97363 25.5014 9.05561 26.5833 10.3903 26.5833Z"
			stroke-width="1.5" stroke-linecap="round" stroke-linejoin="round" />
		<path
			d="M20.057 26.5833C21.3917 26.5833 22.4737 25.5014 22.4737 24.1667C22.4737 22.832 21.3917 21.75 20.057 21.75C18.7224 21.75 17.6404 22.832 17.6404 24.1667C17.6404 25.5014 18.7224 26.5833 20.057 26.5833Z"
			stroke-width="1.5" stroke-linecap="round" stroke-linejoin="round" />
		<path
			d="M27.307 14.5V16.9167H23.682C23.0174 16.9167 22.4736 16.3729 22.4736 15.7083V12.0833C22.4736 11.4187 23.0174 10.875 23.682 10.875H25.2407L27.307 14.5Z"
			stroke-width="1.5" stroke-linecap="round" stroke-linejoin="round" />
		<path d="M3.14038 9.66675H10.3904" stroke-width="1.5" stroke-linecap="round"
			stroke-linejoin="round" />
		<path d="M3.14038 13.2917H7.97371" stroke-width="1.5" stroke-linecap="round"
			stroke-linejoin="round" />
		<path d="M3.14038 16.9167H5.55705" stroke-width="1.5" stroke-linecap="round"
			stroke-linejoin="round" />
	</symbol>
	<symbol id="support" viewBox="0 0 31 29" xmlns="http://www.w3.org/2000/svg">
		<path
			d="M28.5859 12.5613C28.4699 9.25745 27.1318 6.16801 24.7821 3.81874C22.3194 1.35589 19.0462 0 15.5662 0C8.53755 0 2.7945 5.59347 2.54694 12.5613C1.47435 13.0379 0.723633 14.1112 0.723633 15.3587V18.7956C0.723633 20.4832 2.0968 21.8566 3.7852 21.8566C4.87768 21.8566 5.76614 20.9683 5.76614 19.876V14.2778C5.76614 13.2522 4.97944 12.416 3.97927 12.3166C4.34848 6.2461 9.40282 1.41978 15.5662 1.41978C18.6675 1.41978 21.5838 2.62849 23.7787 4.823C25.7942 6.83814 26.9737 9.46474 27.1512 12.3171C26.152 12.4174 25.3667 13.2532 25.3667 14.2778V19.8755C25.3667 20.9096 26.1657 21.7511 27.1777 21.8386V23.2532C27.1777 24.8462 25.8812 26.142 24.288 26.142H22.148C22.0429 25.8419 21.8782 25.5646 21.6472 25.3346C21.2425 24.9281 20.7029 24.7042 20.1283 24.7042H17.9225C17.6058 24.7042 17.3019 24.7714 17.0236 24.9011C16.2644 25.2499 15.774 26.0156 15.774 26.8519C15.774 27.4264 15.9979 27.9659 16.4035 28.3696C16.8092 28.7761 17.3488 29 17.9225 29H20.1283C21.0428 29 21.8489 28.4089 22.1494 27.5618H24.288C26.6646 27.5618 28.5978 25.629 28.5978 23.2532V21.5859C29.6637 21.1065 30.4088 20.0369 30.4088 18.7946V15.3578C30.4088 14.1112 29.658 13.0379 28.5859 12.5613ZM4.34564 14.2778V19.8755C4.34564 20.1846 4.0943 20.4363 3.78473 20.4363C2.8797 20.4363 2.14318 19.7 2.14318 18.7951V15.3583C2.14318 14.4529 2.8797 13.717 3.78473 13.717C4.0943 13.717 4.34564 13.9688 4.34564 14.2778ZM20.8406 27.0043C20.7701 27.3384 20.47 27.5812 20.1278 27.5812H17.922C17.7279 27.5812 17.5457 27.5054 17.4065 27.3663C17.2693 27.2295 17.1935 27.0469 17.1935 26.8528C17.1935 26.5693 17.3597 26.3105 17.62 26.1907C17.7128 26.1472 17.8146 26.1249 17.922 26.1249H20.1278C20.3219 26.1249 20.5041 26.2002 20.6428 26.3393C20.78 26.4761 20.8558 26.6588 20.8558 26.8528C20.8563 26.9049 20.8506 26.9569 20.8406 27.0043ZM28.9887 18.7951C28.9887 19.7 28.2522 20.4363 27.3472 20.4363C27.0381 20.4363 26.7863 20.185 26.7863 19.8755V14.2778C26.7863 13.9688 27.0376 13.717 27.3472 13.717C28.2522 13.717 28.9887 14.4534 28.9887 15.3583V18.7951Z" />
		<path
			d="M20.1636 19.0398C21.8227 19.0398 23.1722 17.6901 23.1722 16.0318V9.90258C23.1722 9.10087 22.8589 8.34555 22.2899 7.77669C21.7209 7.20783 20.966 6.89453 20.1636 6.89453H10.9685C9.30946 6.89453 7.95996 8.2438 7.95996 9.90258V16.0318C7.95996 17.6906 9.30946 19.0398 10.9685 19.0398H11.0248V20.6281C11.0248 21.2339 11.386 21.7715 11.9445 21.9982C12.1249 22.0706 12.3123 22.1066 12.4979 22.1066C12.8846 22.1066 13.2614 21.9532 13.5373 21.6678L16.18 19.0398H20.1636ZM15.3872 17.8264L12.5272 20.6702C12.5145 20.6835 12.505 20.6934 12.478 20.6816C12.4453 20.6683 12.4453 20.647 12.4453 20.6281V18.3299C12.4453 17.9381 12.1277 17.62 11.7353 17.62H10.969C10.0928 17.62 9.38046 16.9073 9.38046 16.0318V9.90258C9.38046 9.02657 10.0928 8.31431 10.969 8.31431H20.1641C20.5873 8.31431 20.9854 8.47995 21.2864 8.78048C21.5875 9.08147 21.7527 9.47995 21.7527 9.90258V16.0318C21.7527 16.9078 21.0398 17.62 20.1641 17.62H15.888C15.7 17.62 15.5202 17.6943 15.3872 17.8264Z" />
		<path
			d="M12.1168 12.0332C11.5394 12.0332 11.0693 12.5037 11.0693 13.0807C11.0693 13.6577 11.5398 14.1282 12.1168 14.1282C12.6948 14.1282 13.1653 13.6577 13.1653 13.0807C13.1653 12.5037 12.6953 12.0332 12.1168 12.0332Z" />
		<path
			d="M15.5656 12.0332C14.9881 12.0332 14.5181 12.5037 14.5181 13.0807C14.5181 13.6577 14.9886 14.1282 15.5656 14.1282C16.144 14.1282 16.614 13.6577 16.614 13.0807C16.614 12.5037 16.144 12.0332 15.5656 12.0332Z" />
		<path
			d="M19.0145 12.0332C18.4371 12.0332 17.967 12.5037 17.967 13.0807C17.967 13.6577 18.4375 14.1282 19.0145 14.1282C19.5925 14.1282 20.063 13.6577 20.063 13.0807C20.063 12.5037 19.5925 12.0332 19.0145 12.0332Z" />
	</symbol>
</svg>