<svg width="0" height="0" fill="none" style="visibility: hidden; position: absolute;"
	aria-hidden="true">
	<symbol id="fresh" viewBox="0 0 39 39" xmlns="http://www.w3.org/2000/svg">
		<path
			d="M6.83271 30.5933C6.68563 30.3696 6.55104 30.1371 6.42979 29.8975C5.53438 28.1288 5.14771 26.1267 5.02979 24.1263C4.71396 18.7725 6.46813 13.2796 10.0323 9.19334C12.2769 6.62042 15.419 4.9375 18.699 3.67459C22.0398 2.38917 25.5548 1.48417 29.0923 1.12875C29.9035 1.0475 30.7173 0.999586 31.5335 1C33.114 1.005 34.756 1.14625 36.0881 1.92792C36.4427 2.13584 36.7673 2.39584 37.036 2.70542C37.8856 3.68625 38.1865 5.02584 38.319 6.29042C38.569 8.67834 38.2648 11.105 37.8044 13.4829C37.1652 16.7867 36.1548 20.03 34.7235 23.0525C33.761 25.085 32.594 27.0513 30.9898 28.6146C26.7335 32.7608 20.5569 34.8746 14.5485 34.2992C12.6565 34.1183 10.7677 33.6983 9.09646 32.7442C8.99104 32.6846 8.88813 32.6217 8.78646 32.555L3.36354 37.9788C3.13563 38.1638 2.88688 38.3221 2.60104 38.3671C1.83688 38.4883 1.04354 37.8688 1.00188 37.0725C0.986461 36.7808 1.06646 36.4875 1.22354 36.2458C1.27604 36.165 1.34479 36.0954 1.40563 36.0208L6.83271 30.5933ZM10.8131 30.5296C11.3731 30.8071 11.9919 31.0058 12.6015 31.1629C14.8815 31.7508 17.2915 31.7458 19.611 31.3513C23.1356 30.7508 26.5148 29.1083 29.0577 26.6313C30.3594 25.3629 31.3023 23.7638 32.1031 22.1117C33.716 18.7892 34.779 15.1888 35.3294 11.5479C35.6173 9.64209 35.8369 7.68959 35.4448 5.78542C35.3173 5.16875 35.161 4.52209 34.5006 4.22042C33.9848 3.985 33.4115 3.8925 32.839 3.83292C32.3744 3.78459 31.9056 3.76834 31.441 3.76917C28.5685 3.7825 25.6977 4.37125 22.909 5.18C20.1156 5.99 17.3656 7.03542 14.9202 8.59917C12.2131 10.3308 10.214 13.1008 9.03188 16.1454C7.88479 19.0996 7.47271 22.3525 7.95271 25.4646C8.11771 26.5363 8.38021 27.6225 8.85604 28.5704L12.8831 24.5433L12.7835 16.0342C12.7844 15.9717 12.7835 15.9558 12.789 15.8938C12.8452 15.2679 13.3735 14.7146 14.0119 14.6421C14.1469 14.6267 14.179 14.6338 14.2219 14.6342C14.284 14.6383 14.2998 14.6379 14.3615 14.6467C14.961 14.7313 15.4735 15.2454 15.5435 15.8617C15.5506 15.9233 15.5498 15.9392 15.5523 16.0017L15.6202 21.8058L19.014 18.4121V10C19.0156 9.9375 19.0148 9.92209 19.021 9.86C19.0844 9.235 19.619 8.6875 20.2585 8.6225C20.3935 8.60875 20.4252 8.61625 20.4681 8.61709C20.5306 8.62167 20.5465 8.62167 20.6081 8.63125C21.2077 8.72292 21.7135 9.2475 21.776 9.86C21.7823 9.92209 21.7815 9.93792 21.7831 10V15.6425L29.8048 7.62167C30.0327 7.43709 30.2819 7.27834 30.5669 7.23334C30.7573 7.20334 30.951 7.23334 31.1423 7.26334C31.3806 7.355 31.4531 7.36125 31.6552 7.52459C32.1031 7.8875 32.286 8.55125 32.076 9.09667C31.9831 9.33917 31.9231 9.38125 31.7623 9.57959L27.1973 14.145L32.171 14.1538C32.9394 14.1738 33.606 14.8696 33.5485 15.6408C33.4981 16.3254 32.8852 16.9071 32.1652 16.9229L24.4327 16.9092L21.4123 19.9304C21.3756 19.9713 21.3369 20.01 21.296 20.0458L20.9719 20.37H27.3219L27.3944 20.3721C28.104 20.4275 28.7065 21.0471 28.7065 21.7546C28.7065 22.4746 28.0765 23.1192 27.3219 23.1392H18.2031L10.8131 30.5296Z" />
	</symbol>
	<symbol id="refund" viewBox="0 0 47 47" xmlns="http://www.w3.org/2000/svg">
		<path
			d="M24.4795 2.9375C16.5184 2.9375 9.29559 7.52881 5.89788 14.6875H2.93786C2.59858 14.6875 2.28329 14.8633 2.10508 15.1516C1.92687 15.4405 1.91072 15.8008 2.062 16.1044L5.97867 23.9377C6.14464 24.2696 6.48343 24.4792 6.85453 24.4792C7.22564 24.4792 7.56443 24.2696 7.73039 23.9382L11.6471 16.1048C11.7988 15.8013 11.7822 15.441 11.604 15.1521C11.4258 14.8633 11.1105 14.6875 10.7712 14.6875H8.09562C11.3205 8.69402 17.5931 4.89583 24.4795 4.89583C34.7378 4.89583 43.0837 13.2418 43.0837 23.5C43.0837 33.7582 34.7378 42.1042 24.4795 42.1042C16.8597 42.1042 10.0882 37.5373 7.23004 30.4687C7.02686 29.9679 6.45895 29.727 5.95517 29.9282C5.45432 30.1314 5.21149 30.7018 5.41467 31.2031C8.57395 39.0149 16.0577 44.0625 24.4795 44.0625C35.8178 44.0625 45.042 34.8383 45.042 23.5C45.042 12.1617 35.8178 2.9375 24.4795 2.9375ZM6.85453 21.3106L4.52216 16.6458H9.18642L6.85453 21.3106ZM28.3962 25.4583C28.3962 27.0784 27.0787 28.3958 25.4587 28.3958V29.8646C25.4587 30.4051 25.02 30.8438 24.4795 30.8438C23.939 30.8438 23.5004 30.4051 23.5004 29.8646V28.3958H22.0316C21.4911 28.3958 21.0524 27.9572 21.0524 27.4167C21.0524 26.8762 21.4911 26.4375 22.0316 26.4375H25.4587C25.9987 26.4375 26.4379 25.9983 26.4379 25.4583C26.4379 24.9183 25.9987 24.4792 25.4587 24.4792H23.5004C21.8803 24.4792 20.5629 23.1617 20.5629 21.5417C20.5629 19.9216 21.8803 18.6042 23.5004 18.6042V17.1354C23.5004 16.5949 23.939 16.1562 24.4795 16.1562C25.02 16.1562 25.4587 16.5949 25.4587 17.1354V18.6042H26.9274C27.4679 18.6042 27.9066 19.0428 27.9066 19.5833C27.9066 20.1238 27.4679 20.5625 26.9274 20.5625H23.5004C22.9604 20.5625 22.5212 21.0017 22.5212 21.5417C22.5212 22.0817 22.9604 22.5208 23.5004 22.5208H25.4587C27.0787 22.5208 28.3962 23.8383 28.3962 25.4583ZM24.4795 34.7604C18.2701 34.7604 13.2191 29.7094 13.2191 23.5C13.2191 17.2906 18.2701 12.2396 24.4795 12.2396C30.6889 12.2396 35.7399 17.2906 35.7399 23.5C35.7399 29.7094 30.6889 34.7604 24.4795 34.7604ZM24.4795 14.1979C19.3502 14.1979 15.1774 18.3706 15.1774 23.5C15.1774 28.6294 19.3502 32.8021 24.4795 32.8021C29.6089 32.8021 33.7816 28.6294 33.7816 23.5C33.7816 18.3706 29.6089 14.1979 24.4795 14.1979Z" />
	</symbol>
	<symbol id="safe" viewBox="0 0 46 46" xmlns="http://www.w3.org/2000/svg">
		<g clip-path="url(#clip0_1375_1501__safe)">
			<path
				d="M21.2259 31.1997C21.5772 30.8484 21.5772 30.2798 21.2259 29.9285C20.8743 29.5783 20.3046 29.5783 19.9527 29.9285C19.6017 30.2798 19.6017 30.8484 19.9527 31.1997C20.3046 31.5499 20.8743 31.5499 21.2259 31.1997Z" />
			<path
				d="M16.9648 9.88001C16.9648 15.3278 21.4057 19.7604 26.8642 19.7604C32.3227 19.7604 36.7635 15.3278 36.7635 9.88001C36.7635 4.43218 32.3227 0 26.8642 0C21.4057 0 16.9648 4.43218 16.9648 9.88001ZM34.9638 9.88001C34.9638 14.3375 31.3303 17.9638 26.8642 17.9638C22.398 17.9638 18.7645 14.3375 18.7645 9.88001C18.7645 5.42292 22.398 1.79652 26.8642 1.79652C31.3303 1.79652 34.9638 5.42292 34.9638 9.88001Z" />
			<path
				d="M10.4108 45.7343C10.7596 46.0853 11.3275 46.0892 11.6809 45.7417L16.0441 41.4517C16.7853 40.7119 17.0107 39.6165 16.6847 38.6644L17.6233 37.7611C18.1286 37.2739 18.7939 37.0055 19.4971 37.0055H31.461C33.5835 37.0055 35.5896 36.1919 37.1104 34.7148C37.173 34.6541 36.6353 35.2861 45.2723 24.9836C46.5533 23.471 46.3617 21.1996 44.8447 19.9197C43.3372 18.6517 41.079 18.8338 39.7945 20.3205L34.484 25.768C33.8134 24.9443 32.7909 24.4308 31.686 24.4308H21.6506C20.2226 23.8346 18.7074 23.5327 17.144 23.5327C12.8104 23.5327 9.0264 25.5304 6.99568 29.2757C6.14014 29.1139 5.23784 29.3722 4.58871 30.0201L0.307509 34.3056C-0.0420203 34.6555 -0.0427235 35.2216 0.306102 35.5725L10.4108 45.7343ZM17.1436 25.3289C18.5221 25.3289 19.8548 25.6058 21.1055 26.1519C21.2195 26.2017 21.3422 26.2274 21.4663 26.2274H31.686C32.6618 26.2274 33.486 27.0216 33.486 28.0235C33.486 29.0143 32.6787 29.8201 31.686 29.8201H24.3434C23.8466 29.8201 23.4436 30.2223 23.4436 30.7181C23.4436 31.2144 23.8466 31.6162 24.3434 31.6162H31.686C33.671 31.6162 35.2857 30.0047 35.2857 28.0235C35.2857 27.8656 35.2745 27.7091 35.2541 27.554C40.3912 22.2837 41.1156 21.5432 41.1465 21.5064C41.7879 20.7508 42.9265 20.6549 43.6839 21.2923C44.4421 21.9321 44.5381 23.0677 43.8949 23.8275L35.823 33.4584C34.6443 34.5877 33.0968 35.2093 31.461 35.2093H19.4971C18.3248 35.2093 17.215 35.6567 16.3732 36.4685L15.6084 37.2052L8.55801 30.1689C10.2058 27.0837 13.2978 25.3289 17.1436 25.3289ZM5.86235 31.2895C6.15913 30.9933 6.61486 30.9399 6.97669 31.1632C7.13247 31.2579 6.68518 30.8515 14.7715 38.9108C15.1312 39.2698 15.1119 39.8419 14.7764 40.1767L11.0568 43.8339L2.2141 34.9412L5.86235 31.2895Z" />
			<path
				d="M25.7833 4.49115V5.54366C24.7358 5.91426 23.9833 6.91272 23.9833 8.08385C23.9833 9.56943 25.1944 10.7785 26.6832 10.7785C27.1794 10.7785 27.583 11.1814 27.583 11.6765C27.583 12.1717 27.1794 12.5746 26.6832 12.5746C26.2989 12.5746 25.8836 12.3335 25.5147 11.8952C25.1947 11.5155 24.6272 11.4667 24.2467 11.7857C23.8662 12.1051 23.817 12.6715 24.137 13.0512C24.618 13.6222 25.1838 14.0202 25.7833 14.221V15.2692C25.7833 15.7655 26.1863 16.1673 26.6832 16.1673C27.1801 16.1673 27.583 15.7655 27.583 15.2692V14.2167C28.6306 13.8458 29.3831 12.8473 29.3831 11.6765C29.3831 10.1906 28.172 8.98194 26.6832 8.98194C26.187 8.98194 25.7833 8.57904 25.7833 8.08385C25.7833 7.58866 26.187 7.18541 26.6832 7.18541C27.0021 7.18541 27.3386 7.3479 27.6565 7.65499C28.0138 7.99997 28.5834 7.9905 28.9291 7.63428C29.2748 7.27771 29.2653 6.70917 28.9084 6.36418C28.4516 5.92304 27.9945 5.67351 27.583 5.53734V4.49115C27.583 3.9949 27.1801 3.59271 26.6832 3.59271C26.1863 3.59271 25.7833 3.9949 25.7833 4.49115Z" />
		</g>
		<defs>
			<clipPath id="clip0_1375_1501__safe">
				<rect width="46" height="46" fill="white" />
			</clipPath>
		</defs>
	</symbol>
	<symbol id="shipping" viewBox="0 0 50 50" xmlns="http://www.w3.org/2000/svg">
		<g clip-path="url(#clip0_1375_1521__shipping)">
			<path
				d="M13.5423 39.5833H9.37565C8.80065 39.5833 8.33398 39.1167 8.33398 38.5417C8.33398 37.9667 8.80065 37.5 9.37565 37.5H13.5423C14.1173 37.5 14.584 37.9667 14.584 38.5417C14.584 39.1167 14.1173 39.5833 13.5423 39.5833Z" />
			<path
				d="M47.395 39.5833H44.7909C44.2159 39.5833 43.7492 39.1166 43.7492 38.5416C43.7492 37.9666 44.2159 37.5 44.7909 37.5H46.5304L47.9346 30.0166C47.9159 26.1875 44.645 22.9166 40.6242 22.9166H33.7846L30.47 37.5H36.4575C37.0325 37.5 37.4992 37.9666 37.4992 38.5416C37.4992 39.1166 37.0325 39.5833 36.4575 39.5833H29.1659C28.8492 39.5833 28.5492 39.4396 28.3513 39.1916C28.1534 38.9458 28.0784 38.6208 28.1492 38.3125L31.9367 21.6458C32.045 21.1687 32.4659 20.8333 32.9534 20.8333H40.6242C45.7929 20.8333 49.9992 25.0396 49.9992 30.2083L48.4179 38.7333C48.3263 39.2271 47.8971 39.5833 47.395 39.5833Z" />
			<path
				d="M40.6243 43.75C37.7535 43.75 35.416 41.4146 35.416 38.5416C35.416 35.6687 37.7535 33.3333 40.6243 33.3333C43.4952 33.3333 45.8327 35.6687 45.8327 38.5416C45.8327 41.4146 43.4952 43.75 40.6243 43.75ZM40.6243 35.4166C38.9014 35.4166 37.4993 36.8187 37.4993 38.5416C37.4993 40.2646 38.9014 41.6666 40.6243 41.6666C42.3473 41.6666 43.7493 40.2646 43.7493 38.5416C43.7493 36.8187 42.3473 35.4166 40.6243 35.4166Z" />
			<path
				d="M17.7083 43.75C14.8375 43.75 12.5 41.4146 12.5 38.5416C12.5 35.6687 14.8375 33.3333 17.7083 33.3333C20.5792 33.3333 22.9167 35.6687 22.9167 38.5416C22.9167 41.4146 20.5792 43.75 17.7083 43.75ZM17.7083 35.4166C15.9854 35.4166 14.5833 36.8187 14.5833 38.5416C14.5833 40.2646 15.9854 41.6666 17.7083 41.6666C19.4313 41.6666 20.8333 40.2646 20.8333 38.5416C20.8333 36.8187 19.4313 35.4166 17.7083 35.4166Z" />
			<path
				d="M13.541 20.8333H5.20768C4.63268 20.8333 4.16602 20.3667 4.16602 19.7917C4.16602 19.2167 4.63268 18.75 5.20768 18.75H13.541C14.116 18.75 14.5827 19.2167 14.5827 19.7917C14.5827 20.3667 14.116 20.8333 13.541 20.8333Z" />
			<path
				d="M13.5423 27.0833H3.12565C2.55065 27.0833 2.08398 26.6167 2.08398 26.0417C2.08398 25.4667 2.55065 25 3.12565 25H13.5423C14.1173 25 14.584 25.4667 14.584 26.0417C14.584 26.6167 14.1173 27.0833 13.5423 27.0833Z" />
			<path
				d="M13.5417 33.3333H1.04167C0.466667 33.3333 0 32.8667 0 32.2917C0 31.7167 0.466667 31.25 1.04167 31.25H13.5417C14.1167 31.25 14.5833 31.7167 14.5833 32.2917C14.5833 32.8667 14.1167 33.3333 13.5417 33.3333Z" />
			<path
				d="M29.1673 39.5833H21.8757C21.3007 39.5833 20.834 39.1166 20.834 38.5416C20.834 37.9666 21.3007 37.5 21.8757 37.5H28.3361L33.0694 16.6666H9.37565C8.80065 16.6666 8.33398 16.2 8.33398 15.625C8.33398 15.05 8.80065 14.5833 9.37565 14.5833H34.3757C34.6923 14.5833 34.9923 14.7271 35.1902 14.975C35.3882 15.2208 35.4632 15.5458 35.3923 15.8541L30.184 38.7708C30.0757 39.2479 29.6527 39.5833 29.1673 39.5833Z" />
		</g>
		<defs>
			<clipPath id="clip0_1375_1521__shipping">
				<rect width="50" height="50" fill="white" />
			</clipPath>
		</defs>
	</symbol>
</svg>