<svg width="1600" height="7" viewBox="0 0 1600 7" fill="none" xmlns="http://www.w3.org/2000/svg">
<path d="M1932 11.0244V0C1929.81 0 1928.76 1.10266 1927.51 2.41504C1926.17 3.83237 1924.62 5.45979 1921.63 5.45996C1918.63 5.45996 1917.09 3.83244 1915.74 2.41504C1914.49 1.10267 1913.45 0 1911.25 0C1909.06 1.43051e-05 1908.01 1.10266 1906.76 2.41504C1905.42 3.83238 1903.87 5.45981 1900.88 5.45996C1897.89 5.45996 1896.34 3.83244 1894.99 2.41504C1893.75 1.10267 1892.7 0 1890.51 0C1888.31 2.67029e-05 1887.26 1.10266 1886.02 2.41504C1884.67 3.83238 1883.12 5.45982 1880.13 5.45996C1877.14 5.45996 1875.59 3.83244 1874.25 2.41504C1873 1.10268 1871.95 0 1869.76 0C1867.56 4.1008e-05 1866.52 1.10265 1865.27 2.41504C1863.92 3.83239 1862.38 5.45984 1859.39 5.45996C1856.39 5.45996 1854.85 3.83244 1853.5 2.41504C1852.25 1.10269 1851.21 0 1849.01 0C1846.82 5.34058e-05 1845.77 1.10266 1844.52 2.41504C1843.18 3.83239 1841.63 5.45985 1838.64 5.45996C1835.65 5.45996 1834.1 3.83244 1832.75 2.41504C1831.51 1.1027 1830.46 0 1828.26 0C1826.07 6.86646e-05 1825.02 1.10267 1823.78 2.41504C1822.43 3.83239 1820.88 5.45987 1817.89 5.45996C1814.9 5.45996 1813.35 3.83237 1812.01 2.41504C1810.76 1.10263 1809.71 0 1807.52 0C1805.32 8.39233e-05 1804.28 1.10268 1803.03 2.41504C1801.68 3.83239 1800.14 5.45988 1797.14 5.45996C1794.15 5.45996 1792.61 3.83238 1791.26 2.41504C1790.01 1.10263 1788.96 0 1786.77 0C1784.58 9.91821e-05 1783.53 1.10269 1782.28 2.41504C1780.94 3.8324 1779.39 5.4599 1776.4 5.45996C1773.41 5.45996 1771.86 3.83238 1770.51 2.41504C1769.27 1.10263 1768.22 0 1766.02 0C1763.83 0.00011158 1762.78 1.10269 1761.54 2.41504C1760.19 3.8324 1758.64 5.45991 1755.65 5.45996C1752.66 5.45996 1751.11 3.83239 1749.77 2.41504C1748.52 1.10263 1747.47 0 1745.28 0C1743.08 0.000124931 1742.03 1.1027 1740.79 2.41504C1739.44 3.8324 1737.9 5.45993 1734.9 5.45996C1731.91 5.45996 1730.37 3.83239 1729.02 2.41504C1727.77 1.10263 1726.72 0 1724.53 0C1722.34 0.000137329 1721.29 1.10271 1720.04 2.41504C1718.69 3.8324 1717.15 5.45994 1714.16 5.45996C1711.16 5.45996 1709.62 3.8324 1708.27 2.41504C1707.02 1.10263 1705.98 0 1703.78 0C1703.23 3.91006e-05 1702.76 0.0690374 1702.33 0.193359V0C1700.13 0 1699.09 1.10266 1697.84 2.41504C1696.61 3.71289 1695.21 5.18638 1692.68 5.42578C1690.16 5.18624 1688.76 3.71276 1687.52 2.41504C1686.28 1.10272 1685.23 0.000159264 1683.04 0V0.193359C1682.61 0.068923 1682.13 0 1681.58 0C1679.39 1.43051e-05 1678.34 1.10266 1677.09 2.41504C1675.75 3.83238 1674.2 5.45981 1671.21 5.45996C1668.22 5.45996 1666.67 3.83244 1665.32 2.41504C1664.08 1.10267 1663.03 0 1660.83 0C1658.64 2.67029e-05 1657.59 1.10266 1656.35 2.41504C1655 3.83238 1653.45 5.45982 1650.46 5.45996C1647.47 5.45996 1645.92 3.83244 1644.58 2.41504C1643.33 1.10268 1642.28 0 1640.09 0C1637.89 4.1008e-05 1636.85 1.10265 1635.6 2.41504C1634.25 3.83239 1632.71 5.45984 1629.71 5.45996C1626.72 5.45996 1625.17 3.83244 1623.83 2.41504C1622.58 1.10269 1621.53 0 1619.34 0C1617.15 5.34058e-05 1616.1 1.10266 1614.85 2.41504C1613.51 3.83239 1611.96 5.45985 1608.97 5.45996C1605.97 5.45996 1604.43 3.83244 1603.08 2.41504C1601.83 1.1027 1600.79 0 1598.59 0C1596.4 6.86646e-05 1595.35 1.10267 1594.1 2.41504C1592.76 3.83239 1591.21 5.45987 1588.22 5.45996C1585.23 5.45996 1583.68 3.83237 1582.33 2.41504C1581.09 1.10263 1580.04 0 1577.85 0C1575.65 8.39233e-05 1574.6 1.10268 1573.36 2.41504C1572.01 3.83239 1570.46 5.45988 1567.47 5.45996C1564.48 5.45996 1562.93 3.83238 1561.59 2.41504C1560.34 1.10263 1559.29 0 1557.1 0C1554.9 9.91821e-05 1553.86 1.10269 1552.61 2.41504C1551.26 3.8324 1549.72 5.4599 1546.73 5.45996C1543.73 5.45996 1542.19 3.83238 1540.84 2.41504C1539.59 1.10263 1538.55 0 1536.35 0C1534.16 0.00011158 1533.11 1.10269 1531.86 2.41504C1530.52 3.8324 1528.97 5.45991 1525.98 5.45996C1522.99 5.45996 1521.44 3.83239 1520.09 2.41504C1518.85 1.10263 1517.8 0 1515.6 0C1513.41 0.000124931 1512.36 1.1027 1511.12 2.41504C1509.77 3.8324 1508.22 5.45993 1505.23 5.45996C1502.24 5.45996 1500.69 3.83239 1499.35 2.41504C1498.1 1.10263 1497.05 0 1494.86 0C1492.66 0.000137329 1491.62 1.10271 1490.37 2.41504C1489.02 3.8324 1487.48 5.45994 1484.48 5.45996C1481.49 5.45996 1479.95 3.8324 1478.6 2.41504C1477.35 1.10263 1476.3 0 1474.11 0C1473.56 3.91006e-05 1473.08 0.0690374 1472.66 0.193359V0C1470.46 0 1469.41 1.10266 1468.17 2.41504C1466.93 3.71289 1465.53 5.18638 1463.01 5.42578C1460.49 5.18624 1459.09 3.71276 1457.85 2.41504C1456.61 1.10272 1455.56 0.000159264 1453.36 0V0.193359C1452.94 0.068923 1452.46 0 1451.91 0C1449.71 1.43051e-05 1448.67 1.10266 1447.42 2.41504C1446.07 3.83238 1444.53 5.45981 1441.54 5.45996C1438.54 5.45996 1437 3.83244 1435.65 2.41504C1434.4 1.10267 1433.36 0 1431.16 0C1428.97 2.67029e-05 1427.92 1.10266 1426.67 2.41504C1425.33 3.83238 1423.78 5.45982 1420.79 5.45996C1417.8 5.45996 1416.25 3.83244 1414.9 2.41504C1413.66 1.10268 1412.61 0 1410.42 0C1408.22 4.1008e-05 1407.17 1.10265 1405.93 2.41504C1404.58 3.83239 1403.03 5.45984 1400.04 5.45996C1397.05 5.45996 1395.5 3.83244 1394.16 2.41504C1392.91 1.10269 1391.86 0 1389.67 0C1387.47 5.34058e-05 1386.43 1.10266 1385.18 2.41504C1383.83 3.83239 1382.29 5.45985 1379.29 5.45996C1376.3 5.45996 1374.76 3.83244 1373.41 2.41504C1372.16 1.1027 1371.12 0 1368.92 0C1366.73 6.86646e-05 1365.68 1.10267 1364.43 2.41504C1363.09 3.83239 1361.54 5.45987 1358.55 5.45996C1355.56 5.45996 1354.01 3.83237 1352.66 2.41504C1351.42 1.10263 1350.37 0 1348.17 0C1345.98 8.39233e-05 1344.93 1.10268 1343.69 2.41504C1342.34 3.83239 1340.79 5.45988 1337.8 5.45996C1334.81 5.45996 1333.26 3.83238 1331.92 2.41504C1330.67 1.10263 1329.62 0 1327.43 0C1325.23 9.91821e-05 1324.19 1.10269 1322.94 2.41504C1321.59 3.8324 1320.05 5.4599 1317.05 5.45996C1314.06 5.45996 1312.52 3.83238 1311.17 2.41504C1309.92 1.10263 1308.87 0 1306.68 0C1304.49 0.00011158 1303.44 1.10269 1302.19 2.41504C1300.84 3.8324 1299.3 5.45991 1296.31 5.45996C1293.31 5.45996 1291.77 3.83239 1290.42 2.41504C1289.18 1.10263 1288.13 0 1285.93 0C1283.74 0.000124931 1282.69 1.1027 1281.44 2.41504C1280.1 3.8324 1278.55 5.45993 1275.56 5.45996C1272.57 5.45996 1271.02 3.83239 1269.67 2.41504C1268.43 1.10263 1267.38 0 1265.19 0C1262.99 0.000137329 1261.94 1.10271 1260.7 2.41504C1259.35 3.8324 1257.8 5.45994 1254.81 5.45996C1251.82 5.45996 1250.27 3.8324 1248.93 2.41504C1247.68 1.10263 1246.63 0 1244.44 0C1243.89 3.91006e-05 1243.41 0.0690374 1242.98 0.193359V0C1240.79 0 1239.74 1.10268 1238.5 2.41504C1237.26 3.71287 1235.86 5.18634 1233.34 5.42578C1230.81 5.18624 1229.41 3.71276 1228.18 2.41504C1226.93 1.10272 1225.89 0.000159264 1223.69 0V0.194336C1223.27 0.0698366 1222.79 6.67572e-06 1222.24 0C1220.04 0 1219 1.10267 1217.75 2.41504C1216.4 3.83244 1214.86 5.45996 1211.86 5.45996C1208.87 5.45981 1207.33 3.83238 1205.98 2.41504C1204.73 1.10266 1203.68 1.43051e-05 1201.49 0C1199.3 0 1198.25 1.10267 1197 2.41504C1195.66 3.83244 1194.11 5.45996 1191.12 5.45996C1188.12 5.45979 1186.58 3.83237 1185.23 2.41504C1183.98 1.10266 1182.94 0 1180.74 0C1178.55 0 1177.5 1.10266 1176.25 2.41504C1174.91 3.83237 1173.36 5.45979 1170.37 5.45996C1167.38 5.45996 1165.83 3.83244 1164.48 2.41504C1163.24 1.10266 1162.19 0 1160 0C1157.8 1.23978e-05 1156.75 1.10266 1155.51 2.41504C1154.16 3.83238 1152.62 5.45981 1149.62 5.45996C1146.63 5.45996 1145.08 3.83244 1143.74 2.41504C1142.49 1.10268 1141.44 0 1139.25 0C1137.05 2.76566e-05 1136.01 1.10266 1134.76 2.41504C1133.41 3.83238 1131.87 5.45982 1128.88 5.45996C1125.88 5.45996 1124.34 3.83244 1122.99 2.41504C1121.74 1.10268 1120.7 0 1118.5 0C1116.31 4.29153e-05 1115.26 1.10265 1114.01 2.41504C1112.67 3.83239 1111.12 5.45984 1108.13 5.45996C1105.14 5.45996 1103.59 3.83244 1102.24 2.41504C1101 1.1027 1099.95 0 1097.75 0C1095.56 5.81741e-05 1094.51 1.10266 1093.27 2.41504C1091.92 3.83239 1090.37 5.45985 1087.38 5.45996C1084.39 5.45996 1082.84 3.83244 1081.5 2.41504C1080.25 1.1027 1079.2 0 1077.01 0C1074.81 7.05719e-05 1073.77 1.10267 1072.52 2.41504C1071.17 3.83239 1069.63 5.45987 1066.63 5.45996C1063.64 5.45996 1062.1 3.83237 1060.75 2.41504C1059.5 1.10263 1058.46 0 1056.26 0C1054.07 8.39233e-05 1053.02 1.10268 1051.77 2.41504C1050.43 3.8324 1048.88 5.45988 1045.89 5.45996C1042.9 5.45996 1041.35 3.83238 1040 2.41504C1038.76 1.10263 1037.71 0 1035.51 0C1033.32 9.63211e-05 1032.27 1.10269 1031.03 2.41504C1029.68 3.8324 1028.13 5.4599 1025.14 5.45996C1022.15 5.45996 1020.6 3.83238 1019.26 2.41504C1018.01 1.10263 1016.96 0 1014.77 0C1012.57 0.000114441 1011.53 1.1027 1010.28 2.41504C1008.93 3.8324 1007.39 5.45991 1004.39 5.45996C1001.4 5.45996 999.855 3.83239 998.509 2.41504C997.262 1.10263 996.214 0 994.02 0C991.817 0.000142097 990.766 1.10271 989.515 2.41504C988.163 3.83237 986.612 5.45988 983.608 5.45996C980.605 5.45996 979.053 3.83244 977.701 2.41504C976.45 1.10267 975.399 0 973.196 0C970.994 2.86102e-05 969.943 1.10265 968.691 2.41504C967.34 3.83244 965.788 5.45996 962.784 5.45996C959.781 5.45982 958.229 3.83236 956.878 2.41504C955.627 1.10268 954.575 8.7738e-05 952.373 0C950.171 0 949.12 1.10271 947.868 2.41504C946.517 3.83244 944.964 5.45996 941.961 5.45996C938.958 5.45994 937.406 3.83237 936.055 2.41504C934.803 1.10263 933.751 0 931.549 0C929.347 0.000123978 928.295 1.1027 927.044 2.41504C925.693 3.83236 924.141 5.45986 921.138 5.45996C918.134 5.45996 916.582 3.83244 915.23 2.41504C913.979 1.10265 912.928 0 910.726 0C908.523 8.58307e-06 907.472 1.10265 906.221 2.41504C904.869 3.83244 903.317 5.45996 900.313 5.45996C897.31 5.45984 895.759 3.83236 894.407 2.41504C893.156 1.10269 892.105 0.000103951 889.902 0C887.7 0 886.648 1.10263 885.396 2.41504C884.045 3.83238 882.493 5.45996 879.49 5.45996C876.487 5.45996 874.935 3.83238 873.584 2.41504C872.333 1.10263 871.281 0 869.078 0C866.876 0.000108719 865.825 1.10269 864.573 2.41504C863.222 3.83236 861.67 5.45984 858.667 5.45996C855.664 5.45996 854.111 3.83244 852.76 2.41504C851.508 1.10265 850.457 4.76837e-06 848.255 0C846.052 0 845.001 1.10265 843.75 2.41504C842.398 3.83244 840.846 5.45996 837.843 5.45996C834.84 5.45986 833.288 3.83237 831.937 2.41504C830.685 1.1027 829.634 0.000120163 827.432 0C825.229 0 824.177 1.10263 822.926 2.41504C821.574 3.83238 820.023 5.45995 817.02 5.45996C814.016 5.45996 812.465 3.83237 811.113 2.41504C809.862 1.10263 808.81 0 806.607 0C804.405 8.96454e-05 803.354 1.10268 802.103 2.41504C800.751 3.83236 799.199 5.45982 796.196 5.45996C793.193 5.45996 791.641 3.83244 790.289 2.41504C789.038 1.10265 787.987 2.57492e-05 785.784 0C783.582 0 782.531 1.10266 781.279 2.41504C779.928 3.83244 778.375 5.45996 775.372 5.45996C772.369 5.45987 770.817 3.83237 769.466 2.41504C768.214 1.10271 767.163 0.000136375 764.961 0C762.758 0 761.706 1.10263 760.455 2.41504C759.104 3.83237 757.552 5.45992 754.549 5.45996C751.545 5.45996 749.993 3.83244 748.642 2.41504C747.39 1.1027 746.339 0 744.137 0C741.934 7.82013e-05 740.883 1.10267 739.632 2.41504C738.28 3.83236 736.729 5.45981 733.726 5.45996C730.722 5.45996 729.17 3.83244 727.818 2.41504C726.567 1.10265 725.516 3.71933e-05 723.313 0C721.111 0 720.06 1.10267 718.809 2.41504C717.457 3.83244 715.905 5.45996 712.901 5.45996C709.898 5.45988 708.347 3.83237 706.995 2.41504C705.744 1.10272 704.692 0.00014782 702.49 0C700.288 0 699.236 1.10263 697.984 2.41504C696.633 3.83237 695.081 5.45991 692.078 5.45996C689.075 5.45996 687.522 3.83244 686.171 2.41504C684.92 1.10269 683.868 0 681.666 0C679.464 6.29425e-05 678.413 1.10267 677.161 2.41504C675.81 3.83236 674.258 5.45979 671.255 5.45996C668.252 5.45996 666.699 3.83244 665.348 2.41504C664.096 1.10266 663.045 5.34058e-05 660.843 0C658.64 0 657.589 1.10268 656.338 2.41504C654.986 3.83244 653.434 5.45996 650.431 5.45996C647.427 5.4599 645.876 3.83237 644.524 2.41504C643.273 1.10263 642.221 0 640.019 0C637.816 0.000157356 636.765 1.10272 635.514 2.41504C634.162 3.83237 632.611 5.4599 629.607 5.45996C626.604 5.45996 625.052 3.83244 623.7 2.41504C622.449 1.10268 621.398 0 619.195 0C616.993 4.3869e-05 615.942 1.10265 614.69 2.41504C613.339 3.83244 611.787 5.45996 608.783 5.45996C605.78 5.4598 604.228 3.83236 602.877 2.41504C601.626 1.10267 600.574 6.86646e-05 598.372 0C596.17 0 595.119 1.10269 593.867 2.41504C592.516 3.83244 590.963 5.45996 587.96 5.45996C584.957 5.45992 583.405 3.83237 582.054 2.41504C580.802 1.10263 579.75 0 577.548 0C575.346 0.000144005 574.294 1.10271 573.043 2.41504C571.692 3.83237 570.14 5.45988 567.137 5.45996C564.133 5.45996 562.581 3.83244 561.229 2.41504C559.978 1.10267 558.927 0 556.725 0C554.522 2.86102e-05 553.471 1.10265 552.22 2.41504C550.868 3.83244 549.316 5.45996 546.312 5.45996C543.309 5.45982 541.758 3.83236 540.406 2.41504C539.155 1.10268 538.104 8.58307e-05 535.901 0C533.699 0 532.648 1.10271 531.396 2.41504C530.045 3.83244 528.493 5.45996 525.489 5.45996C522.486 5.45994 520.934 3.83237 519.583 2.41504C518.332 1.10263 517.28 0 515.077 0C512.875 0.000124931 511.824 1.1027 510.572 2.41504C509.221 3.83237 507.669 5.45986 504.666 5.45996C501.663 5.45996 500.11 3.83244 498.759 2.41504C497.917 1.53189 497.164 0.746214 496.092 0.325195V0C495.761 0 495.456 0.0283833 495.172 0.0751953C494.889 0.0285387 494.585 0 494.254 0V0.325195C493.181 0.746185 492.428 1.53176 491.586 2.41504C490.234 3.83237 488.683 5.4599 485.68 5.45996C482.676 5.45996 481.124 3.83244 479.772 2.41504C478.521 1.10268 477.47 0 475.268 0C473.065 4.86374e-05 472.014 1.10266 470.763 2.41504C469.411 3.83244 467.859 5.45996 464.855 5.45996C461.852 5.45979 460.301 3.83236 458.949 2.41504C457.698 1.10267 456.647 6.67572e-05 454.444 0C452.242 0 451.191 1.10269 449.939 2.41504C448.588 3.83244 447.036 5.45996 444.032 5.45996C441.029 5.45992 439.477 3.83237 438.126 2.41504C436.875 1.10263 435.823 0 433.62 0C431.418 0.000144958 430.367 1.10271 429.115 2.41504C427.764 3.83237 426.212 5.45988 423.209 5.45996C420.206 5.45996 418.653 3.83244 417.302 2.41504C416.05 1.10267 414.999 0 412.797 0C410.594 2.86102e-05 409.543 1.10265 408.292 2.41504C406.94 3.83244 405.388 5.45996 402.385 5.45996C399.382 5.45981 397.83 3.83236 396.479 2.41504C395.227 1.10268 394.176 8.39233e-05 391.974 0C389.771 0 388.72 1.1027 387.469 2.41504C386.117 3.83244 384.565 5.45996 381.562 5.45996C378.558 5.45994 377.007 3.83237 375.655 2.41504C374.404 1.10263 373.352 0 371.149 0C368.947 0.000128746 367.896 1.10271 366.645 2.41504C365.293 3.83236 363.741 5.45986 360.738 5.45996C357.735 5.45996 356.183 3.83244 354.831 2.41504C353.58 1.10266 352.529 0 350.326 0C348.124 1.62125e-05 347.073 1.10265 345.821 2.41504C344.47 3.83244 342.917 5.45996 339.914 5.45996C336.911 5.45983 335.359 3.83236 334.008 2.41504C332.756 1.10269 331.705 0.000100136 329.503 0C327.3 0 326.248 1.10263 324.997 2.41504C323.646 3.83237 322.094 5.45996 319.091 5.45996C316.088 5.45995 314.536 3.83237 313.185 2.41504C311.933 1.10263 310.881 0 308.679 0C306.476 0.000110626 305.425 1.10269 304.174 2.41504C302.822 3.83236 301.271 5.45984 298.268 5.45996C295.264 5.45996 293.712 3.83244 292.36 2.41504C291.109 1.10265 290.058 4.76837e-06 287.855 0C285.653 0 284.602 1.10265 283.351 2.41504C281.999 3.83244 280.447 5.45996 277.443 5.45996C274.44 5.45985 272.889 3.83236 271.537 2.41504C270.286 1.1027 269.234 0.000115395 267.032 0C264.83 0 263.778 1.10263 262.526 2.41504C261.175 3.83237 259.623 5.45995 256.62 5.45996C253.617 5.45996 252.065 3.83237 250.714 2.41504C250.133 1.80606 249.593 1.24482 248.964 0.81543V0C248.448 3.71933e-05 247.996 0.0635662 247.59 0.173828C247.181 0.0632143 246.727 0 246.208 0V0.822266C245.585 1.25074 245.051 1.80949 244.476 2.41504C243.129 3.83241 241.583 5.45996 238.591 5.45996C235.599 5.45996 234.053 3.83241 232.706 2.41504C231.459 1.10272 230.412 0.000155449 228.218 0C226.023 0 224.975 1.10263 223.729 2.41504C222.382 3.83241 220.836 5.45996 217.844 5.45996C214.851 5.45994 213.306 3.83241 211.959 2.41504C210.712 1.10271 209.665 0.000137329 207.471 0C205.276 0 204.228 1.10263 202.981 2.41504C201.635 3.8324 200.089 5.45996 197.097 5.45996C194.104 5.45993 192.558 3.83241 191.212 2.41504C189.965 1.1027 188.918 0.000124931 186.724 0C184.529 0 183.481 1.10263 182.234 2.41504C180.888 3.8324 179.342 5.45996 176.35 5.45996C173.357 5.45991 171.811 3.83241 170.465 2.41504C169.218 1.10269 168.171 0.00011158 165.977 0C163.782 0 162.734 1.10263 161.487 2.41504C160.141 3.83239 158.595 5.45996 155.603 5.45996C152.61 5.4599 151.064 3.83241 149.718 2.41504C148.471 1.10269 147.424 9.91821e-05 145.229 0C143.035 0 141.987 1.10263 140.74 2.41504C139.394 3.83239 137.848 5.45996 134.855 5.45996C131.863 5.45988 130.317 3.8324 128.971 2.41504C127.724 1.10268 126.677 8.39233e-05 124.482 0C122.288 0 121.24 1.10263 119.993 2.41504C118.647 3.83238 117.101 5.45996 114.108 5.45996C111.116 5.45987 109.57 3.8324 108.224 2.41504C106.977 1.10267 105.93 6.86646e-05 103.735 0C101.541 0 100.494 1.10272 99.2471 2.41504C97.9005 3.83244 96.3537 5.45996 93.3613 5.45996C90.3692 5.45985 88.8231 3.8324 87.4766 2.41504C86.2298 1.10267 85.1826 5.34058e-05 82.9883 0C80.794 0 79.7467 1.10271 78.5 2.41504C77.1534 3.83244 75.6066 5.45996 72.6143 5.45996C69.6221 5.45984 68.076 3.83239 66.7295 2.41504C65.4827 1.10267 64.4355 4.1008e-05 62.2412 0C60.0469 0 58.9997 1.1027 57.7529 2.41504C56.4064 3.83244 54.8595 5.45996 51.8672 5.45996C48.8751 5.45982 47.3289 3.83238 45.9824 2.41504C44.7356 1.10267 43.6884 2.67029e-05 41.4941 0C39.2998 0 38.2526 1.10269 37.0059 2.41504C35.6593 3.83244 34.1125 5.45996 31.1201 5.45996C28.128 5.45981 26.5819 3.83238 25.2354 2.41504C23.9886 1.10268 22.9414 1.43051e-05 20.7471 0C18.5527 0 17.5056 1.10268 16.2588 2.41504C14.9122 3.83244 13.3654 5.45996 10.373 5.45996C7.38099 5.45979 5.83477 3.83237 4.48828 2.41504C3.24151 1.10268 2.19434 0 0 0V11.0244H1932Z" fill="#303438"/>
</svg>
