<svg width="1600" height="6" viewBox="0 0 1600 6" fill="none" xmlns="http://www.w3.org/2000/svg">
<path d="M1932 -5.51172V5.5127C1929.81 5.5127 1928.76 4.41004 1927.51 3.09766C1926.17 1.68033 1924.62 0.0529037 1921.63 0.0527344C1918.63 0.0527344 1917.09 1.68025 1915.74 3.09766C1914.49 4.41003 1913.45 5.5127 1911.25 5.5127C1909.06 5.51268 1908.01 4.41004 1906.76 3.09766C1905.42 1.68032 1903.87 0.0528889 1900.88 0.0527344C1897.89 0.0527344 1896.34 1.68025 1894.99 3.09766C1893.75 4.41002 1892.7 5.5127 1890.51 5.5127C1888.31 5.51267 1887.26 4.41004 1886.02 3.09766C1884.67 1.68031 1883.12 0.0528741 1880.13 0.0527344C1877.14 0.0527344 1875.59 1.68025 1874.25 3.09766C1873 4.41001 1871.95 5.5127 1869.76 5.5127C1867.56 5.51265 1866.52 4.41004 1865.27 3.09766C1863.92 1.68031 1862.38 0.0528603 1859.39 0.0527344C1856.39 0.0527344 1854.85 1.68025 1853.5 3.09766C1852.25 4.41 1851.21 5.5127 1849.01 5.5127C1846.82 5.51264 1845.77 4.41004 1844.52 3.09766C1843.18 1.6803 1841.63 0.052844 1838.64 0.0527344C1835.65 0.0527344 1834.1 1.68025 1832.75 3.09766C1831.51 4.40999 1830.46 5.5127 1828.26 5.5127C1826.07 5.51263 1825.02 4.41003 1823.78 3.09766C1822.43 1.6803 1820.88 0.0528302 1817.89 0.0527344C1814.9 0.0527344 1813.35 1.68032 1812.01 3.09766C1810.76 4.41007 1809.71 5.5127 1807.52 5.5127C1805.32 5.51261 1804.28 4.41002 1803.03 3.09766C1801.68 1.6803 1800.14 0.0528135 1797.14 0.0527344C1794.15 0.0527344 1792.61 1.68032 1791.26 3.09766C1790.01 4.41007 1788.96 5.5127 1786.77 5.5127C1784.58 5.5126 1783.53 4.41001 1782.28 3.09766C1780.94 1.6803 1779.39 0.0527997 1776.4 0.0527344C1773.41 0.0527344 1771.86 1.68031 1770.51 3.09766C1769.27 4.41007 1768.22 5.5127 1766.02 5.5127C1763.83 5.51258 1762.78 4.41 1761.54 3.09766C1760.19 1.6803 1758.64 0.0527806 1755.65 0.0527344C1752.66 0.0527344 1751.11 1.68031 1749.77 3.09766C1748.52 4.41007 1747.47 5.5127 1745.28 5.5127C1743.08 5.51257 1742.03 4.40999 1740.79 3.09766C1739.44 1.68029 1737.9 0.0527668 1734.9 0.0527344C1731.91 0.0527344 1730.37 1.6803 1729.02 3.09766C1727.77 4.41007 1726.72 5.5127 1724.53 5.5127C1722.34 5.51256 1721.29 4.40999 1720.04 3.09766C1718.69 1.68029 1717.15 0.052753 1714.16 0.0527344C1711.16 0.0527344 1709.62 1.6803 1708.27 3.09766C1707.02 4.41007 1705.98 5.5127 1703.78 5.5127C1703.23 5.51266 1702.76 5.44366 1702.33 5.31934V5.5127C1700.13 5.5127 1699.09 4.41004 1697.84 3.09766C1696.61 1.7998 1695.21 0.326316 1692.68 0.0869141C1690.16 0.32645 1688.76 1.79993 1687.52 3.09766C1686.28 4.40997 1685.23 5.51254 1683.04 5.5127V5.31934C1682.61 5.44377 1682.13 5.5127 1681.58 5.5127C1679.39 5.51268 1678.34 4.41004 1677.09 3.09766C1675.75 1.68032 1674.2 0.0528889 1671.21 0.0527344C1668.22 0.0527344 1666.67 1.68025 1665.32 3.09766C1664.08 4.41002 1663.03 5.5127 1660.83 5.5127C1658.64 5.51267 1657.59 4.41004 1656.35 3.09766C1655 1.68031 1653.45 0.0528741 1650.46 0.0527344C1647.47 0.0527344 1645.92 1.68025 1644.58 3.09766C1643.33 4.41001 1642.28 5.5127 1640.09 5.5127C1637.89 5.51265 1636.85 4.41004 1635.6 3.09766C1634.25 1.68031 1632.71 0.0528603 1629.71 0.0527344C1626.72 0.0527344 1625.17 1.68025 1623.83 3.09766C1622.58 4.41 1621.53 5.5127 1619.34 5.5127C1617.15 5.51264 1616.1 4.41004 1614.85 3.09766C1613.51 1.6803 1611.96 0.052844 1608.97 0.0527344C1605.97 0.0527344 1604.43 1.68025 1603.08 3.09766C1601.83 4.40999 1600.79 5.5127 1598.59 5.5127C1596.4 5.51263 1595.35 4.41003 1594.1 3.09766C1592.76 1.6803 1591.21 0.0528302 1588.22 0.0527344C1585.23 0.0527344 1583.68 1.68032 1582.33 3.09766C1581.09 4.41007 1580.04 5.5127 1577.85 5.5127C1575.65 5.51261 1574.6 4.41002 1573.36 3.09766C1572.01 1.6803 1570.46 0.0528135 1567.47 0.0527344C1564.48 0.0527344 1562.93 1.68032 1561.59 3.09766C1560.34 4.41007 1559.29 5.5127 1557.1 5.5127C1554.9 5.5126 1553.86 4.41001 1552.61 3.09766C1551.26 1.6803 1549.72 0.0527997 1546.73 0.0527344C1543.73 0.0527344 1542.19 1.68031 1540.84 3.09766C1539.59 4.41007 1538.55 5.5127 1536.35 5.5127C1534.16 5.51258 1533.11 4.41 1531.86 3.09766C1530.52 1.6803 1528.97 0.0527806 1525.98 0.0527344C1522.99 0.0527344 1521.44 1.68031 1520.09 3.09766C1518.85 4.41007 1517.8 5.5127 1515.6 5.5127C1513.41 5.51257 1512.36 4.40999 1511.12 3.09766C1509.77 1.68029 1508.22 0.0527668 1505.23 0.0527344C1502.24 0.0527344 1500.69 1.6803 1499.35 3.09766C1498.1 4.41007 1497.05 5.5127 1494.86 5.5127C1492.66 5.51256 1491.62 4.40999 1490.37 3.09766C1489.02 1.68029 1487.48 0.052753 1484.48 0.0527344C1481.49 0.0527344 1479.95 1.6803 1478.6 3.09766C1477.35 4.41007 1476.3 5.5127 1474.11 5.5127C1473.56 5.51266 1473.08 5.44366 1472.66 5.31934V5.5127C1470.46 5.5127 1469.41 4.41004 1468.17 3.09766C1466.93 1.7998 1465.53 0.326316 1463.01 0.0869141C1460.49 0.32645 1459.09 1.79993 1457.85 3.09766C1456.61 4.40997 1455.56 5.51254 1453.36 5.5127V5.31934C1452.94 5.44377 1452.46 5.5127 1451.91 5.5127C1449.71 5.51268 1448.67 4.41004 1447.42 3.09766C1446.07 1.68032 1444.53 0.0528889 1441.54 0.0527344C1438.54 0.0527344 1437 1.68025 1435.65 3.09766C1434.4 4.41002 1433.36 5.5127 1431.16 5.5127C1428.97 5.51267 1427.92 4.41004 1426.67 3.09766C1425.33 1.68031 1423.78 0.0528741 1420.79 0.0527344C1417.8 0.0527344 1416.25 1.68025 1414.9 3.09766C1413.66 4.41001 1412.61 5.5127 1410.42 5.5127C1408.22 5.51265 1407.17 4.41004 1405.93 3.09766C1404.58 1.68031 1403.03 0.0528603 1400.04 0.0527344C1397.05 0.0527344 1395.5 1.68025 1394.16 3.09766C1392.91 4.41 1391.86 5.5127 1389.67 5.5127C1387.47 5.51264 1386.43 4.41004 1385.18 3.09766C1383.83 1.6803 1382.29 0.052844 1379.29 0.0527344C1376.3 0.0527344 1374.76 1.68025 1373.41 3.09766C1372.16 4.40999 1371.12 5.5127 1368.92 5.5127C1366.73 5.51263 1365.68 4.41003 1364.43 3.09766C1363.09 1.6803 1361.54 0.0528302 1358.55 0.0527344C1355.56 0.0527344 1354.01 1.68032 1352.66 3.09766C1351.42 4.41007 1350.37 5.5127 1348.17 5.5127C1345.98 5.51261 1344.93 4.41002 1343.69 3.09766C1342.34 1.6803 1340.79 0.0528135 1337.8 0.0527344C1334.81 0.0527344 1333.26 1.68032 1331.92 3.09766C1330.67 4.41007 1329.62 5.5127 1327.43 5.5127C1325.23 5.5126 1324.19 4.41001 1322.94 3.09766C1321.59 1.6803 1320.05 0.0527997 1317.05 0.0527344C1314.06 0.0527344 1312.52 1.68031 1311.17 3.09766C1309.92 4.41007 1308.87 5.5127 1306.68 5.5127C1304.49 5.51258 1303.44 4.41 1302.19 3.09766C1300.84 1.6803 1299.3 0.0527806 1296.31 0.0527344C1293.31 0.0527344 1291.77 1.68031 1290.42 3.09766C1289.18 4.41007 1288.13 5.5127 1285.93 5.5127C1283.74 5.51257 1282.69 4.40999 1281.44 3.09766C1280.1 1.68029 1278.55 0.0527668 1275.56 0.0527344C1272.57 0.0527344 1271.02 1.6803 1269.67 3.09766C1268.43 4.41007 1267.38 5.5127 1265.19 5.5127C1262.99 5.51256 1261.94 4.40999 1260.7 3.09766C1259.35 1.68029 1257.8 0.052753 1254.81 0.0527344C1251.82 0.0527344 1250.27 1.6803 1248.93 3.09766C1247.68 4.41007 1246.63 5.5127 1244.44 5.5127C1243.89 5.51266 1243.41 5.44366 1242.98 5.31934V5.5127C1240.79 5.5127 1239.74 4.41001 1238.5 3.09766C1237.26 1.79983 1235.86 0.326352 1233.34 0.0869141C1230.81 0.32645 1229.41 1.79993 1228.18 3.09766C1226.93 4.40997 1225.89 5.51254 1223.69 5.5127V5.31836C1223.27 5.44286 1222.79 5.51269 1222.24 5.5127C1220.04 5.5127 1219 4.41002 1217.75 3.09766C1216.4 1.68025 1214.86 0.0527344 1211.86 0.0527344C1208.87 0.0528898 1207.33 1.68032 1205.98 3.09766C1204.73 4.41004 1203.68 5.51268 1201.49 5.5127C1199.3 5.5127 1198.25 4.41003 1197 3.09766C1195.66 1.68025 1194.11 0.0527344 1191.12 0.0527344C1188.12 0.0529041 1186.58 1.68033 1185.23 3.09766C1183.98 4.41004 1182.94 5.5127 1180.74 5.5127C1178.55 5.5127 1177.5 4.41004 1176.25 3.09766C1174.91 1.68033 1173.36 0.0529046 1170.37 0.0527344C1167.38 0.0527344 1165.83 1.68025 1164.48 3.09766C1163.24 4.41003 1162.19 5.5127 1160 5.5127C1157.8 5.51268 1156.75 4.41004 1155.51 3.09766C1154.16 1.68032 1152.62 0.0528884 1149.62 0.0527344C1146.63 0.0527344 1145.08 1.68025 1143.74 3.09766C1142.49 4.41002 1141.44 5.5127 1139.25 5.5127C1137.05 5.51267 1136.01 4.41004 1134.76 3.09766C1133.41 1.68031 1131.87 0.0528746 1128.88 0.0527344C1125.88 0.0527344 1124.34 1.68025 1122.99 3.09766C1121.74 4.41001 1120.7 5.5127 1118.5 5.5127C1116.31 5.51265 1115.26 4.41004 1114.01 3.09766C1112.67 1.68031 1111.12 0.0528579 1108.13 0.0527344C1105.14 0.0527344 1103.59 1.68025 1102.24 3.09766C1101 4.41 1099.95 5.5127 1097.75 5.5127C1095.56 5.51264 1094.51 4.41003 1093.27 3.09766C1091.92 1.68031 1090.37 0.052844 1087.38 0.0527344C1084.39 0.0527344 1082.84 1.68025 1081.5 3.09766C1080.25 4.40999 1079.2 5.5127 1077.01 5.5127C1074.81 5.51262 1073.77 4.41002 1072.52 3.09766C1071.17 1.6803 1069.63 0.052825 1066.63 0.0527344C1063.64 0.0527344 1062.1 1.68032 1060.75 3.09766C1059.5 4.41007 1058.46 5.5127 1056.26 5.5127C1054.07 5.51261 1053.02 4.41002 1051.77 3.09766C1050.43 1.6803 1048.88 0.0528111 1045.89 0.0527344C1042.9 0.0527344 1041.35 1.68032 1040 3.09766C1038.76 4.41007 1037.71 5.5127 1035.51 5.5127C1033.32 5.5126 1032.27 4.41001 1031.03 3.09766C1029.68 1.6803 1028.13 0.0527973 1025.14 0.0527344C1022.15 0.0527344 1020.6 1.68031 1019.26 3.09766C1018.01 4.41007 1016.96 5.5127 1014.77 5.5127C1012.57 5.51258 1011.53 4.41 1010.28 3.09766C1008.93 1.6803 1007.39 0.0527835 1004.39 0.0527344C1001.4 0.0527344 999.855 1.68031 998.509 3.09766C997.262 4.41007 996.214 5.5127 994.02 5.5127C991.817 5.51255 990.766 4.40998 989.515 3.09766C988.163 1.68033 986.612 0.0528183 983.608 0.0527344C980.605 0.0527344 979.053 1.68025 977.701 3.09766C976.45 4.41003 975.399 5.5127 973.196 5.5127C970.994 5.51267 969.943 4.41005 968.691 3.09766C967.34 1.68025 965.788 0.0527344 962.784 0.0527344C959.781 0.0528793 958.229 1.68034 956.878 3.09766C955.627 4.41002 954.575 5.51261 952.373 5.5127C950.171 5.5127 949.12 4.40999 947.868 3.09766C946.517 1.68025 944.964 0.0527344 941.961 0.0527344C938.958 0.0527549 937.406 1.68032 936.055 3.09766C934.803 4.41007 933.751 5.5127 931.549 5.5127C929.347 5.51257 928.295 4.40999 927.044 3.09766C925.693 1.68033 924.141 0.0528388 921.138 0.0527344C918.134 0.0527344 916.582 1.68025 915.23 3.09766C913.979 4.41004 912.928 5.5127 910.726 5.5127C908.523 5.51269 907.472 4.41005 906.221 3.09766C904.869 1.68025 903.317 0.0527344 900.313 0.0527344C897.31 0.0528603 895.759 1.68033 894.407 3.09766C893.156 4.41 892.105 5.51259 889.902 5.5127C887.7 5.5127 886.648 4.41007 885.396 3.09766C884.045 1.68032 882.493 0.0527344 879.49 0.0527344C876.487 0.0527353 874.935 1.68032 873.584 3.09766C872.333 4.41007 871.281 5.5127 869.078 5.5127C866.876 5.51259 865.825 4.41 864.573 3.09766C863.222 1.68033 861.67 0.052856 858.667 0.0527344C855.664 0.0527344 854.111 1.68025 852.76 3.09766C851.508 4.41005 850.457 5.51269 848.255 5.5127C846.052 5.5127 845.001 4.41004 843.75 3.09766C842.398 1.68025 840.846 0.0527344 837.843 0.0527344C834.84 0.0528402 833.288 1.68033 831.937 3.09766C830.685 4.41 829.634 5.51258 827.432 5.5127C825.229 5.5127 824.177 4.41007 822.926 3.09766C821.574 1.68032 820.023 0.0527477 817.02 0.0527344C814.016 0.0527344 812.465 1.68032 811.113 3.09766C809.862 4.41007 808.81 5.5127 806.607 5.5127C804.405 5.51261 803.354 4.41001 802.103 3.09766C800.751 1.68033 799.199 0.0528731 796.196 0.0527344C793.193 0.0527344 791.641 1.68025 790.289 3.09766C789.038 4.41005 787.987 5.51267 785.784 5.5127C783.582 5.5127 782.531 4.41003 781.279 3.09766C779.928 1.68025 778.375 0.0527344 775.372 0.0527344C772.369 0.0528235 770.817 1.68033 769.466 3.09766C768.214 4.40999 767.163 5.51256 764.961 5.5127C762.758 5.5127 761.706 4.41007 760.455 3.09766C759.104 1.68032 757.552 0.0527706 754.549 0.0527344C751.545 0.0527344 749.993 1.68025 748.642 3.09766C747.39 4.41 746.339 5.5127 744.137 5.5127C741.934 5.51262 740.883 4.41002 739.632 3.09766C738.28 1.68034 736.729 0.0528855 733.726 0.0527344C730.722 0.0527344 729.17 1.68025 727.818 3.09766C726.567 4.41004 725.516 5.51266 723.313 5.5127C721.111 5.5127 720.06 4.41002 718.809 3.09766C717.457 1.68025 715.905 0.0527344 712.901 0.0527344C709.898 0.0528107 708.347 1.68033 706.995 3.09766C705.744 4.40998 704.692 5.51255 702.49 5.5127C700.288 5.5127 699.236 4.41007 697.984 3.09766C696.633 1.68033 695.081 0.052783 692.078 0.0527344C689.075 0.0527344 687.522 1.68025 686.171 3.09766C684.92 4.41001 683.868 5.5127 681.666 5.5127C679.464 5.51263 678.413 4.41003 677.161 3.09766C675.81 1.68034 674.258 0.0529084 671.255 0.0527344C668.252 0.0527344 666.699 1.68026 665.348 3.09766C664.096 4.41004 663.045 5.51264 660.843 5.5127C658.64 5.5127 657.589 4.41001 656.338 3.09766C654.986 1.68025 653.434 0.0527344 650.431 0.0527344C647.427 0.0527935 645.876 1.68033 644.524 3.09766C643.273 4.41007 642.221 5.5127 640.019 5.5127C637.816 5.51254 636.765 4.40997 635.514 3.09766C634.162 1.68033 632.611 0.0528002 629.607 0.0527344C626.604 0.0527344 625.052 1.68025 623.7 3.09766C622.449 4.41002 621.398 5.5127 619.195 5.5127C616.993 5.51265 615.942 4.41004 614.69 3.09766C613.339 1.68026 611.787 0.0527344 608.783 0.0527344C605.78 0.0528989 604.228 1.68034 602.877 3.09766C601.626 4.41003 600.574 5.51263 598.372 5.5127C596.17 5.5127 595.119 4.41 593.867 3.09766C592.516 1.68025 590.963 0.0527344 587.96 0.0527344C584.957 0.052774 583.405 1.68032 582.054 3.09766C580.802 4.41007 579.75 5.5127 577.548 5.5127C575.346 5.51255 574.294 4.40998 573.043 3.09766C571.692 1.68033 570.14 0.0528173 567.137 0.0527344C564.133 0.0527344 562.581 1.68025 561.229 3.09766C559.978 4.41003 558.927 5.5127 556.725 5.5127C554.522 5.51267 553.471 4.41005 552.22 3.09766C550.868 1.68025 549.316 0.0527344 546.312 0.0527344C543.309 0.0528789 541.758 1.68034 540.406 3.09766C539.155 4.41002 538.104 5.51261 535.901 5.5127C533.699 5.5127 532.648 4.40999 531.396 3.09766C530.045 1.68025 528.493 0.0527344 525.489 0.0527344C522.486 0.0527544 520.934 1.68032 519.583 3.09766C518.332 4.41007 517.28 5.5127 515.077 5.5127C512.875 5.51257 511.824 4.40999 510.572 3.09766C509.221 1.68033 507.669 0.0528378 504.666 0.0527344C501.663 0.0527344 500.11 1.68025 498.759 3.09766C497.917 3.98081 497.164 4.76648 496.092 5.1875V5.5127C495.761 5.5127 495.456 5.48431 495.172 5.4375C494.889 5.48416 494.585 5.5127 494.254 5.5127V5.1875C493.181 4.76651 492.428 3.98094 491.586 3.09766C490.234 1.68033 488.683 0.0527964 485.68 0.0527344C482.676 0.0527344 481.124 1.68025 479.772 3.09766C478.521 4.41002 477.47 5.5127 475.268 5.5127C473.065 5.51265 472.014 4.41004 470.763 3.09766C469.411 1.68026 467.859 0.0527344 464.855 0.0527344C461.852 0.0529017 460.301 1.68034 458.949 3.09766C457.698 4.41003 456.647 5.51263 454.444 5.5127C452.242 5.5127 451.191 4.41 449.939 3.09766C448.588 1.68025 447.036 0.0527344 444.032 0.0527344C441.029 0.0527773 439.477 1.68032 438.126 3.09766C436.875 4.41007 435.823 5.5127 433.62 5.5127C431.418 5.51255 430.367 4.40998 429.115 3.09766C427.764 1.68033 426.212 0.0528169 423.209 0.0527344C420.206 0.0527344 418.653 1.68025 417.302 3.09766C416.05 4.41003 414.999 5.5127 412.797 5.5127C410.594 5.51267 409.543 4.41005 408.292 3.09766C406.94 1.68025 405.388 0.0527344 402.385 0.0527344C399.382 0.0528822 397.83 1.68034 396.479 3.09766C395.227 4.41002 394.176 5.51261 391.974 5.5127C389.771 5.5127 388.72 4.40999 387.469 3.09766C386.117 1.68025 384.565 0.0527344 381.562 0.0527344C378.558 0.0527573 377.007 1.68032 375.655 3.09766C374.404 4.41007 373.352 5.5127 371.149 5.5127C368.947 5.51257 367.896 4.40999 366.645 3.09766C365.293 1.68033 363.741 0.052834 360.738 0.0527344C357.735 0.0527344 356.183 1.68025 354.831 3.09766C353.58 4.41004 352.529 5.5127 350.326 5.5127C348.124 5.51268 347.073 4.41005 345.821 3.09766C344.47 1.68025 342.917 0.0527344 339.914 0.0527344C336.911 0.0528626 335.359 1.68033 334.008 3.09766C332.756 4.41001 331.705 5.5126 329.503 5.5127C327.3 5.5127 326.248 4.41007 324.997 3.09766C323.646 1.68032 322.094 0.0527344 319.091 0.0527344C316.088 0.052743 314.536 1.68032 313.185 3.09766C311.933 4.41007 310.881 5.5127 308.679 5.5127C306.476 5.51258 305.425 4.41 304.174 3.09766C302.822 1.68033 301.271 0.0528507 298.268 0.0527344C295.264 0.0527344 293.712 1.68025 292.36 3.09766C291.109 4.41005 290.058 5.51269 287.855 5.5127C285.653 5.5127 284.602 4.41004 283.351 3.09766C281.999 1.68025 280.447 0.0527344 277.443 0.0527344C274.44 0.0528455 272.889 1.68033 271.537 3.09766C270.286 4.41 269.234 5.51258 267.032 5.5127C264.83 5.5127 263.778 4.41007 262.526 3.09766C261.175 1.68032 259.623 0.0527482 256.62 0.0527344C253.617 0.0527344 252.065 1.68032 250.714 3.09766C250.133 3.70663 249.593 4.26787 248.964 4.69727V5.5127C248.448 5.51266 247.996 5.44913 247.59 5.33887C247.181 5.44948 246.727 5.5127 246.208 5.5127V4.69043C245.585 4.26195 245.051 3.70321 244.476 3.09766C243.129 1.68028 241.583 0.0527344 238.591 0.0527344C235.599 0.0527391 234.053 1.68028 232.706 3.09766C231.459 4.40998 230.412 5.51254 228.218 5.5127C226.023 5.5127 224.975 4.41007 223.729 3.09766C222.382 1.68029 220.836 0.0527344 217.844 0.0527344C214.851 0.052753 213.306 1.68028 211.959 3.09766C210.712 4.40999 209.665 5.51256 207.471 5.5127C205.276 5.5127 204.228 4.41007 202.981 3.09766C201.635 1.68029 200.089 0.0527344 197.097 0.0527344C194.104 0.0527668 192.558 1.68028 191.212 3.09766C189.965 4.40999 188.918 5.51257 186.724 5.5127C184.529 5.5127 183.481 4.41007 182.234 3.09766C180.888 1.6803 179.342 0.0527344 176.35 0.0527344C173.357 0.0527806 171.811 1.68029 170.465 3.09766C169.218 4.41 168.171 5.51258 165.977 5.5127C163.782 5.5127 162.734 4.41007 161.487 3.09766C160.141 1.6803 158.595 0.0527344 155.603 0.0527344C152.61 0.0527997 151.064 1.68029 149.718 3.09766C148.471 4.41001 147.424 5.5126 145.229 5.5127C143.035 5.5127 141.987 4.41007 140.74 3.09766C139.394 1.68031 137.848 0.0527344 134.855 0.0527344C131.863 0.0528135 130.317 1.68029 128.971 3.09766C127.724 4.41002 126.677 5.51261 124.482 5.5127C122.288 5.5127 121.24 4.41007 119.993 3.09766C118.647 1.68031 117.101 0.0527344 114.108 0.0527344C111.116 0.0528302 109.57 1.68029 108.224 3.09766C106.977 4.41002 105.93 5.51263 103.735 5.5127C101.541 5.5127 100.494 4.40997 99.2471 3.09766C97.9005 1.68025 96.3537 0.0527344 93.3613 0.0527344C90.3692 0.052844 88.8231 1.6803 87.4766 3.09766C86.2298 4.41002 85.1826 5.51264 82.9883 5.5127C80.794 5.5127 79.7467 4.40998 78.5 3.09766C77.1534 1.68025 75.6066 0.0527344 72.6143 0.0527344C69.6221 0.0528603 68.076 1.68031 66.7295 3.09766C65.4827 4.41002 64.4355 5.51265 62.2412 5.5127C60.0469 5.5127 58.9997 4.40999 57.7529 3.09766C56.4064 1.68025 54.8595 0.0527344 51.8672 0.0527344C48.8751 0.0528741 47.3289 1.68031 45.9824 3.09766C44.7356 4.41002 43.6884 5.51267 41.4941 5.5127C39.2998 5.5127 38.2526 4.41 37.0059 3.09766C35.6593 1.68025 34.1125 0.0527344 31.1201 0.0527344C28.128 0.0528889 26.5819 1.68032 25.2354 3.09766C23.9886 4.41002 22.9414 5.51268 20.7471 5.5127C18.5527 5.5127 17.5056 4.41001 16.2588 3.09766C14.9122 1.68025 13.3654 0.0527344 10.373 0.0527344C7.38099 0.0529037 5.83477 1.68033 4.48828 3.09766C3.24151 4.41002 2.19434 5.5127 0 5.5127V-5.51172H1932Z" fill="white"/>
</svg>
