<svg width="0" height="0" fill="none" style="visibility: hidden; position: absolute;" aria-hidden="true">
    <symbol id="1" viewBox="0 0 57 57" xmlns="http://www.w3.org/2000/svg">
        <g clip-path="url(#clip0_2_28729__1)">
            <path d="M56.4232 16.9974L37.2748 6.48302C36.9412 6.29993 36.5368 6.29993 36.2032 6.48302L29.0026 10.4369C28.8399 10.4821 28.6882 10.5652 28.5594 10.68L17.0548 16.9974C16.6986 17.1931 16.4773 17.5671 16.4773 17.9733V20.2494H3.63281C3.0179 20.2494 2.51953 20.7482 2.51953 21.3627C2.51953 21.9776 3.0179 22.476 3.63281 22.476H16.4773V26.4838H10.0946C9.47971 26.4838 8.98135 26.9826 8.98135 27.5971C8.98135 28.212 9.47971 28.7104 10.0946 28.7104H16.4773V34.4994H7.12573C6.51082 34.4994 6.01245 34.9982 6.01245 35.6127C6.01245 36.2276 6.51082 36.726 7.12573 36.726H16.4773V39.0026C16.4773 39.4087 16.6986 39.7827 17.0548 39.9784L36.2032 50.4928C36.3702 50.5846 36.5546 50.6303 36.739 50.6303C36.9234 50.6303 37.1078 50.5846 37.2748 50.4928L56.4232 39.9784C56.7794 39.7827 57.0007 39.4087 57.0007 39.0026V34.0172C57.0007 33.4027 56.5024 32.9039 55.8875 32.9039C55.2725 32.9039 54.7742 33.4027 54.7742 34.0172V38.3437L37.8523 47.6357V29.1465L43.2339 26.1916V30.8813C43.2339 31.2753 43.4417 31.6397 43.7805 31.8397C43.9549 31.9428 44.151 31.9945 44.3472 31.9945C44.5315 31.9945 44.7164 31.9489 44.8838 31.8567L48.9873 29.5984C49.3426 29.4027 49.5635 29.0291 49.5635 28.623V22.716L54.7742 19.855V25.1109C54.7742 25.7258 55.2725 26.2242 55.8875 26.2242C56.5024 26.2242 57.0007 25.7258 57.0007 25.1109V17.9733C57.0007 17.5671 56.7794 17.1931 56.4232 16.9974ZM35.6257 47.6357L18.7039 38.3437V19.855L35.6257 29.1465V47.6357ZM36.739 27.2179L19.9037 17.9733L25.1948 15.0679L42.0306 24.3125L36.739 27.2179ZM44.3437 23.0422L27.5079 13.7976L29.3331 12.7957L46.1684 22.0402L44.3437 23.0422ZM47.3369 27.965L45.4604 28.9978V24.9691L47.3369 23.9385V27.965ZM48.4815 20.77L31.6462 11.5254L36.739 8.72915L53.5743 17.9733L48.4815 20.77Z" fill="currentColor"/>
            <path d="M55.8867 28.4512C55.594 28.4512 55.3066 28.569 55.0996 28.7773C54.8926 28.9843 54.7734 29.2705 54.7734 29.5645C54.7734 29.8571 54.8926 30.1446 55.0996 30.3516C55.3066 30.5586 55.594 30.6777 55.8867 30.6777C56.1794 30.6777 56.4668 30.5586 56.6738 30.3516C56.8808 30.1446 57 29.8571 57 29.5645C57 29.2705 56.8808 28.9843 56.6738 28.7773C56.4668 28.569 56.1794 28.4512 55.8867 28.4512Z" fill="currentColor"/>
            <path d="M2.70884 34.5H1.11328C0.498367 34.5 0 34.9988 0 35.6133C0 36.2282 0.498367 36.7266 1.11328 36.7266H2.70884C3.32375 36.7266 3.82212 36.2282 3.82212 35.6133C3.82212 34.9988 3.32375 34.5 2.70884 34.5Z" fill="currentColor"/>
            <path d="M6.75391 27.5977C6.75391 27.305 6.63475 27.018 6.42731 26.811C6.22031 26.6035 5.9333 26.4844 5.64062 26.4844C5.34752 26.4844 5.0605 26.6035 4.8535 26.811C4.6452 27.018 4.52734 27.305 4.52734 27.5977C4.52734 27.8908 4.6452 28.1778 4.8535 28.3848C5.0605 28.5918 5.34752 28.7109 5.64062 28.7109C5.9333 28.7109 6.22031 28.5922 6.42731 28.3848C6.63475 28.1778 6.75391 27.8908 6.75391 27.5977Z" fill="currentColor"/>
        </g>
        <defs>
            <clipPath id="clip0_2_28729__1">
                <rect width="57" height="57" fill="white"/>
            </clipPath>
        </defs>
    </symbol>
    <symbol id="2" viewBox="0 0 43 43" xmlns="http://www.w3.org/2000/svg">
        <mask id="mask0_2_28738__2" style="mask-type:luminance" maskUnits="userSpaceOnUse" x="0" y="0" width="43" height="43">
            <path d="M0 1.52588e-05H43V43H0V1.52588e-05Z" fill="white"/>
        </mask>
        <g mask="url(#mask0_2_28738__2)">
            <path d="M5.87891 29.0586C6.3425 29.0586 6.71875 29.4348 6.71875 29.8984C6.71875 30.362 6.3425 30.7383 5.87891 30.7383C5.41531 30.7383 5.03906 30.362 5.03906 29.8984C5.03906 29.4348 5.41531 29.0586 5.87891 29.0586Z" fill="currentColor"/>
            <path d="M22.3014 10.918C20.421 10.9079 19.1831 10.126 18.5868 9.09887C18.3097 8.621 18.171 8.09022 18.1719 7.55859C18.1728 6.84053 18.4272 6.12246 18.9354 5.53541C19.6148 4.74932 20.7494 4.19922 22.3383 4.19922C24.0231 4.19922 25.1964 4.81567 25.8582 5.67567C26.2906 6.235 26.5057 6.8968 26.5049 7.55859C26.5049 8.04066 26.3898 8.52273 26.1605 8.96533C25.5944 10.0571 24.333 10.9071 22.3754 10.918" stroke="currentColor" stroke-width="2" stroke-miterlimit="10" stroke-linecap="round" stroke-linejoin="round"/>
            <path d="M18.5878 9.09875C18.5878 9.09875 13.8461 11.8853 13.8327 11.893C13.8469 11.8845 13.8293 11.8946 13.7638 11.9341C13.7536 11.9399 13.7419 11.9467 13.7302 11.9534C13.752 11.9408 13.7344 11.9509 13.6916 11.9761C13.6764 11.9844 13.6605 11.9945 13.6428 12.0047C13.532 12.0693 13.4186 12.1365 13.4186 12.1365C12.7123 12.5522 11.8397 12.716 10.9251 12.5068C9.22863 12.118 8.26869 9.93271 8.09232 7.55595C7.85548 4.36959 9.02623 0.839724 11.7188 0.839724C12.4923 0.839724 13.2053 1.101 13.773 1.54015C13.773 1.54015 13.9284 1.66025 13.9402 1.66949L13.9418 1.67125C13.9611 1.68545 13.9846 1.70392 13.9879 1.70644L14.1157 1.80554C14.1174 1.80638 14.119 1.80806 14.1199 1.80806V1.8089L18.9364 5.53529" stroke="currentColor" stroke-width="2" stroke-miterlimit="10" stroke-linecap="round" stroke-linejoin="round"/>
            <path d="M31.1523 11.8978L31.1697 11.9082" stroke="currentColor" stroke-width="2" stroke-miterlimit="10" stroke-linecap="round" stroke-linejoin="round"/>
            <path d="M25.8594 5.67471L31.2025 1.54016C31.771 1.10092 32.4832 0.839729 33.2567 0.839729C35.9484 0.839729 37.1208 4.36959 36.8832 7.55587C36.7076 9.93263 35.7477 12.118 34.0512 12.5068C33.1358 12.716 32.264 12.5522 31.5569 12.1364L31.2125 11.934C31.1546 11.8996 31.142 11.8929 31.168 11.908C31.1621 11.9038 31.1563 11.9013 31.1512 11.8979L31.1218 11.8803H31.121L31.1185 11.8786L31.1176 11.8777L26.1609 8.96521" stroke="currentColor" stroke-width="2" stroke-miterlimit="10" stroke-linecap="round" stroke-linejoin="round"/>
            <path d="M26.1629 8.96525L34.9082 20.991L30.3193 19.7614L29.0898 24.3503L22.3038 10.9179H22.3778L15.5918 24.3503L14.3623 19.7614L9.77344 20.991L18.5892 9.09878" stroke="currentColor" stroke-width="2" stroke-miterlimit="10" stroke-linecap="round" stroke-linejoin="round"/>
            <path d="M36.9142 7.5586H40.4802C41.4082 7.5586 42.1599 8.31026 42.1599 9.23828V15.957H31.2461" stroke="currentColor" stroke-width="2" stroke-miterlimit="10" stroke-linecap="round" stroke-linejoin="round"/>
            <path d="M13.5038 15.957H0.839844V9.23828C0.839844 8.31026 1.5915 7.5586 2.51953 7.5586H8.0625" stroke="currentColor" stroke-width="2" stroke-miterlimit="10" stroke-linecap="round" stroke-linejoin="round"/>
            <path d="M40.4805 15.957V40.4805C40.4805 41.4085 39.2249 42.1602 38.2969 42.1602H4.19922C3.27119 42.1602 2.51953 41.4085 2.51953 40.4805V15.957" stroke="currentColor" stroke-width="2" stroke-miterlimit="10" stroke-linecap="round" stroke-linejoin="round"/>
            <path d="M14.7812 7.55859H18.1734" stroke="currentColor" stroke-width="2" stroke-miterlimit="10" stroke-linecap="round" stroke-linejoin="round"/>
            <path d="M26.5078 7.55859H29.8999" stroke="currentColor" stroke-width="2" stroke-miterlimit="10" stroke-linecap="round" stroke-linejoin="round"/>
            <path d="M24.8594 15.978V42.1602" stroke="currentColor" stroke-width="2" stroke-miterlimit="10" stroke-linecap="round" stroke-linejoin="round"/>
            <path d="M19.8203 42.1602V15.978" stroke="currentColor" stroke-width="2" stroke-miterlimit="10" stroke-linecap="round" stroke-linejoin="round"/>
            <path d="M5.87891 33.2578V38.8008" stroke="currentColor" stroke-width="2" stroke-miterlimit="10" stroke-linecap="round" stroke-linejoin="round"/>
        </g>
    </symbol>
    <symbol id="3" viewBox="0 0 45 45" xmlns="http://www.w3.org/2000/svg">
        <path d="M34.5772 29.2185L42.18 21.6157L43.3761 12.5329C43.4481 11.9867 43.2619 11.438 42.8723 11.0484L33.5844 1.76076C33.1948 1.37117 32.6462 1.18492 32.0999 1.2569L23.0172 2.45305L1.51908 23.9511C0.826973 24.6432 0.826973 25.7653 1.51908 26.4573L18.1756 43.1139C18.8677 43.806 19.9898 43.806 20.6818 43.1139L29.0441 34.7516" stroke="currentColor" stroke-width="2" stroke-miterlimit="10" stroke-linecap="round" stroke-linejoin="round"/>
        <path d="M34.6106 11.8304C35.608 11.8304 36.4166 11.0218 36.4166 10.0244C36.4166 9.02705 35.608 8.21851 34.6106 8.21851C33.6132 8.21851 32.8047 9.02705 32.8047 10.0244C32.8047 11.0218 33.6132 11.8304 34.6106 11.8304Z" stroke="currentColor" stroke-width="2" stroke-miterlimit="10" stroke-linecap="round" stroke-linejoin="round"/>
        <path d="M35.8867 8.74726L43.634 1" stroke="currentColor" stroke-width="2" stroke-miterlimit="10" stroke-linecap="round" stroke-linejoin="round"/>
        <path d="M20.9303 30.761L19.217 28.4644C19.1111 28.3225 19.0818 28.1374 19.1387 27.9697L20.0593 25.2564C20.2026 24.834 19.7993 24.4305 19.3769 24.5738L16.6632 25.4936C16.4955 25.5505 16.3105 25.5211 16.1686 25.4152L13.8725 23.7012C13.515 23.4344 13.0068 23.6932 13.0125 24.1392L13.0487 27.0042C13.0509 27.1814 12.9658 27.3482 12.8212 27.4504L10.4816 29.1044C10.1173 29.362 10.2065 29.9253 10.6324 30.0578L13.3684 30.9087C13.5375 30.9613 13.6699 31.0938 13.7224 31.263L14.5726 33.9992C14.7049 34.4252 15.2683 34.5145 15.5259 34.1504L17.1806 31.8112C17.2829 31.6666 17.4498 31.5816 17.6269 31.5839L20.4919 31.621C20.9381 31.6267 21.1971 31.1186 20.9303 30.761Z" stroke="currentColor" stroke-width="2" stroke-miterlimit="10" stroke-linecap="round" stroke-linejoin="round"/>
        <path d="M31.385 16.3904L21.0234 20.626" stroke="currentColor" stroke-width="2" stroke-miterlimit="10" stroke-linecap="round" stroke-linejoin="round"/>
        <path d="M26.4948 14.7274C27.4736 14.7274 28.267 13.934 28.267 12.9553C28.267 11.9765 27.4736 11.1831 26.4948 11.1831C25.5161 11.1831 24.7227 11.9765 24.7227 12.9553C24.7227 13.934 25.5161 14.7274 26.4948 14.7274Z" stroke="currentColor" stroke-width="2" stroke-miterlimit="10" stroke-linecap="round" stroke-linejoin="round"/>
        <path d="M25.8386 25.754C26.8173 25.754 27.6107 24.9606 27.6107 23.9819C27.6107 23.0031 26.8173 22.2097 25.8386 22.2097C24.8598 22.2097 24.0664 23.0031 24.0664 23.9819C24.0664 24.9606 24.8598 25.754 25.8386 25.754Z" stroke="currentColor" stroke-width="2" stroke-miterlimit="10" stroke-linecap="round" stroke-linejoin="round"/>
    </symbol>
</svg>