<svg width="0" height="0" fill="none" style="visibility: hidden; position: absolute;"
	aria-hidden="true">
	<symbol id="premium" viewBox="0 0 14 14" xmlns="http://www.w3.org/2000/svg">
		<g clip-path="url(#clip0_605_8190__premium)">
			<path
				d="M12.8253 1.59024C11.2081 -0.0361098 8.53909 0.0447362 6.99933 1.73526C5.45946 0.044796 2.79058 -0.0361397 1.17336 1.59027C-0.434818 3.19181 -0.380033 5.82906 1.27695 7.37482C0.429235 8.18445 0.914879 9.63932 2.06871 9.78114C1.9996 10.5712 2.67207 11.2958 3.46751 11.2823C3.51628 12.1521 4.38925 12.7747 5.2262 12.5448C5.50078 13.5811 6.82074 13.9351 7.578 13.1725C8.00808 12.745 8.35011 12.4754 8.37192 11.8279C9.08257 11.8081 9.69744 11.1849 9.70827 10.4746C10.4257 10.4636 11.0508 9.83826 11.0619 9.121C11.8062 9.10969 12.4516 8.43791 12.4169 7.67954L12.8252 7.27124C14.3915 5.70497 14.3915 3.15647 12.8253 1.59024ZM1.89263 8.02856L2.27616 7.64504C2.37528 7.54591 2.50544 7.49636 2.63565 7.49636C3.08213 7.4934 3.31518 8.04541 2.99509 8.36397L2.61157 8.7475C2.11512 9.20454 1.43553 8.52522 1.89263 8.02856ZM2.96203 9.87707C2.96203 9.74126 3.01493 9.61359 3.11095 9.51757L3.49468 9.13387C3.59067 9.03797 3.71825 8.98516 3.85394 8.98516C4.30422 8.98438 4.53245 9.5351 4.21341 9.85301L3.875 10.1914C3.77157 10.3086 3.62947 10.388 3.47038 10.3854C3.19718 10.391 2.95637 10.1503 2.96203 9.87707ZM4.50971 11.545C4.31251 11.3558 4.31251 11.0153 4.50971 10.8261L4.84812 10.4877C5.04541 10.2535 5.39178 10.223 5.6122 10.4426C5.8104 10.6408 5.8104 10.9633 5.6122 11.1615L5.22865 11.5451C5.03045 11.7433 4.70794 11.7433 4.50971 11.545ZM7.32685 12.1543L6.94332 12.5378C6.84731 12.6338 6.71963 12.6867 6.58385 12.6867C6.44804 12.6867 6.32037 12.6338 6.22435 12.5378C6.02718 12.3485 6.02709 12.0081 6.22438 11.8188L6.60788 11.4353C6.80607 11.2371 7.12862 11.2371 7.32682 11.4353C7.52405 11.6245 7.52408 11.965 7.32685 12.1543ZM11.3709 8.07635C11.1817 8.27355 10.8412 8.27358 10.652 8.07635L8.65455 6.07892L8.01984 6.71363L10.0173 8.71106C10.2155 8.90928 10.2155 9.23177 10.0173 9.42999C9.81904 9.62828 9.49655 9.62822 9.29833 9.42999L7.33477 7.46644L7.3009 7.43257L6.66619 8.06728L6.70006 8.10115L8.66362 10.0647C8.86184 10.2629 8.86184 10.5854 8.66362 10.7837C8.46539 10.9819 8.14288 10.9819 7.94465 10.7837L7.94426 10.7841C7.57956 10.4315 7.06986 10.3154 6.60949 10.4358C6.46294 9.83695 5.86097 9.38359 5.25561 9.39678C5.22626 8.75223 4.68134 8.16997 4.03738 8.1004C4.12236 6.99453 2.90781 6.23296 1.94933 6.77772C0.614444 5.58532 0.532222 3.49209 1.80813 2.22495C3.07672 0.947477 5.17279 1.03212 6.36468 2.36997L5.25504 3.47961L6.1442 4.36877C6.8272 5.05183 7.87969 5.14581 8.66443 4.6508L11.371 7.35741C11.5691 7.5556 11.5691 7.87812 11.3709 8.07635ZM12.1906 6.63653L12.0538 6.77327C12.0382 6.75609 12.0222 6.73922 12.0056 6.7227L8.6997 3.41672L8.38233 3.73406C7.94028 4.17611 7.22099 4.17617 6.77885 3.73406L6.5244 3.47961L7.77907 2.22495C10.8268 -0.58022 14.9952 3.59074 12.1906 6.63653Z" />
		</g>
		<defs>
			<clipPath id="clip0_605_8190__premium">
				<rect width="14" height="14" fill="white" />
			</clipPath>
		</defs>
	</symbol>
	<symbol id="warranty" viewBox="0 0 17 17" xmlns="http://www.w3.org/2000/svg">
		<mask id="mask0_605_8176__warranty" style="mask-type:luminance" maskUnits="userSpaceOnUse"
			x="0" y="0" width="17" height="17">
			<path d="M16.4312 16.5V0.5H0.5V16.5H16.4312Z" fill="white" stroke="white" />
		</mask>
		<g mask="url(#mask0_605_8176__warranty)">
			<path
				d="M15.3956 6.2282C15.1485 5.46031 15.2415 4.51047 14.7805 3.87127C14.3148 3.22571 13.3876 3.0235 12.7478 2.55371C12.1143 2.0885 11.6397 1.25855 10.8786 1.0092C10.1442 0.768608 9.28014 1.15071 8.46632 1.15071C7.6525 1.15071 6.78838 0.768608 6.05406 1.0092C5.29298 1.25855 4.81841 2.08847 4.18492 2.55364C3.5451 3.02347 2.61789 3.22564 2.15225 3.87121C1.69117 4.5104 1.78413 5.46031 1.53697 6.2282C1.29855 6.96912 0.662109 7.67884 0.662109 8.49999C0.662109 9.32113 1.29855 10.0309 1.53701 10.7718C1.7841 11.5397 1.69114 12.4895 2.15218 13.1287C2.61782 13.7743 3.54504 13.9765 4.18485 14.4463C4.81835 14.9115 5.29295 15.7415 6.05406 15.9908C6.78842 16.2314 7.6525 15.8493 8.46632 15.8493C9.28014 15.8493 10.1443 16.2314 10.8786 15.9908C11.6397 15.7415 12.1143 14.9115 12.7477 14.4464C13.3875 13.9765 14.3148 13.7743 14.7804 13.1288C15.2415 12.4896 15.1485 11.5397 15.3957 10.7718C15.6341 10.0309 16.2705 9.32113 16.2705 8.49999C16.2705 7.67884 15.6341 6.96912 15.3956 6.2282Z"
				stroke-miterlimit="10" stroke-linecap="round" stroke-linejoin="round" />
			<path d="M5.88672 8.30601L7.73509 10.1619L11.0454 6.83807" stroke-miterlimit="10"
				stroke-linecap="round" stroke-linejoin="round" />
		</g>
	</symbol>
</svg>