<svg width="0" height="0" fill="none" style="position:absolute" visibility="hidden"><symbol xmlns="http://www.w3.org/2000/svg" viewBox="0 0 40 40"><path d="M33.82 32.125a3.834 3.834 0 0 0 3.834-3.829V5.593A3.597 3.597 0 0 0 34.06 2H5.94a3.597 3.597 0 0 0-3.594 3.594v22.703a3.834 3.834 0 0 0 3.834 3.829h8.769v2.198H13.92a1.703 1.703 0 0 0-1.706 1.7v1.281c0 .383.313.697.696.697h14.183a.7.7 0 0 0 .697-.697v-1.281a1.705 1.705 0 0 0-1.707-1.7h-1.032v-2.198zm-13.817-1.858a.984.984 0 0 1 0-1.966c.537 0 .977.44.977.99 0 .542-.44.976-.977.976M3.489 26.462V5.593A2.46 2.46 0 0 1 5.94 3.142h28.12a2.46 2.46 0 0 1 2.451 2.451v20.869z"/><path d="M30.248 7.656c-.714 0-1.314.446-1.548 1.08h-7.006a1.65 1.65 0 0 0-1.549-1.08c-.708 0-1.308.446-1.542 1.08H11.3a1.647 1.647 0 0 0-3.195.571 1.646 1.646 0 0 0 1.646 1.646c.715 0 1.315-.445 1.549-1.074h4.091a9.87 9.87 0 0 0-5.24 8.24h-.366a.594.594 0 0 0-.594.594v1.852c0 .325.269.594.594.594h1.858a.6.6 0 0 0 .594-.594v-1.852a.594.594 0 0 0-.594-.594h-.349c.223-4.131 3.343-7.509 7.349-8.132.177.378.48.675.863.84-.006.012-.012.018-.018.029l-4.211 8.423a.57.57 0 0 0 .074.617.56.56 0 0 0 .594.189l4.058-1.155 4.051 1.155c.268.06.466-.026.594-.189a.56.56 0 0 0 .075-.617l-4.189-8.377c.48-.109.88-.434 1.092-.869 3.88.737 6.857 4.046 7.074 8.086h-.343a.594.594 0 0 0-.594.594v1.852c0 .325.268.594.594.594h1.857a.597.597 0 0 0 .594-.594v-1.852a.594.594 0 0 0-.594-.594h-.371a9.87 9.87 0 0 0-5.24-8.24H28.7a1.646 1.646 0 0 0 2.178.949 1.64 1.64 0 0 0 1.016-1.52c0-.915-.737-1.652-1.646-1.652"/></symbol><symbol xmlns="http://www.w3.org/2000/svg" viewBox="0 0 40 40"><path d="M21.25 2.5v6.25h6.25zm6.25 28.75c.819 0 1.625-.214 2.335-.62l7.665-4.38A1.25 1.25 0 0 0 36.25 25h-17.5a1.25 1.25 0 0 0-1.25 1.25l7.665 4.38a4.7 4.7 0 0 0 2.335.62"/><path d="M27.5 32.5a4.7 4.7 0 0 1-2.335-.62L17.5 27.5V35a2.5 2.5 0 0 0 2.5 2.5h15a2.5 2.5 0 0 0 2.5-2.5v-7.5l-7.665 4.38a4.7 4.7 0 0 1-2.335.62"/><path d="M16.25 35v-8.75a2.5 2.5 0 0 1 2.5-2.5h8.75V10h-6.25A1.25 1.25 0 0 1 20 8.75V2.5H3.75A1.25 1.25 0 0 0 2.5 3.75v32.5a1.25 1.25 0 0 0 1.25 1.25h13.474a3.72 3.72 0 0 1-.974-2.5M6.875 12.5h16.25a.624.624 0 1 1 0 1.25H6.875a.625.625 0 1 1 0-1.25m0 3.75h16.25a.624.624 0 1 1 0 1.25H6.875a.625.625 0 1 1 0-1.25m0 3.75h16.25a.624.624 0 1 1 0 1.25H6.875a.625.625 0 1 1 0-1.25m6.25 12.5h-6.25a.625.625 0 1 1 0-1.25h6.25a.624.624 0 1 1 0 1.25m0-3.75h-6.25a.625.625 0 1 1 0-1.25h6.25a.624.624 0 1 1 0 1.25m0-3.75h-6.25a.625.625 0 1 1 0-1.25h6.25a.624.624 0 1 1 0 1.25"/></symbol><symbol xmlns="http://www.w3.org/2000/svg" viewBox="0 0 40 40"><path d="M27.5 15.833a2.917 2.917 0 1 0 0-5.833 2.917 2.917 0 0 0 0 5.833m-10 .834h-.833a.836.836 0 0 0-.834-.834.836.836 0 0 0-.833.834h-.833A3.33 3.33 0 0 0 10.834 20h10a3.33 3.33 0 0 0-3.334-3.333"/><path d="M37.5 4.167v-.834c0-.916-.75-1.666-1.667-1.666H7.5c-.917 0-1.667.75-1.667 1.666v.834c0 1.358.659 2.55 1.667 3.308v14.192c-.167 0-.333.033-.483.083a.8.8 0 0 0-.35-.083H3.333a.836.836 0 0 0-.833.833c0 .458.375.833.833.833h2.5V25c0 .917.75 1.667 1.667 1.667v5c0 .916.75 1.666 1.667 1.666H20.9c.408 2.825 2.833 5 5.767 5 2.933 0 5.358-2.175 5.766-5h1.734c.916 0 1.666-.75 1.666-1.666v-5c.917 0 1.667-.75 1.667-1.667v-1.667c0-.916-.75-1.666-1.667-1.666V7.475A4.14 4.14 0 0 0 37.5 4.167m-10.833 32.5A4.17 4.17 0 0 1 22.5 32.5c0-2.3 1.867-4.167 4.167-4.167a4.168 4.168 0 0 1 0 8.334m7.5-15h-25V8.25c.266.058.55.083.833.083h.833a4.16 4.16 0 0 0 3.334-1.691A4.14 4.14 0 0 0 17.5 8.333h.833a4.16 4.16 0 0 0 3.334-1.691A4.14 4.14 0 0 0 25 8.333h.833a4.16 4.16 0 0 0 3.334-1.691A4.14 4.14 0 0 0 32.5 8.333h.833c.284 0 .567-.033.834-.083zM10 37.5c0 .458.375.833.833.833H12.5a.836.836 0 0 0 .833-.833V35H10z"/><path d="M30.683 16.217A4.58 4.58 0 0 1 27.5 17.5a4.58 4.58 0 0 1-3.183-1.283 3.31 3.31 0 0 0-1.817 2.95V20h10v-.833c0-1.292-.742-2.4-1.817-2.95"/></symbol><symbol xmlns="http://www.w3.org/2000/svg" viewBox="0 0 40 40"><path d="M31.667 1.667H8.333a1.66 1.66 0 0 0-1.083.416 6.67 6.67 0 0 1 4.416 5.584q.039.333 0 .666v28.334a1.667 1.667 0 0 0 1.896 1.653c.316-.044.612-.179.854-.387l4.75-4.066 4.75 4.066a1.67 1.67 0 0 0 2.167 0l4.75-4.066 4.75 4.066c.302.258.686.4 1.084.4.24-.001.479-.052.7-.15a1.67 1.67 0 0 0 .966-1.516V8.333a6.667 6.667 0 0 0-6.666-6.666M30 25H20a1.667 1.667 0 0 1 0-3.333h10A1.667 1.667 0 0 1 30 25m0-6.667H20A1.667 1.667 0 0 1 20 15h10a1.667 1.667 0 0 1 0 3.333m0-6.666H20a1.667 1.667 0 0 1 0-3.334h10a1.667 1.667 0 1 1 0 3.334M8.333 8.333v13.334h-5A1.667 1.667 0 0 1 1.667 20V7.667a3.35 3.35 0 0 1 6.666.666"/></symbol></svg>