<svg width="843" height="292" viewBox="0 0 843 292" fill="none" xmlns="http://www.w3.org/2000/svg">
<path d="M180.5 47V36C178.333 36.6667 173.9 38.1 173.5 38.5C173.1 38.9 170.333 40 169 40.5L168.5 44.5L180.5 48.5V47Z" fill="#0638A8"/>
<path d="M14 47V36C16.1667 36.6667 20.4633 38.3211 21 38.5C22.5 39 24.1667 40 25.5 40.5L26 44.5L14 48.5V47Z" fill="#0638A8"/>
<path d="M195 53H0V248H195V53Z" fill="#2962FF"/>
<path d="M260.16 234.32C249.643 234.32 240.285 231.768 232.088 226.664C223.891 221.56 217.472 214.6 212.832 205.784C208.192 196.813 205.872 186.683 205.872 175.392C205.872 163.947 208.192 153.739 212.832 144.768C217.472 135.797 223.891 128.837 232.088 123.888C240.285 118.784 249.643 116.232 260.16 116.232C267.275 116.232 273.771 117.547 279.648 120.176C285.525 122.651 290.32 126.208 294.032 130.848C297.899 135.488 300.219 140.747 300.992 146.624V203.696C300.219 209.728 297.899 215.064 294.032 219.704C290.32 224.189 285.525 227.747 279.648 230.376C273.771 233.005 267.275 234.32 260.16 234.32ZM268.744 198.36C275.395 198.36 280.731 196.195 284.752 191.864C288.928 187.533 291.016 181.965 291.016 175.16C291.016 170.675 290.088 166.731 288.232 163.328C286.376 159.925 283.747 157.219 280.344 155.208C277.096 153.197 273.307 152.192 268.976 152.192C264.645 152.192 260.779 153.197 257.376 155.208C254.128 157.219 251.499 160.003 249.488 163.56C247.632 166.963 246.704 170.829 246.704 175.16C246.704 179.645 247.632 183.667 249.488 187.224C251.344 190.627 253.973 193.333 257.376 195.344C260.779 197.355 264.568 198.36 268.744 198.36ZM289.392 232V201.608L295.192 173.768L289.392 146.392V118.552H329.064V232H289.392ZM354.941 232V118.552H395.309V232H354.941ZM395.309 170.288L377.213 154.976C381.698 142.139 387.653 132.472 395.077 125.976C402.501 119.48 412.168 116.232 424.077 116.232C429.49 116.232 434.13 116.928 437.997 118.32C442.018 119.712 445.421 121.877 448.205 124.816L424.773 156.136C423.536 154.744 421.757 153.661 419.437 152.888C417.272 151.96 414.797 151.496 412.013 151.496C406.754 151.496 402.656 153.12 399.717 156.368C396.778 159.461 395.309 164.101 395.309 170.288ZM475.438 232V71.688H515.806V232H475.438ZM450.382 152.192V118.552H540.862V152.192H450.382ZM557.138 232V118.552H597.738V232H557.138ZM577.322 105.328C571.29 105.328 566.263 103.317 562.242 99.296C558.221 95.12 556.21 89.9387 556.21 83.752C556.21 77.72 558.221 72.616 562.242 68.44C566.263 64.264 571.29 62.176 577.322 62.176C583.663 62.176 588.767 64.264 592.634 68.44C596.655 72.616 598.666 77.72 598.666 83.752C598.666 89.9387 596.655 95.12 592.634 99.296C588.767 103.317 583.663 105.328 577.322 105.328ZM637.501 232V111.36C637.501 101.771 639.589 93.1867 643.765 85.608C647.941 77.8747 653.895 71.688 661.629 67.048C669.517 62.408 678.951 60.088 689.933 60.088C698.13 60.088 705.322 61.48 711.509 64.264C717.695 66.8933 723.031 70.4507 727.517 74.936L702.229 100.224C700.991 98.832 699.445 97.8267 697.589 97.208C695.887 96.4347 693.877 96.048 691.557 96.048C687.381 96.048 684.055 97.2853 681.581 99.76C679.106 102.235 677.869 105.56 677.869 109.736V232H637.501ZM613.373 152.192V118.552H709.885V152.192H613.373ZM762.406 232.232L716.934 118.552H760.086L787.926 212.048H770.99L799.062 118.552H842.214L795.582 232L762.406 232.232ZM735.494 280.024L769.134 206.016L795.582 232L776.094 280.024H735.494Z" fill="white"/>
<path d="M128.037 231L66 145.415L82 129H129L108.13 152.123L107.898 137.55L178.5 231H128.037ZM28.5 231V66H69.9352V231H28.5Z" fill="white"/>
<circle cx="577.5" cy="82.5" r="21.5" fill="#2962FF"/>
<path d="M47.5816 94.1631C53.9779 94.1631 59.1631 88.9779 59.1631 82.5816C59.1631 76.1852 53.9779 71 47.5816 71C41.1852 71 36 76.1852 36 82.5816C36 88.9779 41.1852 94.1631 47.5816 94.1631Z" fill="#1E57D9"/>
<path d="M148.418 94.163C154.815 94.163 160 88.9778 160 82.5814C160 76.1851 154.815 70.9999 148.418 70.9999C142.022 70.9999 136.837 76.1851 136.837 82.5814C136.837 88.9778 142.022 94.163 148.418 94.163Z" fill="#1B53D3"/>
<g filter="url(#filter0_d_38_399)">
<path d="M97.9998 138.791C66.9743 138.748 41.833 113.607 41.7905 82.5816H53.3721C53.3636 107.229 73.338 127.216 97.9851 127.224C122.632 127.232 142.62 107.258 142.627 82.611C142.627 82.6009 142.627 82.5909 142.627 82.5809H154.209C154.166 113.607 129.026 138.748 97.9998 138.791Z" fill="url(#paint0_linear_38_399)"/>
</g>
<path d="M24.5 42.5L0 53H195C188 49 174.8 45.6 172 44C168.5 42 171.5 40 179 37.5C185 35.5 173.5 32 167 30.5H27.5C21.1667 32.1667 10.5 35.5 15 37C24.2 39 26.5 41.5 24.5 42.5Z" fill="url(#paint1_radial_38_399)"/>
<mask id="mask0_38_399" style="mask-type:alpha" maskUnits="userSpaceOnUse" x="0" y="30" width="195" height="23">
<path d="M24.5 42.5L0 53H195C188 49 174.8 45.6 172 44C168.5 42 171.5 40 179 37.5C185 35.5 173.5 32 167 30.5H27.5C21.1667 32.1667 10.5 35.5 15 37C24.2 39 26.5 41.5 24.5 42.5Z" fill="url(#paint2_radial_38_399)"/>
</mask>
<g mask="url(#mask0_38_399)">
<g filter="url(#filter1_f_38_399)">
<ellipse cx="98" cy="61" rx="32" ry="8" fill="#042776"/>
</g>
</g>
<defs>
<filter id="filter0_d_38_399" x="41.7905" y="82.5809" width="112.418" height="59.21" filterUnits="userSpaceOnUse" color-interpolation-filters="sRGB">
<feFlood flood-opacity="0" result="BackgroundImageFix"/>
<feColorMatrix in="SourceAlpha" type="matrix" values="0 0 0 0 0 0 0 0 0 0 0 0 0 0 0 0 0 0 127 0" result="hardAlpha"/>
<feOffset dy="3"/>
<feComposite in2="hardAlpha" operator="out"/>
<feColorMatrix type="matrix" values="0 0 0 0 0 0 0 0 0 0 0 0 0 0 0 0 0 0 0.09 0"/>
<feBlend mode="normal" in2="BackgroundImageFix" result="effect1_dropShadow_38_399"/>
<feBlend mode="normal" in="SourceGraphic" in2="effect1_dropShadow_38_399" result="shape"/>
</filter>
<filter id="filter1_f_38_399" x="36" y="23" width="124" height="76" filterUnits="userSpaceOnUse" color-interpolation-filters="sRGB">
<feFlood flood-opacity="0" result="BackgroundImageFix"/>
<feBlend mode="normal" in="SourceGraphic" in2="BackgroundImageFix" result="shape"/>
<feGaussianBlur stdDeviation="15" result="effect1_foregroundBlur_38_399"/>
</filter>
<linearGradient id="paint0_linear_38_399" x1="150.161" y1="93.3359" x2="52.8758" y2="174.738" gradientUnits="userSpaceOnUse">
<stop stop-color="#DAE5F7"/>
<stop offset="0.968237" stop-color="#A7BCDC"/>
</linearGradient>
<radialGradient id="paint1_radial_38_399" cx="0" cy="0" r="1" gradientUnits="userSpaceOnUse" gradientTransform="translate(97.5 41.75) rotate(90) scale(50.75)">
<stop stop-color="#2962FF"/>
<stop offset="1" stop-color="#194EDF"/>
</radialGradient>
<radialGradient id="paint2_radial_38_399" cx="0" cy="0" r="1" gradientUnits="userSpaceOnUse" gradientTransform="translate(97.5 41.75) rotate(90) scale(50.75)">
<stop stop-color="#2962FF"/>
<stop offset="1" stop-color="#194EDF"/>
</radialGradient>
</defs>
</svg>
