<svg xmlns="http://www.w3.org/2000/svg" width="202" height="145" fill="none" viewBox="0 0 202 145"><mask id="a" width="9" height="21" x="34" y="99" maskUnits="userSpaceOnUse" style="mask-type:luminance"><path fill="#fff" d="M41.599 119.744a20.6 20.6 0 0 0-5.203-20.555c-4.545 7.866.255 16.851 5.203 20.555"/></mask><g mask="url(#a)"><path fill="#f8a632" d="M43.477 99.189H31.851v20.555h11.626z"/></g><mask id="b" width="8" height="22" x="20" y="87" maskUnits="userSpaceOnUse" style="mask-type:luminance"><path fill="#fff" d="M25.82 108.263c2.432-5.92 2.971-15.025-1.978-20.83-2.361 2.508-5.894 12.611 1.977 20.83"/></mask><g mask="url(#b)"><path fill="#f8a632" d="M28.791 87.433H17.95v20.83h10.84z"/></g><mask id="c" width="10" height="29" x="7" y="15" maskUnits="userSpaceOnUse" style="mask-type:luminance"><path fill="#fff" d="M8.681 43.173c4.33-4.171 7.98-16.166 8.317-28.173-9.81 10.183-11.112 18.2-8.317 28.173"/></mask><g mask="url(#c)"><path fill="#f8a632" d="M16.998 15H5.894v28.173h11.104z"/></g><mask id="d" width="7" height="19" x="14" y="75" maskUnits="userSpaceOnUse" style="mask-type:luminance"><path fill="#fff" d="M16.685 93.678c3.533-4.89 6.112-10.966 1.569-18.475-5.289 3.143-4.697 13.224-1.57 18.475"/></mask><g mask="url(#d)"><path fill="#f8a632" d="M22.798 75.2h-9.831v18.478h9.831z"/></g><mask id="e" width="8" height="18" x="10" y="62" maskUnits="userSpaceOnUse" style="mask-type:luminance"><path fill="#fff" d="M10.873 79.237c4.064-3.293 8.973-10.241 6.405-16.272-3.201 1.093-9.076 7.302-6.405 16.272"/></mask><g mask="url(#e)"><path fill="#f8a632" d="M19.844 62.965H8.202v16.272h11.642z"/></g><mask id="f" width="9" height="17" x="9" y="49" maskUnits="userSpaceOnUse" style="mask-type:luminance"><path fill="#fff" d="M9.164 65.415c4.428-2.528 9.732-7.292 7.885-16.207-2.361.675-9.108 6.247-7.885 16.207"/></mask><g mask="url(#f)"><path fill="#f8a632" d="M18.892 49.208H7.942v16.207h10.95z"/></g><mask id="g" width="11" height="18" x="8" y="35" maskUnits="userSpaceOnUse" style="mask-type:luminance"><path fill="#fff" d="M8.95 52.225c4.179-1.918 10.442-9.918 9.292-16.452-4.218 1.265-9.538 9.04-9.292 16.452"/></mask><g mask="url(#g)"><path fill="#f8a632" d="M19.4 35.773H8.706v16.452H19.4z"/></g><mask id="h" width="22" height="10" x="16" y="114" maskUnits="userSpaceOnUse" style="mask-type:luminance"><path fill="#fff" d="M16.516 115.166c6.456 10.954 16.65 8.93 21.147 6.223a26.6 26.6 0 0 0-17.004-6.919 11.1 11.1 0 0 0-4.143.686"/></mask><g mask="url(#h)"><path fill="#f8a632" d="M37.663 114.479H16.516v11.642h21.147z"/></g><mask id="i" width="10" height="18" x="47" y="111" maskUnits="userSpaceOnUse" style="mask-type:luminance"><path fill="#fff" d="M56.184 128.561c.584-5.514-1.635-14.951-8.142-16.725-1.579 3.018-1.869 11.575 8.142 16.725"/></mask><g mask="url(#i)"><path fill="#f8a632" d="M56.762 111.829H46.175v16.731h10.587z"/></g><mask id="j" width="24" height="8" x="34" y="126" maskUnits="userSpaceOnUse" style="mask-type:luminance"><path fill="#fff" d="M34.654 128.36a17.44 17.44 0 0 0 22.347 1.976 36.2 36.2 0 0 0-14.822-3.533 16.7 16.7 0 0 0-7.533 1.555"/></mask><g mask="url(#j)"><path fill="#f8a632" d="M57.001 126.803H34.654v10.355h22.347z"/></g><mask id="k" width="13" height="15" x="60" y="120" maskUnits="userSpaceOnUse" style="mask-type:luminance"><path fill="#fff" d="M72.16 134.69c-.49-5.595-3.451-12.882-11.572-14.627-.885 3.04.257 11.327 11.572 14.627"/></mask><g mask="url(#k)"><path fill="#f8a632" d="M72.158 120.063H59.7v14.627h12.457z"/></g><mask id="l" width="26" height="8" x="48" y="134" maskUnits="userSpaceOnUse" style="mask-type:luminance"><path fill="#fff" d="M48.458 137.803a19.13 19.13 0 0 0 12.706 3.69 19.1 19.1 0 0 0 12.058-5.441 48.8 48.8 0 0 0-11.915-1.46c-4.851 0-9.836.778-12.847 3.216"/></mask><g mask="url(#l)"><path fill="#f8a632" d="M73.223 134.586H48.457v11.536h24.765z"/></g><mask id="m" width="15" height="13" x="77" y="126" maskUnits="userSpaceOnUse" style="mask-type:luminance"><path fill="#fff" d="M91.788 138.376c-1.447-7.184-8.822-10.394-14.599-11.729-.502 7.132 6.782 11.154 14.599 11.729"/></mask><g mask="url(#m)"><path fill="#f8a632" d="M91.788 126.647H76.68v11.729h15.106z"/></g><mask id="n" width="22" height="7" x="70" y="139" maskUnits="userSpaceOnUse" style="mask-type:luminance"><path fill="#fff" d="M70.365 142.498a32.2 32.2 0 0 0 11.354 2.503h.138c6.45-.024 9.232-3.295 9.265-5.64-1.824-.154-4.53-.344-7.41-.344-5.384 0-11.375.667-13.347 3.483"/></mask><g mask="url(#n)"><path fill="#f8a632" d="M91.122 139.015H70.365v5.988h20.757z"/></g><mask id="o" width="19" height="13" x="8" y="98" maskUnits="userSpaceOnUse" style="mask-type:luminance"><path fill="#fff" d="M8.18 98.85c-.536 12.221 12.164 11.552 18.13 11.632-1.85-2.54-12.01-11.633-17.907-11.635h-.226"/></mask><g mask="url(#o)"><path fill="#f8a632" d="M26.308 98.847H7.644v12.224h18.664z"/></g><mask id="p" width="17" height="16" x="1" y="81" maskUnits="userSpaceOnUse" style="mask-type:luminance"><path fill="#fff" d="M17.362 96.726c-2.407-4.807-8.811-13.928-15.85-14.8-.406 9.952 7.87 14.954 15.85 14.8"/></mask><g mask="url(#p)"><path fill="#f8a632" d="M17.36 81.925H1.104v14.953H17.36z"/></g><mask id="q" width="11" height="16" x="0" y="66" maskUnits="userSpaceOnUse" style="mask-type:luminance"><path fill="#fff" d="M10.783 81.607C9.676 77.314 8.111 69.7 1.168 66.006c-2.626 8.946 5.06 15.011 9.617 15.6"/></mask><g mask="url(#q)"><path fill="#f8a632" d="M10.783 66.006h-12.24v15.6h12.24z"/></g><mask id="r" width="9" height="16" x="0" y="52" maskUnits="userSpaceOnUse" style="mask-type:luminance"><path fill="#fff" d="M0 57.06v.139c.039 7 6.108 9.554 8.638 10.27-.358-4.667-3.309-13.92-7.75-15.375A16.3 16.3 0 0 0 0 57.06"/></mask><g mask="url(#r)"><path fill="#f8a632" d="M8.638 52.094H0v15.375h8.638z"/></g><mask id="s" width="7" height="21" x="2" y="35" maskUnits="userSpaceOnUse" style="mask-type:luminance"><path fill="#fff" d="M8.231 55.575c.345-4.248.779-14.183-4.897-20.031-4.023 13.395 2.694 18.936 4.897 20.03"/></mask><g mask="url(#s)"><path fill="#f8a632" d="M9.018 35.553H-.69v20.02h9.707z"/></g><mask id="t" width="9" height="21" x="159" y="99" maskUnits="userSpaceOnUse" style="mask-type:luminance"><path fill="#fff" d="M160.397 119.744c4.946-3.704 9.748-12.689 5.203-20.555a20.6 20.6 0 0 0-5.203 20.555"/></mask><g mask="url(#t)"><path fill="#f8a632" d="M170.145 99.189h-11.626v20.555h11.626z"/></g><mask id="u" width="8" height="22" x="174" y="87" maskUnits="userSpaceOnUse" style="mask-type:luminance"><path fill="#fff" d="M176.175 108.263c7.869-8.219 4.338-18.322 1.977-20.83-4.949 5.805-4.41 14.91-1.977 20.83"/></mask><g mask="url(#u)"><path fill="#f8a632" d="M184.044 87.433h-10.842v20.83h10.842z"/></g><mask id="v" width="11" height="29" x="184" y="15" maskUnits="userSpaceOnUse" style="mask-type:luminance"><path fill="#fff" d="M193.311 43.173c2.787-9.972 1.493-17.99-8.315-28.173.338 12.007 3.984 24.002 8.315 28.173"/></mask><g mask="url(#v)"><path fill="#f8a632" d="M196.1 15h-11.104v28.173H196.1z"/></g><mask id="w" width="7" height="19" x="181" y="75" maskUnits="userSpaceOnUse" style="mask-type:luminance"><path fill="#fff" d="M185.305 93.678c3.128-5.25 3.72-15.336-1.57-18.475-4.543 7.513-1.962 13.588 1.57 18.475"/></mask><g mask="url(#w)"><path fill="#f8a632" d="M189.027 75.2h-9.832v18.478h9.832z"/></g><mask id="x" width="8" height="18" x="184" y="62" maskUnits="userSpaceOnUse" style="mask-type:luminance"><path fill="#fff" d="M191.121 79.237c2.671-8.97-3.204-15.18-6.406-16.272-2.567 6.028 2.336 12.979 6.406 16.272"/></mask><g mask="url(#x)"><path fill="#f8a632" d="M193.79 62.965h-11.642v16.272h11.642z"/></g><mask id="y" width="9" height="17" x="184" y="49" maskUnits="userSpaceOnUse" style="mask-type:luminance"><path fill="#fff" d="M192.828 65.415c1.225-9.96-5.524-15.534-7.885-16.207-1.843 8.915 3.457 13.687 7.885 16.207"/></mask><g mask="url(#y)"><path fill="#f8a632" d="M194.05 49.208H183.1v16.207h10.95z"/></g><mask id="z" width="11" height="18" x="183" y="35" maskUnits="userSpaceOnUse" style="mask-type:luminance"><path fill="#fff" d="M193.042 52.225c.253-7.411-5.074-15.187-9.292-16.452-1.15 6.526 5.113 14.534 9.292 16.452"/></mask><g mask="url(#z)"><path fill="#f8a632" d="M193.286 35.773h-10.694v16.452h10.694z"/></g><mask id="A" width="22" height="10" x="164" y="114" maskUnits="userSpaceOnUse" style="mask-type:luminance"><path fill="#fff" d="M164.331 121.398c4.496 2.697 14.689 4.724 21.148-6.223a11.1 11.1 0 0 0-4.144-.687 26.6 26.6 0 0 0-17.004 6.919"/></mask><g mask="url(#A)"><path fill="#f8a632" d="M185.479 114.479h-21.148v11.641h21.148z"/></g><mask id="B" width="10" height="18" x="145" y="111" maskUnits="userSpaceOnUse" style="mask-type:luminance"><path fill="#fff" d="M145.808 128.561c10.009-5.156 9.719-13.713 8.142-16.725-6.508 1.777-8.72 11.215-8.142 16.725"/></mask><g mask="url(#B)"><path fill="#f8a632" d="M155.819 111.829h-10.586v16.731h10.586z"/></g><mask id="C" width="24" height="8" x="144" y="126" maskUnits="userSpaceOnUse" style="mask-type:luminance"><path fill="#fff" d="M144.995 130.336a17.436 17.436 0 0 0 22.347-1.976 16.7 16.7 0 0 0-7.533-1.555 36.2 36.2 0 0 0-14.814 3.531"/></mask><g mask="url(#C)"><path fill="#f8a632" d="M167.342 126.801h-22.347v10.356h22.347z"/></g><mask id="D" width="13" height="15" x="129" y="120" maskUnits="userSpaceOnUse" style="mask-type:luminance"><path fill="#fff" d="M129.842 134.69c11.315-3.306 12.457-11.587 11.572-14.627-8.119 1.751-11.081 9.03-11.572 14.627"/></mask><g mask="url(#D)"><path fill="#f8a632" d="M142.291 120.063h-12.457v14.627h12.457z"/></g><mask id="E" width="26" height="8" x="128" y="134" maskUnits="userSpaceOnUse" style="mask-type:luminance"><path fill="#fff" d="M128.771 136.046a19.12 19.12 0 0 0 24.765 1.751c-3.013-2.431-7.998-3.217-12.847-3.217a48.8 48.8 0 0 0-11.916 1.461"/></mask><g mask="url(#E)"><path fill="#f8a632" d="M153.536 134.586h-24.765v11.536h24.765z"/></g><mask id="F" width="15" height="13" x="110" y="126" maskUnits="userSpaceOnUse" style="mask-type:luminance"><path fill="#fff" d="M110.206 138.376c7.823-.583 15.107-4.597 14.599-11.729-5.783 1.335-13.16 4.545-14.599 11.729"/></mask><g mask="url(#F)"><path fill="#f8a632" d="M125.313 126.647h-15.107v11.729h15.107z"/></g><mask id="G" width="22" height="6" x="110" y="139" maskUnits="userSpaceOnUse" style="mask-type:luminance"><path fill="#fff" d="M110.872 139.359c.033 2.347 2.815 5.62 9.265 5.64h.138a32.2 32.2 0 0 0 11.354-2.503c-1.974-2.818-7.965-3.483-13.347-3.483-2.878 0-5.586.196-7.41.346"/></mask><g mask="url(#G)"><path fill="#f8a632" d="M131.629 139.015h-20.757v5.988h20.757z"/></g><mask id="H" width="19" height="13" x="175" y="98" maskUnits="userSpaceOnUse" style="mask-type:luminance"><path fill="#fff" d="M175.686 110.482c5.966-.08 18.665.583 18.127-11.631h-.225c-5.892 0-16.053 9.095-17.908 11.635"/></mask><g mask="url(#H)"><path fill="#f8a632" d="M194.351 98.847h-18.665v12.224h18.665z"/></g><mask id="I" width="17" height="16" x="184" y="81" maskUnits="userSpaceOnUse" style="mask-type:luminance"><path fill="#fff" d="M184.632 96.726c7.98.154 16.256-4.85 15.85-14.8-7.039.872-13.442 9.993-15.85 14.8"/></mask><g mask="url(#I)"><path fill="#f8a632" d="M200.888 81.925h-16.256v14.953h16.256z"/></g><mask id="J" width="11" height="16" x="191" y="66" maskUnits="userSpaceOnUse" style="mask-type:luminance"><path fill="#fff" d="M191.211 81.607c4.553-.584 12.243-6.661 9.617-15.601-6.943 3.695-8.509 11.308-9.617 15.6"/></mask><g mask="url(#J)"><path fill="#f8a632" d="M203.454 66.006h-12.243v15.6h12.243z"/></g><mask id="K" width="9" height="16" x="193" y="52" maskUnits="userSpaceOnUse" style="mask-type:luminance"><path fill="#fff" d="M193.362 67.47c2.53-.715 8.599-3.266 8.638-10.271v-.136a16.3 16.3 0 0 0-.888-4.967c-4.445 1.454-7.396 10.717-7.75 15.375"/></mask><g mask="url(#K)"><path fill="#f8a632" d="M201.994 52.094h-8.638v15.375h8.638z"/></g><mask id="L" width="7" height="21" x="193" y="35" maskUnits="userSpaceOnUse" style="mask-type:luminance"><path fill="#fff" d="M193.764 55.575c2.202-1.095 8.921-6.626 4.898-20.031-5.682 5.834-5.242 15.774-4.898 20.03"/></mask><g mask="url(#L)"><path fill="#f8a632" d="M202.683 35.553h-9.707v20.02h9.707z"/></g><path fill="#fff" d="M90.387 62.353h8.239v4.2h-9.34L87.033 75h-4.448l2.203-8.447h-7.677l-2.197 8.4h-4.407l2.156-8.4H65v-4.2h8.766l2.011-7.56h-7.999v-4.2h9.101l2.156-8.26h4.55l-2.197 8.26h7.617l2.1-8.26h4.55l-2.155 8.26h7.952v4.2h-9.053zm-12.119 0h7.664l1.957-7.56h-7.561zM120.475 75H137V7h-14.37c0 8.4-3.079 12.3-16.936 12.3V32h14.781z"/><path fill="#fff" d="M79.672 110.216q-1.386 0-2.412-.504t-1.584-1.404-.558-2.088h1.584q0 .738.342 1.368.342.612.99.99.666.36 1.638.36.846 0 1.44-.27.612-.288.918-.774.324-.486.324-1.098 0-.738-.324-1.188a2.25 2.25 0 0 0-.846-.756q-.54-.288-1.26-.504-.702-.234-1.476-.486-1.494-.504-2.196-1.26t-.702-1.962q0-1.026.468-1.8.486-.774 1.368-1.206.9-.45 2.124-.45 1.206 0 2.088.45.9.45 1.404 1.242.504.774.504 1.8h-1.584q0-.522-.27-1.026a2.1 2.1 0 0 0-.828-.828q-.54-.342-1.368-.342a2.7 2.7 0 0 0-1.224.234 1.93 1.93 0 0 0-.828.684q-.288.45-.288 1.098 0 .612.252.99.27.378.756.648a8.5 8.5 0 0 0 1.17.468q.666.216 1.476.486a7.2 7.2 0 0 1 1.62.756q.72.432 1.116 1.116.414.684.414 1.746 0 .9-.486 1.71-.468.792-1.404 1.296t-2.358.504m10.315 0q-1.278 0-2.268-.594a4.17 4.17 0 0 1-1.53-1.656q-.558-1.08-.558-2.502 0-1.44.54-2.502a4.1 4.1 0 0 1 1.548-1.656q1.008-.594 2.304-.594 1.332 0 2.25.594a3.9 3.9 0 0 1 1.422 1.566q.504.954.504 2.106v.378q0 .198-.018.45h-7.416v-1.17h5.958q-.054-1.242-.828-1.944-.756-.702-1.908-.702-.774 0-1.44.36-.648.342-1.044 1.026-.396.666-.396 1.674v.504q0 1.116.396 1.872.414.756 1.062 1.134.666.378 1.422.378.954 0 1.566-.414.63-.432.9-1.152h1.494a3.8 3.8 0 0 1-.756 1.458q-.54.648-1.35 1.026-.792.36-1.854.36M96.24 110V97.04h1.511V110zm4.007 0V97.04h1.512V110zm4.152 0v-9.072h1.512V110zm.756-10.998q-.45 0-.756-.288a1.06 1.06 0 0 1-.288-.756q0-.45.288-.72.306-.288.756-.288.432 0 .738.288.306.27.306.72t-.306.756q-.306.288-.738.288M108.579 110v-9.072h1.368l.072 1.584a3.16 3.16 0 0 1 1.224-1.314q.81-.486 1.836-.486 1.062 0 1.836.432.774.414 1.206 1.278.432.846.432 2.16V110h-1.512v-5.256q0-1.368-.612-2.052-.594-.684-1.692-.684a2.46 2.46 0 0 0-1.35.378q-.594.36-.954 1.062-.342.684-.342 1.71V110zm13.918 4.176q-1.224 0-2.178-.324-.936-.306-1.458-.954t-.522-1.602q0-.414.162-.882.18-.468.594-.918.432-.45 1.206-.81l1.044.612q-.954.396-1.242.9-.288.522-.288.954 0 .594.342.99t.954.594 1.386.198 1.332-.216.864-.612.306-.936q0-.63-.468-1.062-.468-.414-1.782-.486a17 17 0 0 1-1.782-.198 8 8 0 0 1-1.188-.288 4 4 0 0 1-.792-.396 5 5 0 0 1-.558-.45v-.414l1.746-1.728 1.314.468-1.8 1.62.234-.63q.198.144.378.27t.486.216.846.162q.558.072 1.458.144 1.242.09 1.98.432.756.342 1.08.918.342.576.342 1.368 0 .774-.432 1.458-.414.702-1.296 1.152t-2.268.45m-.018-7.02q-1.134 0-1.944-.432a3 3 0 0 1-1.206-1.152 3.3 3.3 0 0 1-.414-1.638q0-.9.414-1.62a3.15 3.15 0 0 1 1.224-1.152q.792-.45 1.926-.45t1.926.45q.792.432 1.206 1.152t.414 1.62-.414 1.638a3 3 0 0 1-1.206 1.152q-.792.432-1.926.432m0-1.242q.972 0 1.53-.504t.558-1.476q0-.954-.558-1.458t-1.53-.504q-.954 0-1.548.504-.576.504-.576 1.458 0 .972.576 1.476t1.548.504m1.476-3.708-.45-1.278h3.708v1.134z" opacity=".5"/></svg>