<svg xmlns="http://www.w3.org/2000/svg" width="202" height="145" fill="none" viewBox="0 0 202 145"><mask id="a" width="9" height="21" x="34" y="99" maskUnits="userSpaceOnUse" style="mask-type:luminance"><path fill="#fff" d="M41.599 119.744a20.6 20.6 0 0 0-5.203-20.555c-4.545 7.866.255 16.851 5.203 20.555"/></mask><g mask="url(#a)"><path fill="#f8a632" d="M43.477 99.189H31.851v20.555h11.626z"/></g><mask id="b" width="8" height="22" x="20" y="87" maskUnits="userSpaceOnUse" style="mask-type:luminance"><path fill="#fff" d="M25.82 108.263c2.432-5.92 2.971-15.025-1.978-20.83-2.361 2.508-5.894 12.611 1.977 20.83"/></mask><g mask="url(#b)"><path fill="#f8a632" d="M28.791 87.433H17.95v20.83h10.84z"/></g><mask id="c" width="10" height="29" x="7" y="15" maskUnits="userSpaceOnUse" style="mask-type:luminance"><path fill="#fff" d="M8.681 43.173c4.33-4.171 7.98-16.166 8.317-28.173-9.81 10.183-11.112 18.2-8.317 28.173"/></mask><g mask="url(#c)"><path fill="#f8a632" d="M16.998 15H5.894v28.173h11.104z"/></g><mask id="d" width="7" height="19" x="14" y="75" maskUnits="userSpaceOnUse" style="mask-type:luminance"><path fill="#fff" d="M16.685 93.678c3.533-4.89 6.112-10.966 1.569-18.475-5.289 3.143-4.697 13.224-1.57 18.475"/></mask><g mask="url(#d)"><path fill="#f8a632" d="M22.798 75.2h-9.831v18.478h9.831z"/></g><mask id="e" width="8" height="18" x="10" y="62" maskUnits="userSpaceOnUse" style="mask-type:luminance"><path fill="#fff" d="M10.873 79.237c4.064-3.293 8.973-10.241 6.405-16.272-3.201 1.093-9.076 7.302-6.405 16.272"/></mask><g mask="url(#e)"><path fill="#f8a632" d="M19.844 62.965H8.202v16.272h11.642z"/></g><mask id="f" width="9" height="17" x="9" y="49" maskUnits="userSpaceOnUse" style="mask-type:luminance"><path fill="#fff" d="M9.164 65.415c4.428-2.528 9.732-7.292 7.885-16.207-2.361.675-9.108 6.247-7.885 16.207"/></mask><g mask="url(#f)"><path fill="#f8a632" d="M18.892 49.208H7.942v16.207h10.95z"/></g><mask id="g" width="11" height="18" x="8" y="35" maskUnits="userSpaceOnUse" style="mask-type:luminance"><path fill="#fff" d="M8.95 52.225c4.179-1.918 10.442-9.918 9.292-16.452-4.218 1.265-9.538 9.04-9.292 16.452"/></mask><g mask="url(#g)"><path fill="#f8a632" d="M19.4 35.773H8.706v16.452H19.4z"/></g><mask id="h" width="22" height="10" x="16" y="114" maskUnits="userSpaceOnUse" style="mask-type:luminance"><path fill="#fff" d="M16.516 115.166c6.456 10.954 16.65 8.93 21.147 6.223a26.6 26.6 0 0 0-17.004-6.919 11.1 11.1 0 0 0-4.143.686"/></mask><g mask="url(#h)"><path fill="#f8a632" d="M37.663 114.479H16.516v11.642h21.147z"/></g><mask id="i" width="10" height="18" x="47" y="111" maskUnits="userSpaceOnUse" style="mask-type:luminance"><path fill="#fff" d="M56.184 128.561c.584-5.514-1.635-14.951-8.142-16.725-1.579 3.018-1.869 11.575 8.142 16.725"/></mask><g mask="url(#i)"><path fill="#f8a632" d="M56.762 111.829H46.175v16.731h10.587z"/></g><mask id="j" width="24" height="8" x="34" y="126" maskUnits="userSpaceOnUse" style="mask-type:luminance"><path fill="#fff" d="M34.654 128.36a17.44 17.44 0 0 0 22.347 1.976 36.2 36.2 0 0 0-14.822-3.533 16.7 16.7 0 0 0-7.532 1.555"/></mask><g mask="url(#j)"><path fill="#f8a632" d="M57.001 126.803H34.654v10.355h22.347z"/></g><mask id="k" width="13" height="15" x="60" y="120" maskUnits="userSpaceOnUse" style="mask-type:luminance"><path fill="#fff" d="M72.16 134.69c-.49-5.595-3.451-12.882-11.572-14.627-.885 3.04.257 11.327 11.572 14.627"/></mask><g mask="url(#k)"><path fill="#f8a632" d="M72.158 120.063H59.7v14.627h12.457z"/></g><mask id="l" width="26" height="8" x="48" y="134" maskUnits="userSpaceOnUse" style="mask-type:luminance"><path fill="#fff" d="M48.458 137.803a19.13 19.13 0 0 0 12.706 3.69 19.1 19.1 0 0 0 12.058-5.441 48.8 48.8 0 0 0-11.915-1.46c-4.851 0-9.836.778-12.847 3.216"/></mask><g mask="url(#l)"><path fill="#f8a632" d="M73.223 134.586H48.457v11.536h24.765z"/></g><mask id="m" width="15" height="13" x="77" y="126" maskUnits="userSpaceOnUse" style="mask-type:luminance"><path fill="#fff" d="M91.788 138.376c-1.447-7.184-8.822-10.394-14.599-11.729-.502 7.132 6.782 11.154 14.599 11.729"/></mask><g mask="url(#m)"><path fill="#f8a632" d="M91.788 126.647H76.68v11.729h15.106z"/></g><mask id="n" width="22" height="7" x="70" y="139" maskUnits="userSpaceOnUse" style="mask-type:luminance"><path fill="#fff" d="M70.365 142.498a32.2 32.2 0 0 0 11.354 2.503h.138c6.45-.024 9.232-3.295 9.265-5.64-1.824-.154-4.53-.344-7.41-.344-5.384 0-11.375.667-13.347 3.483"/></mask><g mask="url(#n)"><path fill="#f8a632" d="M91.122 139.015H70.365v5.988h20.757z"/></g><mask id="o" width="19" height="13" x="8" y="98" maskUnits="userSpaceOnUse" style="mask-type:luminance"><path fill="#fff" d="M8.18 98.85c-.537 12.221 12.164 11.552 18.13 11.632-1.85-2.54-12.01-11.633-17.907-11.635h-.226"/></mask><g mask="url(#o)"><path fill="#f8a632" d="M26.308 98.847H7.644v12.224h18.664z"/></g><mask id="p" width="17" height="16" x="1" y="81" maskUnits="userSpaceOnUse" style="mask-type:luminance"><path fill="#fff" d="M17.362 96.726c-2.407-4.807-8.811-13.928-15.85-14.8-.406 9.952 7.87 14.954 15.85 14.8"/></mask><g mask="url(#p)"><path fill="#f8a632" d="M17.36 81.925H1.104v14.953H17.36z"/></g><mask id="q" width="11" height="16" x="0" y="66" maskUnits="userSpaceOnUse" style="mask-type:luminance"><path fill="#fff" d="M10.783 81.607C9.676 77.314 8.111 69.7 1.168 66.006c-2.626 8.946 5.06 15.011 9.617 15.6"/></mask><g mask="url(#q)"><path fill="#f8a632" d="M10.783 66.006h-12.24v15.6h12.24z"/></g><mask id="r" width="9" height="16" x="0" y="52" maskUnits="userSpaceOnUse" style="mask-type:luminance"><path fill="#fff" d="M0 57.06v.139c.039 7 6.108 9.554 8.638 10.27-.358-4.667-3.309-13.92-7.75-15.375A16.3 16.3 0 0 0 0 57.06"/></mask><g mask="url(#r)"><path fill="#f8a632" d="M8.638 52.094H0v15.375h8.638z"/></g><mask id="s" width="7" height="21" x="2" y="35" maskUnits="userSpaceOnUse" style="mask-type:luminance"><path fill="#fff" d="M8.231 55.575c.345-4.248.779-14.183-4.897-20.031-4.023 13.395 2.694 18.936 4.897 20.03"/></mask><g mask="url(#s)"><path fill="#f8a632" d="M9.018 35.553H-.69v20.02h9.707z"/></g><mask id="t" width="9" height="21" x="159" y="99" maskUnits="userSpaceOnUse" style="mask-type:luminance"><path fill="#fff" d="M160.397 119.744c4.946-3.704 9.748-12.689 5.203-20.555a20.6 20.6 0 0 0-5.203 20.555"/></mask><g mask="url(#t)"><path fill="#f8a632" d="M170.145 99.189h-11.626v20.555h11.626z"/></g><mask id="u" width="8" height="22" x="174" y="87" maskUnits="userSpaceOnUse" style="mask-type:luminance"><path fill="#fff" d="M176.175 108.263c7.869-8.219 4.338-18.322 1.977-20.83-4.949 5.805-4.41 14.91-1.977 20.83"/></mask><g mask="url(#u)"><path fill="#f8a632" d="M184.044 87.433h-10.842v20.83h10.842z"/></g><mask id="v" width="11" height="29" x="184" y="15" maskUnits="userSpaceOnUse" style="mask-type:luminance"><path fill="#fff" d="M193.311 43.173c2.787-9.972 1.493-17.99-8.315-28.173.338 12.007 3.984 24.002 8.315 28.173"/></mask><g mask="url(#v)"><path fill="#f8a632" d="M196.1 15h-11.104v28.173H196.1z"/></g><mask id="w" width="7" height="19" x="181" y="75" maskUnits="userSpaceOnUse" style="mask-type:luminance"><path fill="#fff" d="M185.305 93.678c3.128-5.25 3.72-15.336-1.57-18.475-4.543 7.513-1.962 13.588 1.57 18.475"/></mask><g mask="url(#w)"><path fill="#f8a632" d="M189.027 75.2h-9.832v18.478h9.832z"/></g><mask id="x" width="8" height="18" x="184" y="62" maskUnits="userSpaceOnUse" style="mask-type:luminance"><path fill="#fff" d="M191.121 79.237c2.671-8.97-3.204-15.18-6.405-16.272-2.568 6.028 2.335 12.979 6.405 16.272"/></mask><g mask="url(#x)"><path fill="#f8a632" d="M193.79 62.965h-11.642v16.272h11.642z"/></g><mask id="y" width="9" height="17" x="184" y="49" maskUnits="userSpaceOnUse" style="mask-type:luminance"><path fill="#fff" d="M192.828 65.415c1.225-9.96-5.524-15.534-7.885-16.207-1.843 8.915 3.457 13.687 7.885 16.207"/></mask><g mask="url(#y)"><path fill="#f8a632" d="M194.05 49.208H183.1v16.207h10.95z"/></g><mask id="z" width="11" height="18" x="183" y="35" maskUnits="userSpaceOnUse" style="mask-type:luminance"><path fill="#fff" d="M193.042 52.225c.253-7.411-5.074-15.187-9.292-16.452-1.15 6.526 5.113 14.534 9.292 16.452"/></mask><g mask="url(#z)"><path fill="#f8a632" d="M193.286 35.773h-10.694v16.452h10.694z"/></g><mask id="A" width="22" height="10" x="164" y="114" maskUnits="userSpaceOnUse" style="mask-type:luminance"><path fill="#fff" d="M164.331 121.398c4.496 2.697 14.689 4.724 21.148-6.223a11.1 11.1 0 0 0-4.144-.687 26.6 26.6 0 0 0-17.004 6.919"/></mask><g mask="url(#A)"><path fill="#f8a632" d="M185.479 114.479h-21.148v11.641h21.148z"/></g><mask id="B" width="10" height="18" x="145" y="111" maskUnits="userSpaceOnUse" style="mask-type:luminance"><path fill="#fff" d="M145.808 128.561c10.009-5.156 9.719-13.713 8.142-16.725-6.508 1.777-8.72 11.215-8.142 16.725"/></mask><g mask="url(#B)"><path fill="#f8a632" d="M155.819 111.829h-10.586v16.731h10.586z"/></g><mask id="C" width="24" height="8" x="144" y="126" maskUnits="userSpaceOnUse" style="mask-type:luminance"><path fill="#fff" d="M144.995 130.336a17.436 17.436 0 0 0 22.347-1.976 16.7 16.7 0 0 0-7.533-1.555 36.2 36.2 0 0 0-14.814 3.531"/></mask><g mask="url(#C)"><path fill="#f8a632" d="M167.342 126.801h-22.347v10.356h22.347z"/></g><mask id="D" width="13" height="15" x="129" y="120" maskUnits="userSpaceOnUse" style="mask-type:luminance"><path fill="#fff" d="M129.842 134.69c11.315-3.306 12.457-11.587 11.572-14.627-8.119 1.751-11.081 9.03-11.572 14.627"/></mask><g mask="url(#D)"><path fill="#f8a632" d="M142.291 120.063h-12.457v14.627h12.457z"/></g><mask id="E" width="26" height="8" x="128" y="134" maskUnits="userSpaceOnUse" style="mask-type:luminance"><path fill="#fff" d="M128.771 136.046a19.12 19.12 0 0 0 24.765 1.751c-3.013-2.431-7.998-3.217-12.847-3.217a48.8 48.8 0 0 0-11.916 1.461"/></mask><g mask="url(#E)"><path fill="#f8a632" d="M153.536 134.586h-24.765v11.536h24.765z"/></g><mask id="F" width="15" height="13" x="110" y="126" maskUnits="userSpaceOnUse" style="mask-type:luminance"><path fill="#fff" d="M110.207 138.376c7.822-.583 15.106-4.597 14.598-11.729-5.783 1.335-13.16 4.545-14.598 11.729"/></mask><g mask="url(#F)"><path fill="#f8a632" d="M125.313 126.647h-15.106v11.729h15.106z"/></g><mask id="G" width="22" height="6" x="110" y="139" maskUnits="userSpaceOnUse" style="mask-type:luminance"><path fill="#fff" d="M110.872 139.359c.033 2.347 2.815 5.62 9.265 5.64h.139a32.2 32.2 0 0 0 11.353-2.503c-1.974-2.818-7.965-3.483-13.347-3.483-2.878 0-5.586.196-7.41.346"/></mask><g mask="url(#G)"><path fill="#f8a632" d="M131.629 139.015h-20.757v5.988h20.757z"/></g><mask id="H" width="19" height="13" x="175" y="98" maskUnits="userSpaceOnUse" style="mask-type:luminance"><path fill="#fff" d="M175.686 110.482c5.966-.08 18.665.583 18.127-11.631h-.225c-5.892 0-16.053 9.095-17.908 11.635"/></mask><g mask="url(#H)"><path fill="#f8a632" d="M194.351 98.847h-18.665v12.224h18.665z"/></g><mask id="I" width="17" height="16" x="184" y="81" maskUnits="userSpaceOnUse" style="mask-type:luminance"><path fill="#fff" d="M184.632 96.726c7.98.154 16.256-4.85 15.85-14.8-7.039.872-13.442 9.993-15.85 14.8"/></mask><g mask="url(#I)"><path fill="#f8a632" d="M200.888 81.925h-16.256v14.953h16.256z"/></g><mask id="J" width="11" height="16" x="191" y="66" maskUnits="userSpaceOnUse" style="mask-type:luminance"><path fill="#fff" d="M191.211 81.607c4.553-.584 12.243-6.661 9.617-15.601-6.943 3.695-8.509 11.308-9.617 15.6"/></mask><g mask="url(#J)"><path fill="#f8a632" d="M203.454 66.006h-12.243v15.6h12.243z"/></g><mask id="K" width="9" height="16" x="193" y="52" maskUnits="userSpaceOnUse" style="mask-type:luminance"><path fill="#fff" d="M193.362 67.47c2.53-.715 8.599-3.266 8.638-10.271v-.136a16.3 16.3 0 0 0-.888-4.967c-4.445 1.454-7.396 10.717-7.75 15.375"/></mask><g mask="url(#K)"><path fill="#f8a632" d="M201.994 52.094h-8.638v15.375h8.638z"/></g><mask id="L" width="7" height="21" x="193" y="35" maskUnits="userSpaceOnUse" style="mask-type:luminance"><path fill="#fff" d="M193.764 55.575c2.202-1.095 8.921-6.626 4.898-20.031-5.682 5.834-5.242 15.774-4.898 20.03"/></mask><g mask="url(#L)"><path fill="#f8a632" d="M202.683 35.553h-9.707v20.02h9.707z"/></g><path fill="#fff" d="M104.717 5h-7.442C90.26 5 86.752 5 84.572 7.153s-2.18 5.62-2.18 12.552V32.57H119.6V19.705c0-6.932 0-10.398-2.18-12.552C115.241 5 111.733 5 104.717 5" opacity=".5"/><path fill="#fff" fill-rule="evenodd" d="M106.344 18.917a11.28 11.28 0 0 0-10.688 0l-17.838 9.61C74.233 30.46 72 34.174 72 38.21v18.152c0 4.036 2.232 7.75 5.819 9.682l17.837 9.61a11.28 11.28 0 0 0 10.688 0l17.838-9.61c3.586-1.932 5.818-5.646 5.818-9.682V38.21c0-4.036-2.232-7.75-5.818-9.683zm-5.343 17.34c-1.057 0-1.764 1.253-3.178 3.76l-.366.647c-.401.713-.602 1.069-.916 1.304-.313.234-.703.322-1.483.496l-.71.159c-2.746.614-4.119.92-4.445 1.958s.609 2.12 2.48 4.282l.485.56c.532.614.798.921.917 1.301.12.38.08.79 0 1.61l-.074.747c-.283 2.885-.424 4.327.43 4.969.856.641 2.141.056 4.712-1.113l.665-.303c.73-.332 1.096-.498 1.483-.498s.752.166 1.483.498l.665.303c2.57 1.17 3.856 1.754 4.711 1.113.855-.642.713-2.084.43-4.97l-.073-.746c-.08-.82-.121-1.23-.001-1.61s.386-.687.918-1.302l.484-.56c1.872-2.162 2.807-3.243 2.481-4.28s-1.7-1.345-4.445-1.96l-.71-.158c-.781-.174-1.171-.261-1.484-.496s-.514-.591-.916-1.304l-.366-.648c-1.413-2.506-2.12-3.759-3.177-3.759" clip-rule="evenodd"/><path fill="#fff" d="M76.484 110V97.4h4.068q1.476 0 2.412.504.936.486 1.386 1.314t.45 1.872q0 1.008-.468 1.854-.45.846-1.404 1.35t-2.448.504h-2.484V110zm6.66 0-2.772-5.634h1.692L84.926 110zm-5.148-6.39h2.448q1.44 0 2.106-.702.684-.702.684-1.8 0-1.116-.666-1.764-.648-.666-2.142-.666h-2.43zm11.791 6.606q-1.098 0-1.836-.378-.738-.396-1.098-1.026-.36-.648-.36-1.404 0-.918.468-1.548.486-.648 1.35-.972.882-.342 2.07-.342h2.394q0-.846-.27-1.404a1.8 1.8 0 0 0-.756-.864q-.486-.288-1.224-.288-.864 0-1.494.432t-.774 1.278H86.71q.108-.972.648-1.62.558-.666 1.404-1.008a4.5 4.5 0 0 1 1.764-.36q1.26 0 2.088.468.846.45 1.26 1.278.414.81.414 1.926V110h-1.35l-.09-1.602a3.4 3.4 0 0 1-.468.72q-.27.324-.648.576-.378.234-.864.378a3.7 3.7 0 0 1-1.08.144m.234-1.278a2.5 2.5 0 0 0 1.134-.252q.522-.27.882-.72.36-.468.54-1.026.198-.558.198-1.17v-.054h-2.268q-.882 0-1.422.216-.54.198-.774.576-.234.36-.234.828 0 .486.216.846.234.36.666.558.45.198 1.062.198M99.944 110q-.81 0-1.404-.252a1.85 1.85 0 0 1-.918-.846q-.306-.612-.306-1.638v-5.058h-1.584v-1.278h1.584l.198-2.196h1.314v2.196h2.628v1.278h-2.628v5.058q0 .846.342 1.152.342.288 1.206.288h.972V110zm3.629 0v-9.072h1.512V110zm.756-10.998q-.45 0-.756-.288a1.06 1.06 0 0 1-.288-.756q0-.45.288-.72.306-.288.756-.288.432 0 .738.288.306.27.306.72t-.306.756q-.306.288-.738.288M107.753 110v-9.072h1.368l.072 1.584a3.16 3.16 0 0 1 1.224-1.314q.81-.486 1.836-.486 1.062 0 1.836.432.774.414 1.206 1.278.432.846.432 2.16V110h-1.512v-5.256q0-1.368-.612-2.052-.594-.684-1.692-.684a2.46 2.46 0 0 0-1.35.378q-.594.36-.954 1.062-.342.684-.342 1.71V110zm13.918 4.176q-1.224 0-2.178-.324-.936-.306-1.458-.954t-.522-1.602q0-.414.162-.882.18-.468.594-.918.432-.45 1.206-.81l1.044.612q-.954.396-1.242.9-.288.522-.288.954 0 .594.342.99t.954.594 1.386.198 1.332-.216.864-.612.306-.936q0-.63-.468-1.062-.468-.414-1.782-.486a17 17 0 0 1-1.782-.198 8 8 0 0 1-1.188-.288 4 4 0 0 1-.792-.396 5 5 0 0 1-.558-.45v-.414l1.746-1.728 1.314.468-1.8 1.62.234-.63q.198.144.378.27t.486.216.846.162q.558.072 1.458.144 1.242.09 1.98.432.756.342 1.08.918.342.576.342 1.368 0 .774-.432 1.458-.414.702-1.296 1.152t-2.268.45m-.018-7.02q-1.134 0-1.944-.432a3 3 0 0 1-1.206-1.152 3.3 3.3 0 0 1-.414-1.638q0-.9.414-1.62a3.15 3.15 0 0 1 1.224-1.152q.792-.45 1.926-.45t1.926.45q.792.432 1.206 1.152t.414 1.62-.414 1.638a3 3 0 0 1-1.206 1.152q-.792.432-1.926.432m0-1.242q.972 0 1.53-.504t.558-1.476q0-.954-.558-1.458t-1.53-.504q-.954 0-1.548.504-.576.504-.576 1.458 0 .972.576 1.476t1.548.504m1.476-3.708-.45-1.278h3.708v1.134z" opacity=".5"/></svg>