<svg viewBox="0 0 57 57" xmlns="http://www.w3.org/2000/svg">
    <g clip-path="url(#clip0_2_28729)">
        <path
            d="M56.4232 16.9974L37.2748 6.48302C36.9412 6.29993 36.5368 6.29993 36.2032 6.48302L29.0026 10.4369C28.8399 10.4821 28.6882 10.5652 28.5594 10.68L17.0548 16.9974C16.6986 17.1931 16.4773 17.5671 16.4773 17.9733V20.2494H3.63281C3.0179 20.2494 2.51953 20.7482 2.51953 21.3627C2.51953 21.9776 3.0179 22.476 3.63281 22.476H16.4773V26.4838H10.0946C9.47971 26.4838 8.98135 26.9826 8.98135 27.5971C8.98135 28.212 9.47971 28.7104 10.0946 28.7104H16.4773V34.4994H7.12573C6.51082 34.4994 6.01245 34.9982 6.01245 35.6127C6.01245 36.2276 6.51082 36.726 7.12573 36.726H16.4773V39.0026C16.4773 39.4087 16.6986 39.7827 17.0548 39.9784L36.2032 50.4928C36.3702 50.5846 36.5546 50.6303 36.739 50.6303C36.9234 50.6303 37.1078 50.5846 37.2748 50.4928L56.4232 39.9784C56.7794 39.7827 57.0007 39.4087 57.0007 39.0026V34.0172C57.0007 33.4027 56.5024 32.9039 55.8875 32.9039C55.2725 32.9039 54.7742 33.4027 54.7742 34.0172V38.3437L37.8523 47.6357V29.1465L43.2339 26.1916V30.8813C43.2339 31.2753 43.4417 31.6397 43.7805 31.8397C43.9549 31.9428 44.151 31.9945 44.3472 31.9945C44.5315 31.9945 44.7164 31.9489 44.8838 31.8567L48.9873 29.5984C49.3426 29.4027 49.5635 29.0291 49.5635 28.623V22.716L54.7742 19.855V25.1109C54.7742 25.7258 55.2725 26.2242 55.8875 26.2242C56.5024 26.2242 57.0007 25.7258 57.0007 25.1109V17.9733C57.0007 17.5671 56.7794 17.1931 56.4232 16.9974ZM35.6257 47.6357L18.7039 38.3437V19.855L35.6257 29.1465V47.6357ZM36.739 27.2179L19.9037 17.9733L25.1948 15.0679L42.0306 24.3125L36.739 27.2179ZM44.3437 23.0422L27.5079 13.7976L29.3331 12.7957L46.1684 22.0402L44.3437 23.0422ZM47.3369 27.965L45.4604 28.9978V24.9691L47.3369 23.9385V27.965ZM48.4815 20.77L31.6462 11.5254L36.739 8.72915L53.5743 17.9733L48.4815 20.77Z"
            fill="currentColor" />
        <path
            d="M55.8867 28.4512C55.594 28.4512 55.3066 28.569 55.0996 28.7773C54.8926 28.9843 54.7734 29.2705 54.7734 29.5645C54.7734 29.8571 54.8926 30.1446 55.0996 30.3516C55.3066 30.5586 55.594 30.6777 55.8867 30.6777C56.1794 30.6777 56.4668 30.5586 56.6738 30.3516C56.8808 30.1446 57 29.8571 57 29.5645C57 29.2705 56.8808 28.9843 56.6738 28.7773C56.4668 28.569 56.1794 28.4512 55.8867 28.4512Z"
            fill="currentColor" />
        <path
            d="M2.70884 34.5H1.11328C0.498367 34.5 0 34.9988 0 35.6133C0 36.2282 0.498367 36.7266 1.11328 36.7266H2.70884C3.32375 36.7266 3.82212 36.2282 3.82212 35.6133C3.82212 34.9988 3.32375 34.5 2.70884 34.5Z"
            fill="currentColor" />
        <path
            d="M6.75391 27.5977C6.75391 27.305 6.63475 27.018 6.42731 26.811C6.22031 26.6035 5.9333 26.4844 5.64062 26.4844C5.34752 26.4844 5.0605 26.6035 4.8535 26.811C4.6452 27.018 4.52734 27.305 4.52734 27.5977C4.52734 27.8908 4.6452 28.1778 4.8535 28.3848C5.0605 28.5918 5.34752 28.7109 5.64062 28.7109C5.9333 28.7109 6.22031 28.5922 6.42731 28.3848C6.63475 28.1778 6.75391 27.8908 6.75391 27.5977Z"
            fill="currentColor" />
    </g>
    <defs>
        <clipPath id="clip0_2_28729">
            <rect width="57" height="57" fill="white" />
        </clipPath>
    </defs>
</svg>