<svg viewBox="0 0 45 45" xmlns="http://www.w3.org/2000/svg">
    <path
        d="M34.5772 29.2185L42.18 21.6157L43.3761 12.5329C43.4481 11.9867 43.2619 11.438 42.8723 11.0484L33.5844 1.76076C33.1948 1.37117 32.6462 1.18492 32.0999 1.2569L23.0172 2.45305L1.51908 23.9511C0.826973 24.6432 0.826973 25.7653 1.51908 26.4573L18.1756 43.1139C18.8677 43.806 19.9898 43.806 20.6818 43.1139L29.0441 34.7516"
        stroke="currentColor" stroke-width="2" stroke-miterlimit="10" stroke-linecap="round" stroke-linejoin="round" />
    <path
        d="M34.6106 11.8304C35.608 11.8304 36.4166 11.0218 36.4166 10.0244C36.4166 9.02705 35.608 8.21851 34.6106 8.21851C33.6132 8.21851 32.8047 9.02705 32.8047 10.0244C32.8047 11.0218 33.6132 11.8304 34.6106 11.8304Z"
        stroke="currentColor" stroke-width="2" stroke-miterlimit="10" stroke-linecap="round" stroke-linejoin="round" />
    <path d="M35.8867 8.74726L43.634 1" stroke="currentColor" stroke-width="2" stroke-miterlimit="10"
        stroke-linecap="round" stroke-linejoin="round" />
    <path
        d="M20.9303 30.761L19.217 28.4644C19.1111 28.3225 19.0818 28.1374 19.1387 27.9697L20.0593 25.2564C20.2026 24.834 19.7993 24.4305 19.3769 24.5738L16.6632 25.4936C16.4955 25.5505 16.3105 25.5211 16.1686 25.4152L13.8725 23.7012C13.515 23.4344 13.0068 23.6932 13.0125 24.1392L13.0487 27.0042C13.0509 27.1814 12.9658 27.3482 12.8212 27.4504L10.4816 29.1044C10.1173 29.362 10.2065 29.9253 10.6324 30.0578L13.3684 30.9087C13.5375 30.9613 13.6699 31.0938 13.7224 31.263L14.5726 33.9992C14.7049 34.4252 15.2683 34.5145 15.5259 34.1504L17.1806 31.8112C17.2829 31.6666 17.4498 31.5816 17.6269 31.5839L20.4919 31.621C20.9381 31.6267 21.1971 31.1186 20.9303 30.761Z"
        stroke="currentColor" stroke-width="2" stroke-miterlimit="10" stroke-linecap="round" stroke-linejoin="round" />
    <path d="M31.385 16.3904L21.0234 20.626" stroke="currentColor" stroke-width="2" stroke-miterlimit="10"
        stroke-linecap="round" stroke-linejoin="round" />
    <path
        d="M26.4948 14.7274C27.4736 14.7274 28.267 13.934 28.267 12.9553C28.267 11.9765 27.4736 11.1831 26.4948 11.1831C25.5161 11.1831 24.7227 11.9765 24.7227 12.9553C24.7227 13.934 25.5161 14.7274 26.4948 14.7274Z"
        stroke="currentColor" stroke-width="2" stroke-miterlimit="10" stroke-linecap="round" stroke-linejoin="round" />
    <path
        d="M25.8386 25.754C26.8173 25.754 27.6107 24.9606 27.6107 23.9819C27.6107 23.0031 26.8173 22.2097 25.8386 22.2097C24.8598 22.2097 24.0664 23.0031 24.0664 23.9819C24.0664 24.9606 24.8598 25.754 25.8386 25.754Z"
        stroke="currentColor" stroke-width="2" stroke-miterlimit="10" stroke-linecap="round" stroke-linejoin="round" />
</svg>