<svg version="1.2" xmlns="http://www.w3.org/2000/svg" viewBox="0 0 1500 1000" width="1500" height="1000"><style>.a{fill:#f5f6f9}.b{fill:#ffefdf}.c{fill:#ff9400}.d{fill:#fff}.e{fill:#ffa78c}.f{fill:#00557f}.g{fill:#d88471}.h{fill:#ffd07f}.i{fill:none;stroke:#00557f;stroke-linecap:round;stroke-linejoin:round;stroke-width:2}.j{fill:none;stroke:#bf6d60;stroke-linecap:round;stroke-linejoin:round;stroke-width:2}.k{fill:none;stroke:#004560;stroke-linecap:round;stroke-linejoin:round;stroke-width:2}.l{fill:none;stroke:#00415b;stroke-linecap:round;stroke-linejoin:round;stroke-width:2}.m{fill:#f2bd70}.n{fill:#fffbdc}.o{fill:#004560}</style><path class="a" d="m1500 1000h-1500v-1000h1500z"/><path class="b" d="m147.3 401.5c61.7-76.8 139.5-114.2 306.4-122.1 166.9-7.9 207 119 477.6 92.9 270.6-26.1 412.6-18.4 463.7 54.9 51.2 73.3 74.3 314.4-326.8 281.3-401.2-33.1-529.2-94.8-712.1-61.4-182.8 33.4-257.4 22.3-275.4-31.3-18-53.6 37.5-178 66.6-214.3z"/><path class="b" d="m127.7 824.2c0 0 272.5-2.8 619.6 0 347 2.9 593.4 3.1 634.1 26.1 40.7 23.1 23.1 64.3-191.8 54-214.9-10.3-336.4-43.2-464.7-24.2-128.3 19-237.8-3-340.9-2.3-103.2 0.8-251.5 13.1-299.3-9.8-47.9-22.9 2.3-43.4 43-43.8z"/><path class="c" d="m698.3 178.4h-99c-9.4 0-17.1 7.7-17.1 17.1v68.6c0 9.4 7.7 17 17.1 17h11.9c-3.1 9-6.8 21.2-3.7 22.5 3.5 1.6 19.5-13.5 28.5-22.5h62.3c9.4 0 17.1-7.6 17.1-17v-68.6c0-9.4-7.7-17.1-17.1-17.1z"/><path class="d" d="m626.1 209c-4.4-2.3-5.6-8.1-2.4-12 3.7-4.5 10.4-9.1 21.6-8.7 14.3 0.6 26.7 10.5 26.2 23.9-0.4 9.4-7.6 14.8-16.9 18.4-3.3 1.3-3.5 3.9-3.6 7.1-0.1 2.9-2.6 5.2-5.6 5.1l-5-0.2c-3-0.1-5.3-2.6-5.2-5.5l0.2-5.1c0.2-4.2 0.5-7.6 4.9-10.2 6-3.5 11.4-3.6 11.7-10.4 0.2-4.5-3.1-7.9-7.4-8.1-3.9-0.1-6.7 1.6-8.7 3.8-2.4 2.9-6.5 3.7-9.8 1.9zm27.1 50.5c-0.3 6-5.3 10.7-11.4 10.4-6.1-0.2-10.7-5.3-10.5-11.3 0.2-6.1 5.3-10.8 11.3-10.5 6.1 0.2 10.8 5.3 10.6 11.4z"/><path class="e" d="m584 806.7l7.6 29.9 10.1 2.2 17.7-2.2-6.5-29.9z"/><path class="f" d="m589.7 835.2c0 0 1.5 19.8 2.5 22.9 1 3.1 2.9 2.7 2.9 2.7 0 0 11.1 3.3 18.5 4.5 7.4 1.1 16.4 3.1 25.2 2.7 8.8-0.4 12.2-1.6 12.2-4.5 0-2.8-1-8.4-11.8-15-10.8-6.6-17-10.8-17-10.8 0 0-2-3.5-5.8-4.8-3.8-1.4-12.7 4-15 4.6-2.2 0.6-9.1-4.4-11.7-2.3z"/><path class="e" d="m479.9 810.4v23.2l15.7 4.5 10.2-4.5v-23.2z"/><path class="f" d="m477.4 833.6c0 0-7.2 6.9-18.7 14.4-11.5 7.5-11.8 9.2-11.2 13.8 0.6 4.6 28.4 3.1 39 1.4 10.7-1.7 15-2.6 15-2.6l7.2-2.3-2.9-26.4c0 0-6.6 2.3-9.5 2.5-2.9 0.3-9.5-4.9-13.8-6-4.3-1.1-5.2 3.8-5.1 5.2z"/><path class="e" d="m690.1 322c-2.2 0.4-5.4 4.6-7.1 7l-1-0.1c2.5-3.9 8.4-10.3 4.4-9.3-3.6 0.8-7 6.4-8.2 8.7l-1.3-0.2c2.4-4.2 9.1-11.7 4.8-10.6-3.9 1-7.7 7.9-8.8 10l-0.7-0.1c2.3-4.1 5.6-9.1 2.3-7.9-3.6 1.2-6.5 7.9-7.3 10-2 2-4.2 4.4-5.6 6-1.2-5-4.5-11-6-10.7-1.7 0.5 0.2 6.3 0.5 10.3 0.2 2.6 1.5 5.7 2.2 7.5-5 10-20.2 34-28.2 51.6l-22-22.9-32.1 19c0 0 35.7 46.8 49.8 44.6 31.4-4.8 47.2-71.7 50.5-87.8l10-16.9c0 0 7-8.7 3.8-8.2z"/><path class="e" d="m532.8 332l-11.9 11.6-20.8-7.7c0.4-3.4 0.4-6.8 0.1-9.9-0.1-1.9-0.3-3.7-0.5-5.3-0.5-3.6-1.1-5.9-1.1-5.9l31.2-1.5c-0.2 1.3-0.2 2.7-0.2 4.1 0.1 1.5 0.3 3.1 0.6 4.7 0.9 5.3 2.6 9.9 2.6 9.9z"/><path class="g" d="m530.2 322.1c-3.6 3.1-9.8 8.1-14.1 8.3-4.2 0.3-11.6-2.6-15.9-4.4-0.1-1.9-0.3-3.7-0.5-5.3 1.2 0.7 8 3.9 16 2.6 5.8-1 11-4 13.9-5.9 0.1 1.5 0.3 3.1 0.6 4.7z"/><path class="e" d="m471.8 263.2c0 0 4.6 30.7 8 41.2 3.3 10.5 21.9 19.3 34.9 19.5 11 0.2 26.7-15.8 29.2-24.9 2.5-9-1-49.5-1-49.5 0 0-48.2-39.2-71.1 13.7z"/><path class="f" d="m499.4 280.8c0.3 2-0.4 3.8-1.6 4-1.2 0.1-2.3-1.4-2.6-3.5-0.3-2.1 0.5-3.9 1.6-4 1.2-0.2 2.4 1.4 2.6 3.5z"/><path class="f" d="m526.1 277.2c0.2 2-0.6 3.8-1.8 3.9-1.1 0.1-2.2-1.5-2.4-3.5-0.2-2.1 0.6-3.9 1.7-4 1.2-0.1 2.3 1.5 2.5 3.6z"/><path class="e" d="m477.7 281.7c0 0-7.5-7.1-11.7-4.4-4.3 2.7-2.1 13.3 3.7 18.7 5.8 5.5 10.2 2.8 10.2 2.8z"/><path class="e" d="m541.8 273.2c0 0 5.7-8.7 10.4-7 4.8 1.7 5 12.5 0.6 19.1-4.4 6.7-9.3 5-9.3 5z"/><path class="f" d="m474.5 279.8l2.9 10.7c0 0 6.9-2.5 4.3-25.8 0 0 14-2.1 18.3-8.7 0 0 11.6 2.8 18.5 1.6 6.8-1.2 12.5-6.1 12.5-6.1 0 0 0.5 16.9 7.9 19.5 0 0-0.1 10.7 3.9 11.8 0 0 0.8-14.9 6.8-16.6 0 0 4.4-14 3-18.5-1.4-4.5-5.9-5.7-5.9-5.7 0 0-1.9-24.3-39.6-19-36.4 5.1-41.5 24.4-42.6 27.7-1.5 4.8 0.8 9.5 1.3 15.3 0.5 5.9 2.6 10.7 2.6 10.7z"/><path class="h" d="m621.2 812.4h-41.1l-49.1-252.3-5.1 0.3-10.2 252h-42.2l-1.2-136.7-0.3-37-1.2-140.3h107.2l19.1 138.7 5.1 37.4z"/><path class="e" d="m485.6 536.4c4.3 1 5.6-1 4.6-2.2-0.9-1.2-9.3-5.3-11.4-7.6l-6.8-7.8c0 0 4.1 0.3 8.3 0 4.2-0.3 7.3-2.9 1.1-3.5-4.5-0.5-11-1.4-14.2-1.9l-1.1-1.3-20.2-43.6 20-59.1-31.9-15.9c0 0-22.4 61.2-24.7 75-2.3 13.8 46 63.2 46 63.2v-0.1c1.7 3.6 4.2 8.5 6.8 11.8 4.6 5.6 8.3 6.2 8.3 6.2 1 0.5 2 1 2.8 1.2 4.3 1.1 5.6-1 4.7-2.2-0.5-0.6-3.1-2-5.7-3.6l0.4-1c2.4 1.8 5.4 3.8 7.6 4.3 4.3 1.1 5.6-1 4.7-2.1-0.9-1.1-7.5-4.4-10.5-6.7l0.7-1.7c2.5 2 6.1 4.5 8.6 5.1 4.3 1.1 5.6-0.9 4.6-2.1-1-1.2-9.2-5.2-11.3-7.6l0.6-1.5c2.4 1.9 5.7 4.1 8 4.7z"/><path class="f" d="m500.3 327.8l-49.8 23.2 15.6 100.9 4.7 46.5h107.2l2.1-50v-112.3l-48.5-7.6c0 0-4.4 9.7-13.9 11-9.5 1.3-17.4-11.7-17.4-11.7z"/><path class="f" d="m450.5 351c0 0-19.4 31.4-24.5 45.8 0 0 20.1 12 39.9 12.6 0 0 1.7-43.4-15.4-58.4z"/><path class="f" d="m580.1 336.1c0 0 24.7 22.6 35.3 33.5 0 0-15.7 16.4-35.3 28.6 0 0-9.3-41.3 0-62.1z"/><path class="i" d="m488 270.8c0 0 8.1 0 11.5-3.5"/><path class="i" d="m530.4 265c0 0-5.9-1.5-9.4 0"/><path class="j" d="m509.7 276.7c0 0 1.5 8.2 0.8 9.4-0.1 0-2.7 0.6-2 3.6 0.6 3.1 3.5 3.2 3.5 3.2"/><path class="d" d="m507.4 301.3c0 0 9-2.9 13.6 0 4.6 2.9-10.7 4.9-13.6 4.9-2.9 0-2.7-3.3 0-4.9z"/><path class="j" d="m551.5 273.2c0 0-4.7 4.3-5.8 10.8"/><path class="j" d="m550.6 282.7c0 0-0.7-3.8-2.4-5.3"/><path class="j" d="m467.8 282.5c0 0 6 3.9 7.8 10.4"/><path class="j" d="m470.3 291.5c0 0 0.1-3.4 1.4-5.5"/><path class="k" d="m457.6 360.7c0 0-0.7 31.7 1.9 48.1"/><path class="k" d="m576.4 352.3c0 0 5.3 30.9 3.5 44.7"/><path class="k" d="m498.6 338.5c0 0 7.4 7.2 18.9 6.3 11.5-0.9 15.3-6.3 15.3-6.3"/><path class="j" d="m444 468.8c0 0-6-0.3-11.5 0"/><path class="j" d="m630.1 394.2c0 0-4.1 10.3-5.2 14.6"/><path class="j" d="m661.6 335.5l3.2 5"/><path class="j" d="m669.4 327.8c0 0 10.5 0.4 14 2.7"/><path class="j" d="m473.9 504.8h98.6"/><path class="j" d="m521.7 504.8c0 0-7.3 39.6 5.6 46.3v-36.8"/><path class="j" d="m501 544c0 0 12.4 7.7 18.6 12.1"/><path class="j" d="m535.9 556.1c0 0 15.1-15.1 18.1-19.8"/><path class="j" d="m478 801.9c0 0 15.9 1.8 30.7 0"/><path class="j" d="m614.3 801.9c0 0-19 1.4-31.9 1.5"/><path class="l" d="m449.3 857.7c0 0 6.3 1.9 23.1 1.1 16.8-0.9 33.4-5.4 33.4-5.4"/><path class="l" d="m594.9 854.9c0 0 22.4 6.5 34.9 7.7 12.4 1.3 19.8-1.5 19.8-1.5"/><path class="l" d="m466.8 842.4c0 0 5 0 10 4.2"/><path class="l" d="m469.9 839.7c0 0 5 0 10 4.2"/><path class="l" d="m473.1 837c0 0 5 0 10 4.2"/><path class="l" d="m629.4 843.6c0 0-5.1 0-10.1 4.1"/><path class="l" d="m626.2 840.9c0 0-5 0-10 4.1"/><path class="l" d="m623 838.2c0 0-5 0-10 4.1"/><path class="k" d="m543.6 243.5l-7.5 3.8"/><path class="k" d="m532.9 249.1c0 0-7.9 14.2-32.9 6.9 0 0-10.8 9.9-22.7 8.7"/><path class="k" d="m538.9 271c0 0-6.7-2.8-7.9-19.5"/><path class="k" d="m469 249.1c0 0-1.6 3.8-1.2 7.3"/><path class="k" d="m473.7 256.9c0 0-0.7 2.4-1 4.3"/><path class="k" d="m541.8 253.6l1.7 3.3"/><path class="k" d="m537.5 233.1c0 0 3 2.3 3.3 4.2"/><path class="k" d="m532.2 237.3c0 0 2.1 1.4 2.8 2.4"/><path class="k" d="m501.7 251.5l3.4-3.4"/><path class="m" d="m497.4 657.1c0 11.4-7.8 20.7-17.5 20.7-2.7 0-5.3-0.8-7.6-2.1l-0.3-37c2.4-1.4 5.1-2.3 7.9-2.3 9.7 0 17.5 9.3 17.5 20.7z"/><path class="m" d="m602.2 674.5c-2.7 2.1-6 3.3-9.5 3.3-9.6 0-17.5-9.3-17.5-20.7 0-11.4 7.9-20.7 17.5-20.7q2.3 0.1 4.4 0.7z"/><path class="c" d="m890.4 133.7c-4-2.1-5.3-7.4-2.5-10.9 3.4-4.2 9.3-8.6 19.5-8.4 13 0.2 24.5 8.9 24.3 21.2-0.1 8.5-6.5 13.6-14.9 17-3 1.3-3.1 3.7-3.2 6.6 0 2.7-2.2 4.8-4.9 4.8l-4.6-0.1c-2.7-0.1-4.9-2.3-4.8-5l0.1-4.6c0-3.8 0.3-6.9 4.2-9.4 5.4-3.3 10.3-3.4 10.4-9.6 0.1-4.2-3-7.2-6.9-7.3-3.5 0-6.1 1.6-7.8 3.7-2.2 2.7-5.8 3.5-8.9 2zm25.7 45.2c-0.1 5.5-4.6 9.9-10.2 9.8-5.5-0.1-9.8-4.6-9.7-10.1 0.1-5.5 4.6-9.9 10-9.8 5.6 0.1 10 4.6 9.9 10.1z"/><path class="c" d="m970.6 170.6c-2.9-3.6-1.8-8.9 2.3-10.9 4.8-2.4 12-3.9 21.2 0.6 11.7 5.6 18.5 18.3 13.2 29.4-3.7 7.6-11.7 9.6-20.8 9.2-3.2-0.1-4.3 2-5.6 4.6-1.1 2.4-4 3.4-6.5 2.3l-4.1-2c-2.4-1.2-3.4-4.1-2.3-6.5l2-4.2c1.7-3.4 3.2-6.2 7.8-6.7 6.3-0.8 10.8 1.1 13.5-4.4 1.8-3.8 0.3-7.8-3.2-9.5-3.2-1.5-6.2-1.1-8.7 0.1-3 1.5-6.7 0.7-8.8-2zm4.3 51.9c-2.4 4.9-8.3 7-13.3 4.6-5-2.4-7-8.3-4.6-13.3 2.4-5 8.3-7 13.2-4.7 5 2.5 7.1 8.4 4.7 13.4z"/><path class="c" d="m806.7 172.1c-4.4 0.8-8.6-2.6-8.6-7.1 0.1-5.4 2.2-12.4 10.4-18.5 10.5-7.8 24.9-7.9 32.2 1.9 5.1 6.9 3.1 14.8-1.5 22.7-1.6 2.8-0.2 4.8 1.5 7.1 1.6 2.2 1.1 5.2-1 6.8l-3.7 2.7c-2.2 1.6-5.2 1.2-6.8-1l-2.8-3.7c-2.3-3-4-5.6-2.3-10 2.2-5.9 6-9 2.3-14-2.4-3.3-6.7-3.9-9.9-1.5-2.8 2.1-3.8 4.9-3.9 7.6-0.1 3.5-2.5 6.4-5.9 7zm48 20.3c3.2 4.4 2.3 10.6-2.2 13.9-4.3 3.3-10.5 2.3-13.8-2.1-3.3-4.4-2.4-10.6 2-13.9 4.5-3.3 10.7-2.4 14 2.1z"/><path class="e" d="m817.9 801.1l-2 29.5-28.6 23.6 5.5 8.1 53.6-9.5 4.3-49.8z"/><path class="f" d="m804.8 838.7c0 0 8.9 9.3 23.5 9.7 4.7 0.2 19.2-4.3 19.2-4.3 0 0 0.9 10.5-1.4 17.5-1.1 3.4-52.1 10.8-59.9 10.5-7.8-0.3-9.8-1.2-11.5-3.6-1.8-2.4-3.2-6.6 4-11.2 7.2-4.6 26.1-18.6 26.1-18.6z"/><path class="e" d="m953.4 799.1l2 29.6 28.5 23.6-5.4 8.1-53.6-9.6-4.3-49.7z"/><path class="f" d="m966.5 836.7c0 0-8.9 9.4-23.6 9.8-4.6 0.1-19.1-4.4-19.1-4.4 0 0-0.9 10.5 1.4 17.5 1.1 3.5 52.1 10.8 59.9 10.6 7.8-0.3 9.8-1.2 11.5-3.6 1.8-2.5 3.2-6.7-4-11.3-7.2-4.6-26.1-18.6-26.1-18.6z"/><path class="f" d="m826.8 481.1l-17.6 321.9h47l28.4-270.3 6.3 1.2 24.6 269.1 44.9-2-15.3-319.9z"/><path class="h" d="m945.1 439.5v-123.2c0 0-28-8.1-66.6-8.8 0 0-36-1.9-45.1 0l-7.5 132-9 53.7c0 0 51.5 9 63.6 8.1l8.7-12.5 7.3 12.5c0 0 33.3-0.6 55.8-8.1z"/><path class="e" d="m907.9 314.6c-0.1 3.8 0.2 6.7 0.2 6.7l-14.2 8.2-18-12.6c1.2-3.1 2.1-6.4 2.6-9.4q0.2-1 0.4-1.9 0.3-1.8 0.4-3.3c0.3-2.7 0.4-4.8 0.4-5.6q0.1-0.3 0-0.3l2.1 0.4 28.1 5.9c-0.5 1.2-0.9 2.5-1.1 3.8q-0.6 2.3-0.7 4.6-0.2 1.9-0.2 3.5z"/><path class="h" d="m789.3 368.8c0 0 27.7-59.3 44.1-61.3 21.2-2.6 5.5 50.9 5.5 50.9l-26.2 46.5z"/><path class="h" d="m987.1 374.9c0 0-27.6-56.9-44-58.9-21.2-2.7-5.5 50.8-5.5 50.8l26.2 42.7z"/><path class="e" d="m813.5 390.5c-3-5.6-45.7-38.9-56-46.9l-2.9-4c0 0-4.4-6.1-9.6-7.7-2.6-0.8-13.3-4.2-16.4-4.4-3.2-0.1 0 4.1 2.4 5 2.5 1 7.1 2.5 7.1 2.5l-18.9 8.4c0 0-10.8 4.1-11.8 6.9-0.9 2.9 3.5 1.1 7.5-0.5 3-1.2 6.2-2.6 7.6-3.3l0.3 0.3c-1.3 0.5-10.6 4.3-11.5 6.9-1 2.8 3.4 1.1 7.4-0.5 2.9-1.2 6-2.6 7.5-3.3l0.6 0.6c-2.1 0.8-10.4 4.3-11.3 6.8-1 2.8 3.5 1 7.5-0.6 2.7-1.1 5.5-2.4 7.1-3.1l0.5 0.5c-3 1.3-9.4 4.2-10.1 6.3-1 2.8 3.4 1.1 7.4-0.5 2.2-0.9 4.5-1.9 6.1-2.7 0 0 3.6-1.1 7.9-2.9 1.7 2.7 39.2 59.7 57 59.7 18.1 0 18.1-17.3 14.6-23.5z"/><path class="e" d="m1058.4 351.6c-1-2.8-11.7-7-11.7-7l-18.9-8.4c0 0 4.6-1.5 7.1-2.5 2.4-0.9 5.6-5.1 2.4-4.9-3.2 0.1-13.9 3.5-16.4 4.3-5.2 1.6-9.7 7.8-9.7 7.8l-1.9 2.7c-7.8 9.2-43.5 51.9-45.3 58-2.1 6.9 1.5 23.8 19.3 20 14.9-3.2 35.1-50.5 41.3-65.8 4 1.6 7.3 2.7 7.3 2.7 1.6 0.7 3.9 1.7 6 2.6 4 1.6 8.5 3.3 7.5 0.5-0.7-2.1-7.1-5-10.2-6.3l0.5-0.5c1.6 0.8 4.5 2 7.2 3.1 4 1.7 8.4 3.4 7.5 0.6-0.9-2.5-9.3-6-11.3-6.8l0.6-0.6c1.5 0.7 4.6 2.1 7.4 3.3 4 1.6 8.5 3.3 7.5 0.5-0.9-2.6-10.3-6.4-11.6-6.9l0.3-0.3c1.5 0.7 4.7 2.1 7.7 3.3 4 1.6 8.4 3.4 7.4 0.6z"/><path class="j" d="m834.3 317.6c0 0 6.9 22-0.7 50.1"/><path class="j" d="m945.1 326.2c0 0-7.8 28.1-3.9 46.5"/><path class="j" d="m831.7 439.1l5.5 3-3.6 5.6"/><path class="j" d="m942.6 443.4l-5.7 4.3"/><path class="j" d="m893.9 329.5l-4.7 159.3"/><path class="g" d="m909.9 302.7c-0.5 1.2-0.9 2.5-1.1 3.8q-0.6 2.3-0.7 4.6-0.2 1.9-0.2 3.5c-3.8 0.9-8.9 0.8-15-1.7-7.5-3-11.7-5.5-14-7.3q0.3-1.8 0.4-3.3c0.3-2.7 0.4-4.8 0.4-5.6l2.1 0.1z"/><path class="e" d="m867 240.4c0 0-3.3 30.5-2.7 41.4 0.6 10.8 16.2 23.9 28.5 27.3 10.5 2.9 29.4-8.5 34.1-16.6 4.6-8 11.3-47.4 11.3-47.4 0 0-36.2-49.5-71.2-4.7z"/><path class="e" d="m868 259.6c0 0-5.4-8.7-10.1-7.1-4.8 1.5-5.3 12.2-1.1 18.8 4.2 6.7 9.1 5.2 9.1 5.2z"/><path class="e" d="m931.3 267.4c0 0 7.6-6.9 11.7-4.1 4.1 2.8 1.7 13.2-4.2 18.4-5.8 5.2-10.1 2.4-10.1 2.4z"/><path class="f" d="m889 204.2c-14.7 3-14.5 11.6-22.5 13.6-8 1.9-11.4 6.9-12.5 12.1-1.1 5.2 0.6 5.2 2.1 5.2 1.5 0 2.4 0 2.4 0 0 0 0.2 5-0.2 11.2-0.4 6.2 2.7 7.1 2.7 7.1 0 0 6.8 4.6 7 11 0 0 3.2-0.6 4.1-4.3 0.9-3.6 1.3-17.9 1.3-17.9 0 0 9.5-0.4 15.8-4.5 0 0 2.4 2.1 8 2.1 5.6 0 22-5.4 26.6-2.6 0 0 1.7 5.4 6.7 8.9 0 0-2.1 14.7-1.8 18.3 0.2 3.7 2.2 5.9 2.2 5.9 0 0 3.4-7.1 9.3-7.7 0 0 5.2-8.1 6-15 0 0 4.4-0.2 3.9-4.8-0.4-4.5-2.1-6-3.2-10.5-1.1-4.6-4.8-9.3-7.4-9.6 0 0 2.4-3.6-9.3-11.6-11.6-8-26.5-10-41.2-6.9z"/><path class="n" d="m879.3 302.3c0 0-0.1 7.2 3.3 13.6 3 5.7 11.3 13.6 11.3 13.6 0 0-6-2.7-11.1-2.5-5 0.1-9.6 2.5-9.6 2.5l-3.5-22.1z"/><path class="n" d="m908.7 306.5c0 0-3.4 16.8-14.8 23 0 0 7.2-1.2 11.6 0 4.3 1.1 6.9 3.8 6.9 3.8 0 0 5.6-17.3 5.8-22.5z"/><path class="j" d="m858.2 257.7c0 0 4.4 3.7 6.1 11.2"/><path class="j" d="m859.9 268.1c0 0 0.3-4.1 2.4-4.8"/><path class="j" d="m940.8 268.1c0 0-6.7 3.6-8.8 10"/><path class="j" d="m936.4 277.3c0 0 1.2-1.9 0-4.2"/><path class="f" d="m888 262.3c-0.3 2.1-1.4 3.6-2.6 3.5-1.1-0.2-1.9-2-1.6-4 0.3-2 1.4-3.6 2.6-3.4 1.1 0.1 1.8 1.9 1.6 3.9z"/><path class="i" d="m879.6 250c0 0 7.7 2 11.8-0.5"/><path class="f" d="m910.6 263.9c-0.1 2.1 0.9 3.8 2 3.8 1.2 0 2.2-1.6 2.2-3.7 0-2-0.9-3.7-2-3.7-1.2-0.1-2.2 1.6-2.2 3.6z"/><path class="i" d="m920.7 252.9c0 0-7.9 0.9-11.6-2.1"/><path class="j" d="m898.8 261c0 0-0.6 8.2-1.6 9.2 0 0-2.7-0.1-2.8 3-0.2 3 2.5 3.9 2.5 3.9"/><path class="j" d="m892.9 287.1c0 0 4.9-3.2 8.4-2.6 3.4 0.6 4.7 2.6 4.7 2.6"/><path class="j" d="m738.1 335l6.5 3.4"/><path class="j" d="m721.6 345.6l9.7 8.6"/><path class="j" d="m741.9 354.3c0 0 7.8-2.8 8.6-3"/><path class="j" d="m1024.6 355.8l-5.8-1.9"/><path class="j" d="m1044.3 346.5l-9.9 9.3"/><path class="j" d="m1027.8 336.2c0 0-3.3 3.6-6.1 5.2"/><path class="k" d="m810.5 790.4h47"/><path class="k" d="m914.2 788.3l46.2-2.2"/><path class="k" d="m845.2 513.1c0 0-8.6 116.7-11.2 128.9-2.6 12.3 0 16.9 0 16.9 0 0-1.5 11.5-1.2 13.8 0.3 2.3-5.4 103.2-5.4 103.2"/><path class="k" d="m923 513.1c0 0 9.8 138.3 11 145.2 1.1 6.9 0 11.9 0 11.9 0 0-0.1 5.4 0.5 9.4 0.6 4.1 7 96.3 7 96.3"/><path class="k" d="m884.6 532.7l-13.1-12.4"/><path class="k" d="m890.9 533.9l10.5-6.1"/><path class="m" d="m845.8 360.1l27.1 2.6c0 0-0.3 30.3-16.1 30.3-15.9 0-11-32.9-11-32.9z"/><path class="k" d="m938.2 224.5l-6.2 3.6"/><path class="k" d="m868 241.7c0 0 14.7 2 21.2-4 0 0 5.3 4.2 15.1 1.1 9.8-3.2 18-2.4 19.5-1.6 0 0 3.3 8.8 9.6 9.7 6.3 0.8 7.4-1.3 7.4-1.3"/><path class="k" d="m946.1 244.1l-1.7 2.1"/><path class="k" d="m862.3 237.4c0 0 1-3.9 3-5.5"/><path class="k" d="m935.1 220.1c0 0-1.4-2.9-4.4-4.1"/><path class="k" d="m873.8 218.1c0 0 6.9-5.9 7.3-7"/><path class="k" d="m890 233.3c0 0 2.4-3.1 5.2-4.1"/><path class="c" d="m168.5 186.3c-4.6-0.6-7.6-5.2-6.2-9.5 1.8-5.2 5.9-11.4 15.7-14.7 12.5-4.3 26.5 0 30.5 11.7 2.8 8.2-1.5 15.3-8.4 21.4-2.4 2.3-1.7 4.6-0.7 7.4 0.9 2.6-0.5 5.4-3.1 6.2l-4.4 1.6c-2.6 0.9-5.4-0.5-6.3-3.1l-1.5-4.4c-1.2-3.7-2.1-6.7 0.8-10.4 4-5 8.7-6.9 6.6-12.8-1.4-4-5.3-5.8-9.1-4.5-3.4 1.1-5.2 3.6-6.1 6.2-1.2 3.2-4.4 5.3-7.8 4.9zm40.1 34.3c1.8 5.2-1 10.9-6.4 12.8-5.2 1.8-10.9-1-12.7-6.3-1.9-5.3 0.9-11 6.2-12.8 5.3-1.8 11 0.9 12.9 6.3z"/><path class="g" d="m267.9 812.8c-1.2-7.4-4.9-29.8-9.4-54.6-5.6-30.3-20.3-68.8-20.3-68.8l-32.5 25.6 39.1 105.7c-1 3.2-2.7 7.8-5 10.5-3.7 4.4-5.1 6.2-5.1 6.2 0 0 8.6 2.6 14.5 2.6 6 0 21.7-13.9 22.4-16.4 0.4-1.4-1.8-6.5-3.7-10.8z"/><path class="o" d="m237.9 833.4c0 0-2.2 2.6-9.1 8.2-6.9 5.5-9.5 9.2-9.5 11.5 0 2.3 27 3.1 32.7 1.5 5.8-1.5 22.6-18.6 24.4-22.2 1.8-3.7-6.8-15.8-6.8-15.8 0 0-3.3 7-5.6 10.5-2.3 3.4-10.9 7.2-16 8.9-11.7 4-10.1-2.6-10.1-2.6z"/><path class="o" d="m185.7 499.1c0 0-2.7 37.4-2.1 88.1 0.6 50.7 16.3 102.2 16.3 102.2l40.4-12.3-3.1-178z"/><path class="g" d="m206.2 364c0 0-18.7 35.3-24 48.9-5.3 13.6 9.4 30.8 9.4 30.8l11-10.3c0 0 6-57.6 3.6-69.4z"/><path class="h" d="m206.2 364c0 0 32.2-17.7 59.1-22.3 26.8-4.5 35.6 11.2 35.6 11.2l-18.8 104 9.4 42.2h-105.8l12.6-60c0 0-1.5-51.5 7.9-75.1z"/><path class="e" d="m201.3 270.8c0 0 0 35 1.6 44.9 1.5 9.8 12.8 18.2 24 21.7 11.2 3.5 30.8-10.1 34.2-17.9 3.5-7.8 6-46.3 6-46.3 0 0-51-27.5-65.8-2.4z"/><path class="e" d="m230.4 334c0 0 1.8 12.1-0.5 22.7l31.3-10.8 0.7-28.7z"/><path class="e" d="m260.1 293.7c0 0 5.6-10.7 12.5-7.1 6.9 3.7 3.5 17.7-1 22.5-4.5 4.8-11.2 0.4-11.2 0.4z"/><path class="g" d="m230.8 337.9c0 0 14-2.3 22.5-9.6 0 0-9.9 17.7-22.3 19.9z"/><path class="f" d="m223 264.2c0 0 4.1 8.9 15.2 17.5 11.2 8.6 19.7 9.3 19.7 9.3 0 0-3.5 10.6 2.4 14.2 0 0 2.4-20.4 10.5-19.2 8.1 1.2 4.7 25.1-7.6 24.8 0 0-3.3 7.4-1.6 16.9 0 0 24.9-18.1 28.3-43.1 3.3-24.9-14-32.4-14-32.4 0 0-6.2-12.2-26.8-16-20.7-3.7-31.4 8.1-31.4 8.1 0 0-10.3-3.4-19.3 7-9 10.4-4.3 20.9-4.3 20.9 0 0-6.7 7.4-4.2 16.2 2.6 8.7 11.8 10.7 11.8 10.7 0 0 1.7-24.5 5.6-31.2 3.9-6.7 15.7-3.7 15.7-3.7z"/><path class="j" d="m218.8 292.6c0 0 0.6 7.1-2.2 11.5-2.8 4.4 3.2 6.4 3.2 6.4"/><path class="i" d="m204.2 284.3c0 0 4.2-4.9 8.9-1.3"/><path class="i" d="m228.9 284.4c0 0 4.3 2.4 10.3 3"/><path class="j" d="m271 292.2c0 0-5.9 2.7-6.9 11.2"/><path class="e" d="m297.6 354.1c0 0 9.3 1.2 12 19.9 2.7 18.7-15.4 66.6-21.7 76.9-10.6 17.2-104.3 3-104.3 3l5.1-20.8 75.4-9.3c0 0 9.6-42 15.4-57.3 5.7-15.4 18.1-12.4 18.1-12.4z"/><path class="j" d="m268.2 301.9c0 0 0.6-2.1-1.9-4.4"/><path class="f" d="m235.1 296.3c-0.1 2-1.1 3.5-2.2 3.5-1.1-0.1-1.9-1.7-1.8-3.7 0.1-1.9 1-3.5 2.1-3.4 1.2 0 2 1.7 1.9 3.6z"/><path class="f" d="m212.4 295.2c-0.1 1.9-1.1 3.5-2.2 3.4-1.1 0-2-1.7-1.9-3.6 0.1-2 1.1-3.5 2.2-3.5 1.1 0.1 2 1.7 1.9 3.7z"/><path class="j" d="m219.2 319.4c0 0 3.8-1.6 8.9 1.5"/><path class="f" d="m295.1 251.7c0 8.5-6.9 15.5-15.5 15.5-8.5 0-15.5-7-15.5-15.5 0-8.6 7-15.5 15.5-15.5 8.6 0 15.5 6.9 15.5 15.5z"/><path class="e" d="m189.4 345.3c0 0 7.5-9.5 10.5-10.4 3-0.9 13.2 4.4 14 6 0.7 1.6-1.1 4.4-1.1 4.4 0 0-0.4 5.5-2.2 6.4-1.9 0.9-1.9 0.9-1.9 0.9 0 0-2.8 8.1-7.8 9.5 0 0-1.1 9.5-7.1 10.8l-11.6-9.8c0 0 1.5-8 7.2-17.8z"/><path class="e" d="m197.6 337.3c0 0 4.4-5.6 7.8-7.3 3.4-1.8 12.6 0.4 13.6 1.8 1 1.3-1 2.2-4.5 1.9-3.6-0.3-4.8-0.4-4.8-0.4l-2.5 4.6z"/><path class="e" d="m182.2 363.1c0 0-22 60.1-21.6 75.7 0.4 15.7 10.5 18.1 16.5 17.7 6.1-0.4 14.3-9.2 17.7-20.1 3.5-10.8 0-66.3 0-66.3z"/><path class="j" d="m265.2 426.8c0 0 5.6 5.6 8.4 12"/><path class="j" d="m188.6 372.9c0 0 3.4 2.1 6.4-0.3"/><path class="j" d="m200.9 362.1c0 0-1.8-0.8-1.2-3.1l1.6-3.5"/><path class="j" d="m202.7 349.2c0 0 5.2 1.2 6 3.4"/><path class="j" d="m205.3 342.9c0 0 4.7-0.3 7.5 2.4"/><path class="e" d="m236.3 727l-42 2.1-14.5 98.2c-4.5 2-9.5 7.8-19.9 11.9-8.2 3.1-6.2 4.5-7.9 7.8-1.8 3.2 0 6.9 0 6.9h55c2 0 3.5-1.6 3.5-3.5 0.1-5.6 0.1-16.5 0.1-22.8 1.1-4.4 5.5-21.8 11.8-43 7.4-24.7 13.9-57.6 13.9-57.6z"/><path class="f" d="m170.8 833.6c0 0 3.8 5.7 20 4.7 16.2-1 20-4.7 20-4.7 0 0 2 19.2 1.1 21.1-0.9 1.9-20.3 0.8-22.9 0.7-2.7 0-38.5 1.7-42.9 0-4.5-1.6-5.7-4.8-4.3-7 1.4-2.3 22.8-11.8 29-14.8z"/><path class="e" d="m217.8 358.2c0 0-2 5.6 16.4 5.8 18.3 0.2 44.1-18.7 44.1-18.7l-15.7-1.2-32.7 8.5z"/><path class="f" d="m279.9 303.4c0 0 1.4 21.6 12.8 28.1 0 0 11.1 0.6 14.1 11.4 3 10.9-9 18.3-9 18.3 0 0-1.1 13.1-17.1 14.7-16.1 1.6-23.8-19.7-23.8-31.4 0-11.6 14.1-37.1 23-41.1z"/><path class="f" d="m291.5 499.1c0 0 3.2 31.2-11 80-14.3 48.7-41 150-41 150h-50l26.6-200.1-3.2-29.9z"/><path class="k" d="m236.7 513.7l-20.6 15.3"/><path class="k" d="m283 502.1c0 0-1.8 42.1-10.4 75.7-8.6 33.5-39.6 142.5-39.6 142.5"/><path class="k" d="m190.7 720.3c0 0 40.4 1.1 51.2 0"/><path class="j" d="m215.8 363.1c0 0 0.3 4.2 14.1 5.1 13.7 0.9 27-4.2 27-4.2"/><path class="k" d="m221.3 257.8c0 0 7.1 26.8 36.6 33.2"/><path class="k" d="m217.7 244.3l4.4 3"/><path class="k" d="m194.1 272.2c0 0 3.1 2.5 4.9 3.2"/><path class="k" d="m267.5 244.3c0 0 13.4 8.4 18.2 18.4"/><path class="k" d="m264.1 264.3c0 0 2.5 1.6 3 4.4"/><path class="k" d="m260.1 249.9l3.3 2.5"/><path class="k" d="m278.3 308.4c0 0 1.6 13.1 5.3 19.3"/><path class="k" d="m261.6 327.7l3.3-2.8"/><path class="k" d="m274.9 315v4"/><path class="k" d="m292 349.2c0 0 5.2 4.5 5.8 12"/><path class="k" d="m285.3 363.1c0 0 0.6 2.3 0 4.3"/><path class="k" d="m266.3 345.3c0 0 0.4 5.8 2.6 9.9"/><path class="k" d="m280.1 337c0 0 2.8 2.4 3.5 3.9"/><path class="k" d="m234.2 254.6c0 0 1 5.1 3.6 6.8"/><path class="k" d="m251.1 276.9c0 0 2.1 2.3 4 3.3"/><path class="j" d="m189.5 494.9c0 0 45.7 0.2 57.2 0 11.6-0.3 37.9 0.4 37.9 0.4"/><path class="c" d="m306.4 235.7c-4.7-3.8-4.8-11-0.2-14.8 5.5-4.5 14.4-8.5 27.6-5.4 16.8 4 29.2 18.5 25.5 34.3-2.5 10.9-12.3 15.7-24.1 17.8-4.2 0.8-5.1 3.9-5.9 7.6-0.9 3.5-4.3 5.6-7.8 4.8l-5.9-1.4c-3.5-0.8-5.6-4.3-4.8-7.7l1.4-6c1.1-4.9 2.3-8.9 8.1-10.9 7.8-2.8 14.3-1.6 16.2-9.6 1.2-5.4-1.9-10.1-6.9-11.3-4.6-1.1-8.4 0.3-11.2 2.5-3.5 2.9-8.5 2.9-12 0.1zm20.5 65.8c-1.7 7-8.7 11.4-15.9 9.7-7.1-1.6-11.4-8.7-9.8-15.7 1.7-7.2 8.8-11.6 15.8-9.9 7.2 1.7 11.6 8.7 9.9 15.9z"/><path class="f" d="m1143 256.3c0 0-7.3 34.4-3 53.8 4.2 19.3 18.1 16.9 20.2 16.3 2.1-0.6 3.9-6.3 3.9-6.3 0 0 2.7 5.1 8.8 4.8 6.1-0.3 12.4-4.2 12.4-4.2 0 0 19.1 4.5 30.3 2.1 11.2-2.4 12.8-7.3 12.8-7.3 0 0 6.6 3 14.1-3.6 7.5-6.7-3-33.5-7.1-44.1-4.1-10.7-92.4-11.5-92.4-11.5z"/><path class="e" d="m1179.9 819.3l2.4 27.8 22.4-3.3v-25.4z"/><path class="e" d="m1270.9 818.4l6.4 25.1h20.2l-2.4-25.1z"/><path class="f" d="m1204.7 840.5c0 0 17.8 22.7 26.3 27.8 8.5 5.1 4.5 10 1.2 11.2-3.3 1.2-12.9 0.4-31.2 0-1.6 0-13.9-1.2-20.3-2.2-2.1-0.3-3.6-2.2-3.2-4.4l4.6-28.4 19.3-3.4z"/><path class="f" d="m1275.8 837.5l-2.9 34.6c-0.1 1.4 1 2.7 2.4 2.8 7.7 0.7 30.8 2.9 33.8 2.9 3.6 0 21.8 0 25.8-2.2 4-2.3 2.8-6.4 0-9.1-2.8-2.7-18.3-11.4-18.3-11.4l-19.7-18.4z"/><path class="h" d="m1243.2 346.5c0 0-14.8-16.2-50.6-16.2-27.2 0-50.6 19.3-50.6 19.3l19.5 91.2-9.4 42.2h105.9l-10.1-47.9c0 0 10.8-63.1-4.7-88.6z"/><path class="e" d="m1228.8 247c0 0 6.4 34.4 6.6 44.4 0.2 10-9.3 20.2-19.7 25.7-10.5 5.5-32.1-4.3-36.9-11.4-4.9-7-14.2-44.4-14.2-44.4 0 0 45.1-36.3 64.2-14.3z"/><path class="e" d="m1211.6 314.4c0 0 0.4 12.3 4.6 22.3l-32.7-5.1-5.9-28z"/><path class="e" d="m1175.1 280.2c0 0-7.4-9.6-13.5-4.8-6.2 4.8-0.3 18.1 5 22 5.3 3.9 11-1.7 11-1.7z"/><path class="g" d="m1211.9 318.4c0 0-14.2 0.2-23.9-5.5 0 0 12.9 15.7 25.6 15.6z"/><path class="f" d="m1214.7 243.1c0 0 1.7 12.1-15.4 20.2-12.7 6-15.9 12.5-15.9 12.5 0 0 3.3 12.2-6.4 15.7 0 0-6-19.6-13.8-17-7.8 2.6-0.1 25.5 11.9 23 0 0 4.6 6.7 4.6 16.4 0 0-27.7-13.4-35.5-37.3-7.8-24 7.9-34.4 7.9-34.4 0 0 3.9-13.1 23.5-20.6 19.6-7.4 41.8-2.9 52.6 5.7 10.7 8.6 8 19.8 8 19.8 0 0 7.9 6.1 7 15.1-1 9.1-9.7 12.7-9.7 12.7 0 0-6.1-23.8-11.1-29.7-5.1-5.8-7.7-2.1-7.7-2.1z"/><path class="j" d="m1215.6 271.6c0 0 0.6 7.1 4.2 10.9 3.5 3.8-2 6.9-2 6.9"/><path class="i" d="m1228.4 260.8c0 0-5-4.1-9 0.4"/><path class="i" d="m1204.1 265.4c0 0-3.8 3.1-9.6 4.8"/><path class="j" d="m1164.1 280.6c0 0 6.3 1.7 8.8 9.9"/><path class="j" d="m1168.6 289.7c0 0-1-2 1-4.7"/><path class="f" d="m1200.2 278.2c0.4 1.9 1.7 3.2 2.8 3 1-0.3 1.6-2 1.1-3.9-0.4-1.9-1.7-3.3-2.8-3-1.1 0.2-1.6 2-1.1 3.9z"/><path class="f" d="m1222.3 273c0.5 1.9 1.7 3.2 2.8 3 1.1-0.3 1.6-2 1.1-3.9-0.4-2-1.6-3.3-2.7-3-1.1 0.2-1.6 2-1.2 3.9z"/><path class="j" d="m1219.9 298c0 0-4-0.9-8.4 3.1"/><path class="e" d="m1311.9 335.1c-4.6-14.9-34.3-70.8-34.3-70.8 0 0-2.8-7.6-10.1-16.3 0 0-8.3-7.3-11.7-8.3-1.9-1.5-4.6-3.4-6.8-4-3.6-1.2-12.3 2.6-13.1 4.1-0.7 1.5 1.4 2 4.8 1.1 3.5-0.9 4.6-1.2 4.6-1.2l2.7 3.3c-2.8 1.9-5.2 4.1-5.4 4.9-0.5 1.7 1.8 4.2 1.8 4.2 0 0 1.4 5.2 3.3 5.8 1.9 0.6 1.9 0.6 1.9 0.6 0 0 4.3 7.5 9.4 8 0 0 2.3 8 7.7 9.3 1.1 9.9 5.6 46.7 9.9 59.8l-18.6 3.8c1.1 7.5 9.8 36 9.8 36 8.6-1.2 50.7-19.2 44.1-40.3z"/><path class="f" d="m1289.3 699.5c0 0-5.5-153.6-31.3-216.5h-105.9c0 0-10.8 29.6-8.5 91.3 1.9 49.6 14.3 104.4 19.1 124.1-0.5 19.3-0.4 73.5 14.2 122.2h30.8l-1.8-114.7 8.9-143.4 27 128.5h-0.2c0 0 4.2 79 28.7 129.6h27.2z"/><path class="j" d="m1273 275.1c0 0-3 2.6-6.3 0.7"/><path class="k" d="m1162.7 486.1c0 0-12.8 51.4-8.5 101.6 4.2 50.2 14.8 99.2 14.8 99.2"/><path class="j" d="m1259 266.5c0 0 1.6-1 0.6-3.2l-2.1-3.2"/><path class="j" d="m1255 254.1c0 0-4.9 2.1-5.4 4.4"/><path class="j" d="m1251.4 248.4c0 0-4.7 0.5-7 3.7"/><path class="h" d="m1224.3 335.4l36.2 1.3 9.3 38.7c0 0-14.8 8.7-27.3 8.4-18.7-0.5-18.2-48.4-18.2-48.4z"/><path class="e" d="m1185.6 496.5c0 0 2.6 1 4.9 1.6 2.2 0.6 4.8 0.7 3.8-1.8-1.1-2.5-7.2-5.6-13.4-4.7-6.2 1-8.2 1.6-8.2 1.6l-11.1 1.2-33.1-46.5 11.6-30.3-29.7-21.2c0 0-11 24.3-17.2 49.1-6.2 24.8 54.1 63.6 54.1 63.6 0 0 4.1 4.5 11.5 6 5.4 1.2 12 0.6 14.9 0.3q0.1 0 0.1 0l0.6-0.1c0.6-0.1 0.9-0.2 0.9-0.2l7.2-1.2c0 0 2.6 1 4.9 1.6 2.3 0.6 4.9 0.7 3.8-1.8-0.9-2.2-5.6-4.8-10.9-4.8l3.7-0.6c0 0 2.6 0.9 4.9 1.5 2.3 0.6 4.9 0.7 3.8-1.8-1-2.4-6.9-5.5-13-4.7l5.4-0.8c0 0 2.6 0.9 4.9 1.5 2.2 0.6 4.9 0.7 3.8-1.8-1.1-2.5-7.2-5.6-13.4-4.6-2.2 0.3-3.9 0.6-5.1 0.8v-0.2z"/><path class="h" d="m1142 349.6c0 0-24.4 18.1-33.9 48.5l35.5 22.6c0 0 15.5-22.1 20.5-38.6 5-16.5-11.5-36.3-22.1-32.5z"/><path class="e" d="m1162.2 337.5c0 0 13 8.3 34.7 7.7 21.7-0.6 27.4-9.8 27.4-9.8l-9.8-3.6-31.6-3z"/><path class="j" d="m1154.1 404c0 0 7-15 8.1-31.3"/><path class="j" d="m1242.5 351.1c0 0 10.6 22.6 9.8 31.4"/><path class="j" d="m1239.5 431.7l-23.9 5.4"/><path class="j" d="m1168.3 440.7l4.6 2.7-4.6 2.1"/><path class="j" d="m1165.1 345.2c0 0 24.8 8.5 42.1 3.9 17.4-4.6 21.2-10.3 21.2-10.3"/><path class="j" d="m1128.5 447.9c0 0-7 5.1-15.6 5.5"/><path class="j" d="m1276.6 335.6c0 0 5.5 2.6 17.8 5.8"/><path class="k" d="m1185.9 699.3c0 0 7.9 5.2 17.6 0"/><path class="k" d="m1285.4 696.3c0 0-11.5 1.5-17.2-3.6"/><path class="k" d="m1241.8 691l10.1 3.6"/><path class="k" d="m1162.7 698.4l6.3 5.8"/><path class="k" d="m1214.8 562.5c0 0 2.3-23.2 8.9-31.6 6.7-8.5 15.8-10.9 15.8-10.9"/><path class="k" d="m1177.9 870.5c0 0 12.4 1.7 29.7 2.8 17.2 1 26 0 26 0"/><path class="k" d="m1273.9 869.8c0 0 29.5 2.6 40.7 2.3 11.2-0.2 20-2.3 20-2.3"/><path class="k" d="m1185.9 820.6c0 0-21.4-75.6-16.9-107"/><path class="k" d="m1220.4 541.3c0 0 25.9 132.3 26.4 145.6"/><path class="k" d="m1251.9 701.6c0 0 3 83.9 24.9 119"/><path class="k" d="m1152.1 242.2c0 0 8.7-0.7 15.1 0"/><path class="k" d="m1213.5 238.5c0 0 3.9 9.1-3.4 17.8-7.2 8.7-22.7 8-26.7 19.5 0 0 2.4 14.7-6.4 15.7"/><path class="k" d="m1179.6 272.5c0 0 0.1-7 2.1-10.5"/><path class="k" d="m1231.4 245l4.8 2.1"/><path class="k" d="m1146.6 282.5c0 0-0.8 7 0 12.1"/><path class="k" d="m1154.9 305.4c0 0-0.4 5.5 0 7.5"/><path class="k" d="m1169.6 307.8v4.4"/><path class="k" d="m1215.6 225.7c0 0 7.1 2.3 10.3 5.9"/><path class="k" d="m1235.4 303.1l0.4 4.7"/><path class="k" d="m1154.9 254.1c0 0-1.8 5-1 9.2"/><path class="k" d="m1194.5 237.2c0 0-0.2 3.6-1.9 6.2"/><path class="k" d="m1165.8 232.3c0 0 5.2-5 11.8-6.6"/><path class="c" d="m1332.9 127.2h-80.3c-9.3 0-16.8 7.6-16.8 16.8v61.7c0 9.3 7.5 16.8 16.8 16.8h26.5l-2.7 11.7c-0.8 3.3 2.9 5.9 5.7 4l24-15.7h26.8c9.3 0 16.8-7.5 16.8-16.8v-61.7c0-9.2-7.5-16.8-16.8-16.8z"/><path class="d" d="m1274.8 155.9c-4.1-2-5.4-7.3-2.6-11 3.4-4.3 9.4-8.7 19.7-8.6 13.3 0.1 25 8.9 24.8 21.3 0 8.6-6.5 13.8-15 17.4-3 1.3-3.1 3.7-3.2 6.6 0 2.8-2.2 5-4.9 4.9h-4.7c-2.7 0-4.9-2.3-4.9-5l0.1-4.7c0-3.8 0.2-7 4.2-9.5 5.4-3.4 10.4-3.6 10.5-9.9 0-4.2-3.1-7.2-7.1-7.3-3.6 0-6.1 1.7-7.9 3.8-2.1 2.7-5.9 3.6-9 2zm26.4 45.8c-0.1 5.5-4.6 10-10.3 9.9-5.5-0.1-10-4.6-9.9-10.1 0.1-5.7 4.6-10.1 10.1-10.1 5.7 0.1 10.1 4.6 10.1 10.3z"/></svg>