<svg viewBox="0 0 32 32" id="two" xmlns="http://www.w3.org/2000/svg">
    <path opacity="0.25"
        d="M9.28649 4.04306C9.28649 4.61092 8.57885 5.30983 8.2556 4.54103C8.02846 3.9819 7.24219 4.62839 7.24219 4.04306C7.24219 3.45772 7.68774 3.75476 8.2556 3.01217C8.82347 2.26958 9.28649 3.4752 9.28649 4.04306Z"
        fill="#D89E50" />
    <path
        d="M2 14.9104C2 14.7968 2.47176 15.0501 2.60281 15.0589C3.83463 15.1725 4.76069 13.7834 5.86147 13.3116C6.96225 12.8398 8.48237 12.9709 9.41716 12.2283C10.352 11.4857 10.6402 10.0093 11.3741 8.99586C12.108 7.98244 13.4359 7.37963 13.8989 6.22643C14.3619 5.07324 13.4446 3.28228 13.9775 2.44359C14.2755 2.21329 14.6273 2.06293 14.9997 2.00678C15.1072 1.99774 15.2154 1.99774 15.3229 2.00678H16.1966C17.6555 2.00678 18.8961 3.22113 20.3289 2.69695C21.7616 2.17277 22.5828 4.57526 23.7273 5.42269C24.8718 6.27011 26.4618 6.6982 27.3354 7.8776C28.209 9.05701 28.0693 10.7169 28.5148 12.1147C28.9604 13.5125 30 14.7356 30 16.247C30 17.7584 28.8992 19.0427 28.4711 20.3531C28.0431 21.6636 28.113 23.4283 27.2917 24.5902C26.4705 25.7522 24.8456 26.1977 23.7011 27.0452C22.5566 27.8926 21.6655 29.3516 20.3463 29.8058C19.0271 30.2601 17.4895 29.6311 16.0218 29.6311C14.5541 29.6311 13.0253 30.2427 11.7061 29.8058C10.3869 29.369 9.39969 27.9275 8.26396 27.0801C7.12824 26.2327 5.49454 25.7959 4.67332 24.6252C3.85211 23.4545 3.93073 21.7859 3.49392 20.3531C3.0571 18.9203 2 17.7322 2 16.247"
        fill="#FFBA55" />
    <path opacity="0.25"
        d="M5.30204 4.69738C5.46803 5.1342 4.93511 5.57102 4.47209 5.57102C4.00906 5.57102 3.26647 5.02063 3.59845 4.69738C3.93043 4.37414 3.97412 4.61002 4.47209 4.61002C4.97006 4.61002 5.1011 4.16446 5.30204 4.69738Z"
        fill="#D89E50" />
    <path opacity="0.25"
        d="M8.85769 6.93468C9.0761 7.38023 8.71791 8.22766 9.32072 7.61611C9.52842 7.41841 9.7104 7.19533 9.86237 6.95215C9.99341 6.6027 9.64396 6.20083 9.39934 6.07852C8.98873 5.79895 8.66549 6.55028 8.85769 6.93468Z"
        fill="#D89E50" />
    <path
        d="M27.6053 12.1412C27.3982 11.735 27.2201 11.3146 27.0724 10.8832C26.7142 9.75622 26.6967 8.44577 26.2773 7.38867C26.9064 8.5244 26.8627 10.0096 27.2733 11.32C27.3691 11.5995 27.4799 11.8737 27.6053 12.1412Z"
        fill="#FFBA55" />
    <path
        d="M20.3466 17.2771L20.2155 17.347L20.0408 17.4256C20.0408 17.4955 19.9622 17.5654 19.9185 17.6353C19.7012 17.8861 19.4677 18.1225 19.2196 18.3429C19.149 18.4435 19.0904 18.552 19.0449 18.6662C18.9488 18.8846 18.6255 18.7186 18.7129 18.5002C18.8872 18.1807 19.0798 17.8715 19.2895 17.5741C19.1223 17.5817 18.9548 17.567 18.7915 17.5304C18.6936 17.7607 18.5827 17.9853 18.4595 18.2031C18.0664 18.9457 17.7082 19.234 18.2586 19.9504C18.4401 20.1632 18.5699 20.4151 18.6381 20.6863C18.7063 20.9576 18.711 21.2409 18.6517 21.5142C18.6192 21.8424 18.6544 22.1738 18.7551 22.4878C18.8558 22.8019 19.0198 23.092 19.2371 23.3401C19.5079 23.7857 20.0496 24.9563 20.6087 24.9127C20.1808 24.162 19.9075 23.3332 19.8049 22.4752C19.8049 21.6016 19.0449 20.9376 19.0012 20.0902C18.9575 19.2428 19.8748 18.5788 20.3903 18.0022C20.5266 17.8585 20.6276 17.6849 20.6852 17.4954C20.7429 17.3058 20.7555 17.1055 20.7223 16.9102C20.6204 17.0543 20.4931 17.1787 20.3466 17.2771Z"
        fill="#F2B255" />
    <path opacity="0.15"
        d="M13.2367 20.0124C13.2367 21.7597 12.5902 19.8726 10.8691 20.9297C9.35771 21.8558 7.53182 21.8733 8.65007 20.4842C9.34898 19.6106 8.99079 17.54 10.6245 18.2302C12.4154 18.9815 13.2367 18.2389 13.2367 20.0124Z"
        fill="#5B2500" />
    <path opacity="0.9"
        d="M13.2353 19.8548C13.2353 20.8507 13.0257 20.6847 12.5452 20.5362C12.5497 20.4722 12.5497 20.408 12.5452 20.344C12.5452 18.5967 11.7239 19.3131 9.92426 18.5967C9.7431 18.5127 9.54717 18.4652 9.34766 18.457C9.55733 18.0289 9.88931 17.8017 10.6057 18.1075C12.4141 18.8239 13.2353 18.0726 13.2353 19.8548Z"
        fill="#5B2500" />
    <path
        d="M12.5551 20.3537C12.5597 20.4177 12.5597 20.482 12.5551 20.5459C12.277 20.4483 11.9796 20.4188 11.6877 20.4598C11.3959 20.5009 11.1181 20.6113 10.8778 20.7818C9.35763 21.6991 7.53173 21.7079 8.64998 20.3537C8.95414 19.7454 9.19423 19.1072 9.36636 18.4492C9.56588 18.4575 9.76181 18.505 9.94296 18.589C11.7339 19.3141 12.5551 18.6065 12.5551 20.3537Z"
        fill="#5B2500" />
    <path
        d="M9.66918 19.6796C9.94611 19.528 10.2391 19.4079 10.5428 19.3215C11.3291 19.0768 10.9622 19.802 10.7874 19.9505C10.4695 20.0522 10.1732 20.2122 9.9138 20.4222C9.5294 20.7804 9.0489 19.8893 9.66918 19.6796Z"
        fill="#A54E14" />
    <path
        d="M11.7338 19.7421C11.9085 19.6722 12.0133 19.6722 12.1706 20.0042C12.3278 20.3362 11.9172 19.8644 11.7949 20.1353C11.6726 20.4061 11.4717 19.8295 11.7338 19.7421Z"
        fill="#A54E14" />
    <path
        d="M7.10256 8.64569C7.03335 8.7128 6.98073 8.79511 6.94889 8.8861C6.91704 8.97709 6.90684 9.07425 6.9191 9.16987C6.9191 9.42323 7.05888 9.70279 7.28602 9.65037C7.51317 9.59796 7.58306 9.35334 7.67916 9.29218C7.77526 9.23103 7.95872 9.18735 8.02861 9.06504C8.35186 8.54959 7.4258 8.25256 7.10256 8.64569Z"
        fill="#D89E50" />
    <path
        d="M6.36719 11.6172C6.36719 11.9491 6.65549 12.1938 6.78653 11.7919C6.91758 11.39 6.41087 11.1017 6.36719 11.6172Z"
        fill="#D89E50" />
    <path
        d="M3.74632 10.6551H3.70264C3.67312 10.6762 3.65237 10.7075 3.64432 10.7429C3.63627 10.7783 3.64148 10.8155 3.65896 10.8473C3.78126 11.1006 3.94726 11.4239 4.19187 10.9871C4.43649 10.5503 4.06083 10.2008 3.78126 10.5852C3.78306 10.599 3.7807 10.613 3.77447 10.6255C3.76825 10.6379 3.75844 10.6482 3.74632 10.6551Z"
        fill="#D89E50" />
    <path
        d="M4.0254 9.30996C4.27001 8.98671 4.0254 8.43632 3.60605 8.79451L3.3527 9.04787C3.3244 9.07718 3.30859 9.11633 3.30859 9.15707C3.30859 9.19781 3.3244 9.23696 3.3527 9.26628C3.56237 9.45848 3.78951 9.60699 4.0254 9.30996Z"
        fill="#D89E50" />
    <path
        d="M10.1849 7.32654L10.1238 7.43137C10.115 7.45384 10.115 7.47879 10.1238 7.50126C10.1234 7.54597 10.1361 7.58979 10.1605 7.62726C10.1849 7.66473 10.2198 7.69417 10.2609 7.71189C10.3019 7.72961 10.3473 7.73483 10.3912 7.72689C10.4352 7.71895 10.4759 7.6982 10.5082 7.66725C10.7091 7.46632 10.5082 7.10813 10.2373 7.26538C10.213 7.27868 10.1943 7.30043 10.1849 7.32654Z"
        fill="#D89E50" />
    <path
        d="M10.9472 4.30391C10.9171 4.3294 10.8983 4.36581 10.895 4.40513C10.8918 4.44445 10.9042 4.48346 10.9297 4.51358C10.9552 4.5437 10.9916 4.56247 11.031 4.56574C11.0703 4.56902 11.1093 4.55654 11.1394 4.53106C11.1923 4.48771 11.2318 4.43011 11.253 4.36507C11.384 3.94572 11.1481 4.11171 10.9472 4.30391Z"
        fill="#D89E50" />
    <path
        d="M6.53315 6.59427C6.45452 6.73405 6.65545 6.9612 6.83892 7.03109C6.85889 7.03923 6.8804 7.04293 6.90194 7.04191C6.92349 7.0409 6.94456 7.03521 6.96368 7.02523C6.9828 7.01526 6.99952 7.00123 7.01268 6.98414C7.02583 6.96705 7.03511 6.94729 7.03985 6.92625C7.10109 6.69982 7.08258 6.45922 6.98744 6.24482C6.97416 6.22313 6.95555 6.20522 6.93337 6.19279C6.91118 6.18036 6.88618 6.17383 6.86076 6.17383C6.83533 6.17383 6.81033 6.18036 6.78815 6.19279C6.76597 6.20522 6.74735 6.22313 6.73408 6.24482C6.65852 6.35615 6.59135 6.47296 6.53315 6.59427Z"
        fill="#D89E50" />
    <path
        d="M8.98896 6.89083C9.20737 7.33638 8.84918 8.1838 9.45199 7.57226C9.6737 7.37839 9.86771 7.15498 10.0286 6.9083C10.1509 6.56758 9.80145 6.15697 9.56556 6.03466C9.07633 5.76384 8.75308 6.50643 8.98896 6.89083Z"
        fill="#D89E50" />
    <path
        d="M7.10256 8.64569C7.03335 8.7128 6.98073 8.79511 6.94889 8.8861C6.91704 8.97709 6.90684 9.07425 6.9191 9.16987C6.9191 9.42323 7.05888 9.70279 7.28602 9.65037C7.51317 9.59796 7.58306 9.35334 7.67916 9.29218C7.77526 9.23103 7.95872 9.18735 8.02861 9.06504C8.35186 8.54959 7.4258 8.25256 7.10256 8.64569Z"
        fill="#D89E50" />
    <path
        d="M6.36719 11.6172C6.36719 11.9491 6.65549 12.1938 6.78653 11.7919C6.91758 11.39 6.41087 11.1017 6.36719 11.6172Z"
        fill="#D89E50" />
    <path
        d="M3.74632 10.6551H3.70264C3.67312 10.6762 3.65237 10.7075 3.64432 10.7429C3.63627 10.7783 3.64148 10.8155 3.65896 10.8473C3.78126 11.1006 3.94726 11.4239 4.19187 10.9871C4.43649 10.5503 4.06083 10.2008 3.78126 10.5852C3.78306 10.599 3.7807 10.613 3.77447 10.6255C3.76825 10.6379 3.75844 10.6482 3.74632 10.6551Z"
        fill="#D89E50" />
    <path
        d="M4.0254 9.30996C4.27001 8.98671 4.0254 8.43632 3.60605 8.79451L3.3527 9.04787C3.3244 9.07718 3.30859 9.11633 3.30859 9.15707C3.30859 9.19781 3.3244 9.23696 3.3527 9.26628C3.56237 9.45848 3.78951 9.60699 4.0254 9.30996Z"
        fill="#D89E50" />
    <path
        d="M10.1849 7.32654L10.1238 7.43137C10.115 7.45384 10.115 7.47879 10.1238 7.50126C10.1234 7.54597 10.1361 7.58979 10.1605 7.62726C10.1849 7.66473 10.2198 7.69417 10.2609 7.71189C10.3019 7.72961 10.3473 7.73483 10.3912 7.72689C10.4352 7.71895 10.4759 7.6982 10.5082 7.66725C10.7091 7.46632 10.5082 7.10813 10.2373 7.26538C10.213 7.27868 10.1943 7.30043 10.1849 7.32654Z"
        fill="#D89E50" />
    <path
        d="M10.9472 4.30391C10.9171 4.3294 10.8983 4.36581 10.895 4.40513C10.8918 4.44445 10.9042 4.48346 10.9297 4.51358C10.9552 4.5437 10.9916 4.56247 11.031 4.56574C11.0703 4.56902 11.1093 4.55654 11.1394 4.53106C11.1923 4.48771 11.2318 4.43011 11.253 4.36507C11.384 3.94572 11.1481 4.11171 10.9472 4.30391Z"
        fill="#D89E50" />
    <path
        d="M6.53315 6.59427C6.45452 6.73405 6.65545 6.9612 6.83892 7.03109C6.85889 7.03923 6.8804 7.04293 6.90194 7.04191C6.92349 7.0409 6.94456 7.03521 6.96368 7.02523C6.9828 7.01526 6.99952 7.00123 7.01268 6.98414C7.02583 6.96705 7.03511 6.94729 7.03985 6.92625C7.10109 6.69982 7.08258 6.45922 6.98744 6.24482C6.97416 6.22313 6.95555 6.20522 6.93337 6.19279C6.91118 6.18036 6.88618 6.17383 6.86076 6.17383C6.83533 6.17383 6.81033 6.18036 6.78815 6.19279C6.76597 6.20522 6.74735 6.22313 6.73408 6.24482C6.65852 6.35615 6.59135 6.47296 6.53315 6.59427Z"
        fill="#D89E50" />
    <path
        d="M6.59375 6.61109C6.59375 6.68972 6.68985 6.86445 6.75974 6.88192C6.82963 6.89939 6.89079 6.68972 6.88205 6.60236C6.87331 6.51499 6.88205 6.41016 6.79469 6.41016C6.70732 6.41016 6.63743 6.54994 6.59375 6.61109Z"
        fill="#F2B255" />
    <path
        d="M3.80651 10.7431C3.77557 10.7566 3.75057 10.7808 3.73611 10.8113C3.72166 10.8418 3.71874 10.8766 3.72789 10.909C3.72789 10.9789 3.78031 11.0663 3.8502 11.0488C3.92009 11.0314 3.93756 10.8741 3.93756 10.8129C3.93756 10.7518 3.93756 10.7081 3.8502 10.7343L3.80651 10.7431Z"
        fill="#F2B255" />
    <path
        d="M3.45775 9.1184C3.4369 9.14389 3.42703 9.17662 3.4303 9.20939C3.43358 9.24215 3.44974 9.27228 3.47523 9.29313C3.50071 9.31398 3.53344 9.32386 3.56621 9.32058C3.59898 9.3173 3.6291 9.30114 3.64995 9.27566C3.74605 9.19703 3.79847 8.99609 3.6849 8.99609C3.57133 8.99609 3.51891 8.99609 3.45775 9.1184Z"
        fill="#F2B255" />
    <path
        d="M7.09246 9.11719C7.08529 9.13825 7.084 9.16087 7.08874 9.18262C7.09347 9.20436 7.10405 9.2244 7.11933 9.24057C7.1346 9.25675 7.15401 9.26845 7.17544 9.27442C7.19688 9.28039 7.21954 9.2804 7.24098 9.27444C7.34581 9.19582 7.39823 9.02982 7.24098 8.95993C7.08372 8.89004 7.15361 8.99488 7.09246 9.11719Z"
        fill="#F2B255" />
    <path
        d="M9.32885 6.88094C9.308 6.90642 9.29812 6.93915 9.3014 6.97192C9.30467 7.00469 9.32083 7.03481 9.34632 7.05566C9.37181 7.07652 9.40454 7.08639 9.4373 7.08312C9.47007 7.07984 9.50019 7.06368 9.52105 7.03819C9.61715 6.95956 9.66957 6.79357 9.52105 6.72368C9.37253 6.65379 9.39 6.7761 9.32885 6.88094Z"
        fill="#F2B255" />
    <path
        d="M5.26706 4.62682C5.43306 5.0549 4.90014 5.50045 4.39343 5.50045C3.88672 5.50045 3.18781 4.94133 3.51979 4.62682C3.85178 4.31231 3.89546 4.53946 4.39343 4.53946C4.8914 4.53946 5.06613 4.05896 5.26706 4.62682Z"
        fill="#D89E50" />
    <path
        d="M5.00549 4.57581C5.1278 4.62823 5.10159 4.8379 5.00549 4.934C4.90939 5.0301 4.62109 5.06505 4.62109 4.92527C4.62109 4.78548 4.68225 4.82917 4.77835 4.73307C4.87445 4.63697 4.8395 4.49719 5.00549 4.57581Z"
        fill="#F2B255" />
    <path
        d="M9.28649 3.911C9.28649 4.47886 8.57885 5.17777 8.2556 4.40897C8.02846 3.84985 7.24219 4.47886 7.24219 3.911C7.24219 3.34314 7.68774 3.60523 8.2556 2.88011C8.82347 2.15499 9.28649 3.34314 9.28649 3.911Z"
        fill="#D89E50" />
    <path
        d="M8.50162 3.75458C8.50162 3.99046 8.20458 4.2875 8.07354 3.96425C7.94249 3.64101 7.63672 3.96425 7.63672 3.75458C7.63672 3.54491 7.82892 3.62353 8.07354 3.3265C8.31815 3.02946 8.50162 3.49249 8.50162 3.75458Z"
        fill="#F2B255" />
    <path
        d="M16.9995 9.47656C16.9995 9.47656 16.7462 12.6479 19.2185 11.3287C21.6909 10.0095 19.2185 10.3764 18.7468 10.5686C18.275 10.7608 17.7072 10.9181 17.4101 10.0968C17.349 9.92212 17.4451 9.53772 16.9995 9.47656Z"
        fill="#F2B255" />
    <path
        d="M8.98946 4.03455C8.98946 4.11317 8.98946 4.43642 8.78852 4.31411C8.58759 4.1918 8.78852 4.04328 8.78852 4.04328C8.78852 4.04328 8.91957 3.89477 8.98946 4.03455Z"
        fill="#F2B255" />
    <path opacity="0.25"
        d="M5.25686 19.9162C5.12629 20.5618 5.18081 21.2311 5.41412 21.847C5.78104 22.5459 6.35764 23.1137 6.74204 23.7952C7.02161 24.2931 7.37106 24.8523 7.65936 25.3764L8.21849 25.822C8.98728 26.4685 9.40663 27.3421 10.1317 27.9624C10.2404 28.0546 10.3574 28.1365 10.4812 28.207C10.5681 28.2202 10.6564 28.2202 10.7433 28.207C11.3024 28.1109 11.5296 27.8488 12.1149 27.9275C12.5367 27.9833 12.9522 28.0799 13.3555 28.2158L13.504 28.2594C13.4528 28.2513 13.4029 28.2366 13.3555 28.2158C13.3257 28.1899 13.3032 28.1568 13.2901 28.1196C13.2771 28.0824 13.2739 28.0424 13.281 28.0037C13.288 27.9649 13.305 27.9286 13.3303 27.8984C13.3557 27.8682 13.3884 27.8451 13.4253 27.8314C13.7814 27.7575 14.1457 27.7311 14.5087 27.7527C15.26 27.7527 16.4918 26.0841 17.1296 26.1889C17.4802 26.2239 17.8342 26.1894 18.1715 26.0875C18.5088 25.9855 18.8227 25.8181 19.0952 25.5949C19.1303 25.5679 19.1733 25.5533 19.2175 25.5533C19.2618 25.5533 19.3048 25.5679 19.3399 25.5949C19.5058 25.7172 19.5845 25.8482 19.6631 25.8569C19.5467 25.5131 19.4819 25.1539 19.4709 24.7911C19.4602 24.7325 19.463 24.6721 19.479 24.6147C19.4951 24.5573 19.5239 24.5043 19.5635 24.4597C19.6031 24.415 19.6523 24.38 19.7073 24.3572C19.7624 24.3344 19.822 24.3245 19.8815 24.3281C19.9336 24.3193 19.9867 24.3193 20.0388 24.3281H20.1523C20.659 24.5465 21.2269 25.0357 21.2706 25.5162C21.2706 25.7172 21.2094 26.0055 20.7726 26.2239H20.7202C20.6161 26.282 20.4988 26.3125 20.3795 26.3125C20.2602 26.3125 20.1429 26.282 20.0388 26.2239C19.969 26.1859 19.9092 26.132 19.864 26.0666C19.4203 26.3353 18.9487 26.555 18.4575 26.7218C17.6974 27.0626 16.9286 26.8966 16.2385 27.4208C15.6093 27.9699 14.8243 28.3089 13.9932 28.3905C14.7146 28.741 15.5186 28.886 16.3171 28.8098C17.1111 28.6124 17.8668 28.2848 18.5536 27.8401C18.7548 27.7285 18.9733 27.6518 19.2001 27.613C19.7068 26.8616 21.2094 26.5733 21.821 26.3637C22.0759 26.2831 22.2931 26.1133 22.4327 25.8853C22.5724 25.6574 22.625 25.3867 22.581 25.1231C22.6044 24.6252 22.7015 24.1335 22.8693 23.6641C22.8957 23.5462 22.8957 23.4239 22.8693 23.3059C22.3493 23.3731 21.8209 23.2976 21.3405 23.0875C21.0828 23.2303 20.8174 23.3586 20.5455 23.4719C20.1698 23.5942 19.9339 23.7952 19.5321 23.6991C19.1302 23.603 18.9205 23.271 18.5099 23.2885C18.0993 23.3059 17.5926 23.7515 17.1732 24.0747C17.0859 24.1446 16.9548 24.0136 17.0247 23.9087L17.0684 23.8301C17.1732 23.603 17.1645 23.3321 17.2519 23.0963C17.4615 22.5022 17.6275 22.4061 18.1867 22.3275C18.8943 22.2226 18.9118 21.7509 19.3923 21.3839C19.6402 21.2605 19.9107 21.1891 20.1873 21.1743C20.2659 20.7374 20.4057 20.353 20.6416 20.2395C20.7939 20.1771 20.9576 20.1474 21.1221 20.1521C21.4995 20.1237 21.8768 20.2089 22.2054 20.3967C22.7525 20.9445 23.121 21.645 23.2625 22.4061C23.299 22.5819 23.299 22.7632 23.2625 22.939C23.7867 23.4632 24.8263 23.1749 25.3592 22.8691C25.5203 22.7768 25.6598 22.651 25.7683 22.5004C25.8767 22.3497 25.9517 22.1775 25.9882 21.9955C26.0789 21.5533 26.3048 21.1503 26.6347 20.8423C26.7027 20.7819 26.7793 20.7318 26.8619 20.6938C26.7577 20.5084 26.6671 20.3157 26.591 20.1172C26.3464 19.4969 26.591 18.9727 26.3115 18.3699L26.2154 18.169C25.7873 18.169 25.499 18.1078 25.3417 17.8719C25.3384 17.8458 25.3384 17.8194 25.3417 17.7933C25.1495 17.5225 25.3417 17.0507 25.6562 16.6401C25.6562 16.5964 25.6562 16.5527 25.6562 16.5091C25.6562 15.7927 26.6347 14.5608 26.8007 14.2114C26.9783 13.8054 27.079 13.3699 27.0977 12.9271C27.1059 12.9084 27.1193 12.8925 27.1364 12.8813C27.1535 12.8702 27.1734 12.8642 27.1938 12.8642C27.2142 12.8642 27.2342 12.8702 27.2513 12.8813C27.2683 12.8925 27.2818 12.9084 27.2899 12.9271C27.3544 13.013 27.4073 13.107 27.4472 13.2067C27.5171 13.0407 27.5346 12.9359 27.3686 12.6214C26.9667 11.8264 25.9795 11.5555 25.7523 10.6208C25.6038 10.0092 25.9183 9.62481 25.4553 9.05695C25.0348 8.63639 24.5477 8.28808 24.0138 8.02606C23.079 7.42325 22.1792 6.37489 21.8909 6.63698C22.0198 6.75363 22.1263 6.89277 22.2054 7.04759C22.5758 7.68841 22.794 8.40578 22.8431 9.14431C22.8431 9.14431 22.8431 9.14431 22.8431 9.18799C22.8754 9.23376 22.9104 9.27752 22.948 9.31904C23.3417 9.63114 23.6635 10.0245 23.8915 10.4722C24.0662 10.9265 24.1711 11.3896 24.3633 11.8438C24.5039 12.1856 24.5837 12.5492 24.5991 12.9184C24.6708 12.9701 24.7279 13.0393 24.7651 13.1193C24.8034 13.2145 24.8179 13.3176 24.8072 13.4196C24.7966 13.5216 24.7611 13.6195 24.704 13.7047C24.673 13.7624 24.638 13.8179 24.5991 13.8707C24.5991 14.0629 24.5991 14.2638 24.5991 14.456C24.5946 14.4674 24.5868 14.4771 24.5766 14.4839C24.5665 14.4908 24.5546 14.4945 24.5424 14.4945C24.5301 14.4945 24.5182 14.4908 24.5081 14.4839C24.4979 14.4771 24.4901 14.4674 24.4856 14.456C24.4856 14.3162 24.4856 14.1764 24.4157 14.0454C24.1711 14.1502 23.9527 13.9231 23.7342 13.7047L23.6469 13.6173L23.577 13.5474C23.5092 13.4836 23.4556 13.4062 23.4197 13.3203C23.3717 13.257 23.3426 13.1815 23.3359 13.1023C23.3291 13.0232 23.3449 12.9438 23.3815 12.8733C23.4182 12.8029 23.474 12.7442 23.5426 12.7043C23.6113 12.6643 23.6898 12.6446 23.7692 12.6476H23.9701C23.8176 12.1117 23.6158 11.5912 23.3673 11.0925C23.2567 10.9194 23.1213 10.7634 22.9654 10.6295C22.9597 10.6222 22.9524 10.6163 22.9441 10.6123C22.9358 10.6083 22.9266 10.6062 22.9174 10.6062C22.9081 10.6062 22.899 10.6083 22.8907 10.6123C22.8824 10.6163 22.8751 10.6222 22.8693 10.6295C22.6742 11.0998 22.3576 11.5098 21.952 11.8176C21.7909 11.8804 21.6179 11.9072 21.4453 11.8963C21.1773 12.6076 20.695 13.2181 20.065 13.6435C19.8204 13.8619 19.3224 14.159 19.3136 14.5172C19.3839 14.8593 19.5236 15.1835 19.7243 15.4694C20.4581 16.9284 20.4668 18.632 19.2612 19.724C18.8506 20.091 18.5099 19.9774 18.0469 20.091C17.8893 20.1459 17.7446 20.2324 17.6214 20.345C17.4983 20.4577 17.3993 20.5941 17.3305 20.7462C16.8413 21.6198 16.6491 23.236 15.6619 23.6292L15.3386 23.7602C15.2888 23.912 15.248 24.0667 15.2163 24.2232C15.1793 24.5277 15.1589 24.8339 15.1551 25.1406C15.1551 25.173 15.1423 25.2041 15.1193 25.2271C15.0964 25.25 15.0653 25.2629 15.0328 25.2629C15.0004 25.2629 14.9693 25.25 14.9464 25.2271C14.9234 25.2041 14.9105 25.173 14.9105 25.1406C14.8176 24.8081 14.6668 24.4946 14.465 24.2145L14.3951 24.1271L13.5214 24.529C13.2041 24.6444 12.8672 24.696 12.5299 24.681C12.1926 24.666 11.8616 24.5847 11.5558 24.4417C11.5579 24.5677 11.5246 24.6918 11.4597 24.7998C11.3687 24.9582 11.2357 25.0883 11.0753 25.1755C10.8887 25.2549 10.6804 25.2669 10.4859 25.2096C10.2914 25.1522 10.123 25.029 10.0094 24.861C9.95507 24.8199 9.90528 24.773 9.86092 24.7212C9.78858 24.7328 9.71485 24.7328 9.64251 24.7212H9.55515C9.52721 24.7175 9.50106 24.7054 9.48013 24.6865C9.4592 24.6676 9.44446 24.6429 9.43784 24.6155C9.43123 24.5881 9.43305 24.5593 9.44307 24.533C9.45309 24.5066 9.47084 24.4839 9.49399 24.4679L9.73861 24.2931C9.719 24.1353 9.73468 23.975 9.78454 23.8239C9.8344 23.6728 9.91718 23.5347 10.0269 23.4195C9.76482 23.0701 9.58136 22.6507 9.31927 22.2226C8.80453 21.5486 8.10261 21.0411 7.30117 20.7637L5.25686 19.9162ZM19.9077 14.6482C19.8908 14.6185 19.8846 14.5839 19.8902 14.5502C19.8958 14.5164 19.9129 14.4857 19.9386 14.4631C19.9643 14.4405 19.9969 14.4275 20.0311 14.4262C20.0653 14.4249 20.0988 14.4354 20.1261 14.456C20.3337 14.6938 20.5751 14.8999 20.8425 15.0676C21.3143 15.3034 21.6288 15.1112 22.0918 15.2073C22.5548 15.3034 22.4849 15.4869 22.7383 15.8538C22.9917 16.2208 23.2974 16.2994 23.6644 16.5003C23.8374 16.5333 23.9986 16.6112 24.132 16.7262C24.2654 16.8412 24.3663 16.9893 24.4244 17.1555C24.459 17.302 24.459 17.4546 24.4244 17.6011C24.4961 17.944 24.45 18.3011 24.2934 18.6145C24.0487 19.0688 24.2934 19.3396 24.5118 19.9162C24.5817 20.1274 24.6142 20.3491 24.6079 20.5715C24.6171 20.6074 24.6118 20.6455 24.5929 20.6774C24.5741 20.7094 24.5433 20.7325 24.5074 20.7418C24.4715 20.7511 24.4334 20.7457 24.4014 20.7269C24.3695 20.708 24.3463 20.6773 24.337 20.6413C24.2348 20.3829 24.109 20.1343 23.9614 19.8988C23.8039 19.7419 23.6014 19.6382 23.3821 19.6022C23.1628 19.5662 22.9377 19.5996 22.7383 19.6978C21.821 19.9861 20.9124 20.1696 21.2444 18.8242C21.3169 18.6284 21.4045 18.4385 21.5065 18.2563C21.4984 18.1225 21.4984 17.9883 21.5065 17.8544C21.4628 17.7496 21.3754 17.6885 21.358 17.5312C21.3143 17.1818 21.5589 16.8498 21.489 16.5178C21.4191 16.1858 20.8687 15.8276 20.6154 15.5306C20.3627 15.2987 20.1317 15.0443 19.9252 14.7705L19.9077 14.6482ZM7.44095 23.603C7.43503 23.6229 7.42445 23.6411 7.4101 23.6561C7.39574 23.6712 7.37802 23.6826 7.35839 23.6894C7.33876 23.6962 7.31779 23.6983 7.29721 23.6954C7.27662 23.6925 7.25702 23.6848 7.24001 23.6729C7.06832 23.4637 6.93252 23.2275 6.83814 22.9739C6.72855 22.2999 6.72855 21.6125 6.83814 20.9384C6.83586 20.9132 6.84146 20.8879 6.85414 20.866C6.86683 20.8441 6.886 20.8267 6.90899 20.8162C6.93199 20.8056 6.95769 20.8025 6.98255 20.8072C7.00742 20.8118 7.03022 20.8241 7.04782 20.8423C7.90398 21.6198 7.41474 22.6594 7.44095 23.603Z"
        fill="#EAA73B" />
    <path
        d="M3.13672 16.5957C3.13672 16.5957 5.14608 19.3564 5.08492 21.5842C5.02377 23.8119 7.38258 24.7729 7.38258 24.7729C7.38258 24.7729 5.36449 23.3227 5.81004 22.021C6.2556 20.7193 3.50365 16.6743 3.13672 16.5957Z"
        fill="#F2B255" />
    <path
        d="M17.4102 3.85938C18.346 4.21597 19.3451 4.37656 20.3456 4.33114C21.3153 4.10399 21.2192 5.20477 21.8045 5.36203C22.3899 5.51928 23.1761 7.41506 24.0323 7.38011C24.8885 7.34517 24.4779 8.25376 23.2111 8.20133C21.9443 8.14891 23.0276 6.45407 21.6123 6.45407C20.1971 6.45407 21.7783 5.58917 20.3456 5.19604C19.3057 4.89996 18.3162 4.44937 17.4102 3.85938Z"
        fill="#F2B255" />
    <path
        d="M16.276 27.1585H16.3284C16.6908 27.1134 17.0393 26.9913 17.3506 26.8003L17.8136 26.5208L17.9184 26.3111C17.937 26.2599 17.9516 26.2073 17.9621 26.1538C17.9723 26.0545 17.959 25.9541 17.9232 25.8608C17.8875 25.7675 17.8304 25.6839 17.7564 25.6168C17.6825 25.5496 17.5938 25.5008 17.4975 25.4742C17.4012 25.4476 17.3 25.444 17.2021 25.4637C16.6051 25.5133 16.0175 25.6426 15.4548 25.8481L15.315 25.9267C15.1934 25.9917 15.084 26.0775 14.9918 26.18L14.9219 26.2849C15.315 26.6431 15.6383 27.1935 16.276 27.1585ZM16.4769 26.6256C16.3859 26.6091 16.3027 26.5636 16.2397 26.4959C16.1767 26.4282 16.1373 26.3419 16.1275 26.2499V26.1888C16.1799 25.9267 16.5119 25.8219 16.7827 25.7607C16.9725 25.7173 17.1696 25.7173 17.3593 25.7607C17.4511 25.7736 17.5349 25.82 17.5946 25.8909C17.6543 25.9619 17.6856 26.0524 17.6826 26.1451C17.6826 26.381 17.3593 26.5033 17.1234 26.5732L16.9312 26.6256C16.7813 26.6557 16.6269 26.6557 16.4769 26.6256Z"
        fill="#6D2F00" />
    <path
        d="M16.0317 28.0846H16.4511C16.4862 28.0695 16.5186 28.0489 16.5472 28.0235H16.5909V27.9798V27.9361C16.6684 27.8468 16.7413 27.7534 16.8093 27.6565C16.8832 27.5563 16.9504 27.4513 17.0102 27.342V27.2896V27.2285V27.176L16.5472 27.4556C16.2359 27.6465 15.8874 27.7687 15.525 27.8138H15.4726C14.8348 27.8138 14.5116 27.2984 14.1097 26.8965V26.9838C14.0912 27.0321 14.0766 27.0818 14.066 27.1324V27.2285C14.0669 27.243 14.0669 27.2576 14.066 27.2721V27.3158C14.0703 27.3419 14.0703 27.3684 14.066 27.3945C14.0613 27.4234 14.0613 27.4529 14.066 27.4818C14.0619 27.5137 14.0619 27.546 14.066 27.5779V27.6828L14.1185 27.8051L14.1621 27.8837V27.9274H14.2233H14.3281H14.5553L16.0317 28.0846Z"
        fill="#5B2500" />
    <path
        d="M17.1209 26.5462C17.3568 26.4763 17.6451 26.354 17.6801 26.1181C17.6831 26.0255 17.6518 25.9349 17.5921 25.864C17.5325 25.793 17.4486 25.7466 17.3568 25.7337C17.1671 25.6903 16.97 25.6903 16.7802 25.7337C16.5094 25.7949 16.1774 25.8997 16.125 26.1618V26.223C16.1348 26.3149 16.1742 26.4012 16.2372 26.4689C16.3002 26.5367 16.3834 26.5822 16.4745 26.5986C16.6244 26.6287 16.7788 26.6287 16.9287 26.5986L17.1209 26.5462Z"
        fill="#A54E14" />
    <path
        d="M17.0361 17.785C17.1627 17.6262 17.2523 17.4412 17.2982 17.2433C17.3266 17.1515 17.3499 17.0582 17.3681 16.9638C17.3588 16.9213 17.3441 16.8802 17.3244 16.8415C17.3273 16.8153 17.3273 16.789 17.3244 16.7628C17.2918 16.7194 17.2496 16.6842 17.2011 16.6599C17.1526 16.6357 17.0991 16.623 17.0448 16.623C16.9906 16.623 16.9371 16.6357 16.8885 16.6599C16.84 16.6842 16.7978 16.7194 16.7653 16.7628C16.5523 17.0152 16.3732 17.2942 16.2323 17.5928V17.6801C16.2194 17.7524 16.2194 17.8263 16.2323 17.8986C16.2323 17.8986 16.2323 17.9422 16.2323 17.9684C16.4682 17.9597 16.8526 18.0471 17.0361 17.785ZM16.905 17.4967C16.8651 17.5279 16.8159 17.5448 16.7653 17.5448C16.7146 17.5448 16.6654 17.5279 16.6255 17.4967C16.6255 17.4967 16.6255 17.1996 16.7128 17.0773C16.7661 16.9853 16.8374 16.9051 16.9225 16.8415C16.9618 16.8088 17.0112 16.7909 17.0623 16.7909C17.1134 16.7909 17.1628 16.8088 17.2021 16.8415C17.272 16.9463 17.2021 17.1035 17.1497 17.2259L17.0885 17.322C17.0423 17.3941 16.9794 17.454 16.905 17.4967Z"
        fill="#6D2F00" />
    <path
        d="M17.2962 18.2383V18.1859C17.3 18.1657 17.3 18.1449 17.2962 18.1247V18.0723C17.3009 18.0083 17.3009 17.9441 17.2962 17.8801C17.2962 17.8102 17.2962 17.7491 17.2525 17.6792V16.9453C17.2343 17.0397 17.211 17.133 17.1826 17.2249C17.1367 17.4227 17.0471 17.6078 16.9205 17.7665C16.6934 18.0286 16.3526 17.9413 16.0469 17.9413C16.0469 17.9413 16.0469 17.9413 16.0469 17.9937L16.0906 18.0723H16.1342H16.1867H16.2478H16.7982H16.8506H16.903L17.2962 18.2383Z"
        fill="#5B2500" />
    <path opacity="0.25"
        d="M17.2378 18.2996C17.2378 18.2996 17.2378 18.2996 17.2378 18.2297V18.0375C17.2274 17.9726 17.2128 17.9084 17.1941 17.8453V17.7405C17.1941 17.8366 17.1504 17.9327 17.1242 18.0288C17.1242 17.9327 17.1679 17.8366 17.1941 17.7405C17.1021 17.6062 17.0612 17.4434 17.0788 17.2815C17.0964 17.1196 17.1714 16.9695 17.2902 16.8581C17.2777 16.8336 17.263 16.8102 17.2465 16.7882C17.214 16.7448 17.1718 16.7096 17.1233 16.6853C17.0747 16.6611 17.0212 16.6484 16.967 16.6484C16.9127 16.6484 16.8592 16.6611 16.8107 16.6853C16.7622 16.7096 16.72 16.7448 16.6874 16.7882C16.4696 17.053 16.2902 17.3471 16.1545 17.6619V17.7405C16.1464 17.8131 16.1464 17.8863 16.1545 17.9589C16.1545 17.9589 16.1545 18.0113 16.1545 18.0288C16.1507 18.046 16.1507 18.0639 16.1545 18.0812C16.1658 18.1064 16.1805 18.1299 16.1982 18.1511H16.2419H16.2855H16.338H16.4078H16.9932H17.0456H17.1242L17.2378 18.2996ZM16.5738 17.5483C16.4952 17.426 16.5738 17.26 16.6612 17.1289C16.7029 17.0247 16.7688 16.9319 16.8534 16.8581C16.8913 16.8261 16.9392 16.8085 16.9888 16.8085C17.0384 16.8085 17.0864 16.8261 17.1242 16.8581C17.2029 16.9629 17.1242 17.1202 17.0718 17.2425L17.0194 17.3386C16.9785 17.4114 16.9217 17.4741 16.8534 17.5221C16.8158 17.5558 16.7683 17.5766 16.7179 17.5813C16.6676 17.586 16.6171 17.5744 16.5738 17.5483ZM16.7922 18.0113H16.7224H16.7922Z"
        fill="#5B2500" />
    <path
        d="M17.1307 17.226C17.1918 17.1037 17.253 16.9464 17.1831 16.8416C17.1439 16.8089 17.0944 16.791 17.0433 16.791C16.9922 16.791 16.9428 16.8089 16.9035 16.8416C16.8184 16.9053 16.7471 16.9855 16.6939 17.0775C16.6065 17.1998 16.5191 17.3745 16.6065 17.4968C16.6065 17.4968 16.6939 17.6191 16.6065 17.4968C16.6464 17.528 16.6956 17.5449 16.7463 17.5449C16.7969 17.5449 16.8461 17.528 16.8861 17.4968C16.954 17.452 17.0108 17.3923 17.0521 17.3221L17.1307 17.226Z"
        fill="#A54E14" />
    <path opacity="0.25"
        d="M20.0145 9.71311H19.9359H19.8835H19.8311L19.6738 9.87036L19.5952 9.93152L19.4729 10.1237L19.3942 10.2111L19.3156 10.3072V10.3596L19.2632 10.4295C19.245 10.4649 19.2214 10.4974 19.1933 10.5256L19.1234 10.6392L19.071 10.7178L19.0273 10.7877L18.9749 10.8838C19.1708 10.7595 19.3981 10.6935 19.6301 10.6935C19.8622 10.6935 20.0894 10.7595 20.2853 10.8838C20.0894 10.7595 19.8622 10.6935 19.6301 10.6935C19.3981 10.6935 19.1708 10.7595 18.9749 10.8838L18.905 10.9886C18.7961 11.1667 18.7026 11.3538 18.6254 11.5477C18.6212 11.5679 18.6212 11.5887 18.6254 11.6089C18.6076 11.7871 18.645 11.9665 18.7325 12.1228C18.82 12.279 18.9534 12.4046 19.1147 12.4825C20.2591 13.0591 21.6307 13.5484 22.1724 13.1203C22.2301 13.0753 22.2777 13.0188 22.3122 12.9543C22.3914 12.7917 22.4217 12.6096 22.3995 12.4301C22.4068 12.3487 22.4068 12.2669 22.3995 12.1855V12.0457C22.3995 11.9933 22.3995 11.9409 22.3559 11.8885C22.3361 11.8436 22.3215 11.7968 22.3122 11.7487L22.2598 11.5914C22.2447 11.5399 22.2242 11.4901 22.1986 11.4429C22.173 11.3988 22.1525 11.3519 22.1374 11.3031C21.954 10.9013 21.8317 10.5256 21.6919 10.2198C21.6485 10.1218 21.5959 10.0282 21.5346 9.94025C21.5105 9.8988 21.4811 9.86063 21.4473 9.82668C21.3442 9.69511 21.1994 9.60265 21.0367 9.56459C20.9268 9.54618 20.8146 9.54618 20.7047 9.56459C20.4658 9.55538 20.2285 9.60645 20.0145 9.71311ZM19.0273 12.4301C18.9779 12.35 18.9506 12.2581 18.9482 12.164C18.9458 12.0699 18.9684 11.9768 19.0137 11.8942C19.059 11.8117 19.1253 11.7426 19.206 11.694C19.2866 11.6454 19.3787 11.6191 19.4729 11.6176C19.5555 11.6051 19.64 11.6155 19.7171 11.6479C19.7942 11.6803 19.8608 11.7333 19.9097 11.8011L19.9534 11.8622C19.9885 11.9254 20.0149 11.993 20.032 12.0632C20.032 12.1768 20.3814 12.5 20.329 12.6136C20.1194 13.0242 19.237 12.7271 19.0273 12.4301Z"
        fill="#5B2500" />
    <path
        d="M21.8659 13.2076C21.9518 13.0471 21.9854 12.8639 21.962 12.6834C21.7462 12.7529 21.5139 12.7529 21.2981 12.6834L21.167 12.631C21.0795 12.5858 20.9999 12.5268 20.9311 12.4562C20.5205 12.0631 20.3458 11.338 19.8478 11.0497C19.6519 10.9254 19.4247 10.8594 19.1926 10.8594C18.9606 10.8594 18.7333 10.9254 18.5374 11.0497L18.4762 11.1545C18.3663 11.3335 18.27 11.5203 18.1879 11.7137C18.1922 11.7338 18.1922 11.7546 18.1879 11.7748C18.1701 11.953 18.2075 12.1324 18.295 12.2887C18.3825 12.4449 18.5159 12.5705 18.6772 12.6484C19.8216 13.225 21.1932 13.7143 21.7349 13.2862C21.7829 13.2681 21.8273 13.2414 21.8659 13.2076ZM18.8519 12.43C18.8093 12.3518 18.787 12.2642 18.787 12.1752C18.787 12.0862 18.8093 11.9985 18.8519 11.9204C18.8945 11.8422 18.9559 11.7759 19.0307 11.7276C19.1055 11.6792 19.1912 11.6504 19.28 11.6438C19.3639 11.6305 19.4499 11.6406 19.5285 11.673C19.6071 11.7053 19.6753 11.7587 19.7255 11.8272V11.8884C19.7635 11.9512 19.7929 12.0187 19.8129 12.0893C19.8129 12.2029 20.1536 12.5261 20.1012 12.6397C19.9439 13.0241 19.0616 12.7271 18.8519 12.43Z"
        fill="#6D2F00" />
    <path
        d="M19.8319 9.71211H19.762H19.7096H19.6484L19.4737 9.86937L19.3951 9.93052L19.3426 9.99168C19.3147 10.0167 19.2911 10.0463 19.2728 10.079L19.1854 10.1751L19.133 10.2276L19.0806 10.2974C19.0595 10.331 19.0361 10.3631 19.0107 10.3935L18.9408 10.5071V10.5857L18.8971 10.6556L18.8359 10.7517C19.0319 10.6274 19.2591 10.5614 19.4912 10.5614C19.7232 10.5614 19.9505 10.6274 20.1464 10.7517C20.6444 11.04 20.8191 11.7652 21.2297 12.1583C21.2984 12.2288 21.3781 12.2878 21.4656 12.333L21.5966 12.3854C21.8125 12.4549 22.0447 12.4549 22.2606 12.3854C22.2606 12.3155 22.2606 12.2282 22.2606 12.1408C22.2656 12.0944 22.2656 12.0475 22.2606 12.001C22.2501 11.9476 22.2355 11.895 22.2169 11.8438C22.2195 11.7972 22.2195 11.7506 22.2169 11.704L22.1557 11.5467C22.1557 11.4943 22.1121 11.4419 22.0946 11.3982L22.0334 11.2584C21.85 10.8566 21.7364 10.4809 21.5879 10.1751C21.5474 10.0775 21.4976 9.98385 21.4394 9.89558L21.352 9.782C21.244 9.65181 21.097 9.5599 20.9327 9.51991C20.8228 9.50117 20.7105 9.50117 20.6007 9.51991C20.4945 9.5227 20.3891 9.53736 20.2862 9.5636L19.8319 9.71211Z"
        fill="#5B2500" />
    <path
        d="M19.2703 11.6166C19.1815 11.6233 19.0958 11.6521 19.0211 11.7004C18.9463 11.7487 18.8848 11.815 18.8422 11.8932C18.7996 11.9714 18.7773 12.059 18.7773 12.148C18.7773 12.2371 18.7997 12.3247 18.8422 12.4029C19.0519 12.6999 19.9343 12.9969 20.1177 12.6038C20.1702 12.4902 19.8557 12.167 19.8294 12.0534C19.8094 11.9828 19.78 11.9152 19.7421 11.8525V11.7913C19.6886 11.7198 19.6157 11.6653 19.532 11.6343C19.4483 11.6033 19.3574 11.5971 19.2703 11.6166Z"
        fill="#A54E14" />
    <path opacity="0.25"
        d="M11.8633 24.0479V24.1003V24.1614V24.2226C11.8735 24.1619 11.9013 24.1056 11.9432 24.0605C11.9852 24.0155 12.0394 23.9838 12.0992 23.9692C12.0394 23.9838 11.9852 24.0155 11.9432 24.0605C11.9013 24.1056 11.8735 24.1619 11.8633 24.2226C11.8778 24.2759 11.8953 24.3284 11.9157 24.3798C11.9452 24.4168 11.9851 24.4441 12.0303 24.4581C12.0755 24.4722 12.1238 24.4723 12.1691 24.4585C12.4923 24.3536 12.8418 24.1876 12.8592 24.0042V23.9518C12.8443 23.9048 12.8134 23.8646 12.7719 23.8382C12.7665 23.8278 12.7591 23.8185 12.7501 23.811C12.7411 23.8035 12.7307 23.7979 12.7194 23.7945H12.6583L12.37 23.6722H12.2914C12.251 23.664 12.2094 23.664 12.1691 23.6722L12.0992 23.7333L11.8633 24.0479ZM12.1865 24.738C12.0817 24.738 12.0642 24.5895 12.1254 24.5109C12.1388 24.4943 12.1564 24.4816 12.1763 24.4739C12.1963 24.4663 12.2178 24.4639 12.2389 24.4672H12.2914C12.2914 24.4672 12.4399 24.4672 12.4486 24.5109C12.4574 24.5546 12.2739 24.7206 12.1865 24.7206V24.738Z"
        fill="#5B2500" />
    <path
        d="M12.8613 24.3538C12.8453 24.3098 12.8182 24.2707 12.7827 24.2402C12.7592 24.2974 12.7157 24.344 12.6603 24.3713H12.5905C12.4332 24.3713 12.2672 24.2752 12.1187 24.3101C12.0589 24.3247 12.0047 24.3564 11.9628 24.4014C11.9208 24.4465 11.893 24.5028 11.8828 24.5635C11.8957 24.6173 11.9133 24.6699 11.9352 24.7207C11.9661 24.7585 12.0076 24.7861 12.0543 24.8001C12.101 24.8141 12.1508 24.8139 12.1973 24.7994C12.5118 24.6858 12.8613 24.5285 12.8788 24.3451C12.87 24.3975 12.8613 24.38 12.8613 24.3538ZM12.1536 24.7731C12.0488 24.7731 12.0401 24.6246 12.0925 24.546C12.1045 24.5278 12.1219 24.5138 12.1423 24.506C12.1626 24.4982 12.1849 24.4969 12.2061 24.5023H12.2585C12.2585 24.5023 12.407 24.5023 12.4157 24.5023C12.4245 24.5023 12.2497 24.7906 12.1536 24.7731Z"
        fill="#6D2F00" />
    <path
        d="M11.8281 24.0831V24.1355V24.2054V24.319C11.8383 24.2583 11.8661 24.202 11.9081 24.1569C11.95 24.1119 12.0042 24.0802 12.064 24.0656C12.2125 24.0656 12.3785 24.1355 12.5358 24.1268H12.6057C12.661 24.0995 12.7045 24.0529 12.728 23.9957H12.6756H12.6319H12.4834L12.1951 23.8734H12.1164C12.0742 23.8573 12.0276 23.8573 11.9854 23.8734L11.9242 23.9346L11.8718 23.9957L11.8281 24.0831Z"
        fill="#5B2500" />
    <path
        d="M12.0801 24.5458C12.0277 24.6244 12.0801 24.7554 12.1412 24.7729C12.2373 24.7729 12.4558 24.6855 12.4121 24.572C12.3684 24.4584 12.281 24.572 12.2548 24.572H12.2024C12.1875 24.555 12.1676 24.5433 12.1456 24.5386C12.1236 24.5339 12.1006 24.5364 12.0801 24.5458Z"
        fill="#A54E14" />
    <path opacity="0.25"
        d="M24.8898 19.601V19.5486L24.0161 18.1071C23.8847 17.8777 23.6784 17.7005 23.4319 17.6051C23.1854 17.5097 22.9136 17.5018 22.662 17.5829C22.3867 17.6714 22.1535 17.8579 22.0068 18.1071L21.1331 19.601C21.0063 19.8095 20.9562 20.0557 20.9915 20.2972C21.0267 20.5387 21.1451 20.7604 21.3263 20.9239C21.5074 21.0875 21.74 21.1827 21.9838 21.1932C22.2276 21.2037 22.4675 21.1287 22.662 20.9813L22.8367 20.859C23.3848 20.5128 24.008 20.3031 24.6539 20.2475C25.0295 20.2038 25.1606 20.064 24.8898 19.601Z"
        fill="#5B2500" />
    <path
        d="M24.8898 19.4799V19.4275L24.0161 17.986C23.8847 17.7567 23.6784 17.5794 23.4319 17.484C23.1854 17.3886 22.9136 17.3807 22.662 17.4618C22.3867 17.5503 22.1535 17.7368 22.0068 17.986L21.1331 19.4799C21.0063 19.6884 20.9562 19.9347 20.9915 20.1761C21.0267 20.4176 21.1451 20.6393 21.3263 20.8028C21.5074 20.9664 21.74 21.0616 21.9838 21.0721C22.2276 21.0826 22.4675 21.0076 22.662 20.8602L22.8367 20.7379C23.3995 20.37 24.045 20.1478 24.715 20.0915C25.0295 20.0478 25.1606 19.908 24.8898 19.4799Z"
        fill="#5B2500" />
    <path opacity="0.15"
        d="M24.8735 19.4092C24.4966 19.5045 24.139 19.6641 23.8164 19.8809L23.6417 20.0032C23.4872 20.1112 23.307 20.1767 23.1192 20.193C22.9314 20.2094 22.7427 20.1761 22.5718 20.0964C22.401 20.0168 22.2541 19.8936 22.1459 19.7392C22.0378 19.5848 21.9721 19.4047 21.9555 19.217C21.9413 19.0038 21.9899 18.7912 22.0953 18.6054L22.7942 17.3911C23.0302 17.3397 23.2764 17.3654 23.4966 17.4645C23.7168 17.5636 23.8993 17.7308 24.0173 17.9414L24.891 19.3829L24.8735 19.4092Z"
        fill="#606060" />
    <path
        d="M22.7652 19.7938C22.8192 19.8111 22.8773 19.8111 22.9312 19.7938C22.9783 19.7763 23.02 19.7469 23.0522 19.7083C23.0844 19.6698 23.106 19.6236 23.1148 19.5741C23.1236 19.5247 23.1194 19.4738 23.1025 19.4265C23.0857 19.3793 23.0567 19.3372 23.0186 19.3045C22.8897 19.1869 22.7908 19.0401 22.7303 18.8765C22.7303 18.7891 22.6429 18.7629 22.5468 18.8765C22.4856 18.9457 22.442 19.0287 22.4196 19.1184C22.3971 19.2081 22.3966 19.3018 22.418 19.3918C22.4394 19.4817 22.4822 19.5652 22.5426 19.6351C22.603 19.7051 22.6794 19.7595 22.7652 19.7938Z"
        fill="#A54E14" />
    <path opacity="0.25"
        d="M13.6736 12.2373L12.7126 12.7964C12.5647 12.8816 12.4498 13.0142 12.3864 13.1726C12.323 13.3311 12.3148 13.5063 12.3631 13.67C12.4182 13.8556 12.5436 14.0124 12.7126 14.1068L13.7085 14.6834C13.8303 14.7546 13.9693 14.7909 14.1104 14.7883C14.236 14.7775 14.3566 14.7338 14.46 14.6615C14.5633 14.5893 14.6457 14.491 14.6989 14.3766C14.7521 14.2623 14.7742 14.1359 14.7629 14.0103C14.7516 13.8847 14.7073 13.7643 14.6346 13.6613L14.5559 13.5477C14.3207 13.1832 14.1796 12.7659 14.1453 12.3334C14.0754 12.1499 13.9881 12.0538 13.6736 12.2373Z"
        fill="#5B2500" />
    <path
        d="M13.5681 12.2373L12.6071 12.7964C12.4592 12.8816 12.3443 13.0142 12.2809 13.1726C12.2175 13.3311 12.2093 13.5063 12.2576 13.67C12.3127 13.8556 12.4381 14.0124 12.6071 14.1068L13.603 14.6834C13.7248 14.7546 13.8639 14.7909 14.0049 14.7883C14.1306 14.7775 14.2512 14.7338 14.3545 14.6615C14.4578 14.5893 14.5403 14.491 14.5934 14.3766C14.6466 14.2623 14.6687 14.1359 14.6574 14.0103C14.6461 13.8847 14.6018 13.7643 14.5291 13.6613L14.4505 13.5477C14.2152 13.1832 14.0741 12.7659 14.0399 12.3334C13.97 12.1499 13.8826 12.0538 13.5681 12.2373Z"
        fill="#5B2500" />
    <path opacity="0.15"
        d="M13.5496 12.2461C13.6112 12.4974 13.7146 12.7366 13.8553 12.9537L13.9427 13.076C14.0154 13.1791 14.0597 13.2995 14.071 13.4251C14.0823 13.5507 14.0602 13.677 14.007 13.7914C13.9539 13.9057 13.8714 14.004 13.7681 14.0763C13.6647 14.1486 13.5442 14.1923 13.4185 14.203C13.2777 14.2035 13.1392 14.1674 13.0166 14.0982L12.2042 13.6264C12.1706 13.4696 12.1881 13.3061 12.2541 13.1599C12.3201 13.0137 12.4312 12.8925 12.5711 12.814L13.5321 12.2548L13.5496 12.2461Z"
        fill="#606060" />
    <path
        d="M13.8022 13.6518C13.8111 13.6174 13.8111 13.5813 13.8022 13.547C13.7906 13.516 13.7713 13.4885 13.746 13.4671C13.7207 13.4458 13.6903 13.4314 13.6578 13.4252C13.6253 13.4191 13.5917 13.4214 13.5604 13.432C13.5291 13.4426 13.501 13.4612 13.4789 13.4858C13.3981 13.5703 13.2997 13.6359 13.1906 13.678C13.1382 13.678 13.1207 13.7304 13.1906 13.8003C13.237 13.8411 13.2925 13.87 13.3525 13.8848C13.4124 13.8995 13.475 13.8996 13.535 13.885C13.595 13.8705 13.6506 13.8417 13.6971 13.8011C13.7436 13.7605 13.7796 13.7093 13.8022 13.6518Z"
        fill="#A54E14" />
</svg>