<svg viewBox="0 0 48 36" id="newsletter" xmlns="http://www.w3.org/2000/svg">
    <path d="M44 0H4.00003C1.79391 0 0 1.79391 0 4.00003V32.0001C0 34.2061 1.79391 36 4.00003 36H44.0001C46.2061 36 48 34.2061 48 32V4.00003C48 1.79391 46.2061 0 44 0ZM4.00003 1.99997H44.0001C44.1474 1.99997 44.2773 2.05369 44.4156 2.08406C40.9525 5.25347 29.4697 15.7583 25.4513 19.3789C25.1368 19.6621 24.63 20 24.0001 20C23.3702 20 22.8634 19.6621 22.5479 19.3779C18.5299 15.758 7.04634 5.25253 3.58388 2.08425C3.72244 2.05388 3.85256 1.99997 4.00003 1.99997ZM1.99997 32V4.00003C1.99997 3.80409 2.05903 3.62634 2.11191 3.44728C4.76241 5.87316 12.7747 13.2029 17.9699 17.9272C12.7915 22.3754 4.77722 29.9737 2.10562 32.5212C2.05847 32.3512 1.99997 32.1848 1.99997 32ZM44 34H4.00003C3.84028 34 3.69825 33.9443 3.54909 33.9087C6.30975 31.277 14.3751 23.635 19.4624 19.2829C20.1256 19.8845 20.7314 20.433 21.209 20.8633C22.0332 21.6075 22.998 22 24 22C25.002 22 25.9668 21.6074 26.79 20.8643C27.2678 20.4338 27.874 19.8847 28.5376 19.2829C33.6252 23.6346 41.6894 31.2759 44.4509 33.9087C44.3018 33.9443 44.1599 34 44 34ZM46 32C46 32.1847 45.9415 32.3512 45.8945 32.5212C43.2218 29.9723 35.2085 22.3749 30.0302 17.9273C35.2256 13.203 43.2367 5.87391 45.8881 3.44709C45.941 3.62616 46 3.804 46 3.99994V32Z" />
</svg>
